<?xml version="1.0" encoding="utf-8"?>
<!-- Generator: Adobe Illustrator 26.5.0, SVG Export Plug-In . SVG Version: 6.00 Build 0)  -->
<svg version="1.1" id="Layer_1" xmlns="http://www.w3.org/2000/svg" xmlns:xlink="http://www.w3.org/1999/xlink" x="0px" y="0px"
	 viewBox="0 0 1280 1024" style="enable-background:new 0 0 1280 1024;" xml:space="preserve">
<style type="text/css">
	.st0{clip-path:url(#SVGID_00000035516725753246992610000012288951890775390359_);fill:#FFFFFF;}
	.st1{clip-path:url(#SVGID_00000008871859544798415760000001346789892608557703_);fill:#F9F9F9;}
	.st2{clip-path:url(#SVGID_00000018939521130923219200000017432238258877272203_);fill:#D2D0D0;}
	.st3{clip-path:url(#SVGID_00000101075959714051685250000001483232036558940059_);fill:#D9D9D9;}
	.st4{fill:#231F20;}
	.st5{fill:#FFFFFF;}
	.st6{fill:#282828;}
	.st7{font-family:'Montserrat-Bold';}
	.st8{font-size:34.1927px;}
	.st9{font-family:'Montserrat-Light';}
	.st10{font-size:26.0516px;}
	.st11{font-family:'Montserrat-Black';}
	.st12{font-size:30.1221px;}
	.st13{fill:none;stroke:#282828;stroke-width:6.3555;stroke-miterlimit:10;}
</style>
<g>
	<g>
		<defs>
			<rect id="SVGID_1_" x="-365.5" y="-12.1" width="2011" height="1052.6"/>
		</defs>
		<clipPath id="SVGID_00000101062269711275609230000005698950565369918876_">
			<use xlink:href="#SVGID_1_"  style="overflow:visible;"/>
		</clipPath>
		<path style="clip-path:url(#SVGID_00000101062269711275609230000005698950565369918876_);fill:#FFFFFF;" d="M324.7,270.4
			l130.5,121.3L773.7,95.7l56.4,52.5L511.8,444.2l131.5,122.1l-0.4,0.4L483.5,714.4c3.1-2.4,5.7-5.4,8.4-8.3
			c33.1-34.4,52-76.6,56.4-119.6c1.3-13.3,1.3-27,0-40.1c-4.9-45.9-25.6-90.6-63-125.8c-0.8-0.8-1.3-1.3-1.8-2.1
			c-0.8-0.8-1.3-1.3-2.2-1.7c-88.2-79.9-229.3-79.5-316.6,1.7c-82.4,76.6-87.8,198.2-15.4,280.2c4.9,5.4,9.7,10.7,15.4,15.7
			c5.3,5,11,10,16.8,14.1c85.5,64.9,210,62.5,292.9-6.6c3.1-2.4,6.2-5,8.8-7.9l-159.3,148l-0.4-0.4l-0.8-0.8L5,565.9l0.8-0.8
			L324.7,270.4z M1442.3,415.2c86.5-81.5,86.1-213.2-1.3-294.7l159.2,148.1l-159.3,147.7C1441.5,416.1,1441.9,415.7,1442.3,415.2z
			 M1440.5,416.8l-159.3,148.1l-159.2-148.1c87.8,81.1,229.3,81.5,317.6,1.3C1439.7,417.2,1440.1,417.2,1440.5,416.8z M1122.1,120.6
			c-88.2,81.9-88.2,214.3,0,295.9L962.9,268.3l185.3-171.8l132.3-122.9l1.3-1.3l1.3,1.3l107.6,100.6l49.9,46.4
			C1352.8,39,1210,39,1122.1,120.6z M5,565.5l-0.8,0.8h-373.1V322.5l56-52.1L5,565.5z M1657.5,215.3v53.4h-57.3L1657.5,215.3z
			 M6.3,268.7H143L6.3,395.8l-136.7-127.1H6.3z M1099.2,566.2l-136.8,127l-136.8-127h136.8H1099.2z M1543.3,810.1l56,52.1l0.4,0.4
			l-318.4,295.9l-56.4-52.1L1543.3,810.1z M1411.5,687.9l56.4,52.5l-318.4,295.9l-56.4-52.5L1411.5,687.9z M962.5,862.1l318.4-295.5
			l56.4,52.1l-318.9,295.9l-56.4-52.5L962.5,862.1L962.5,862.1z M-256.6,214.5L-313,267l-56-52.1v-0.4V110.2L-256.6,214.5z
			 M-181.5,144.5L-365.5-26h112.9l127.5,118.4l0.4,0.4L-181.5,144.5z M-15.7-7l-34.9,30.2L-103.5-26H2.3l1.8-1.7L5-26.8L4.2-26
			L-15.7-7z M587.6,513.7l318.9-295.9l56,52.1l-318.4,296L587.6,513.7z M381.2,322.5l319-295.9L643.7-26L324.7,270L381.2,322.5z"/>
	</g>
	<g>
		<defs>
			<rect id="SVGID_00000149345083746916063370000011183346290644684208_" x="-365.5" y="-12.1" width="2011" height="1052.6"/>
		</defs>
		<clipPath id="SVGID_00000098211968228612950350000005635704827741863559_">
			<use xlink:href="#SVGID_00000149345083746916063370000011183346290644684208_"  style="overflow:visible;"/>
		</clipPath>
		<path style="clip-path:url(#SVGID_00000098211968228612950350000005635704827741863559_);fill:#F9F9F9;" d="M182.3,728.5
			c-5.7-4.6-11.5-9.1-16.8-14.1c-5.3-5-10.6-10.4-15.4-15.7C77.8,616.3,82.7,495,165.5,418.4L484,713.9l0.4,0.4
			c-3.1,2.4-5.7,5.4-8.8,7.9C392.6,791.4,267.8,793.5,182.3,728.5z M1657.5,915.5v243h-375.3l318.4-295.9L1657.5,915.5z
			 M1092.6,983.9l56.4,52.5l131.5,122.1H643.1l318.4-295.9L1092.6,983.9z M-369,915.5l56.9-52.9L6.3,1158.1l318.4-295.5l318.4,295.9
			H6.3l-0.4,0.4l-0.4-0.4h-374.9v-243H-369z M324.7,862.1l159.7-147.7l159.3-147.7l318.4,295.9l-318.9,295.9L324.7,862.1z
			 M1281.4,564.6l159.3-148.1c-0.4,0.4-0.8,0.8-1.3,1.3c-88.2,80.3-229.8,80.3-317.6-1.3c-88.2-81.9-88.2-214.3,0-295.9l318.9,295.9
			l159.6-147.8l57.3,53.4v485.4l-57.3,53.4L1281.4,564.6z M142.6,268.7H5.9h-136.7l136.7-127L142.6,268.7z M324.7,270l-0.8-0.8
			L5.9-26.4l0.8-0.8l0.8,0.8h636L324.7,270z M5.9,1156.8l-318-295.1l-0.8-0.8L3.6,566.6l0.8-0.8l0.8-0.8l0.8,0.8l-0.8,0.8
			l317.6,295.1L5.9,1156.8z M1600.2,268.7l-159.3-148.1l-50.3-46.8l44.1,41c41.9-38.9,63-89.8,63.6-140.7h159.3v229.3
			C1641.3,226.5,1621.9,248.4,1600.2,268.7z M1099.2,566.2H962.4H825.6l136.8-127L1099.2,566.2z M1147.7,96.9L1280-26h-215.2H830.6
			c0.4,106.7,44.6,213.2,131.9,294.7L1147.7,96.9z"/>
	</g>
	<g>
		<defs>
			<rect id="SVGID_00000053545720581400070270000005149613303665647529_" x="-365.5" y="-12.1" width="2011" height="1052.6"/>
		</defs>
		<clipPath id="SVGID_00000170999648043796850370000001821434754862911635_">
			<use xlink:href="#SVGID_00000053545720581400070270000005149613303665647529_"  style="overflow:visible;"/>
		</clipPath>
		<path style="clip-path:url(#SVGID_00000170999648043796850370000001821434754862911635_);fill:#D2D0D0;" d="M482.2,416.5
			c0.8,0.4,1.3,1.3,2.2,1.7c0.8,0.8,1.3,1.3,1.8,2.1c37,35.5,58.3,80.3,63,125.8c1.3,13.3,1.3,27,0,40.1c-0.4,3.7-0.8,7.4-1.3,11.1
			c-6.2,39.4-24.7,77.4-55.2,108.9c-2.7,2.9-5.3,5.4-8.4,8.3l-0.4-0.4l-318.4-296C252.9,337.5,394,336.6,482.2,416.5z M1451.6,131.3
			c1.8,1.7,3.1,3.3,4.9,5.4c0.8,0.8,1.3,1.7,2.2,2.9c1.8,1.7,3.1,3.7,4.5,5.4c0.4,0.8,0.8,1.3,1.8,2.1c1.8,2.1,3.1,4.1,4.9,6.6
			c0.4,0.8,0.8,1.7,1.8,2.4c1.3,2.1,3.1,4.1,4.5,6.3c0,0.4,0.4,0.8,0.4,1.3c1.3,2.4,3.1,5,4.5,7.4c0.4,0.4,0.4,0.8,0.8,1.3
			c1.3,2.4,3.1,5.4,4.5,7.9c0.4,0.8,0.4,1.3,0.8,2.1c1.3,2.4,2.2,5,3.5,7c0.4,0.4,0.4,0.8,0.4,1.7c1.3,2.4,2.2,5.4,3.1,7.9
			c0,0.4,0,0.4,0.4,0.8c3.5,9.5,6.2,18.7,8.4,28.5c0,0.4,0,1.3,0.4,1.7c8,38.5,3.9,78.6-11.5,115c0,0.4-0.4,0.8-0.4,1.3
			c-2.2,5.4-4.9,10.7-7.5,15.7c-0.4,0.8-0.8,1.7-1.3,2.9c-0.8,2.1-2.2,3.7-3.5,5.8c-0.4,1.3-1.3,2.1-1.8,3.3
			c-1.3,2.1-2.7,3.7-3.9,5.8c-0.8,0.8-1.3,2.1-2.2,2.9c-1.3,1.7-2.7,3.3-3.5,5c-0.8,1.3-1.8,2.4-2.7,3.7c-1.3,1.7-2.7,2.9-3.9,4.6
			c-0.8,1.3-2.2,2.4-3.1,3.7c-1.3,1.7-2.7,2.9-3.9,4.6c-1.3,1.3-2.2,2.4-3.1,3.7c-1.3,1.7-2.7,2.9-4.5,4.1c-1.3,1.3-2.2,2.4-3.5,3.7
			c-0.4,0.4-0.8,0.8-1.3,1.3l-318.9-295.9c88.2-81.9,230.7-81.9,318.9,0c0.8,0.8,2.2,2.1,3.1,2.9c1.8,1.7,3.1,3.3,4.9,4.6
			C1449.9,129.3,1450.7,130.4,1451.6,131.3z M-312.6,862.1l-56.4,52.9V809.9L-312.6,862.1z M6.3,564.6V395.4l136.8-127L6.3,141.3
			V-26l318,295.5L6.3,564.6z M1280.9,566.2L962.5,861.7v-0.4V692.5l136.8-127l-136.8-127V270L1280.9,566.2z M830.6-26
			c0.4,106.7,44.6,213.2,131.9,294.7L645.4-26H830.6z M-369,320.9V216.2l56.4,52.1L-369,320.9z M1599.4,862.1l-56-52.1L1224.5,1106
			l-75.4-69.9l318.4-295.9l-56.4-52.5l-318.4,295.9l-74.5-69.1l319.3-295.6l-56.4-52.1L1599.4,862.1z M-365-26l183.9,170.5
			l-75.4,69.9L-369,109.7V-26H-365z M-103.5-26l52.9,49.2l-74.5,69.1L-252.6-26H-103.5z M831,148.3l-56.4-52.5L456.2,391.6
			l-74.5-69.1L700.1,26.6l262.4,243.7l-56-52.1L587.6,514.1l-75.4-69.9L831,148.3z M6.3-27.2l-0.8,0.8l0.8,0.8l0.8-0.8L6.3-27.2z"/>
	</g>
	<g>
		<defs>
			<rect id="SVGID_00000101786779950938243070000011188640462539258286_" x="-365.5" y="-12.1" width="2011" height="1052.6"/>
		</defs>
		<clipPath id="SVGID_00000085965434663375172160000016082553826358678694_">
			<use xlink:href="#SVGID_00000101786779950938243070000011188640462539258286_"  style="overflow:visible;"/>
		</clipPath>
		<path style="clip-path:url(#SVGID_00000085965434663375172160000016082553826358678694_);fill:#D9D9D9;" d="M1657.5,915.1
			l-56.9-52.5l56.9-52.5V915.1z M4.2,566.2l-316.7,294.3l0.8,0.8l-0.8,0.8l-56-52.1v-0.4V566.2H4.2z M1657.5,268.7v53.4l-57.3-53.4
			H1657.5L1657.5,268.7z M-15.7-7L4.6-26l0.8-0.8L6.3-26v167.6l-136.7,127l136.8,127v169.2l-319-295.8L-15.7-7z M962.5,270v169.2
			l-136.8,127l136.8,127V862v0.4L644.1,567.1L962.5,270z M1434.8,114.7l-44.1-41L1283.1-26.4h214.8
			C1497.9,25,1476.7,75.9,1434.8,114.7z M1657.5,203.8c-16.3,23.1-35.8,44.7-57.3,64.9l57.3-53.4V203.8z"/>
	</g>
</g>
<g>
	<g>
		<path class="st4" d="M140.5,480.2c2.7-0.1,5.4-0.5,8-1.1c4.4-1,8.1-3.2,10.9-6.7c2.4-3,3.7-6.4,4.8-10.1
			c1.6-6.4,1.7-13.1,1.3-19.5c0-0.2-0.1-0.2-0.1-0.5c-11.7,0-23.4,0-35.2,0c0-0.7,0-1.5,0-2.3c11.7,0,23.3,0,34.8,0
			c0-0.3,0-0.5,0-0.7c-0.6-2.4-1.1-5-1.9-7.5c-1.9-5.2-5.2-9.1-10.6-11.1c-4.2-1.5-8.7-1.9-13.3-1.5c-2.1,0.2-4.4,0.6-6.4,1.2
			c-5.2,1.7-8.8,5.4-11.4,10.1c-1.9,3.5-3.2,7.2-4.1,10.9c-1.6,6.1-2.9,12.1-3.6,18.4c-0.5,4.4-0.7,8.8-1.1,13.2c-0.2,2.4,0,5,0,7.5
			L140.5,480.2z"/>
		<path class="st4" d="M161.8,402.2c-18.5,0-35.5,6.2-49.1,16.5c0,0,0,0,0.1,0c0,10.7,0,21.5,0,32.1h0.1c0.3-1.8,0.6-3.6,1-5.4
			c1.5-6.9,3.7-13.5,7.8-19.4c3.5-5,8.3-8.1,14.4-9c3.7-0.6,7.4-0.4,11.1-0.1c4.6,0.3,8.9,1.2,13.2,2.9c5.9,2.2,10.7,5.7,14.2,11
			c1.7,2.5,2.9,5.3,3.5,8.3c0.2,0.7,0.5,0.8,1.2,0.8c14.7,0,29.1,0,43.7,0c0.3,0,0.7,0,1,0c0,0.7,0,1.5,0,2.3c-13.4,0-26.9,0-40.3,0
			c0,31.8,0,63.6,0,95.4c-4.5,0-8.8,0-13.3,0c0-21.3,0-42.7,0-64.1c-0.2,0.1-0.2,0.1-0.3,0.2c-4.2,3.7-9.1,5.8-14.7,7.1
			c-4.2,1.1-8.5,1.6-12.9,1.6c-9.7,0.2-19.3,0.2-28.9,0.2c-0.3,0-0.6,0-1,0c0,11.3,0,22.5,0,33.8c-4.5,0-8.9,0-13.4,0
			c0-28.4,0-56.7,0-85.2c-11.9,14.1-19,32.3-19,52.1c0,44.9,36.3,81.2,81.2,81.2s81.2-36.3,81.2-81.2S206.6,402.2,161.8,402.2z"/>
		<path class="st5" d="M112.9,516.5c0-11.3,0-22.5,0-33.8c0.4,0,0.7,0,1,0c9.7-0.1,19.3,0,28.9-0.2c4.4-0.1,8.6-0.7,12.9-1.6
			c5.4-1.3,10.4-3.3,14.7-7.1c0.1-0.1,0.2-0.1,0.3-0.2c0,21.5,0,42.8,0,64.1c4.5,0,8.8,0,13.3,0c0-31.8,0-63.6,0-95.4
			c13.4,0,26.9,0,40.3,0c0-0.7,0-1.5,0-2.3c-0.3,0-0.7,0-1,0c-14.7,0-29.1,0-43.7,0c-0.7,0-1.1-0.2-1.2-0.8c-0.7-3-2-5.7-3.5-8.3
			c-3.5-5.3-8.5-8.8-14.2-11c-4.2-1.6-8.6-2.5-13.2-2.9c-3.7-0.2-7.4-0.4-11.1,0.1c-6.2,0.8-10.9,3.8-14.4,9
			c-4,5.9-6.4,12.5-7.8,19.4c-0.4,1.8-0.7,3.6-1,5.4h-0.1c0-10.7,0-21.3,0-32.1c0,0,0,0-0.1,0c-4.9,3.7-9.2,7.9-13.2,12.5
			c0,28.5,0,56.8,0,85.2C104.1,516.5,108.4,516.5,112.9,516.5z M112.8,472.8c0.2-4.4,0.6-8.8,1.1-13.2c0.7-6.3,2-12.3,3.6-18.4
			c1.1-3.7,2.2-7.5,4.1-10.9c2.5-4.7,6.2-8.4,11.4-10.1c2.1-0.7,4.2-1.1,6.4-1.2c4.6-0.2,9,0,13.3,1.5c5.4,2,8.8,5.9,10.6,11.1
			c0.8,2.4,1.3,5,1.9,7.5c0.1,0.2,0,0.4,0,0.7c-11.6,0-23.3,0-34.8,0c0,0.7,0,1.5,0,2.3c11.7,0,23.4,0,35.2,0
			c0.1,0.2,0.1,0.4,0.1,0.5c0.4,6.6,0.3,13.2-1.3,19.5c-0.8,3.6-2.3,7.1-4.8,10.1c-2.8,3.5-6.6,5.6-10.9,6.7c-2.5,0.6-5.3,1.1-8,1.1
			l-27.7,0.1C112.8,477.7,112.7,475.3,112.8,472.8z"/>
	</g>
	<text transform="matrix(1 0 0 1 318.2432 474.5034)" class="st6 st7 st8">Paola Torres </text>
	<text transform="matrix(1 0 0 1 317.2471 513.4014)" class="st6 st9 st10">Graphic Designer </text>
	<text transform="matrix(1 0 0 1 698.8795 492.5859)" class="st6 st11 st12">WELCOME TO MY PORTFOLIO! </text>
	<line class="st13" x1="633.9" y1="381.5" x2="633.9" y2="593"/>
</g>
</svg>
