<?xml version="1.0" encoding="UTF-8"?><svg id="Layer_1" xmlns="http://www.w3.org/2000/svg" xmlns:xlink="http://www.w3.org/1999/xlink" viewBox="0 0 1366 768"><defs><style>.cls-1,.cls-2{fill:none;}.cls-3{clip-path:url(#clippath);}.cls-4{fill:#f9f9f9;}.cls-5{fill:#fff;}.cls-6{fill:#8c8787;}.cls-7{fill:#bbb7b7;}.cls-8{fill:#d2d0d0;}.cls-9{fill:#d9d9d9;}.cls-10{fill:#231f20;}.cls-11{fill:#282828;}.cls-12{clip-path:url(#clippath-1);}.cls-13{clip-path:url(#clippath-4);}.cls-14{clip-path:url(#clippath-3);}.cls-15{clip-path:url(#clippath-2);}.cls-16{clip-path:url(#clippath-7);}.cls-17{clip-path:url(#clippath-8);}.cls-18{clip-path:url(#clippath-6);}.cls-19{clip-path:url(#clippath-5);}.cls-20{clip-path:url(#clippath-9);}.cls-21{clip-path:url(#clippath-60);}.cls-22{clip-path:url(#clippath-20);}.cls-23{clip-path:url(#clippath-24);}.cls-24{clip-path:url(#clippath-42);}.cls-25{clip-path:url(#clippath-46);}.cls-26{clip-path:url(#clippath-28);}.cls-27{clip-path:url(#clippath-50);}.cls-28{clip-path:url(#clippath-51);}.cls-29{clip-path:url(#clippath-55);}.cls-30{clip-path:url(#clippath-56);}.cls-31{clip-path:url(#clippath-57);}.cls-32{clip-path:url(#clippath-58);}.cls-33{clip-path:url(#clippath-64);}.cls-34{clip-path:url(#clippath-62);}.cls-35{clip-path:url(#clippath-67);}.cls-36{clip-path:url(#clippath-73);}.cls-37{clip-path:url(#clippath-59);}.cls-38{clip-path:url(#clippath-65);}.cls-39{clip-path:url(#clippath-63);}.cls-40{clip-path:url(#clippath-66);}.cls-41{clip-path:url(#clippath-70);}.cls-42{clip-path:url(#clippath-75);}.cls-43{clip-path:url(#clippath-72);}.cls-44{clip-path:url(#clippath-71);}.cls-45{clip-path:url(#clippath-74);}.cls-46{clip-path:url(#clippath-76);}.cls-47{clip-path:url(#clippath-14);}.cls-48{clip-path:url(#clippath-13);}.cls-49{clip-path:url(#clippath-12);}.cls-50{clip-path:url(#clippath-10);}.cls-51{clip-path:url(#clippath-15);}.cls-52{clip-path:url(#clippath-17);}.cls-53{clip-path:url(#clippath-16);}.cls-54{clip-path:url(#clippath-19);}.cls-55{clip-path:url(#clippath-11);}.cls-56{clip-path:url(#clippath-18);}.cls-2{stroke:#282828;stroke-miterlimit:10;stroke-width:5.61px;}.cls-57{isolation:isolate;}</style><clipPath id="clippath"><rect class="cls-1" x="-233.43" y="-14.57" width="1826.39" height="955.93"/></clipPath><clipPath id="clippath-1"><rect class="cls-1" x="-233.43" y="-14.57" width="1826.39" height="955.93"/></clipPath><clipPath id="clippath-2"><rect class="cls-1" x="-233.43" y="-14.57" width="1826.39" height="955.93"/></clipPath><clipPath id="clippath-3"><rect class="cls-1" x="-233.43" y="-14.57" width="1826.39" height="955.93"/></clipPath><clipPath id="clippath-4"><rect class="cls-1" x="499.04" y="644.85" width="441.93" height="296.51"/></clipPath><clipPath id="clippath-5"><rect class="cls-1" x="499.04" y="644.85" width="441.93" height="296.51"/></clipPath><clipPath id="clippath-6"><rect class="cls-1" x="499.04" y="644.85" width="441.93" height="296.51"/></clipPath><clipPath id="clippath-7"><rect class="cls-1" x="499.04" y="644.85" width="441.93" height="296.51"/></clipPath><clipPath id="clippath-8"><rect class="cls-1" x="499.04" y="644.85" width="441.93" height="296.51"/></clipPath><clipPath id="clippath-9"><rect class="cls-1" x="194.14" y="-14.57" width="489.43" height="165.46"/></clipPath><clipPath id="clippath-10"><rect class="cls-1" x="194.14" y="-14.57" width="489.43" height="165.46"/></clipPath><clipPath id="clippath-11"><rect class="cls-1" x="194.14" y="-14.57" width="489.43" height="165.46"/></clipPath><clipPath id="clippath-12"><rect class="cls-1" x="194.14" y="-14.57" width="489.43" height="165.46"/></clipPath><clipPath id="clippath-13"><rect class="cls-1" x="194.14" y="-14.57" width="489.43" height="165.46"/></clipPath><clipPath id="clippath-14"><rect class="cls-1" x="194.14" y="-14.57" width="489.43" height="165.46"/></clipPath><clipPath id="clippath-15"><rect class="cls-1" x="194.14" y="-14.57" width="489.43" height="165.46"/></clipPath><clipPath id="clippath-16"><rect class="cls-1" x="194.14" y="-14.57" width="489.43" height="165.46"/></clipPath><clipPath id="clippath-17"><rect class="cls-1" x="194.14" y="-14.57" width="489.43" height="165.46"/></clipPath><clipPath id="clippath-18"><rect class="cls-1" x="194.14" y="-14.57" width="489.43" height="165.46"/></clipPath><clipPath id="clippath-19"><rect class="cls-1" x="1264.56" y="252.93" width="328.51" height="512.95"/></clipPath><clipPath id="clippath-20"><rect class="cls-1" x="1264.56" y="252.93" width="328.51" height="512.95"/></clipPath><clipPath id="clippath-24"><rect class="cls-1" x="1264.56" y="252.93" width="328.51" height="512.95"/></clipPath><clipPath id="clippath-28"><rect class="cls-1" x="1264.56" y="252.93" width="328.51" height="512.95"/></clipPath><clipPath id="clippath-42"><rect class="cls-1" x="1264.56" y="252.93" width="328.51" height="512.95"/></clipPath><clipPath id="clippath-46"><rect class="cls-1" x="1264.56" y="252.93" width="328.51" height="512.95"/></clipPath><clipPath id="clippath-50"><rect class="cls-1" x="1264.56" y="252.93" width="328.51" height="512.95"/></clipPath><clipPath id="clippath-51"><rect class="cls-1" x="1264.56" y="252.93" width="328.51" height="512.95"/></clipPath><clipPath id="clippath-55"><rect class="cls-1" x="-171.85" y="590.88" width="551.3" height="350.48"/></clipPath><clipPath id="clippath-56"><rect class="cls-1" x="-171.85" y="590.88" width="551.3" height="350.48"/></clipPath><clipPath id="clippath-57"><rect class="cls-1" x="-171.85" y="590.88" width="551.3" height="350.48"/></clipPath><clipPath id="clippath-58"><rect class="cls-1" x="-171.85" y="590.88" width="551.3" height="350.48"/></clipPath><clipPath id="clippath-59"><rect class="cls-1" x="-171.85" y="590.88" width="551.3" height="350.48"/></clipPath><clipPath id="clippath-60"><rect class="cls-1" x="-171.85" y="590.88" width="551.3" height="350.48"/></clipPath><clipPath id="clippath-62"><rect class="cls-1" x="-171.85" y="590.88" width="551.3" height="350.48"/></clipPath><clipPath id="clippath-63"><rect class="cls-1" x="-171.85" y="590.88" width="551.3" height="350.48"/></clipPath><clipPath id="clippath-64"><rect class="cls-1" x="-171.85" y="590.88" width="551.3" height="350.48"/></clipPath><clipPath id="clippath-65"><rect class="cls-1" x="-171.85" y="590.88" width="551.3" height="350.48"/></clipPath><clipPath id="clippath-66"><rect class="cls-1" x="-171.85" y="590.88" width="551.3" height="350.48"/></clipPath><clipPath id="clippath-67"><rect class="cls-1" x="-171.85" y="590.88" width="551.3" height="350.48"/></clipPath><clipPath id="clippath-70"><rect class="cls-1" x="-171.85" y="590.88" width="551.3" height="350.48"/></clipPath><clipPath id="clippath-71"><rect class="cls-1" x="-171.85" y="590.88" width="551.3" height="350.48"/></clipPath><clipPath id="clippath-72"><rect class="cls-1" x="-171.85" y="590.88" width="551.3" height="350.48"/></clipPath><clipPath id="clippath-73"><rect class="cls-1" x="-171.85" y="590.88" width="551.3" height="350.48"/></clipPath><clipPath id="clippath-74"><rect class="cls-1" x="-171.85" y="590.88" width="551.3" height="350.48"/></clipPath><clipPath id="clippath-75"><rect class="cls-1" x="-171.85" y="590.88" width="551.3" height="350.48"/></clipPath><clipPath id="clippath-76"><rect class="cls-1" x="-171.85" y="590.88" width="551.3" height="350.48"/></clipPath></defs><g><g class="cls-3"><path class="cls-5" d="M393.42,241.95l118.53,110.14L801.24,83.33l51.27,47.7-289.19,268.76,119.4,110.92-.39,.39-144.64,134.14c2.79-2.22,5.2-4.91,7.61-7.52,30.07-31.22,47.22-69.58,51.27-108.6,1.16-12.05,1.16-24.48,0-36.43-4.43-41.73-23.22-82.3-57.24-114.29-.77-.77-1.16-1.16-1.64-1.93-.77-.77-1.16-1.16-2.02-1.54-80.08-72.56-208.24-72.18-287.55,1.54-74.88,69.58-79.69,180.01-13.97,254.5,4.43,4.91,8.77,9.73,13.97,14.26,4.82,4.53,10.02,9.06,15.23,12.82,77.67,58.98,190.71,56.76,265.97-5.97,2.79-2.22,5.59-4.53,8-7.13l-144.64,134.43-.39-.39-.77-.77L103.08,510.32l.77-.77L393.42,241.95Zm1015.01,131.54c78.54-74.01,78.15-193.6-1.16-267.6l144.55,134.52-144.64,134.14c.48-.29,.87-.67,1.25-1.06Zm-1.64,1.45l-144.64,134.52-144.55-134.52c79.69,73.62,208.24,74.01,288.42,1.16,0-.77,.39-.77,.77-1.16ZM1117.6,105.88c-80.08,74.39-80.08,194.66,0,268.76l-144.55-134.62,168.25-156.01,120.17-111.59,1.16-1.16,1.16,1.16,97.71,91.35,45.29,42.11c-79.69-74.1-209.4-74.1-289.19,0ZM103.08,509.94l-.77,.77H-236.51v-221.45l50.88-47.31L103.08,509.94ZM1603.85,191.94v48.47h-52.04l52.04-48.47ZM104.23,240.41h124.21l-124.21,115.44L-19.89,240.41H104.23Zm992.55,270.21l-124.21,115.35-124.21-115.35h248.43Zm403.38,221.45l50.88,47.31,.39,.39-289.19,268.76-51.27-47.31,289.19-269.15Zm-119.78-110.92l51.27,47.7-289.19,268.76-51.27-47.7,289.19-268.76Zm-407.72,158.23l289.19-268.37,51.27,47.31-289.57,268.76-51.27-47.7h.39ZM-134.46,191.16l-51.27,47.7-50.88-47.31V96.44l102.15,94.73Zm68.13-63.5L-233.43-27.2h102.53L-15.07,80.35l.39,.39-51.65,46.93ZM84.28-9.95l-31.7,27.46L4.49-27.2H100.67l1.64-1.54,.77,.77-.77,.77-18.02,17.25ZM632.21,462.91L921.79,194.15l50.88,47.31-289.19,268.86-51.27-47.41Zm-187.53-173.65L734.36,20.5l-51.27-47.7L393.42,241.56l51.27,47.7Z"/></g><g class="cls-12"><path class="cls-4" d="M264.1,657.95c-5.2-4.14-10.41-8.29-15.23-12.82s-9.64-9.44-13.97-14.26c-65.72-74.78-61.29-184.92,13.97-254.5l289.19,268.37,.39,.39c-2.79,2.22-5.2,4.91-8,7.13-75.36,62.83-188.68,64.76-266.35,5.69Zm1339.75,169.89v220.67h-340.84l289.19-268.76,51.65,48.09Zm-513.04,62.06l51.27,47.7,119.4,110.92H682.61l289.19-268.76,119.01,110.14Zm-1327.42-62.06l51.65-48.09L104.23,1048.13l289.19-268.37,289.19,268.76H104.23l-.39,.39-.39-.39H-236.99v-220.67h.39Zm630.03-48.47l145.03-134.14,144.64-134.14,289.19,268.76-289.57,268.76-289.29-269.24Zm868.82-270.21l144.64-134.52c-.39,.39-.77,.77-1.16,1.16-80.08,72.95-208.73,72.95-288.42-1.16-80.08-74.39-80.08-194.66,0-268.76l289.57,268.76,144.93-134.24,52.04,48.47v440.87l-52.04,48.47-289.57-269.05ZM228.06,240.41H-20.27L103.85,125.06l124.21,115.35Zm165.36,1.16l-.77-.77L103.85-27.58l.77-.77,.77,.77H683L393.42,241.56ZM103.85,1046.98L-184.96,778.99l-.77-.77L101.82,511l.77-.77,.77-.77,.77,.77-.77,.77,288.42,267.99L103.85,1046.98ZM1551.82,240.41l-144.64-134.52-45.68-42.5,40.09,37.2c38.06-35.37,57.24-81.52,57.72-127.78h144.64V181.05c-14.84,21.01-32.47,40.95-52.13,59.36Zm-455.03,270.21h-248.43l124.21-115.35,124.21,115.35Zm44.04-426.22l120.17-111.59h-408.1c.39,96.94,40.47,193.6,119.78,267.6l168.16-156.01Z"/></g><g class="cls-15"><path class="cls-8" d="M536.43,374.64c.77,.39,1.16,1.16,2.02,1.54,.77,.77,1.16,1.16,1.64,1.93,33.63,32.28,52.9,72.95,57.24,114.29,1.16,12.05,1.16,24.48,0,36.43-.39,3.37-.77,6.75-1.16,10.12-5.59,35.75-22.45,70.25-50.11,98.87-2.41,2.6-4.82,4.91-7.61,7.52l-.39-.39L248.88,376.09c79.31-73.24,207.47-74.01,287.55-1.45ZM1416.81,115.61c1.64,1.54,2.79,2.99,4.43,4.91,.77,.77,1.16,1.54,2.02,2.6,1.64,1.54,2.79,3.37,4.05,4.91,.39,.77,.77,1.16,1.64,1.93,1.64,1.93,2.79,3.76,4.43,5.97,.39,.77,.77,1.54,1.64,2.22,1.16,1.93,2.79,3.76,4.05,5.69,0,.39,.39,.77,.39,1.16,1.16,2.22,2.79,4.53,4.05,6.75,.39,.39,.39,.77,.77,1.16,1.16,2.22,2.79,4.91,4.05,7.13,.39,.77,.39,1.16,.77,1.93,1.16,2.22,2.02,4.53,3.18,6.36,.39,.39,.39,.77,.39,1.54,1.16,2.22,2.02,4.91,2.79,7.13q0,.39,.39,.77c3.18,8.67,5.59,16.96,7.61,25.92,0,.39,0,1.16,.39,1.54,7.23,34.98,3.57,71.41-10.41,104.46,0,.39-.39,.77-.39,1.16-2.02,4.91-4.43,9.73-6.84,14.26-.39,.77-.77,1.54-1.16,2.6-.77,1.93-2.02,3.37-3.18,5.3-.39,1.16-1.16,1.93-1.64,2.99-1.16,1.93-2.41,3.37-3.57,5.3-.77,.77-1.16,1.93-2.02,2.6-1.16,1.54-2.41,2.99-3.18,4.53-.77,1.16-1.64,2.22-2.41,3.37-1.16,1.54-2.41,2.6-3.57,4.14-.77,1.16-2.02,2.22-2.79,3.37-1.16,1.54-2.41,2.6-3.57,4.14-1.16,1.16-2.02,2.22-2.79,3.37-1.16,1.54-2.41,2.6-4.05,3.76-1.16,1.16-2.02,2.22-3.18,3.37-.39,.39-.77,.77-1.16,1.16L1118.37,106.36c80.08-74.39,209.5-74.39,289.57,0,.77,.77,2.02,1.93,2.79,2.6,1.64,1.54,2.79,2.99,4.43,4.14,.1,.67,.87,1.73,1.64,2.51ZM-185.34,779.37l-51.27,48.09v-95.5l51.27,47.41ZM104.23,509.17v-153.7l124.21-115.35L104.23,124.67V-27.2L393.04,241.18,104.23,509.17Zm1157.63,1.45l-289.19,268.37v-153.7l124.21-115.35-124.21-115.35V241.56l289.19,269.05ZM852.89-27.2c.39,96.94,40.47,193.6,119.78,267.6L684.63-27.2h168.25ZM-236.61,287.82v-95.11l51.27,47.31-51.27,47.8Zm1787.66,491.55l-50.88-47.31-289.57,268.76-68.52-63.5,289.19-268.76-51.27-47.7-289.19,268.76-67.65-62.73,289.96-268.47-51.27-47.31,289.19,268.28ZM-232.95-27.2L-65.95,127.66l-68.52,63.5-102.15-95.11V-27.2h3.66ZM4.49-27.2L52.58,17.52-15.07,80.25-130.9-27.2H4.49ZM853.27,131.03l-51.27-47.7-289.19,268.66-67.65-62.73L734.36,20.5l238.31,221.35-50.88-47.31-289.57,268.76-68.52-63.5L853.27,131.03ZM104.23-28.35l-.77,.77,.77,.77,.77-.77-.77-.77Z"/></g><g class="cls-14"><path class="cls-9" d="M1603.85,827.46l-51.65-47.7,51.65-47.7v95.4ZM102.3,510.61L-185.34,777.93l.77,.77-.77,.77-50.88-47.31v-221.54H102.3ZM1603.85,240.41v48.47l-52.04-48.47h52.04ZM84.28-9.95l18.41-17.25,.77-.77,.77,.77V125.06L-19.89,240.41l124.21,115.35v153.7L-185.34,240.79,84.28-9.95ZM972.67,241.56v153.7l-124.21,115.35,124.21,115.35v153.7l-289.19-268.28L972.67,241.56Zm428.92-140.98l-40.09-37.2-97.71-90.97h195.04c.1,46.64-19.18,92.9-57.24,128.16Zm202.27,80.85c-14.84,21.01-32.47,40.57-52.04,58.98l52.04-48.47v-10.5Z"/></g></g><g><g class="cls-13"><path class="cls-8" d="M720.39,760.97l101.09-93.57c-1.54-.96-10.02-4.53-11.76-5.2l-89.33,82.68-89.33-82.68c-3.18,1.06-8.19,3.57-11.76,5.2l101.09,93.57h0Z"/></g><g class="cls-19"><path class="cls-8" d="M720.39,712.59l63.89-59.17c-4.53-1.25-9.15-2.41-13.78-3.37l-50.11,46.35-50.11-46.35c-4.63,.96-9.25,2.12-13.78,3.37l63.89,59.17h0Z"/></g><g class="cls-18"><path class="cls-8" d="M720.39,664.22l20.14-18.6c-5.49-.48-10.99-.67-16.57-.77l-3.57,3.28-3.57-3.28c-3.47,.29-12.33,.29-16.57,.77l20.14,18.6h0Z"/></g><g class="cls-16"><path class="cls-8" d="M720.39,809.34h0l114.1-105.62,99.54,92.12c3.85-22.74-62.83-73.53-99.54-108.22l-114.1,105.52h0l-114.1-105.52c-13.78,15.51-103.01,85.09-99.54,108.22l99.54-92.12,114.1,105.62Z"/></g><g class="cls-17"><path class="cls-8" d="M941.06,834.69l-106.58-98.68-114.1,105.52h0l-114.1-105.52-106.58,98.68c-.39,5.49-.77,11.08-.58,16.67l107.16-99.26,114.1,105.62h0l114-105.62,107.16,99.26c.19-5.59-.1-11.18-.48-16.67Z"/></g></g><g><g class="cls-20"><path class="cls-7" d="M439.19-300.97c-3.95,0-7.9,.1-11.85,.29-3.95,.19-7.9,.48-11.76,.87-3.95,.39-7.81,.77-11.76,1.35-3.85,.58-7.81,1.16-11.66,1.93-3.85,.67-7.71,1.54-11.56,2.41s-7.61,1.83-11.37,2.99c-3.76,1.06-7.52,2.22-11.27,3.47-3.76,1.25-7.42,2.6-11.08,3.95-3.66,1.45-7.23,2.89-10.79,4.43s-7.13,3.18-10.6,4.91c-3.47,1.73-6.94,3.57-10.31,5.4-3.37,1.93-6.75,3.85-10.02,5.88s-6.46,4.14-9.64,6.36c-3.18,2.22-6.26,4.43-9.35,6.75s-6.07,4.72-8.96,7.23-5.78,5.01-8.58,7.61c-2.79,2.6-5.49,5.3-8.19,8-2.6,2.7-5.2,5.49-7.71,8.38-2.51,2.79-4.91,5.69-7.32,8.67-2.31,2.99-4.63,5.97-6.84,8.96-2.22,3.08-4.34,6.17-6.36,9.35s-3.95,6.36-5.88,9.54c-1.83,3.28-3.66,6.55-5.3,9.83-1.73,3.28-3.28,6.65-4.82,10.02s-2.89,6.84-4.24,10.31c-1.35,3.47-2.6,6.94-3.76,10.41-1.16,3.47-2.22,7.03-3.18,10.6s-1.83,7.13-2.6,10.7c-.77,3.57-1.45,7.23-2.02,10.89s-1.06,7.23-1.45,10.89-.67,7.32-.87,10.99c-.19,3.66-.29,7.32-.29,10.99,0,9.54,.67,19.08,1.93,28.52,1.45,10.31,3.57,20.53,6.55,30.55,5.4,18.41,13.11,35.85,23.32,52.42,6.65,10.79,14.26,21.01,22.74,30.55,8.87,10.02,18.5,19.27,29.1,27.75,14.17,11.47,29.58,21.2,46.16,29.2,4.24,2.02,8.58,4.05,13.01,5.88s8.87,3.57,13.39,5.11c4.53,1.54,9.06,2.99,13.68,4.34s9.25,2.51,13.97,3.57c4.72,1.06,9.44,2.02,14.17,2.79,4.72,.77,9.54,1.45,14.26,2.02,4.82,.58,9.64,.96,14.45,1.25s9.64,.39,14.45,.39,9.64-.1,14.45-.39c4.82-.29,9.64-.67,14.45-1.25s9.54-1.25,14.26-2.02c4.72-.77,9.44-1.73,14.17-2.79s9.35-2.22,13.97-3.57,9.15-2.79,13.68-4.34,8.96-3.28,13.39-5.11c4.43-1.83,8.77-3.76,13.01-5.88,16.67-8.09,31.99-17.83,46.16-29.2,10.31-8.29,19.85-17.35,28.52-27.17,8.67-9.83,16.48-20.24,23.22-31.22,4.91-8,9.25-16.19,13.11-24.57,4.05-9.06,7.52-18.31,10.21-27.75,2.99-10.02,5.11-20.24,6.46-30.55,.58-3.95,.96-7.9,1.25-11.85s.48-7.9,.58-11.85c.1-3.95,.1-7.9-.1-11.95-.1-3.95-.39-7.9-.77-11.85-.39-3.95-.87-7.9-1.45-11.85-.58-3.95-1.25-7.81-2.12-11.76-.77-3.85-1.73-7.81-2.79-11.66-1.06-3.85-2.22-7.71-3.37-11.47-1.25-3.76-2.6-7.52-4.05-11.27s-2.99-7.42-4.72-11.08c-1.64-3.66-3.47-7.23-5.3-10.79-1.93-3.57-3.85-7.03-5.97-10.5-2.12-3.47-4.24-6.84-6.55-10.21-2.31-3.37-4.63-6.65-7.13-9.93-2.51-3.28-5.01-6.46-7.71-9.54-2.6-3.08-5.4-6.17-8.19-9.15s-5.69-5.88-8.67-8.77c-2.99-2.79-6.07-5.59-9.15-8.29-3.18-2.7-6.36-5.3-9.64-7.81s-6.65-5.01-10.12-7.32c-3.47-2.41-6.94-4.63-10.5-6.84-3.57-2.22-7.23-4.24-10.89-6.26s-7.42-3.95-11.18-5.78c-3.76-1.83-7.61-3.57-11.56-5.2-3.85-1.64-7.81-3.18-11.76-4.63-3.95-1.45-8-2.79-12.05-4.05-4.05-1.25-8.09-2.41-12.24-3.47s-8.29-2.02-12.43-2.79c-4.14-.87-8.38-1.54-12.62-2.22-4.24-.67-8.48-1.16-12.72-1.54s-8.48-.77-12.72-.96-7.9-.19-12.24-.19Zm0,452.53c-9.83,0-19.56-.58-29.29-1.64-9.73-1.06-19.37-2.7-28.91-4.91-9.54-2.12-18.89-4.82-28.04-8.09-9.15-3.18-18.12-6.94-26.89-11.18-16.86-8.19-32.57-18.12-46.93-29.68-10.7-8.58-20.62-18.02-29.58-28.23-8.67-9.73-16.29-20.14-23.13-31.13-10.41-16.77-18.31-34.5-23.71-53.29-2.99-10.21-5.2-20.62-6.65-31.13-1.25-9.64-1.93-19.27-1.93-28.91,0-3.85,.1-7.81,.29-11.66,.19-3.85,.58-7.71,.96-11.66,.39-3.85,.96-7.71,1.64-11.56s1.35-7.61,2.22-11.47c.87-3.76,1.83-7.61,2.89-11.37,1.06-3.76,2.22-7.52,3.47-11.18s2.6-7.42,4.05-10.99c1.45-3.66,2.99-7.23,4.72-10.79s3.37-7.13,5.3-10.6c1.83-3.47,3.76-6.94,5.88-10.31,2.02-3.37,4.14-6.75,6.36-10.02,2.22-3.28,4.53-6.55,6.94-9.73s4.91-6.26,7.42-9.35c2.6-3.08,5.2-6.07,8-8.96,2.7-2.89,5.59-5.78,8.48-8.58,2.89-2.79,5.88-5.49,8.87-8.19,3.08-2.7,6.17-5.2,9.35-7.71,3.18-2.51,6.46-4.91,9.73-7.32,3.28-2.31,6.75-4.63,10.12-6.84s6.94-4.34,10.5-6.36c3.57-2.02,7.13-3.95,10.79-5.78,3.66-1.83,7.42-3.66,11.18-5.3s7.61-3.28,11.47-4.72c3.85-1.54,7.71-2.89,11.66-4.24s7.9-2.51,11.85-3.66,8-2.12,12.05-3.08,8.09-1.73,12.24-2.51c4.14-.77,8.19-1.35,12.33-1.93s8.29-.96,12.43-1.35c4.14-.39,8.29-.58,12.53-.77,4.14-.19,8.38-.19,12.53-.19,4.14,.1,8.38,.19,12.53,.48s8.29,.58,12.43,1.06c4.14,.48,8.29,.96,12.43,1.64,4.14,.67,8.19,1.35,12.33,2.22,4.05,.87,8.09,1.73,12.14,2.79,4.05,1.06,8,2.12,11.95,3.37,3.95,1.25,7.9,2.51,11.76,3.95s7.71,2.89,11.56,4.53c3.85,1.54,7.61,3.28,11.27,5.01,3.76,1.73,7.42,3.66,10.99,5.59,3.66,1.93,7.13,3.95,10.7,6.07,3.47,2.12,6.94,4.34,10.31,6.55,3.37,2.31,6.75,4.63,9.93,7.03,3.28,2.41,6.46,4.91,9.54,7.52,3.08,2.6,6.17,5.2,9.15,8,2.99,2.7,5.88,5.49,8.67,8.38s5.59,5.78,8.19,8.77c2.7,2.99,5.2,6.07,7.71,9.15s4.91,6.26,7.23,9.54,4.53,6.55,6.65,9.83c2.12,3.37,4.14,6.75,6.17,10.12,1.93,3.47,3.76,6.94,5.59,10.41,1.73,3.57,3.37,7.13,5.01,10.7,1.54,3.57,2.99,7.23,4.34,10.89s2.6,7.42,3.76,11.08c1.16,3.76,2.22,7.52,3.18,11.27s1.83,7.61,2.51,11.37c.77,3.85,1.35,7.61,1.93,11.47s.96,7.71,1.25,11.56,.58,7.71,.67,11.66c.1,3.85,.1,7.81,0,11.66-.1,3.85-.29,7.81-.67,11.66-.29,3.85-.77,7.71-1.25,11.56-1.45,10.5-3.57,20.91-6.65,31.13-2.79,9.64-6.26,19.08-10.41,28.23-3.95,8.58-8.38,16.86-13.3,24.96-6.94,11.18-14.84,21.78-23.61,31.7-8.87,9.93-18.5,19.18-29.01,27.66-14.36,11.66-30.07,21.49-46.93,29.68-8.67,4.24-17.63,7.9-26.89,11.18-9.15,3.18-18.6,5.88-28.14,8.09-9.54,2.12-19.18,3.76-28.91,4.91-9.64,1.35-19.47,1.93-29.29,1.93Z"/></g><g class="cls-50"><path class="cls-7" d="M439.29,151.56c-9.83,0-19.56-.58-29.29-1.64-9.73-1.06-19.37-2.7-28.91-4.91s-18.89-4.82-28.04-8.09c-9.15-3.18-18.12-6.94-26.89-11.18-16.86-8.19-32.57-18.12-46.93-29.68-10.7-8.58-20.62-18.02-29.58-28.23-8.67-9.73-16.29-20.14-23.03-31.13-10.41-16.77-18.31-34.5-23.71-53.29l3.85-.96c5.3,18.41,13.11,35.85,23.32,52.42,6.65,10.79,14.26,21.01,22.74,30.55,8.87,10.02,18.5,19.27,29.1,27.75,5.4,4.34,10.99,8.48,16.86,12.33,5.78,3.85,11.76,7.52,17.92,10.89s12.43,6.55,18.89,9.44,13.01,5.49,19.75,7.81c6.75,2.31,13.49,4.34,20.43,6.17,6.94,1.73,13.88,3.18,20.91,4.43,7.03,1.16,14.17,2.02,21.3,2.6,7.13,.58,14.26,.87,21.39,.87,9.64,0,19.27-.58,28.91-1.64,9.64-1.06,19.08-2.7,28.43-4.82s18.6-4.82,27.66-7.9c9.06-3.18,17.83-6.84,26.4-10.99,16.67-8.09,31.99-17.83,46.16-29.2,10.31-8.29,19.85-17.35,28.52-27.17s16.48-20.24,23.22-31.22c4.91-8,9.25-16.19,13.11-24.57,4.05-9.06,7.52-18.31,10.21-27.75,2.89-10.02,5.11-20.14,6.46-30.35-.48-3.37-.96-6.65-1.64-10.02-.58-3.28-1.35-6.65-2.12-9.93s-1.64-6.55-2.6-9.83c-.96-3.28-1.93-6.46-3.08-9.73-1.06-3.18-2.31-6.36-3.57-9.54s-2.6-6.26-3.95-9.44c-1.45-3.08-2.89-6.17-4.43-9.25-1.54-3.08-3.18-6.07-4.91-9.06-1.73-2.99-3.47-5.88-5.3-8.87-1.83-2.89-3.76-5.78-5.78-8.58s-4.05-5.59-6.17-8.38c-2.12-2.7-4.34-5.4-6.55-8.09-2.22-2.6-4.53-5.2-6.94-7.81-2.41-2.51-4.82-5.01-7.32-7.52-2.51-2.41-5.01-4.82-7.71-7.23-2.6-2.31-5.3-4.63-8-6.84s-5.49-4.43-8.29-6.55c-2.79-2.12-5.69-4.14-8.67-6.17-2.89-2.02-5.88-3.95-8.96-5.78-2.99-1.83-6.07-3.66-9.15-5.4s-6.26-3.37-9.44-5.01-6.46-3.18-9.64-4.63c-3.28-1.45-6.55-2.89-9.93-4.24s-6.65-2.6-10.12-3.76c-3.37-1.16-6.84-2.31-10.21-3.37-3.47-1.06-6.94-2.02-10.41-2.89s-7.03-1.73-10.5-2.51c-3.57-.77-7.13-1.45-10.7-2.02-3.57-.58-7.13-1.16-10.7-1.54-3.57-.48-7.23-.87-10.79-1.16-3.57-.29-7.23-.48-10.89-.67s-7.23-.19-10.89-.19-7.23,.1-10.89,.19c-3.66,.19-7.23,.39-10.89,.67-3.57,.29-7.23,.67-10.79,1.16s-7.13,.96-10.7,1.64c-3.57,.58-7.13,1.25-10.7,2.02-3.57,.77-7.03,1.54-10.5,2.51s-6.94,1.93-10.41,2.89c-3.47,1.06-6.84,2.22-10.21,3.37s-6.75,2.41-10.12,3.76-6.65,2.7-9.93,4.24c-3.28,1.45-6.46,2.99-9.64,4.63s-6.36,3.28-9.44,5.01c-3.08,1.73-6.17,3.57-9.15,5.4s-5.97,3.76-8.96,5.78c-2.89,2.02-5.78,4.05-8.67,6.17-2.79,2.12-5.59,4.24-8.29,6.55-2.7,2.22-5.4,4.53-8,6.84-2.6,2.31-5.2,4.72-7.61,7.23-2.51,2.41-4.91,4.91-7.32,7.52s-4.72,5.11-6.94,7.81c-2.22,2.6-4.43,5.3-6.55,8.09-2.12,2.7-4.14,5.49-6.17,8.38-2.02,2.79-3.85,5.69-5.78,8.58-1.83,2.89-3.57,5.88-5.3,8.87-1.73,2.99-3.37,5.97-4.91,9.06s-2.99,6.17-4.43,9.25-2.7,6.26-3.95,9.44c-1.25,3.18-2.41,6.36-3.57,9.54-1.06,3.18-2.12,6.46-3.08,9.73s-1.83,6.55-2.6,9.83c-.77,3.28-1.45,6.65-2.12,9.93-.58,3.28-1.16,6.65-1.64,10.02l-3.95-.48c.48-3.37,1.06-6.84,1.64-10.21,.67-3.37,1.35-6.75,2.12-10.12,.77-3.37,1.64-6.65,2.6-10.02,.96-3.28,2.02-6.65,3.08-9.83,1.16-3.28,2.31-6.55,3.57-9.73,1.25-3.18,2.6-6.46,4.05-9.54s2.89-6.26,4.53-9.35c1.54-3.08,3.28-6.17,5.01-9.15,1.73-2.99,3.57-5.97,5.4-8.96s3.85-5.88,5.88-8.77,4.14-5.69,6.26-8.48c2.12-2.79,4.34-5.49,6.65-8.19s4.63-5.3,7.03-7.9,4.91-5.11,7.42-7.61c2.51-2.51,5.11-4.91,7.81-7.32,2.7-2.41,5.4-4.72,8.09-6.94,2.79-2.31,5.59-4.43,8.48-6.65,2.89-2.12,5.78-4.24,8.77-6.26s5.97-3.95,9.06-5.88c3.08-1.93,6.17-3.76,9.35-5.49,3.18-1.73,6.36-3.47,9.64-5.11s6.55-3.18,9.83-4.72c3.28-1.54,6.65-2.89,10.02-4.24s6.84-2.6,10.21-3.85c3.47-1.25,6.94-2.31,10.41-3.37s7.03-2.02,10.6-2.99,7.13-1.73,10.7-2.51c3.57-.77,7.23-1.45,10.79-2.12,3.66-.58,7.23-1.16,10.89-1.64s7.32-.87,10.99-1.16c3.66-.29,7.32-.58,10.99-.67,3.66-.19,7.32-.19,11.08-.19s7.32,.1,11.08,.19c3.66,.19,7.32,.39,10.99,.67,3.66,.29,7.32,.67,10.99,1.16,3.66,.48,7.32,.96,10.89,1.64,3.66,.58,7.23,1.35,10.79,2.12,3.57,.77,7.13,1.64,10.7,2.51,3.57,.96,7.03,1.93,10.6,2.99,3.47,1.06,6.94,2.22,10.41,3.37,3.47,1.25,6.84,2.51,10.21,3.85s6.75,2.79,10.02,4.24c3.28,1.54,6.55,3.08,9.83,4.72s6.46,3.37,9.64,5.11,6.26,3.57,9.35,5.49c3.08,1.93,6.07,3.85,9.06,5.88,2.99,2.02,5.88,4.14,8.77,6.26s5.69,4.34,8.48,6.65c2.79,2.31,5.49,4.63,8.09,6.94,2.7,2.41,5.2,4.82,7.81,7.32,2.51,2.51,5.01,5.01,7.42,7.61s4.72,5.2,7.03,7.9c2.31,2.7,4.53,5.4,6.65,8.19s4.24,5.59,6.26,8.48,3.95,5.78,5.88,8.77c1.83,2.99,3.66,5.97,5.4,8.96s3.37,6.07,5.01,9.15c1.54,3.08,3.08,6.26,4.53,9.35,1.45,3.18,2.79,6.36,4.05,9.54s2.51,6.46,3.57,9.73c1.16,3.28,2.12,6.55,3.08,9.83,.96,3.28,1.83,6.65,2.6,10.02s1.54,6.75,2.12,10.12c.67,3.37,1.16,6.75,1.64,10.21v.39c-1.45,10.5-3.57,20.91-6.65,31.13-2.79,9.64-6.26,19.08-10.41,28.23-3.95,8.58-8.38,16.86-13.3,24.96-6.94,11.18-14.84,21.78-23.61,31.7-8.87,9.93-18.5,19.18-29.01,27.66-14.36,11.66-30.07,21.49-46.93,29.68-8.67,4.24-17.63,7.9-26.89,11.18-9.15,3.18-18.6,5.88-28.14,8.09-9.54,2.12-19.18,3.76-28.91,4.91-9.06,1.35-18.89,1.93-28.62,1.93Z"/></g><g class="cls-55"><path class="cls-7" d="M206.67-16.98c5.3,18.21,13.11,35.56,23.22,51.94,6.65,10.79,14.26,21.01,22.74,30.55,8.87,10.02,18.5,19.27,29.1,27.75,5.4,4.34,10.99,8.48,16.86,12.33,5.78,3.85,11.76,7.52,17.92,10.89s12.43,6.55,18.89,9.44,13.01,5.49,19.75,7.81c6.75,2.31,13.49,4.34,20.43,6.17,6.94,1.73,13.88,3.18,20.91,4.43,7.03,1.16,14.17,2.02,21.3,2.6,7.13,.58,14.26,.87,21.39,.87,9.64,0,19.27-.58,28.91-1.64,9.64-1.06,19.08-2.7,28.43-4.82s18.6-4.82,27.66-7.9c9.06-3.18,17.83-6.84,26.4-10.99,16.67-8.09,31.99-17.83,46.16-29.2,10.31-8.29,19.85-17.35,28.52-27.17,8.67-9.83,16.48-20.24,23.22-31.22,4.91-8,9.25-16.19,13.11-24.57,3.95-8.87,7.32-18.02,10.12-27.27-.87-2.89-1.83-5.88-2.79-8.77s-2.02-5.78-3.18-8.67-2.31-5.69-3.57-8.48c-1.25-2.79-2.51-5.59-3.95-8.38-1.35-2.79-2.79-5.49-4.24-8.19s-2.99-5.4-4.63-8.09-3.28-5.3-5.01-7.9-3.47-5.11-5.3-7.71c-1.83-2.51-3.76-5.01-5.69-7.42s-3.95-4.82-5.97-7.23c-2.02-2.41-4.14-4.72-6.26-7.03s-4.34-4.53-6.55-6.75-4.53-4.34-6.84-6.55c-2.31-2.12-4.72-4.24-7.13-6.26s-4.91-4.05-7.42-5.97c-2.51-1.93-5.11-3.85-7.71-5.69s-5.2-3.66-7.9-5.4-5.4-3.47-8.19-5.11-5.59-3.28-8.38-4.72c-2.79-1.54-5.69-2.99-8.58-4.43s-5.78-2.79-8.77-4.14c-2.99-1.35-5.97-2.6-8.96-3.76-2.99-1.25-6.07-2.31-9.06-3.47-3.08-1.06-6.17-2.12-9.25-3.08-3.08-.96-6.26-1.93-9.35-2.7-3.18-.87-6.26-1.64-9.44-2.41s-6.36-1.45-9.54-2.02c-3.18-.58-6.46-1.16-9.64-1.64-3.28-.48-6.46-.96-9.73-1.25-3.28-.39-6.46-.67-9.73-.96-3.28-.29-6.55-.39-9.83-.58-3.28-.1-6.55-.19-9.83-.19s-6.55,.1-9.83,.19c-3.28,.1-6.55,.29-9.83,.58s-6.55,.58-9.73,.96c-3.28,.39-6.46,.77-9.73,1.25-3.28,.48-6.46,1.06-9.64,1.64-3.18,.58-6.36,1.25-9.54,2.02-3.18,.77-6.36,1.54-9.44,2.41-3.18,.87-6.26,1.73-9.35,2.7s-6.17,2.02-9.25,3.08c-3.08,1.06-6.07,2.22-9.06,3.47s-5.97,2.51-8.96,3.76c-2.99,1.35-5.88,2.7-8.77,4.14s-5.78,2.89-8.58,4.43-5.59,3.08-8.38,4.72c-2.79,1.64-5.49,3.37-8.19,5.11s-5.3,3.57-7.9,5.4c-2.6,1.83-5.2,3.76-7.71,5.69s-5.01,3.95-7.42,5.97c-2.41,2.02-4.82,4.14-7.13,6.26s-4.63,4.34-6.84,6.55c-2.22,2.22-4.43,4.43-6.55,6.75-2.12,2.31-4.24,4.63-6.26,7.03s-4.05,4.82-5.97,7.23-3.85,4.91-5.69,7.42-3.57,5.11-5.3,7.71-3.37,5.2-5.01,7.9-3.18,5.3-4.63,8.09c-1.45,2.7-2.89,5.49-4.24,8.19-1.35,2.79-2.7,5.59-3.95,8.38-1.25,2.79-2.41,5.69-3.57,8.48-1.16,2.89-2.22,5.78-3.18,8.67-1.16,2.89-2.12,5.88-2.99,8.77Zm232.53,168.54c-9.83,0-19.56-.58-29.29-1.64-9.73-1.06-19.37-2.7-28.91-4.91-9.54-2.12-18.89-4.82-28.04-8.09-9.15-3.18-18.12-6.94-26.89-11.18-16.86-8.19-32.57-18.12-46.93-29.68-10.7-8.58-20.62-18.02-29.58-28.23-8.67-9.73-16.29-20.14-23.13-31.13-10.41-16.77-18.31-34.5-23.71-53.29l-.1-.48,.1-.48c.87-2.99,1.83-5.97,2.79-8.96s2.12-5.88,3.18-8.77c1.16-2.89,2.31-5.78,3.57-8.67,1.25-2.89,2.6-5.69,3.95-8.58,1.35-2.79,2.79-5.59,4.34-8.38,1.54-2.79,3.08-5.49,4.72-8.19,1.64-2.7,3.28-5.4,5.11-8,1.73-2.6,3.57-5.2,5.4-7.81s3.76-5.11,5.78-7.61c1.93-2.51,3.95-4.91,6.07-7.42,2.12-2.41,4.24-4.82,6.36-7.13,2.22-2.31,4.43-4.63,6.75-6.94,2.31-2.22,4.63-4.43,7.03-6.65,2.41-2.12,4.82-4.34,7.32-6.36,2.51-2.12,5.01-4.14,7.52-6.07,2.6-2.02,5.2-3.95,7.81-5.78,2.6-1.93,5.3-3.76,8.09-5.49,2.7-1.73,5.49-3.47,8.29-5.2,2.79-1.64,5.69-3.28,8.48-4.82,2.89-1.54,5.78-3.08,8.77-4.53s5.88-2.89,8.96-4.24c2.99-1.35,6.07-2.6,9.06-3.85,3.08-1.25,6.17-2.41,9.25-3.47,3.08-1.16,6.26-2.12,9.44-3.18,3.18-.96,6.36-1.93,9.54-2.79,3.18-.87,6.46-1.64,9.64-2.41,3.28-.77,6.46-1.45,9.73-2.02,3.28-.67,6.55-1.16,9.83-1.73,3.28-.48,6.55-.96,9.93-1.35,3.28-.39,6.65-.67,9.93-.96,3.28-.29,6.65-.48,10.02-.58s6.65-.19,10.02-.19,6.65,.1,10.02,.19c3.37,.1,6.65,.29,10.02,.58,3.28,.29,6.65,.58,9.93,.96,3.28,.39,6.65,.77,9.93,1.35s6.55,1.06,9.83,1.73,6.55,1.35,9.73,2.02c3.28,.77,6.46,1.54,9.64,2.41s6.36,1.83,9.54,2.79c3.18,.96,6.26,2.02,9.44,3.18,3.08,1.16,6.17,2.31,9.25,3.47,3.08,1.25,6.07,2.51,9.06,3.85,2.99,1.35,5.97,2.7,8.96,4.24,2.99,1.45,5.88,2.99,8.77,4.53,2.89,1.54,5.69,3.18,8.48,4.82,2.79,1.64,5.59,3.37,8.29,5.2,2.7,1.73,5.4,3.57,8.09,5.49,2.6,1.93,5.3,3.85,7.81,5.78,2.6,2.02,5.11,4.05,7.52,6.07s4.91,4.24,7.32,6.36c2.41,2.12,4.72,4.34,7.03,6.65,2.31,2.22,4.53,4.53,6.75,6.94,2.22,2.31,4.34,4.72,6.36,7.13,2.12,2.41,4.14,4.91,6.07,7.42s3.85,5.01,5.78,7.61c1.83,2.6,3.66,5.2,5.4,7.81s3.47,5.3,5.11,8,3.18,5.4,4.72,8.19c1.54,2.79,2.99,5.59,4.34,8.38,1.35,2.79,2.7,5.69,3.95,8.58,1.25,2.89,2.51,5.78,3.57,8.67,1.16,2.89,2.22,5.88,3.18,8.77,.96,2.99,1.93,5.97,2.79,8.96l.1,.48-.1,.48c-2.79,9.64-6.26,19.08-10.41,28.23-3.95,8.58-8.38,16.86-13.3,24.96-6.94,11.18-14.84,21.78-23.61,31.7-8.87,9.93-18.5,19.18-29.01,27.66-14.36,11.66-30.07,21.49-46.93,29.68-8.67,4.24-17.63,7.9-26.89,11.18-9.15,3.18-18.6,5.88-28.14,8.09-9.54,2.12-19.18,3.76-28.91,4.91-10.02,1.16-19.85,1.73-29.68,1.73Z"/></g><g class="cls-49"><path class="cls-7" d="M217.17,11.06c3.76,8.19,8,16.19,12.72,23.9,6.65,10.79,14.26,21.01,22.74,30.55,8.87,10.02,18.5,19.27,29.1,27.75,5.4,4.34,10.99,8.48,16.86,12.33,5.78,3.85,11.76,7.52,17.92,10.89s12.43,6.55,18.89,9.44,13.01,5.49,19.75,7.81c6.75,2.31,13.49,4.34,20.43,6.17,6.94,1.73,13.88,3.18,20.91,4.43,7.03,1.16,14.17,2.02,21.3,2.6,7.13,.58,14.26,.87,21.39,.87,9.64,0,19.27-.58,28.91-1.64,9.64-1.06,19.08-2.7,28.43-4.82s18.6-4.82,27.66-7.9c9.06-3.18,17.83-6.84,26.4-10.99,16.67-8.09,31.99-17.83,46.16-29.2,10.31-8.29,19.85-17.35,28.52-27.17,8.67-9.83,16.48-20.24,23.22-31.22,4.72-7.71,8.96-15.71,12.72-23.9-1.16-2.51-2.31-5.01-3.57-7.52-1.25-2.51-2.51-4.91-3.85-7.32s-2.7-4.82-4.14-7.23-2.89-4.72-4.43-7.13c-1.54-2.31-3.08-4.63-4.72-6.94s-3.28-4.53-5.01-6.75-3.47-4.43-5.3-6.55-3.66-4.34-5.49-6.36c-1.93-2.12-3.76-4.14-5.78-6.17-1.93-2.02-3.95-4.05-5.97-5.97-2.02-1.93-4.14-3.95-6.26-5.78-2.12-1.93-4.24-3.76-6.46-5.59s-4.43-3.66-6.65-5.4c-2.22-1.73-4.53-3.47-6.84-5.11-2.31-1.64-4.72-3.28-7.03-4.91-2.41-1.64-4.82-3.18-7.23-4.63-2.41-1.54-4.91-2.99-7.42-4.43s-5.01-2.79-7.61-4.14-5.11-2.6-7.81-3.85c-2.6-1.25-5.3-2.51-7.9-3.66-2.7-1.16-5.3-2.31-8.09-3.37-2.7-1.06-5.4-2.12-8.19-3.08-2.7-.96-5.49-1.93-8.29-2.79-2.79-.87-5.59-1.73-8.38-2.51s-5.69-1.54-8.48-2.22-5.69-1.35-8.58-1.93-5.78-1.16-8.67-1.64-5.78-.96-8.67-1.35-5.78-.77-8.77-1.06c-2.89-.29-5.88-.58-8.77-.77s-5.88-.39-8.77-.48-5.88-.19-8.87-.19-5.88,.1-8.87,.19c-2.89,.1-5.88,.29-8.77,.48s-5.88,.48-8.77,.77-5.88,.67-8.77,1.06c-2.89,.39-5.78,.87-8.67,1.35s-5.78,1.06-8.67,1.64c-2.89,.58-5.69,1.25-8.58,1.93s-5.69,1.45-8.48,2.22-5.59,1.64-8.38,2.51c-2.79,.87-5.59,1.83-8.29,2.79-2.7,.96-5.49,2.02-8.19,3.08s-5.4,2.22-8.09,3.37-5.3,2.41-7.9,3.66-5.2,2.51-7.81,3.85-5.11,2.7-7.61,4.14-5.01,2.89-7.42,4.43-4.91,3.08-7.23,4.63c-2.41,1.64-4.72,3.18-7.03,4.91-2.31,1.64-4.63,3.37-6.84,5.11-2.22,1.73-4.53,3.57-6.65,5.4-2.22,1.83-4.34,3.66-6.46,5.59s-4.24,3.85-6.26,5.78-4.05,3.95-5.97,5.97c-1.93,2.02-3.85,4.14-5.78,6.17-1.93,2.12-3.76,4.24-5.49,6.36-1.83,2.12-3.57,4.34-5.3,6.55s-3.37,4.43-5.01,6.75-3.18,4.63-4.72,6.94c-1.54,2.31-2.99,4.72-4.43,7.13s-2.79,4.82-4.14,7.23-2.6,4.91-3.85,7.32c-1.25,2.6-2.51,5.11-3.57,7.61Zm222.02,140.5c-9.83,0-19.56-.58-29.29-1.64-9.73-1.06-19.37-2.7-28.91-4.91-9.54-2.12-18.89-4.82-28.04-8.09-9.15-3.18-18.12-6.94-26.89-11.18-16.86-8.19-32.57-18.12-46.93-29.68-10.7-8.58-20.62-18.02-29.58-28.23-8.67-9.73-16.29-20.14-23.13-31.13-5.01-8.09-9.44-16.38-13.3-24.96l-.29-.67,.29-.67c1.16-2.6,2.41-5.11,3.66-7.61s2.6-5.01,3.95-7.52c1.35-2.51,2.79-4.91,4.24-7.42,1.45-2.41,2.99-4.82,4.53-7.23,1.54-2.41,3.18-4.72,4.82-7.03s3.37-4.63,5.11-6.94,3.47-4.53,5.3-6.75,3.66-4.43,5.59-6.55,3.85-4.24,5.88-6.36,4.05-4.14,6.07-6.17c2.12-2.02,4.14-3.95,6.36-5.97,2.12-1.93,4.34-3.85,6.55-5.69s4.53-3.66,6.75-5.49c2.31-1.83,4.63-3.57,7.03-5.2,2.41-1.73,4.72-3.37,7.23-5.01,2.41-1.64,4.91-3.18,7.42-4.72s5.01-3.08,7.61-4.53c2.6-1.45,5.11-2.89,7.71-4.24s5.2-2.7,7.9-3.95c2.7-1.25,5.4-2.51,8.09-3.66s5.49-2.31,8.19-3.47c2.79-1.06,5.49-2.12,8.29-3.18,2.79-.96,5.59-1.93,8.48-2.89,2.79-.87,5.69-1.73,8.58-2.6,2.89-.77,5.78-1.54,8.67-2.31,2.89-.67,5.78-1.35,8.77-1.93,2.89-.58,5.88-1.16,8.77-1.64s5.88-.96,8.87-1.35c2.99-.39,5.97-.77,8.96-1.06s5.97-.58,8.96-.77,5.97-.39,8.96-.48,5.97-.19,8.96-.19,5.97,.1,8.96,.19c2.99,.1,5.97,.29,8.96,.48s5.97,.48,8.96,.77,5.97,.67,8.96,1.06c2.99,.39,5.88,.87,8.87,1.35s5.88,1.06,8.77,1.64c2.89,.58,5.88,1.25,8.77,1.93s5.78,1.45,8.67,2.31c2.89,.77,5.69,1.64,8.58,2.6,2.79,.87,5.69,1.83,8.48,2.89,2.79,.96,5.59,2.02,8.29,3.18,2.79,1.06,5.49,2.22,8.19,3.47s5.4,2.41,8.09,3.66c2.7,1.25,5.3,2.6,7.9,3.95s5.2,2.79,7.71,4.24c2.6,1.45,5.11,2.99,7.61,4.53,2.51,1.54,4.91,3.08,7.42,4.72,2.41,1.64,4.82,3.28,7.23,5.01,2.41,1.73,4.72,3.47,7.03,5.2,2.31,1.83,4.53,3.66,6.75,5.49,2.22,1.83,4.43,3.76,6.55,5.69s4.24,3.95,6.36,5.97c2.12,2.02,4.14,4.05,6.07,6.17,2.02,2.12,3.95,4.24,5.88,6.36,1.93,2.12,3.76,4.34,5.59,6.55,1.83,2.22,3.57,4.43,5.3,6.75s3.47,4.53,5.11,6.94c1.64,2.31,3.28,4.72,4.82,7.03,1.54,2.41,3.08,4.82,4.53,7.23s2.89,4.91,4.24,7.42,2.7,5.01,3.95,7.52c1.25,2.51,2.51,5.11,3.66,7.61v.67s-.29,.67-.29,.67c-3.95,8.58-8.29,16.86-13.3,24.96-6.94,11.18-14.84,21.78-23.61,31.7-8.87,9.93-18.5,19.18-29.01,27.66-14.36,11.66-30.07,21.49-46.93,29.68-8.67,4.24-17.63,7.9-26.89,11.18-9.15,3.18-18.6,5.88-28.14,8.09-9.54,2.12-19.18,3.76-28.91,4.91-9.73,1.06-19.56,1.64-29.39,1.64Z"/></g><g class="cls-48"><path class="cls-7" d="M230.47,35.82c6.55,10.41,13.88,20.33,22.16,29.68,8.87,10.02,18.5,19.27,29.1,27.75,14.17,11.47,29.58,21.2,46.16,29.2,4.24,2.02,8.58,4.05,13.01,5.88s8.87,3.57,13.39,5.11c4.53,1.54,9.06,2.99,13.68,4.34s9.25,2.51,13.97,3.57c4.72,1.06,9.44,2.02,14.17,2.79,4.72,.77,9.54,1.45,14.26,2.02,4.82,.58,9.64,.96,14.45,1.25s9.64,.39,14.45,.39,9.64-.1,14.45-.39c4.82-.29,9.64-.67,14.45-1.25s9.54-1.25,14.26-2.02c4.72-.77,9.44-1.73,14.17-2.79s9.35-2.22,13.97-3.57,9.15-2.79,13.68-4.34,8.96-3.28,13.39-5.11c4.43-1.83,8.77-3.76,13.01-5.88,16.67-8.09,31.99-17.83,46.16-29.2,10.21-8.19,19.56-17.15,28.14-26.79,8.58-9.64,16.29-19.85,23.03-30.74-2.6-4.24-5.4-8.38-8.38-12.43s-5.97-8-9.15-11.95c-3.18-3.85-6.55-7.61-10.02-11.37-3.47-3.66-7.03-7.23-10.79-10.7-3.76-3.47-7.52-6.84-11.56-10.02-3.95-3.18-8-6.36-12.24-9.35-4.14-2.99-8.48-5.78-12.82-8.58-4.34-2.7-8.87-5.3-13.39-7.71s-9.15-4.72-13.88-6.94c-4.72-2.12-9.54-4.14-14.36-6.07-4.82-1.83-9.83-3.57-14.74-5.2s-10.02-2.99-15.13-4.24-10.21-2.41-15.32-3.37c-5.2-.96-10.31-1.73-15.51-2.41-5.2-.67-10.41-1.16-15.71-1.45-5.2-.29-10.5-.48-15.8-.48s-10.5,.19-15.8,.48c-5.2,.29-10.5,.77-15.71,1.45-5.2,.67-10.41,1.45-15.51,2.41-5.2,.96-10.31,2.02-15.32,3.37-5.11,1.25-10.12,2.7-15.13,4.24s-9.93,3.28-14.74,5.2c-4.82,1.83-9.64,3.85-14.36,6.07-4.72,2.12-9.35,4.43-13.88,6.94-4.53,2.41-9.06,5.01-13.39,7.71s-8.67,5.59-12.82,8.58-8.29,6.07-12.24,9.35c-3.95,3.18-7.81,6.55-11.56,10.02s-7.32,7.03-10.79,10.7-6.84,7.42-10.02,11.37c-3.18,3.85-6.26,7.9-9.15,11.95-2.89,4.14-5.69,8.29-8.29,12.53Zm208.73,115.73c-9.83,0-19.56-.58-29.29-1.64-9.73-1.06-19.37-2.7-28.91-4.91-9.54-2.12-18.89-4.82-28.04-8.09-9.15-3.18-18.12-6.94-26.89-11.18-16.86-8.19-32.57-18.12-46.93-29.68-10.7-8.58-20.62-18.02-29.58-28.23-8.67-9.73-16.29-20.14-23.13-31.13l-.58-.87,.58-.87c2.7-4.34,5.49-8.58,8.48-12.72,2.99-4.14,6.07-8.19,9.35-12.24,3.28-3.95,6.65-7.81,10.21-11.66,3.57-3.76,7.23-7.42,10.99-10.99,3.76-3.57,7.71-6.94,11.76-10.31,4.05-3.28,8.19-6.46,12.43-9.54,4.24-3.08,8.58-5.97,13.11-8.77,4.43-2.79,9.06-5.4,13.68-7.9,4.63-2.51,9.35-4.91,14.17-7.13,4.82-2.22,9.73-4.24,14.65-6.17s10.02-3.66,15.03-5.3c5.11-1.64,10.21-3.08,15.42-4.34s10.41-2.41,15.71-3.37,10.6-1.83,15.9-2.41c5.3-.67,10.7-1.16,16-1.45,5.4-.29,10.7-.48,16.09-.48s10.7,.19,16.09,.48c5.4,.29,10.7,.87,16,1.45,5.3,.67,10.6,1.45,15.9,2.41s10.5,2.12,15.71,3.37c5.2,1.25,10.31,2.79,15.42,4.34,5.11,1.64,10.12,3.37,15.03,5.3s9.83,3.95,14.65,6.17,9.54,4.63,14.17,7.13c4.63,2.51,9.15,5.11,13.68,7.9s8.77,5.69,13.11,8.77c4.24,3.08,8.38,6.26,12.43,9.54,4.05,3.28,7.9,6.75,11.76,10.31,3.76,3.57,7.42,7.23,10.99,10.99,3.57,3.76,6.94,7.61,10.21,11.66,3.28,3.95,6.36,8,9.35,12.24,2.99,4.14,5.78,8.38,8.48,12.72l.58,.96-.58,.87c-6.94,11.18-14.84,21.78-23.61,31.7-8.77,9.93-18.5,19.18-29.01,27.66-14.36,11.66-30.07,21.49-46.93,29.68-8.67,4.24-17.63,7.9-26.89,11.18-9.15,3.18-18.6,5.88-28.14,8.09-9.54,2.12-19.18,3.76-28.91,4.91-10.02,.96-19.85,1.54-29.68,1.54Z"/></g><g class="cls-47"><path class="cls-7" d="M253.6,66.66c8.58,9.64,17.92,18.5,28.04,26.6,5.4,4.34,10.99,8.48,16.86,12.33,5.78,3.85,11.76,7.52,17.92,10.89s12.43,6.55,18.89,9.44,13.01,5.49,19.75,7.81c6.75,2.31,13.49,4.34,20.43,6.17,6.94,1.73,13.88,3.18,20.91,4.43,7.03,1.16,14.17,2.02,21.3,2.6,7.13,.58,14.26,.87,21.39,.87,9.64,0,19.27-.58,28.91-1.64,9.64-1.06,19.08-2.7,28.43-4.82s18.6-4.82,27.66-7.9c9.06-3.18,17.83-6.84,26.4-10.99,16.67-8.09,31.99-17.83,46.16-29.2,10.12-8.19,19.47-17.06,28.04-26.6-2.79-3.18-5.69-6.26-8.77-9.25-2.99-2.99-6.07-5.97-9.25-8.77-3.18-2.89-6.46-5.59-9.73-8.29-3.37-2.7-6.75-5.3-10.21-7.81s-7.03-4.91-10.7-7.23-7.32-4.53-11.08-6.75c-3.76-2.12-7.61-4.14-11.47-6.17-3.85-1.93-7.81-3.76-11.85-5.59-3.95-1.73-8-3.37-12.14-4.91-4.05-1.54-8.19-2.99-12.43-4.34-4.14-1.35-8.38-2.51-12.62-3.66-4.24-1.16-8.58-2.12-12.82-2.99-4.34-.87-8.67-1.64-13.01-2.31-4.34-.67-8.77-1.25-13.11-1.64-4.43-.48-8.77-.77-13.2-1.06-4.43-.19-8.87-.39-13.2-.39s-8.87,.1-13.2,.39c-4.43,.19-8.77,.58-13.2,1.06-4.43,.48-8.77,1.06-13.11,1.64-4.34,.67-8.67,1.45-13.01,2.31s-8.58,1.93-12.82,2.99c-4.24,1.16-8.48,2.31-12.62,3.66-4.14,1.35-8.29,2.79-12.43,4.34s-8.09,3.18-12.14,4.91c-3.95,1.73-7.9,3.57-11.85,5.59-3.85,1.93-7.71,3.95-11.47,6.17-3.76,2.12-7.42,4.34-11.08,6.75-3.66,2.31-7.23,4.72-10.7,7.23s-6.94,5.11-10.21,7.81c-3.37,2.7-6.55,5.49-9.73,8.29-3.18,2.89-6.26,5.78-9.25,8.77-2.89,2.99-5.88,6.17-8.67,9.25h0Zm185.6,84.9c-4.53,0-9.06-.1-13.59-.39-4.53-.19-9.06-.58-13.49-1.06-4.53-.48-8.96-1.06-13.39-1.73-4.43-.67-8.87-1.54-13.3-2.41-4.43-.96-8.77-1.93-13.11-3.08s-8.67-2.41-12.91-3.76-8.48-2.89-12.72-4.43c-4.14-1.54-8.29-3.28-12.43-5.11-4.05-1.83-8.09-3.66-12.05-5.69s-7.9-4.14-11.76-6.36c-3.85-2.22-7.61-4.53-11.37-6.94-3.66-2.41-7.32-4.91-10.89-7.52-3.57-2.6-7.03-5.3-10.41-8-3.37-2.79-6.75-5.59-9.93-8.58-3.28-2.99-6.36-5.97-9.44-9.06-3.08-3.08-5.97-6.26-8.87-9.54l-1.06-1.16,1.06-1.16c2.89-3.28,5.78-6.46,8.87-9.54s6.17-6.17,9.44-9.06c3.28-2.99,6.55-5.78,9.93-8.58,3.37-2.79,6.84-5.49,10.41-8.09,3.57-2.6,7.23-5.11,10.89-7.52,3.66-2.41,7.52-4.72,11.37-6.94,3.85-2.22,7.71-4.34,11.76-6.36,3.95-2.02,8-3.95,12.05-5.69,4.05-1.83,8.19-3.47,12.43-5.11,4.14-1.54,8.38-3.08,12.72-4.43,4.24-1.35,8.58-2.6,12.91-3.76,4.34-1.16,8.77-2.22,13.11-3.08s8.87-1.73,13.3-2.41,8.96-1.25,13.39-1.73c4.53-.48,8.96-.77,13.49-1.06,4.53-.19,9.06-.39,13.59-.39s9.06,.1,13.59,.39c4.53,.19,9.06,.58,13.49,1.06,4.53,.48,8.96,1.06,13.39,1.73,4.43,.67,8.87,1.54,13.3,2.41,4.43,.96,8.77,1.93,13.11,3.08s8.67,2.41,12.91,3.76,8.48,2.89,12.72,4.43c4.14,1.54,8.29,3.28,12.43,5.11s8.09,3.66,12.05,5.69c3.95,2.02,7.9,4.14,11.76,6.36,3.85,2.22,7.61,4.53,11.37,6.94,3.66,2.41,7.32,4.91,10.89,7.52,3.57,2.6,7.03,5.3,10.41,8.09s6.75,5.59,9.93,8.58c3.28,2.99,6.36,5.97,9.44,9.06s5.97,6.26,8.87,9.54l1.06,1.16-1.06,1.16c-8.96,10.21-18.89,19.66-29.58,28.23-14.36,11.66-30.07,21.49-46.93,29.68-8.67,4.24-17.63,7.9-26.89,11.18-9.15,3.18-18.6,5.88-28.14,8.09-9.54,2.12-19.18,3.76-28.91,4.91-9.54,.96-19.37,1.54-29.2,1.54Z"/></g><g class="cls-51"><path class="cls-7" d="M283.37,94.7c5.4,4.24,10.99,8.29,16.77,12.05,5.78,3.76,11.66,7.32,17.83,10.7,6.07,3.28,12.33,6.36,18.79,9.15,6.36,2.79,12.91,5.3,19.56,7.61,6.65,2.22,13.39,4.24,20.14,5.97,6.84,1.73,13.68,3.18,20.62,4.24,6.94,1.16,13.97,2.02,21.01,2.6,7.03,.58,14.07,.87,21.2,.87,9.64,0,19.27-.58,28.91-1.64,9.64-1.06,19.08-2.7,28.43-4.82s18.6-4.82,27.66-7.9c9.06-3.18,17.83-6.84,26.4-10.99,15.9-7.71,30.74-16.96,44.42-27.85-2.7-2.12-5.4-4.14-8.19-6.17s-5.59-3.95-8.48-5.88-5.78-3.76-8.77-5.49c-2.99-1.73-5.97-3.47-9.06-5.11-3.08-1.64-6.17-3.28-9.25-4.72-3.08-1.54-6.26-2.99-9.44-4.34s-6.46-2.7-9.64-3.95c-3.28-1.25-6.55-2.51-9.83-3.57-3.28-1.16-6.65-2.22-10.02-3.18s-6.75-1.93-10.12-2.79-6.84-1.64-10.31-2.31c-3.47-.67-6.94-1.35-10.41-1.93s-6.94-1.06-10.5-1.54-7.03-.77-10.5-1.06-7.03-.48-10.6-.67c-3.57-.1-7.03-.19-10.6-.19s-7.03,.1-10.6,.19c-3.57,.1-7.03,.39-10.6,.67-3.47,.29-7.03,.67-10.5,1.06-3.47,.39-7.03,.96-10.5,1.54-3.47,.58-6.94,1.25-10.41,1.93s-6.84,1.54-10.31,2.31c-3.37,.87-6.84,1.73-10.12,2.79-3.37,.96-6.75,2.02-10.02,3.18s-6.65,2.31-9.83,3.57c-3.28,1.25-6.46,2.6-9.64,3.95-3.18,1.35-6.36,2.89-9.44,4.34-3.08,1.54-6.17,3.08-9.25,4.72-3.08,1.64-6.07,3.37-9.06,5.11s-5.88,3.57-8.77,5.49-5.69,3.85-8.48,5.88c-2.99,2.02-5.78,4.05-8.48,6.17Zm155.82,56.85c-7.32,0-14.55-.29-21.78-.87-7.23-.58-14.45-1.45-21.59-2.7-7.13-1.16-14.26-2.7-21.3-4.43-7.03-1.83-13.97-3.85-20.72-6.26-6.84-2.41-13.49-5.01-20.04-7.9s-13.01-6.07-19.27-9.54-12.33-7.13-18.21-11.08c-5.88-3.95-11.56-8.19-17.15-12.62l-1.73-1.35,1.73-1.35c2.79-2.22,5.59-4.34,8.38-6.46,2.89-2.12,5.78-4.14,8.67-6.07s5.97-3.85,8.96-5.78c3.08-1.83,6.17-3.66,9.25-5.4,3.08-1.73,6.26-3.37,9.54-5.01,3.18-1.64,6.46-3.08,9.73-4.53s6.55-2.89,9.93-4.14c3.37-1.35,6.75-2.6,10.12-3.76s6.84-2.31,10.31-3.37c3.47-1.06,6.94-2.02,10.41-2.89s7.03-1.73,10.6-2.51,7.13-1.45,10.7-2.02c3.57-.58,7.13-1.16,10.79-1.54,3.57-.48,7.23-.87,10.79-1.16,3.66-.29,7.23-.48,10.89-.67s7.23-.19,10.89-.19,7.23,.1,10.89,.19c3.66,.19,7.23,.39,10.89,.67,3.66,.29,7.23,.67,10.79,1.16s7.23,.96,10.79,1.54,7.13,1.25,10.7,2.02c3.57,.77,7.03,1.54,10.6,2.51,3.47,.87,7.03,1.83,10.41,2.89,3.47,1.06,6.94,2.12,10.31,3.37,3.37,1.16,6.75,2.41,10.12,3.76s6.65,2.7,9.93,4.14c3.28,1.45,6.55,2.99,9.73,4.53,3.18,1.64,6.36,3.28,9.54,5.01,3.08,1.73,6.26,3.47,9.25,5.4,3.08,1.83,6.07,3.76,8.96,5.78,2.99,1.93,5.88,4.05,8.67,6.07,2.89,2.12,5.69,4.24,8.38,6.46l1.73,1.35-1.73,1.35c-14.36,11.66-30.07,21.49-46.93,29.68-8.67,4.24-17.63,7.9-26.89,11.18-9.15,3.18-18.6,5.88-28.14,8.09-9.54,2.12-19.18,3.76-28.91,4.91-9.35,.96-19.18,1.54-29.01,1.54Z"/></g><g class="cls-53"><path class="cls-7" d="M331.27,124.19c8.38,3.95,16.86,7.32,25.63,10.31,8.77,2.99,17.73,5.49,26.79,7.42,9.06,2.02,18.31,3.47,27.56,4.43,9.25,.96,18.6,1.45,27.95,1.45s18.6-.48,27.95-1.54c9.25-.96,18.5-2.51,27.56-4.53,9.06-2.02,18.02-4.43,26.79-7.42,8.77-2.99,17.35-6.36,25.73-10.21-8.38-3.85-16.96-7.32-25.73-10.31-8.77-2.99-17.73-5.4-26.79-7.42-9.06-2.02-18.31-3.47-27.56-4.53-9.25-.96-18.6-1.54-27.95-1.54s-18.69,.48-27.95,1.45-18.5,2.51-27.56,4.53-18.02,4.53-26.79,7.42-17.25,6.55-25.63,10.5Zm107.93,27.37c-9.83,0-19.56-.58-29.29-1.64-9.73-1.06-19.37-2.7-28.91-4.91-9.54-2.12-18.89-4.82-28.04-8.09-9.15-3.18-18.12-6.94-26.89-11.18l-3.37-1.64,3.37-1.64c4.34-2.12,8.77-4.05,13.2-5.97,4.43-1.83,9.06-3.57,13.59-5.2,4.63-1.64,9.25-3.08,13.88-4.43,4.72-1.35,9.44-2.6,14.17-3.66,4.72-1.06,9.54-2.02,14.36-2.89,4.82-.77,9.64-1.54,14.55-2.02,4.91-.58,9.73-.96,14.65-1.25,4.91-.29,9.83-.39,14.74-.39s9.83,.1,14.74,.39,9.73,.67,14.65,1.25c4.91,.58,9.73,1.25,14.55,2.02,4.82,.77,9.64,1.73,14.36,2.89s9.44,2.31,14.17,3.66,9.35,2.79,13.88,4.43,9.15,3.37,13.59,5.2,8.87,3.85,13.2,5.97l3.37,1.64-3.37,1.64c-8.67,4.24-17.63,7.9-26.89,11.18-9.15,3.18-18.6,5.88-28.14,8.09-9.54,2.12-19.18,3.76-28.91,4.91-9.54,1.06-19.37,1.64-29.2,1.64Z"/></g><g class="cls-52"><path class="cls-7" d="M439.29,94.13c-3.66,0-7.32-.1-11.08-.29-3.66-.19-7.32-.39-10.99-.67-3.66-.29-7.32-.67-10.99-1.16-3.66-.48-7.32-.96-10.89-1.64-3.66-.58-7.23-1.35-10.79-2.12-3.57-.77-7.13-1.64-10.7-2.51-3.57-.96-7.03-1.93-10.6-2.99-3.47-1.06-6.94-2.22-10.41-3.37-3.47-1.25-6.84-2.51-10.21-3.85s-6.75-2.79-10.02-4.24c-3.28-1.54-6.55-3.08-9.83-4.72-3.28-1.64-6.46-3.37-9.64-5.11s-6.26-3.57-9.35-5.49-6.07-3.85-9.06-5.88-5.88-4.14-8.77-6.26-5.69-4.34-8.48-6.65-5.49-4.63-8.09-6.94c-2.7-2.41-5.2-4.82-7.81-7.32-2.51-2.51-5.01-5.01-7.42-7.61-2.41-2.6-4.72-5.2-7.03-7.9s-4.53-5.4-6.65-8.19c-2.12-2.79-4.24-5.59-6.26-8.48s-3.95-5.78-5.88-8.77c-1.83-2.99-3.66-5.97-5.4-8.96-1.73-2.99-3.37-6.07-5.01-9.15-1.54-3.08-3.08-6.26-4.53-9.35-1.45-3.18-2.79-6.36-4.05-9.54-1.25-3.18-2.51-6.46-3.57-9.73-1.16-3.28-2.12-6.55-3.08-9.83-.96-3.28-1.83-6.65-2.6-10.02-.77-3.37-1.54-6.75-2.12-10.12-.67-3.37-1.16-6.75-1.64-10.21l3.95-.48c.48,3.37,.96,6.65,1.64,10.02,.58,3.28,1.35,6.65,2.12,9.93,.77,3.28,1.64,6.55,2.6,9.83,.96,3.28,1.93,6.46,3.08,9.73,1.06,3.18,2.31,6.36,3.57,9.54,1.25,3.18,2.6,6.26,3.95,9.44,1.45,3.08,2.89,6.17,4.43,9.25s3.18,6.07,4.91,9.06c1.73,2.99,3.47,5.88,5.3,8.87,1.83,2.89,3.76,5.78,5.78,8.58s4.05,5.59,6.17,8.38,4.34,5.4,6.55,8.09c2.22,2.6,4.53,5.2,6.94,7.81,2.41,2.51,4.82,5.01,7.32,7.52,2.51,2.41,5.01,4.82,7.61,7.23,2.6,2.31,5.3,4.63,8,6.84s5.49,4.43,8.29,6.55c2.79,2.12,5.69,4.14,8.67,6.17,2.89,2.02,5.88,3.95,8.96,5.78s6.07,3.66,9.15,5.4,6.26,3.37,9.44,5.01,6.46,3.18,9.64,4.63c3.28,1.45,6.55,2.89,9.93,4.24s6.65,2.6,10.12,3.76c3.37,1.16,6.84,2.31,10.21,3.37,3.47,1.06,6.94,2.02,10.41,2.89s7.03,1.73,10.5,2.51c3.57,.77,7.13,1.45,10.7,2.02,3.57,.58,7.13,1.16,10.7,1.64,3.57,.48,7.23,.87,10.79,1.16,3.57,.29,7.23,.58,10.89,.67,3.66,.19,7.23,.19,10.89,.19s7.23-.1,10.89-.19c3.66-.19,7.23-.39,10.89-.67,3.57-.29,7.23-.67,10.79-1.16s7.13-.96,10.7-1.54c3.57-.58,7.13-1.25,10.7-2.02,3.57-.77,7.03-1.54,10.5-2.51,3.47-.87,6.94-1.83,10.41-2.89s6.84-2.12,10.21-3.37c3.37-1.16,6.75-2.41,10.12-3.76s6.65-2.7,9.93-4.24c3.28-1.45,6.46-2.99,9.64-4.63s6.36-3.28,9.44-5.01,6.17-3.57,9.15-5.4c2.99-1.83,5.97-3.76,8.96-5.78,2.89-2.02,5.78-4.05,8.67-6.17,2.79-2.12,5.59-4.24,8.29-6.55,2.7-2.22,5.4-4.53,8-6.84s5.2-4.72,7.71-7.23c2.51-2.41,4.91-4.91,7.32-7.52s4.72-5.11,6.94-7.81c2.22-2.6,4.43-5.3,6.55-8.09,2.12-2.7,4.14-5.49,6.17-8.38,2.02-2.79,3.85-5.69,5.78-8.58,1.83-2.89,3.66-5.88,5.3-8.87,1.73-2.99,3.37-5.97,4.91-9.06s3.08-6.17,4.43-9.25c1.45-3.08,2.7-6.26,3.95-9.44s2.41-6.36,3.57-9.54c1.06-3.18,2.12-6.46,3.08-9.73s1.83-6.55,2.6-9.83c.77-3.28,1.45-6.65,2.12-9.93,.58-3.28,1.16-6.65,1.64-10.02-1.35-10.31-3.57-20.43-6.46-30.35-2.79-9.44-6.17-18.69-10.21-27.75-3.85-8.48-8.19-16.67-13.11-24.57-6.84-10.99-14.55-21.39-23.22-31.22-8.67-9.83-18.21-18.89-28.52-27.17-2.7-2.22-5.49-4.34-8.29-6.36-2.79-2.02-5.69-4.05-8.58-5.97s-5.88-3.85-8.87-5.69c-2.99-1.83-6.07-3.57-9.15-5.3s-6.17-3.37-9.35-4.91-6.36-3.08-9.54-4.53c-3.28-1.45-6.46-2.79-9.83-4.14-3.28-1.25-6.65-2.51-9.93-3.66-3.37-1.16-6.75-2.22-10.12-3.28s-6.84-1.93-10.31-2.89c-3.47-.87-6.94-1.73-10.41-2.41-3.47-.77-7.03-1.45-10.5-2.02-3.57-.58-7.03-1.06-10.6-1.54s-7.13-.77-10.7-1.16c-3.57-.29-7.13-.48-10.7-.67-3.57-.19-7.13-.19-10.7-.19s-7.13,.1-10.7,.19c-3.57,.19-7.13,.39-10.7,.67-3.57,.29-7.13,.67-10.7,1.16-3.57,.48-7.03,.96-10.6,1.54s-7.03,1.25-10.5,2.02-6.94,1.54-10.41,2.41-6.84,1.83-10.31,2.89c-3.37,1.06-6.75,2.12-10.12,3.28-3.37,1.16-6.65,2.41-9.93,3.66s-6.55,2.7-9.83,4.14c-3.28,1.45-6.46,2.89-9.54,4.53-3.18,1.54-6.26,3.18-9.35,4.91-3.08,1.73-6.07,3.47-9.15,5.3-2.99,1.83-5.97,3.66-8.87,5.69-2.89,1.93-5.78,3.95-8.58,5.97s-5.59,4.14-8.29,6.36c-10.6,8.48-20.24,17.73-29.1,27.75-8.48,9.64-16.09,19.85-22.74,30.64-10.21,16.48-18.02,34.02-23.32,52.42l-3.85-.96c5.4-18.69,13.3-36.43,23.71-53.29,6.75-10.99,14.45-21.3,23.13-31.13,8.96-10.21,18.79-19.66,29.58-28.23,5.49-4.43,11.18-8.58,17.15-12.62,5.88-3.95,11.95-7.61,18.21-11.08s12.72-6.65,19.27-9.54c6.55-2.89,13.3-5.59,20.04-7.9,6.84-2.31,13.78-4.43,20.72-6.26,7.03-1.83,14.07-3.28,21.3-4.43,7.13-1.16,14.36-2.12,21.59-2.7,7.23-.58,14.55-.87,21.78-.87,9.83,0,19.56,.58,29.39,1.64,9.73,1.06,19.37,2.7,28.91,4.91s18.89,4.82,28.14,8.09c9.15,3.18,18.12,6.94,26.89,11.18,16.86,8.19,32.57,18.12,46.93,29.68,10.5,8.48,20.14,17.63,29.01,27.66,8.87,9.93,16.67,20.53,23.61,31.7,4.91,8.09,9.35,16.38,13.3,24.96,4.14,9.25,7.61,18.6,10.41,28.23,2.99,10.21,5.2,20.62,6.65,31.13v.39c-.48,3.37-1.06,6.75-1.64,10.21-.67,3.37-1.35,6.75-2.12,10.12s-1.64,6.65-2.6,10.02c-.96,3.28-2.02,6.65-3.08,9.83-1.16,3.28-2.31,6.55-3.57,9.73-1.25,3.18-2.6,6.36-4.05,9.54-1.45,3.18-2.89,6.26-4.53,9.35s-3.28,6.17-5.01,9.15-3.57,5.97-5.4,8.96c-1.83,2.99-3.85,5.88-5.88,8.77s-4.14,5.69-6.26,8.48c-2.12,2.79-4.34,5.49-6.65,8.19-2.31,2.7-4.63,5.3-7.03,7.9s-4.91,5.11-7.42,7.61c-2.51,2.51-5.11,4.91-7.81,7.32s-5.4,4.72-8.09,6.94c-2.79,2.31-5.59,4.43-8.48,6.65-2.89,2.12-5.78,4.24-8.77,6.26s-5.97,3.95-9.06,5.88-6.17,3.76-9.35,5.49-6.36,3.47-9.64,5.11-6.55,3.18-9.83,4.72-6.65,2.89-10.02,4.24-6.84,2.6-10.21,3.85c-3.47,1.25-6.94,2.31-10.41,3.37s-7.03,2.02-10.6,2.99-7.13,1.73-10.7,2.51c-3.57,.77-7.23,1.45-10.79,2.12-3.66,.58-7.23,1.16-10.89,1.64s-7.32,.87-10.99,1.16c-3.66,.29-7.32,.58-10.99,.67-4.53,.29-8.19,.39-11.85,.39Z"/></g><g class="cls-56"><path class="cls-7" d="M206.67-136.09c.87,2.89,1.83,5.88,2.79,8.77s2.02,5.78,3.18,8.67c1.16,2.89,2.31,5.69,3.57,8.48,1.25,2.79,2.51,5.59,3.95,8.38,1.35,2.79,2.79,5.49,4.24,8.19s2.99,5.4,4.63,8.09,3.28,5.3,5.01,7.9c1.73,2.6,3.47,5.11,5.3,7.71,1.83,2.51,3.76,5.01,5.69,7.42s3.95,4.82,5.97,7.23,4.14,4.72,6.26,7.03c2.12,2.31,4.34,4.53,6.55,6.75s4.53,4.34,6.84,6.55c2.31,2.12,4.72,4.24,7.13,6.26s4.91,4.05,7.42,5.97,5.11,3.85,7.71,5.69,5.2,3.66,7.9,5.4c2.7,1.73,5.4,3.47,8.19,5.11,2.79,1.64,5.59,3.28,8.38,4.72s5.69,2.99,8.58,4.43c2.89,1.45,5.78,2.79,8.77,4.14,2.99,1.35,5.97,2.6,8.96,3.76,2.99,1.25,6.07,2.31,9.06,3.47,3.08,1.06,6.17,2.12,9.25,3.08s6.26,1.93,9.35,2.7c3.18,.87,6.26,1.64,9.44,2.41s6.36,1.45,9.54,2.02c3.18,.58,6.46,1.16,9.64,1.64,3.28,.48,6.46,.96,9.73,1.25,3.28,.39,6.46,.67,9.73,.96,3.28,.29,6.55,.39,9.83,.58,3.28,.1,6.55,.19,9.83,.19s6.55-.1,9.83-.19,6.55-.29,9.83-.58c3.28-.29,6.55-.58,9.73-.96,3.28-.39,6.46-.77,9.73-1.25,3.28-.48,6.46-1.06,9.64-1.64,3.18-.58,6.36-1.25,9.54-2.02,3.18-.77,6.36-1.54,9.44-2.41,3.18-.87,6.26-1.73,9.35-2.7s6.17-2.02,9.25-3.08,6.07-2.22,9.06-3.47c2.99-1.25,5.97-2.51,8.96-3.76,2.99-1.35,5.88-2.7,8.77-4.14s5.78-2.89,8.58-4.43,5.59-3.08,8.38-4.72c2.79-1.64,5.49-3.37,8.19-5.11,2.7-1.73,5.3-3.57,7.9-5.4s5.2-3.76,7.71-5.69,5.01-3.95,7.42-5.97c2.41-2.02,4.82-4.14,7.13-6.26s4.63-4.34,6.84-6.55,4.43-4.43,6.55-6.75,4.24-4.63,6.26-7.03,4.05-4.82,5.97-7.23,3.85-4.91,5.69-7.42,3.57-5.11,5.3-7.71,3.37-5.2,5.01-7.9c1.64-2.7,3.18-5.3,4.63-8.09,1.45-2.7,2.89-5.49,4.24-8.19,1.35-2.79,2.7-5.59,3.95-8.38,1.25-2.79,2.41-5.69,3.57-8.48,1.16-2.89,2.22-5.78,3.18-8.67s1.93-5.78,2.79-8.77c-2.79-9.35-6.17-18.41-10.12-27.27-3.85-8.48-8.19-16.67-13.11-24.57-6.84-10.99-14.55-21.39-23.22-31.22s-18.21-18.89-28.52-27.17c-2.7-2.22-5.49-4.34-8.29-6.36-2.79-2.02-5.69-4.05-8.58-5.97s-5.88-3.85-8.87-5.69c-2.99-1.83-6.07-3.57-9.15-5.3s-6.17-3.37-9.35-4.91-6.36-3.08-9.54-4.53c-3.28-1.45-6.46-2.79-9.83-4.14-3.28-1.25-6.65-2.51-9.93-3.66-3.37-1.16-6.75-2.22-10.12-3.28s-6.84-1.93-10.31-2.89c-3.47-.87-6.94-1.73-10.41-2.41-3.47-.77-7.03-1.45-10.5-2.02-3.57-.58-7.03-1.06-10.6-1.54s-7.13-.77-10.7-1.16c-3.57-.29-7.13-.48-10.7-.67-3.57-.19-7.13-.19-10.7-.19s-7.13,.1-10.7,.19c-3.57,.19-7.13,.39-10.7,.67-3.57,.29-7.13,.67-10.7,1.16-3.57,.48-7.03,.96-10.6,1.54s-7.03,1.25-10.5,2.02c-3.47,.77-6.94,1.54-10.41,2.41s-6.84,1.83-10.31,2.89c-3.37,1.06-6.75,2.12-10.12,3.28s-6.65,2.41-9.93,3.66-6.55,2.7-9.83,4.14c-3.28,1.45-6.46,2.89-9.54,4.53-3.18,1.54-6.26,3.18-9.35,4.91-3.08,1.73-6.07,3.47-9.15,5.3-2.99,1.83-5.97,3.66-8.87,5.69-2.89,1.93-5.78,3.95-8.58,5.97s-5.59,4.14-8.29,6.36c-10.6,8.48-20.24,17.73-29.1,27.75-8.48,9.64-16.09,19.85-22.74,30.64-9.83,16.29-17.54,33.63-22.93,51.84h0ZM439.29,32.45c-3.37,0-6.65-.1-10.02-.19s-6.65-.29-9.93-.58c-3.28-.29-6.65-.58-9.93-.96-3.28-.39-6.65-.87-9.93-1.35-3.28-.48-6.55-1.06-9.83-1.73-3.28-.67-6.55-1.35-9.73-2.12-3.28-.77-6.46-1.54-9.64-2.41s-6.36-1.83-9.54-2.79c-3.18-.96-6.26-2.02-9.35-3.18s-6.17-2.31-9.25-3.47c-3.08-1.25-6.07-2.51-9.06-3.85-2.99-1.35-5.97-2.7-8.87-4.24-2.99-1.45-5.88-2.99-8.67-4.53-2.89-1.54-5.69-3.18-8.48-4.82s-5.59-3.37-8.29-5.2c-2.7-1.73-5.4-3.57-8.09-5.49s-5.2-3.85-7.81-5.78c-2.6-2.02-5.11-4.05-7.52-6.07-2.51-2.12-4.91-4.24-7.32-6.36-2.41-2.12-4.72-4.34-7.03-6.65-2.31-2.22-4.53-4.53-6.75-6.94-2.22-2.31-4.34-4.72-6.36-7.13-2.12-2.41-4.14-4.91-6.07-7.42s-3.85-5.01-5.78-7.61c-1.83-2.6-3.66-5.2-5.4-7.81-1.73-2.6-3.47-5.3-5.11-8-1.64-2.7-3.18-5.4-4.72-8.19s-2.99-5.59-4.34-8.38c-1.35-2.79-2.7-5.69-3.95-8.48-1.25-2.89-2.51-5.78-3.57-8.67-1.16-2.89-2.22-5.88-3.18-8.77-.96-2.99-1.93-5.88-2.79-8.87l-.1-.48,.1-.48c5.4-18.69,13.3-36.43,23.71-53.29,6.75-10.99,14.45-21.3,23.13-31.13,8.96-10.21,18.79-19.66,29.58-28.23,5.49-4.43,11.18-8.58,17.15-12.62,5.88-3.95,11.95-7.61,18.21-11.08s12.72-6.65,19.27-9.54,13.3-5.59,20.04-7.9c6.84-2.31,13.78-4.43,20.72-6.26,7.03-1.83,14.07-3.28,21.3-4.43,7.13-1.16,14.36-2.12,21.59-2.7,7.23-.58,14.55-.87,21.78-.87,9.83,0,19.56,.58,29.39,1.64,9.73,1.06,19.37,2.7,28.91,4.91,9.54,2.22,18.89,4.82,28.14,8.09,9.15,3.18,18.12,6.94,26.89,11.18,16.86,8.19,32.57,18.12,46.93,29.68,10.5,8.48,20.14,17.63,29.01,27.66,8.87,9.93,16.67,20.53,23.61,31.7,4.91,8.09,9.35,16.38,13.3,24.96,4.14,9.25,7.61,18.6,10.41,28.23l.1,.48-.1,.48c-.87,2.99-1.83,5.97-2.79,8.96s-2.12,5.88-3.18,8.77c-1.16,2.89-2.31,5.78-3.57,8.67s-2.6,5.69-3.95,8.48c-1.35,2.79-2.79,5.59-4.34,8.38-1.54,2.79-3.08,5.49-4.72,8.19s-3.28,5.4-5.11,8c-1.73,2.6-3.57,5.2-5.4,7.81-1.83,2.6-3.76,5.11-5.78,7.61-1.93,2.51-3.95,4.91-6.07,7.42-2.12,2.41-4.24,4.82-6.36,7.13-2.22,2.31-4.43,4.63-6.75,6.94-2.31,2.22-4.63,4.43-7.03,6.65-2.41,2.12-4.82,4.34-7.32,6.36s-5.01,4.14-7.52,6.07c-2.6,2.02-5.2,3.95-7.81,5.78s-5.3,3.76-8.09,5.49c-2.7,1.73-5.49,3.47-8.29,5.2-2.79,1.64-5.69,3.28-8.48,4.82-2.89,1.54-5.78,3.08-8.67,4.53-2.99,1.45-5.88,2.89-8.87,4.24-2.99,1.35-6.07,2.6-9.06,3.85-3.08,1.25-6.17,2.41-9.25,3.47-3.08,1.16-6.26,2.12-9.44,3.18-3.18,.96-6.36,1.93-9.54,2.79s-6.46,1.73-9.64,2.41c-3.28,.77-6.46,1.45-9.73,2.12-3.28,.67-6.55,1.16-9.83,1.73-3.28,.48-6.55,.96-9.93,1.35-3.28,.39-6.65,.67-9.93,.96-3.28,.29-6.65,.48-9.93,.58-3.76,0-7.13,.1-10.41,.1Z"/></g></g><g><g class="cls-54"><path class="cls-6" d="M1264.56,530.37c0,.29,0,.58,.1,.96,.1,.29,.1,.58,.29,.87,.1,.29,.29,.58,.48,.87,.19,.29,.39,.48,.58,.77,.19,.19,.48,.48,.77,.58,.29,.19,.58,.39,.87,.48s.58,.19,.96,.29,.67,.1,.96,.1,.67-.1,.96-.19c.29-.1,.67-.19,.96-.29s.58-.29,.87-.48,.48-.39,.77-.58c.19-.19,.39-.48,.58-.77s.29-.58,.48-.87c.1-.29,.19-.58,.29-.87s.1-.58,.1-.96c0-.29,0-.58-.1-.96s-.19-.58-.29-.87c-.1-.29-.29-.58-.48-.87-.19-.29-.39-.48-.58-.77-.19-.19-.48-.39-.77-.58-.29-.19-.58-.39-.87-.48s-.58-.29-.96-.29c-.29-.1-.67-.1-.96-.19-.29,0-.67,.1-.96,.1-.29,.1-.67,.19-.96,.29s-.58,.29-.87,.48-.48,.39-.77,.58c-.19,.19-.39,.48-.58,.77s-.29,.58-.48,.87c-.1,.29-.19,.58-.29,.87-.1,.48-.1,.87-.1,1.16Z"/></g><g class="cls-22"><path class="cls-6" d="M1318.71,530.37c0,.29,.1,.58,.19,.87,.1,.29,.19,.58,.39,.87,.1,.29,.29,.48,.48,.77,.19,.19,.39,.48,.67,.67s.48,.39,.77,.48c.29,.19,.58,.29,.87,.39,.29,.1,.58,.19,.96,.19,.29,0,.67,.1,.96,0,.29,0,.67-.1,.96-.1,.29-.1,.58-.19,.87-.29s.58-.29,.77-.48c.29-.19,.48-.39,.67-.58,.19-.19,.39-.48,.58-.67,.19-.29,.29-.48,.39-.77s.19-.58,.29-.87c.1-.29,.1-.58,.1-.87s0-.58-.1-.87c-.1-.29-.19-.58-.29-.87-.1-.29-.29-.48-.48-.77s-.39-.48-.58-.67-.48-.39-.77-.58c-.29-.19-.58-.29-.87-.39-.29-.1-.58-.19-.87-.29s-.67-.1-.96-.1-.67,.1-.96,.1c-.29,.1-.67,.19-.96,.29s-.58,.29-.87,.48-.48,.39-.77,.58c-.19,.19-.39,.48-.58,.77s-.29,.58-.48,.87c-.1,.29-.19,.58-.29,.87,0,.29-.1,.67-.1,.96Z"/></g><g class="cls-23"><path class="cls-6" d="M1318.71,576.81c0,.29,.1,.58,.19,.87,.1,.29,.19,.58,.39,.87,.1,.29,.29,.48,.48,.77,.19,.19,.39,.48,.67,.67s.48,.39,.77,.48c.29,.19,.58,.29,.87,.39,.29,.1,.58,.19,.96,.19,.29,0,.67,.1,.96,0,.29,0,.67-.1,.96-.1,.29-.1,.58-.19,.87-.29s.58-.29,.77-.48c.29-.19,.48-.39,.67-.58,.19-.19,.39-.48,.58-.67,.19-.29,.29-.48,.39-.77s.19-.58,.29-.87,.1-.58,.1-.87,0-.58-.1-.87c-.1-.29-.19-.58-.29-.87-.1-.29-.29-.48-.48-.77s-.39-.48-.58-.67-.48-.39-.77-.58c-.29-.19-.58-.29-.87-.39-.29-.1-.58-.19-.87-.29s-.67-.1-.96-.1-.67,.1-.96,.1c-.29,.1-.67,.19-.96,.29s-.58,.29-.87,.48-.48,.39-.77,.58c-.19,.19-.39,.48-.58,.77s-.29,.58-.48,.87c-.1,.29-.19,.58-.29,.87s-.1,.67-.1,.96Z"/></g><g class="cls-26"><path class="cls-6" d="M1318.71,623.26c0,.29,.1,.58,.19,.87s.19,.58,.39,.87c.1,.29,.29,.48,.48,.77,.19,.19,.39,.48,.67,.67,.19,.19,.48,.39,.77,.48,.29,.19,.58,.29,.87,.39,.29,.1,.58,.19,.96,.19,.29,0,.67,.1,.96,0,.29,0,.67-.1,.96-.1,.29-.1,.58-.19,.87-.29s.58-.29,.77-.48c.29-.19,.48-.39,.67-.58s.39-.48,.58-.67c.19-.29,.29-.48,.39-.77s.19-.58,.29-.87c.1-.29,.1-.58,.1-.87s0-.58-.1-.87c-.1-.29-.19-.58-.29-.87-.1-.29-.29-.48-.48-.77s-.39-.48-.58-.67-.48-.39-.77-.58c-.29-.19-.58-.29-.87-.39-.29-.1-.58-.19-.87-.29s-.67-.1-.96-.1-.67,.1-.96,.1c-.29,.1-.67,.19-.96,.29s-.58,.29-.87,.48-.48,.39-.77,.58c-.19,.19-.39,.48-.58,.77s-.29,.58-.48,.87c-.1,.29-.19,.58-.29,.87,0,.39-.1,.67-.1,.96Z"/></g><g class="cls-24"><path class="cls-6" d="M1318.71,397.29c0,.29,.1,.58,.19,.87s.19,.58,.39,.87c.1,.29,.29,.48,.48,.77,.19,.19,.39,.48,.67,.67,.19,.19,.48,.39,.77,.48,.29,.19,.58,.29,.87,.39s.58,.19,.96,.19c.29,0,.67,.1,.96,0,.29,0,.67-.1,.96-.1,.29-.1,.58-.19,.87-.29,.29-.1,.58-.29,.77-.48,.29-.19,.48-.39,.67-.58s.39-.48,.58-.67c.19-.29,.29-.48,.39-.77s.19-.58,.29-.87c.1-.29,.1-.58,.1-.87s0-.58-.1-.87-.19-.58-.29-.87c-.1-.29-.29-.48-.48-.77s-.39-.48-.58-.67-.48-.39-.77-.58-.58-.29-.87-.39-.58-.19-.87-.29c-.29-.1-.67-.1-.96-.1s-.67,.1-.96,.1c-.29,.1-.67,.19-.96,.29-.29,.1-.58,.29-.87,.48s-.48,.39-.77,.58c-.19,.19-.39,.48-.58,.77s-.29,.58-.48,.87c-.1,.29-.19,.58-.29,.87,0,.39-.1,.67-.1,.96Z"/></g><g class="cls-25"><path class="cls-6" d="M1318.71,443.83c0,.29,.1,.58,.19,.87s.19,.58,.39,.87c.1,.29,.29,.48,.48,.77,.19,.19,.39,.48,.67,.67,.19,.19,.48,.39,.77,.48,.29,.19,.58,.29,.87,.39s.58,.19,.96,.19c.29,0,.67,.1,.96,0,.29,0,.67-.1,.96-.1,.29-.1,.58-.19,.87-.29,.29-.1,.58-.29,.77-.48,.29-.19,.48-.39,.67-.58s.39-.48,.58-.67c.19-.29,.29-.48,.39-.77s.19-.58,.29-.87c.1-.29,.1-.58,.1-.87s0-.58-.1-.87-.19-.58-.29-.87c-.1-.29-.29-.48-.48-.77s-.39-.48-.58-.67-.48-.39-.77-.58-.58-.29-.87-.39-.58-.19-.87-.29c-.29-.1-.67-.1-.96-.1s-.67,.1-.96,.1c-.29,.1-.67,.19-.96,.29-.29,.1-.58,.29-.87,.48s-.48,.39-.77,.58c-.19,.19-.39,.48-.58,.77s-.29,.58-.48,.87c-.1,.29-.19,.58-.29,.87,0,.29-.1,.58-.1,.96Z"/></g><g class="cls-27"><path class="cls-6" d="M1264.56,490.28c0,.29,0,.58,.1,.96,.1,.29,.1,.58,.29,.87,.1,.29,.29,.58,.48,.87s.39,.48,.58,.77c.19,.19,.48,.48,.77,.58,.29,.19,.58,.39,.87,.48s.58,.19,.96,.29c.29,.1,.67,.1,.96,.1s.67-.1,.96-.19,.67-.19,.96-.29c.29-.1,.58-.29,.87-.48s.48-.39,.77-.58c.19-.19,.39-.48,.58-.77s.29-.58,.48-.87c.1-.29,.19-.58,.29-.87,.1-.29,.1-.58,.1-.96,0-.29,0-.58-.1-.96-.1-.29-.19-.58-.29-.87s-.29-.58-.48-.87-.39-.48-.58-.77c-.19-.19-.48-.39-.77-.58s-.58-.39-.87-.48-.58-.29-.96-.29c-.29-.1-.67-.1-.96-.19-.29,0-.67,.1-.96,.1-.29,.1-.67,.19-.96,.29-.29,.1-.58,.29-.87,.48s-.48,.39-.77,.58c-.19,.19-.39,.48-.58,.77s-.29,.58-.48,.87c-.1,.29-.19,.58-.29,.87-.1,.48-.1,.87-.1,1.16Z"/></g><g class="cls-28"><path class="cls-6" d="M1318.71,490.28c0,.29,.1,.58,.19,.87s.19,.58,.39,.87c.1,.29,.29,.48,.48,.77,.19,.19,.39,.48,.67,.67,.19,.19,.48,.39,.77,.48,.29,.19,.58,.29,.87,.39s.58,.19,.96,.19c.29,0,.67,.1,.96,0,.29,0,.67-.1,.96-.1,.29-.1,.58-.19,.87-.29,.29-.1,.58-.29,.77-.48,.29-.19,.48-.39,.67-.58s.39-.48,.58-.67c.19-.29,.29-.48,.39-.77s.19-.58,.29-.87c.1-.29,.1-.58,.1-.87s0-.58-.1-.87-.19-.58-.29-.87c-.1-.29-.29-.48-.48-.77s-.39-.48-.58-.67-.48-.39-.77-.58-.58-.29-.87-.39-.58-.19-.87-.29-.67-.1-.96-.1-.67,.1-.96,.1c-.29,.1-.67,.19-.96,.29-.29,.1-.58,.29-.87,.48s-.48,.39-.77,.58-.39,.48-.58,.77-.29,.58-.48,.87-.19,.58-.29,.87c0,.29-.1,.67-.1,.96Z"/></g></g><g><g class="cls-29"><path class="cls-6" d="M99.22,595.8v.96c0,.29,.1,.58,.19,.96,.1,.29,.29,.58,.39,.87,.19,.29,.39,.48,.58,.77,.19,.19,.48,.48,.77,.58,.29,.19,.58,.39,.87,.48,.29,.1,.67,.19,.96,.29s.67,.1,.96,.1c.39,0,.67,0,.96-.1s.67-.19,.96-.29,.58-.29,.87-.48c.29-.19,.58-.39,.77-.58,.19-.19,.48-.48,.58-.77,.19-.29,.29-.58,.39-.87,.1-.29,.19-.58,.19-.96,0-.29,.1-.67,0-.96v-.96c0-.29-.1-.58-.19-.96-.1-.29-.29-.58-.39-.87-.19-.29-.39-.48-.58-.77-.19-.19-.48-.48-.77-.58-.29-.19-.58-.39-.87-.48s-.67-.19-.96-.29-.67-.1-.96-.1c-.39,0-.67,0-.96,.1s-.67,.19-.96,.29-.58,.29-.87,.48c-.29,.19-.58,.39-.77,.58-.19,.19-.48,.48-.58,.77-.19,.29-.29,.58-.39,.87-.1,.29-.19,.58-.19,.96v.96Z"/></g><g class="cls-30"><path class="cls-6" d="M-9.19,642.25c0,.29,.1,.58,.19,.87,.1,.29,.19,.58,.39,.87,.1,.29,.29,.48,.48,.77,.19,.19,.39,.48,.67,.67,.19,.19,.48,.39,.77,.48,.29,.19,.58,.29,.87,.39s.58,.19,.96,.19c.29,0,.67,.1,.96,0,.29,0,.67-.1,.96-.1,.29-.1,.58-.19,.87-.29,.29-.1,.58-.29,.77-.48,.29-.19,.48-.39,.67-.58,.19-.19,.39-.48,.58-.67,.19-.29,.29-.48,.39-.77,.1-.29,.19-.58,.29-.87,.1-.29,.1-.58,.1-.87s0-.58-.1-.87c-.1-.29-.19-.58-.29-.87-.1-.29-.29-.48-.48-.77s-.39-.48-.58-.67c-.19-.19-.48-.39-.77-.58-.29-.19-.58-.29-.87-.39-.29-.1-.58-.19-.87-.29-.29-.1-.67-.1-.96-.1s-.67,.1-.96,.1c-.29,.1-.67,.19-.96,.29s-.58,.29-.87,.48c-.29,.19-.48,.39-.77,.58-.19,.19-.39,.48-.58,.77s-.29,.58-.48,.87c-.1,.29-.19,.58-.29,.87-.1,.39-.1,.67-.1,.96Z"/></g><g class="cls-31"><path class="cls-6" d="M45.06,642.25c0,.29,.1,.58,.19,.87,.1,.29,.19,.58,.39,.87,.1,.29,.29,.48,.48,.77,.19,.19,.39,.48,.67,.67,.19,.19,.48,.39,.77,.48,.29,.19,.58,.29,.87,.39,.29,.1,.58,.19,.96,.19,.29,0,.67,.1,.96,0,.29,0,.67-.1,.96-.1,.29-.1,.58-.19,.87-.29,.29-.1,.58-.29,.77-.48,.29-.19,.48-.39,.67-.58,.19-.19,.39-.48,.58-.67,.19-.29,.29-.48,.39-.77,.1-.29,.19-.58,.29-.87,.1-.29,.1-.58,.1-.87s0-.58-.1-.87c-.1-.29-.19-.58-.29-.87-.1-.29-.29-.48-.48-.77s-.39-.48-.58-.67c-.19-.19-.48-.39-.77-.58-.29-.19-.58-.29-.87-.39-.29-.1-.58-.19-.87-.29-.29-.1-.67-.1-.96-.1s-.67,.1-.96,.1c-.29,.1-.67,.19-.96,.29s-.58,.29-.87,.48c-.29,.19-.48,.39-.77,.58-.19,.19-.39,.48-.58,.77-.19,.29-.29,.58-.48,.87-.1,.29-.19,.58-.29,.87-.1,.39-.1,.67-.1,.96Z"/></g><g class="cls-32"><path class="cls-6" d="M99.22,642.25c0,.29,.1,.58,.19,.87,.1,.29,.19,.58,.39,.87,.1,.29,.29,.48,.48,.77,.19,.19,.39,.48,.67,.67,.19,.19,.48,.39,.77,.48,.29,.19,.58,.29,.87,.39,.29,.1,.58,.19,.96,.19,.29,0,.67,.1,.96,0,.29,0,.67-.1,.96-.1,.29-.1,.58-.19,.87-.29,.29-.1,.58-.29,.77-.48,.29-.19,.48-.39,.67-.58,.19-.19,.39-.48,.58-.67,.19-.29,.29-.48,.39-.77,.1-.29,.19-.58,.29-.87,.1-.29,.1-.58,.1-.87s0-.58-.1-.87c-.1-.29-.19-.58-.29-.87-.1-.29-.29-.48-.48-.77s-.39-.48-.58-.67c-.19-.19-.48-.39-.77-.58-.29-.19-.58-.29-.87-.39-.29-.1-.58-.19-.87-.29-.29-.1-.67-.1-.96-.1s-.67,.1-.96,.1c-.29,.1-.67,.19-.96,.29s-.58,.29-.87,.48c-.29,.19-.48,.39-.77,.58-.19,.19-.39,.48-.58,.77-.19,.29-.29,.58-.48,.87-.1,.29-.19,.58-.29,.87-.1,.39-.1,.67-.1,.96Z"/></g><g class="cls-37"><path class="cls-6" d="M153.47,642.25c0,.29,.1,.58,.19,.87,.1,.29,.19,.58,.39,.87,.1,.29,.29,.48,.48,.77,.19,.19,.39,.48,.67,.67,.19,.19,.48,.39,.77,.48s.58,.29,.87,.39,.58,.19,.96,.19c.29,0,.67,.1,.96,0,.29,0,.67-.1,.96-.1,.29-.1,.58-.19,.87-.29s.58-.29,.77-.48c.29-.19,.48-.39,.67-.58,.19-.19,.39-.48,.58-.67,.19-.29,.29-.48,.39-.77s.19-.58,.29-.87c.1-.29,.1-.58,.1-.87s0-.58-.1-.87c-.1-.29-.19-.58-.29-.87-.1-.29-.29-.48-.48-.77s-.39-.48-.58-.67-.48-.39-.77-.58c-.29-.19-.58-.29-.87-.39-.29-.1-.58-.19-.87-.29s-.67-.1-.96-.1-.67,.1-.96,.1c-.29,.1-.67,.19-.96,.29s-.58,.29-.87,.48-.48,.39-.77,.58c-.19,.19-.39,.48-.58,.77s-.29,.58-.48,.87c-.1,.29-.19,.58-.29,.87-.1,.39-.1,.67-.1,.96Z"/></g><g class="cls-21"><path class="cls-6" d="M207.73,642.25c0,.29,.1,.58,.19,.87,.1,.29,.19,.58,.39,.87,.1,.29,.29,.48,.48,.77,.19,.19,.39,.48,.67,.67,.19,.19,.48,.39,.77,.48s.58,.29,.87,.39c.29,.1,.58,.19,.96,.19,.29,0,.67,.1,.96,0,.29,0,.67-.1,.96-.1,.29-.1,.58-.19,.87-.29s.58-.29,.77-.48c.29-.19,.48-.39,.67-.58,.19-.19,.39-.48,.58-.67,.19-.29,.29-.48,.39-.77s.19-.58,.29-.87c.1-.29,.1-.58,.1-.87s0-.58-.1-.87c-.1-.29-.19-.58-.29-.87-.1-.29-.29-.48-.48-.77s-.39-.48-.58-.67-.48-.39-.77-.58c-.29-.19-.58-.29-.87-.39-.29-.1-.58-.19-.87-.29s-.67-.1-.96-.1-.67,.1-.96,.1c-.29,.1-.67,.19-.96,.29s-.58,.29-.87,.48-.48,.39-.77,.58c-.19,.19-.39,.48-.58,.77s-.29,.58-.48,.87c-.1,.29-.19,.58-.29,.87s-.1,.67-.1,.96Z"/></g><g class="cls-34"><path class="cls-6" d="M-9.19,688.79c0,.29,.1,.58,.19,.87,.1,.29,.19,.58,.39,.87,.1,.29,.29,.48,.48,.77,.19,.19,.39,.48,.67,.67,.19,.19,.48,.39,.77,.48,.29,.19,.58,.29,.87,.39,.29,.1,.58,.19,.96,.19,.29,0,.67,.1,.96,0,.29,0,.67-.1,.96-.1,.29-.1,.58-.19,.87-.29,.29-.1,.58-.29,.77-.48,.29-.19,.48-.39,.67-.58,.19-.19,.39-.48,.58-.67,.19-.29,.29-.48,.39-.77,.1-.29,.19-.58,.29-.87,.1-.29,.1-.58,.1-.87s0-.58-.1-.87c-.1-.29-.19-.58-.29-.87-.1-.29-.29-.48-.48-.77s-.39-.48-.58-.67c-.19-.19-.48-.39-.77-.58-.29-.19-.58-.29-.87-.39-.29-.1-.58-.19-.87-.29-.29-.1-.67-.1-.96-.1s-.67,.1-.96,.1c-.29,.1-.67,.19-.96,.29s-.58,.29-.87,.48c-.29,.19-.48,.39-.77,.58-.19,.19-.39,.48-.58,.77-.19,.29-.29,.58-.48,.87-.1,.29-.19,.58-.29,.87-.1,.29-.1,.58-.1,.96Z"/></g><g class="cls-39"><path class="cls-6" d="M45.06,688.79c0,.29,.1,.58,.19,.87,.1,.29,.19,.58,.39,.87,.1,.29,.29,.48,.48,.77,.19,.19,.39,.48,.67,.67,.19,.19,.48,.39,.77,.48,.29,.19,.58,.29,.87,.39,.29,.1,.58,.19,.96,.19,.29,0,.67,.1,.96,0,.29,0,.67-.1,.96-.1,.29-.1,.58-.19,.87-.29,.29-.1,.58-.29,.77-.48,.29-.19,.48-.39,.67-.58,.19-.19,.39-.48,.58-.67,.19-.29,.29-.48,.39-.77,.1-.29,.19-.58,.29-.87,.1-.29,.1-.58,.1-.87s0-.58-.1-.87c-.1-.29-.19-.58-.29-.87-.1-.29-.29-.48-.48-.77s-.39-.48-.58-.67c-.19-.19-.48-.39-.77-.58-.29-.19-.58-.29-.87-.39-.29-.1-.58-.19-.87-.29s-.67-.1-.96-.1-.67,.1-.96,.1c-.29,.1-.67,.19-.96,.29s-.58,.29-.87,.48c-.29,.19-.48,.39-.77,.58-.19,.19-.39,.48-.58,.77-.19,.29-.29,.58-.48,.87-.1,.29-.19,.58-.29,.87-.1,.29-.1,.58-.1,.96Z"/></g><g class="cls-33"><path class="cls-6" d="M99.22,688.79c0,.29,.1,.58,.19,.87,.1,.29,.19,.58,.39,.87,.1,.29,.29,.48,.48,.77,.19,.19,.39,.48,.67,.67,.19,.19,.48,.39,.77,.48,.29,.19,.58,.29,.87,.39,.29,.1,.58,.19,.96,.19,.29,0,.67,.1,.96,0,.29,0,.67-.1,.96-.1,.29-.1,.58-.19,.87-.29s.58-.29,.77-.48c.29-.19,.48-.39,.67-.58,.19-.19,.39-.48,.58-.67,.19-.29,.29-.48,.39-.77s.19-.58,.29-.87c.1-.29,.1-.58,.1-.87s0-.58-.1-.87c-.1-.29-.19-.58-.29-.87-.1-.29-.29-.48-.48-.77s-.39-.48-.58-.67c-.19-.19-.48-.39-.77-.58-.29-.19-.58-.29-.87-.39-.29-.1-.58-.19-.87-.29-.29-.1-.67-.1-.96-.1s-.67,.1-.96,.1c-.29,.1-.67,.19-.96,.29s-.58,.29-.87,.48c-.29,.19-.48,.39-.77,.58-.19,.19-.39,.48-.58,.77-.19,.29-.29,.58-.48,.87-.1,.29-.19,.58-.29,.87-.1,.29-.1,.58-.1,.96Z"/></g><g class="cls-38"><path class="cls-6" d="M153.47,688.79c0,.29,.1,.58,.19,.87,.1,.29,.19,.58,.39,.87,.1,.29,.29,.48,.48,.77,.19,.19,.39,.48,.67,.67s.48,.39,.77,.48c.29,.19,.58,.29,.87,.39,.29,.1,.58,.19,.96,.19,.29,0,.67,.1,.96,0,.29,0,.67-.1,.96-.1,.29-.1,.58-.19,.87-.29s.58-.29,.77-.48c.29-.19,.48-.39,.67-.58,.19-.19,.39-.48,.58-.67,.19-.29,.29-.48,.39-.77s.19-.58,.29-.87c.1-.29,.1-.58,.1-.87s0-.58-.1-.87c-.1-.29-.19-.58-.29-.87-.1-.29-.29-.48-.48-.77s-.39-.48-.58-.67-.48-.39-.77-.58c-.29-.19-.58-.29-.87-.39-.29-.1-.58-.19-.87-.29s-.67-.1-.96-.1-.67,.1-.96,.1c-.29,.1-.67,.19-.96,.29s-.58,.29-.87,.48-.48,.39-.77,.58c-.19,.19-.39,.48-.58,.77s-.29,.58-.48,.87c-.1,.29-.19,.58-.29,.87-.1,.29-.1,.58-.1,.96Z"/></g><g class="cls-40"><path class="cls-6" d="M207.73,688.79c0,.29,.1,.58,.19,.87,.1,.29,.19,.58,.39,.87,.1,.29,.29,.48,.48,.77,.19,.19,.39,.48,.67,.67,.19,.19,.48,.39,.77,.48,.29,.19,.58,.29,.87,.39,.29,.1,.58,.19,.96,.19,.29,0,.67,.1,.96,0,.29,0,.67-.1,.96-.1,.29-.1,.58-.19,.87-.29s.58-.29,.77-.48,.48-.39,.67-.58c.19-.19,.39-.48,.58-.67,.19-.29,.29-.48,.39-.77s.19-.58,.29-.87c.1-.29,.1-.58,.1-.87s0-.58-.1-.87c-.1-.29-.19-.58-.29-.87-.1-.29-.29-.48-.48-.77s-.39-.48-.58-.67-.48-.39-.77-.58-.58-.29-.87-.39c-.29-.1-.58-.19-.87-.29s-.67-.1-.96-.1-.67,.1-.96,.1c-.29,.1-.67,.19-.96,.29s-.58,.29-.87,.48-.48,.39-.77,.58c-.19,.19-.39,.48-.58,.77s-.29,.58-.48,.87c-.1,.29-.19,.58-.29,.87-.1,.29-.1,.58-.1,.96Z"/></g><g class="cls-35"><path class="cls-6" d="M261.88,688.79c0,.29,.1,.58,.19,.87,.1,.29,.19,.58,.39,.87,.1,.29,.29,.48,.48,.77,.19,.19,.39,.48,.67,.67,.19,.19,.48,.39,.77,.48,.29,.19,.58,.29,.87,.39,.29,.1,.58,.19,.96,.19,.29,0,.67,.1,.96,0,.29,0,.67-.1,.96-.1,.29-.1,.58-.19,.87-.29s.58-.29,.77-.48,.48-.39,.67-.58c.19-.19,.39-.48,.58-.67,.19-.29,.29-.48,.39-.77s.19-.58,.29-.87c.1-.29,.1-.58,.1-.87s0-.58-.1-.87c-.1-.29-.19-.58-.29-.87-.1-.29-.29-.48-.48-.77s-.39-.48-.58-.67-.48-.39-.77-.58c-.29-.19-.58-.29-.87-.39-.29-.1-.58-.19-.87-.29s-.67-.1-.96-.1-.67,.1-.96,.1c-.29,.1-.67,.19-.96,.29s-.58,.29-.87,.48-.48,.39-.77,.58c-.19,.19-.39,.48-.58,.77s-.29,.58-.48,.87c-.1,.29-.19,.58-.29,.87-.1,.29-.1,.58-.1,.96Z"/></g><g class="cls-41"><path class="cls-6" d="M-9.19,735.24c0,.29,.1,.58,.19,.87,.1,.29,.19,.58,.39,.87,.1,.29,.29,.48,.48,.77,.19,.19,.39,.48,.67,.67,.19,.19,.48,.39,.77,.48,.29,.19,.58,.29,.87,.39,.29,.1,.58,.19,.96,.19,.29,0,.67,.1,.96,0,.29,0,.67-.1,.96-.1,.29-.1,.58-.19,.87-.29,.29-.1,.58-.29,.77-.48,.29-.19,.48-.39,.67-.58,.19-.19,.39-.48,.58-.67,.19-.29,.29-.48,.39-.77,.1-.29,.19-.58,.29-.87,.1-.29,.1-.58,.1-.87s0-.58-.1-.87c-.1-.29-.19-.58-.29-.87-.1-.29-.29-.48-.48-.77s-.39-.48-.58-.67c-.19-.19-.48-.39-.77-.58-.29-.19-.58-.29-.87-.39-.29-.1-.58-.19-.87-.29-.29-.1-.67-.1-.96-.1s-.67,.1-.96,.1c-.29,.1-.67,.19-.96,.29s-.58,.29-.87,.48c-.29,.19-.48,.39-.77,.58-.19,.19-.39,.48-.58,.77-.19,.29-.29,.58-.48,.87-.1,.29-.19,.58-.29,.87s-.1,.67-.1,.96Z"/></g><g class="cls-44"><path class="cls-6" d="M45.06,735.24c0,.29,.1,.58,.19,.87,.1,.29,.19,.58,.39,.87,.1,.29,.29,.48,.48,.77s.39,.48,.67,.67c.19,.19,.48,.39,.77,.48,.29,.19,.58,.29,.87,.39,.29,.1,.58,.19,.96,.19,.29,0,.67,.1,.96,0,.29,0,.67-.1,.96-.1,.29-.1,.58-.19,.87-.29,.29-.1,.58-.29,.77-.48,.29-.19,.48-.39,.67-.58,.19-.19,.39-.48,.58-.67,.19-.29,.29-.48,.39-.77,.1-.29,.19-.58,.29-.87,.1-.29,.1-.58,.1-.87s0-.58-.1-.87c-.1-.29-.19-.58-.29-.87-.1-.29-.29-.48-.48-.77s-.39-.48-.58-.67c-.19-.19-.48-.39-.77-.58-.29-.19-.58-.29-.87-.39-.29-.1-.58-.19-.87-.29-.29-.1-.67-.1-.96-.1s-.67,.1-.96,.1c-.29,.1-.67,.19-.96,.29s-.58,.29-.87,.48c-.29,.19-.48,.39-.77,.58-.19,.19-.39,.48-.58,.77-.19,.29-.29,.58-.48,.87-.1,.29-.19,.58-.29,.87-.1,.39-.1,.67-.1,.96Z"/></g><g class="cls-43"><path class="cls-6" d="M99.22,735.24c0-2.7,2.22-4.91,4.91-4.91s4.91,2.22,4.91,4.91-2.22,4.91-4.91,4.91-4.91-2.22-4.91-4.91Z"/></g><g class="cls-36"><path class="cls-6" d="M153.47,735.24c0-2.7,2.22-4.91,4.91-4.91s4.91,2.22,4.91,4.91-2.22,4.91-4.91,4.91-4.91-2.22-4.91-4.91Z"/></g><g class="cls-45"><path class="cls-6" d="M207.73,735.24c0-2.7,2.22-4.91,4.91-4.91s4.91,2.22,4.91,4.91-2.22,4.91-4.91,4.91-4.91-2.22-4.91-4.91Z"/></g><g class="cls-42"><path class="cls-6" d="M261.88,735.24c0-2.7,2.22-4.91,4.91-4.91s4.91,2.22,4.91,4.91-2.22,4.91-4.91,4.91-4.91-2.22-4.91-4.91Z"/></g><g class="cls-46"><path class="cls-6" d="M316.14,735.24c0-2.7,2.22-4.91,4.91-4.91s4.91,2.22,4.91,4.91-2.22,4.91-4.91,4.91-4.91-2.22-4.91-4.91Z"/></g></g><rect class="cls-1" x="232.29" y="37.38" width="1144.9" height="558.1"/><g><path class="cls-10" d="M242.41,377.84c2.37-.07,4.74-.43,7.04-.93,3.88-.86,7.11-2.8,9.62-5.89,2.08-2.66,3.3-5.6,4.24-8.9,1.44-5.67,1.51-11.56,1.15-17.24,0-.14-.07-.22-.07-.43h-31.02v-2.01h30.74v-.57c-.5-2.15-.93-4.45-1.65-6.61-1.65-4.6-4.6-8.04-9.34-9.77-3.73-1.36-7.68-1.65-11.71-1.36-1.87,.14-3.88,.5-5.67,1.08-4.6,1.51-7.76,4.74-10.05,8.9-1.65,3.09-2.8,6.32-3.59,9.62-1.44,5.39-2.59,10.7-3.16,16.23-.43,3.88-.65,7.76-.93,11.63-.14,2.15,0,4.38,0,6.61l24.42-.36Z"/><path class="cls-10" d="M261.15,309.04c-16.3,0-31.31,5.46-43.3,14.58h.07v28.29h.07c.29-1.58,.5-3.16,.86-4.74,1.29-6.1,3.3-11.92,6.89-17.09,3.09-4.45,7.33-7.11,12.71-7.9,3.23-.5,6.54-.36,9.77-.07,4.02,.29,7.83,1.08,11.63,2.59,5.17,1.94,9.48,5.03,12.57,9.69,1.51,2.23,2.59,4.67,3.09,7.33,.14,.57,.43,.72,1.08,.72h39.43v2.01h-35.55v84.17h-11.71v-56.52c-.14,.07-.22,.07-.29,.14-3.66,3.3-8.04,5.1-12.93,6.25-3.73,.93-7.54,1.44-11.42,1.44-8.55,.14-17.02,.14-25.49,.14h-.86v29.8h-11.78v-75.19c-10.48,12.42-16.73,28.51-16.73,45.96,0,39.57,32.03,71.6,71.6,71.6s71.6-32.03,71.6-71.6-31.74-71.6-71.31-71.6Z"/><path class="cls-5" d="M218.06,409.87v-29.8h.86c8.55-.07,17.02,0,25.49-.14,3.88-.07,7.61-.57,11.42-1.44,4.74-1.15,9.19-2.94,12.93-6.25,.07-.07,.14-.07,.29-.14v56.52h11.71v-84.17h35.55v-2.01h-39.43c-.57,0-.93-.14-1.08-.72-.57-2.66-1.72-5.03-3.09-7.33-3.09-4.67-7.47-7.76-12.57-9.69-3.66-1.44-7.61-2.23-11.63-2.59-3.23-.22-6.54-.36-9.77,.07-5.46,.72-9.62,3.38-12.71,7.9-3.52,5.17-5.6,11.06-6.89,17.09-.36,1.58-.57,3.16-.86,4.74h-.07v-28.29h-.07c-4.31,3.23-8.12,6.97-11.63,11.06v75.19c3.73,0,7.54,0,11.56,0Zm-.07-38.56c.22-3.88,.5-7.76,.93-11.63,.57-5.53,1.72-10.84,3.16-16.23,.93-3.3,1.94-6.61,3.59-9.62,2.23-4.17,5.46-7.4,10.05-8.9,1.87-.57,3.73-.93,5.67-1.08,4.02-.22,7.9,0,11.71,1.36,4.74,1.72,7.76,5.17,9.34,9.77,.72,2.08,1.15,4.38,1.65,6.61,.07,.14,0,.36,0,.57h-30.74v2.01h31.02c.07,.22,.07,.36,.07,.43,.36,5.82,.29,11.63-1.15,17.24-.72,3.16-2.01,6.25-4.24,8.9-2.51,3.09-5.82,4.96-9.62,5.89-2.23,.5-4.67,.93-7.04,.93l-24.42,.07c0-2.01-.14-4.17,0-6.32Z"/></g><g class="cls-57"><path class="cls-11" d="M401.68,372.79v-21.11h9.14c1.89,0,3.52,.31,4.89,.92,1.37,.61,2.42,1.49,3.17,2.64,.74,1.15,1.12,2.51,1.12,4.1s-.37,2.93-1.12,4.07c-.74,1.15-1.8,2.03-3.17,2.64-1.37,.61-3,.92-4.89,.92h-6.42l2.17-2.2v8.02h-4.89Zm4.89-7.48l-2.17-2.32h6.15c1.51,0,2.63-.32,3.38-.97,.74-.64,1.12-1.54,1.12-2.68s-.37-2.07-1.12-2.71c-.74-.64-1.87-.96-3.38-.96h-6.15l2.17-2.32v11.97Z"/><path class="cls-11" d="M427.98,373.03c-1.27,0-2.35-.22-3.26-.65s-1.6-1.02-2.08-1.76c-.48-.74-.72-1.58-.72-2.5s.24-1.81,.71-2.53c.47-.72,1.22-1.29,2.25-1.7,1.03-.41,2.36-.62,4.01-.62h4.31v2.74h-3.8c-1.11,0-1.87,.18-2.28,.54-.41,.36-.62,.81-.62,1.36,0,.6,.24,1.08,.71,1.43,.47,.35,1.12,.53,1.95,.53s1.49-.19,2.11-.56c.62-.37,1.08-.92,1.36-1.64l.72,2.17c-.34,1.05-.97,1.84-1.87,2.38s-2.07,.81-3.5,.81Zm4.95-.24v-3.17l-.3-.69v-5.67c0-1.01-.31-1.79-.92-2.35s-1.55-.84-2.82-.84c-.86,0-1.71,.14-2.55,.41-.83,.27-1.54,.64-2.13,1.1l-1.69-3.29c.88-.62,1.95-1.11,3.2-1.45,1.25-.34,2.51-.51,3.8-.51,2.47,0,4.39,.58,5.76,1.75,1.37,1.17,2.05,2.99,2.05,5.46v9.26h-4.4Z"/><path class="cls-11" d="M449.42,373.03c-1.73,0-3.26-.36-4.6-1.09-1.34-.72-2.39-1.71-3.17-2.97-.77-1.26-1.16-2.69-1.16-4.3s.39-3.07,1.16-4.33c.77-1.26,1.83-2.24,3.17-2.96,1.34-.71,2.87-1.07,4.6-1.07s3.24,.36,4.58,1.07,2.4,1.69,3.17,2.94c.76,1.25,1.15,2.69,1.15,4.34s-.38,3.04-1.15,4.3c-.76,1.26-1.82,2.25-3.17,2.97-1.35,.72-2.88,1.09-4.58,1.09Zm0-3.86c.78,0,1.49-.18,2.11-.54,.62-.36,1.12-.88,1.48-1.55,.36-.67,.54-1.47,.54-2.4s-.18-1.75-.54-2.41-.85-1.18-1.48-1.54c-.62-.36-1.33-.54-2.11-.54s-1.49,.18-2.11,.54c-.62,.36-1.12,.88-1.49,1.54s-.56,1.47-.56,2.41,.19,1.72,.56,2.4c.37,.67,.87,1.19,1.49,1.55,.62,.36,1.33,.54,2.11,.54Z"/><path class="cls-11" d="M461.46,372.79v-22.38h4.71v22.38h-4.71Z"/><path class="cls-11" d="M475.54,373.03c-1.27,0-2.35-.22-3.26-.65s-1.6-1.02-2.08-1.76c-.48-.74-.72-1.58-.72-2.5s.24-1.81,.71-2.53c.47-.72,1.22-1.29,2.25-1.7,1.03-.41,2.36-.62,4.01-.62h4.31v2.74h-3.8c-1.11,0-1.87,.18-2.28,.54-.41,.36-.62,.81-.62,1.36,0,.6,.24,1.08,.71,1.43,.47,.35,1.12,.53,1.95,.53s1.49-.19,2.11-.56c.62-.37,1.08-.92,1.36-1.64l.72,2.17c-.34,1.05-.97,1.84-1.87,2.38s-2.07,.81-3.5,.81Zm4.95-.24v-3.17l-.3-.69v-5.67c0-1.01-.31-1.79-.92-2.35s-1.55-.84-2.82-.84c-.86,0-1.71,.14-2.55,.41-.83,.27-1.54,.64-2.13,1.1l-1.69-3.29c.88-.62,1.95-1.11,3.2-1.45,1.25-.34,2.51-.51,3.8-.51,2.47,0,4.39,.58,5.76,1.75,1.37,1.17,2.05,2.99,2.05,5.46v9.26h-4.4Z"/><path class="cls-11" d="M502.38,372.79v-17.13h-6.76v-3.98h18.4v3.98h-6.76v17.13h-4.89Z"/><path class="cls-11" d="M522.38,373.03c-1.73,0-3.26-.36-4.6-1.09-1.34-.72-2.39-1.71-3.17-2.97-.77-1.26-1.16-2.69-1.16-4.3s.39-3.07,1.16-4.33c.77-1.26,1.83-2.24,3.17-2.96,1.34-.71,2.87-1.07,4.6-1.07s3.24,.36,4.58,1.07,2.4,1.69,3.17,2.94c.76,1.25,1.15,2.69,1.15,4.34s-.38,3.04-1.15,4.3c-.76,1.26-1.82,2.25-3.17,2.97-1.35,.72-2.88,1.09-4.58,1.09Zm0-3.86c.78,0,1.49-.18,2.11-.54,.62-.36,1.12-.88,1.48-1.55,.36-.67,.54-1.47,.54-2.4s-.18-1.75-.54-2.41-.85-1.18-1.48-1.54c-.62-.36-1.33-.54-2.11-.54s-1.49,.18-2.11,.54c-.62,.36-1.12,.88-1.49,1.54s-.56,1.47-.56,2.41,.19,1.72,.56,2.4c.37,.67,.87,1.19,1.49,1.55,.62,.36,1.33,.54,2.11,.54Z"/><path class="cls-11" d="M534.42,372.79v-16.23h4.49v4.58l-.63-1.33c.48-1.15,1.26-2.02,2.32-2.61,1.07-.59,2.36-.89,3.89-.89v4.34c-.2-.02-.38-.04-.54-.05-.16,0-.33-.02-.51-.02-1.29,0-2.33,.37-3.12,1.1-.79,.73-1.19,1.88-1.19,3.42v7.66h-4.71Z"/><path class="cls-11" d="M547.3,372.79v-16.23h4.49v4.58l-.63-1.33c.48-1.15,1.26-2.02,2.32-2.61,1.07-.59,2.36-.89,3.89-.89v4.34c-.2-.02-.38-.04-.54-.05-.16,0-.33-.02-.51-.02-1.29,0-2.33,.37-3.12,1.1-.79,.73-1.19,1.88-1.19,3.42v7.66h-4.71Z"/><path class="cls-11" d="M568.08,373.03c-1.85,0-3.47-.36-4.87-1.09-1.4-.72-2.48-1.71-3.24-2.97-.76-1.26-1.15-2.69-1.15-4.3s.38-3.07,1.13-4.33c.75-1.26,1.78-2.24,3.09-2.96,1.31-.71,2.78-1.07,4.43-1.07s3.02,.34,4.3,1.01c1.28,.67,2.29,1.64,3.03,2.9,.74,1.26,1.12,2.76,1.12,4.51,0,.18-.01,.39-.03,.62-.02,.23-.04,.45-.06,.65h-13.18v-2.74h10.71l-1.81,.81c0-.84-.17-1.58-.51-2.2-.34-.62-.81-1.11-1.42-1.46-.6-.35-1.31-.53-2.11-.53s-1.51,.18-2.13,.53c-.61,.35-1.09,.84-1.43,1.48-.34,.63-.51,1.38-.51,2.25v.72c0,.89,.2,1.66,.59,2.34,.39,.67,.95,1.19,1.66,1.54,.71,.35,1.55,.53,2.52,.53,.86,0,1.62-.13,2.28-.39s1.25-.65,1.79-1.18l2.5,2.71c-.74,.84-1.68,1.49-2.81,1.95-1.13,.45-2.42,.68-3.89,.68Z"/><path class="cls-11" d="M584.52,373.03c-1.39,0-2.72-.17-4-.5-1.28-.33-2.29-.75-3.03-1.25l1.57-3.38c.74,.46,1.62,.84,2.64,1.13,1.02,.29,2.02,.44,3,.44,1.09,0,1.85-.13,2.31-.39,.45-.26,.68-.62,.68-1.09,0-.38-.18-.67-.53-.86-.35-.19-.82-.34-1.4-.44-.58-.1-1.22-.2-1.92-.3-.69-.1-1.39-.24-2.1-.41-.7-.17-1.35-.43-1.93-.77-.58-.34-1.05-.8-1.4-1.39-.35-.58-.53-1.34-.53-2.26,0-1.03,.3-1.93,.89-2.71,.59-.78,1.45-1.4,2.58-1.85,1.13-.45,2.47-.68,4.04-.68,1.11,0,2.23,.12,3.38,.36s2.1,.59,2.87,1.06l-1.57,3.35c-.78-.46-1.57-.78-2.37-.95s-1.56-.26-2.31-.26c-1.05,0-1.81,.14-2.29,.42-.48,.28-.72,.64-.72,1.09,0,.4,.18,.7,.53,.9,.35,.2,.82,.36,1.4,.48,.58,.12,1.22,.23,1.92,.32,.69,.09,1.39,.23,2.1,.41,.7,.18,1.34,.44,1.92,.77,.57,.33,1.04,.78,1.4,1.36,.36,.57,.54,1.32,.54,2.25,0,1.01-.3,1.9-.9,2.67-.6,.77-1.47,1.38-2.61,1.82-1.14,.44-2.52,.66-4.15,.66Z"/></g><g class="cls-57"><path class="cls-11" d="M412.59,399.13h1.13v6.02c-1.45,1.38-3.54,2.07-5.75,2.07-4.85,0-8.41-3.47-8.41-8.16s3.56-8.16,8.43-8.16c2.32,0,4.37,.74,5.79,2.21l-.74,.78c-1.4-1.38-3.08-1.91-5.03-1.91-4.18,0-7.28,3.03-7.28,7.08s3.1,7.08,7.28,7.08c1.7,0,3.26-.41,4.57-1.47v-5.54Z"/><path class="cls-11" d="M424.17,395.02v1.13c-.09,0-.18-.02-.28-.02-2.67,0-4.25,1.77-4.25,4.73v6.25h-1.15v-12h1.1v2.62c.74-1.75,2.32-2.71,4.57-2.71Z"/><path class="cls-11" d="M436,399.5v7.61h-1.1v-2.14c-.76,1.38-2.23,2.23-4.32,2.23-2.69,0-4.32-1.38-4.32-3.42,0-1.82,1.15-3.36,4.48-3.36h4.11v-.96c0-2.23-1.22-3.42-3.56-3.42-1.65,0-3.15,.62-4.14,1.52l-.57-.83c1.19-1.06,2.94-1.7,4.8-1.7,2.96,0,4.62,1.52,4.62,4.48Zm-1.15,4.07v-2.25h-4.09c-2.48,0-3.35,1.03-3.35,2.41,0,1.56,1.22,2.53,3.33,2.53s3.42-.96,4.11-2.69Z"/><path class="cls-11" d="M452.69,401.11c0,3.61-2.55,6.09-5.93,6.09-2.11,0-3.91-1.03-4.87-2.83v7.19h-1.15v-16.45h1.1v2.83c.94-1.84,2.76-2.92,4.92-2.92,3.38,0,5.93,2.5,5.93,6.09Zm-1.15,0c0-3.01-2.09-5.06-4.85-5.06s-4.83,2.05-4.83,5.06,2.07,5.06,4.83,5.06,4.85-2.04,4.85-5.06Z"/><path class="cls-11" d="M466.98,400.09v7.01h-1.15v-6.92c0-2.71-1.45-4.14-3.88-4.14-2.83,0-4.55,1.82-4.55,4.67v6.39h-1.15v-17.05h1.15v7.56c.83-1.63,2.48-2.6,4.71-2.6,2.92,0,4.87,1.72,4.87,5.08Z"/><path class="cls-11" d="M471.35,391.27c0-.51,.41-.94,.94-.94s.94,.41,.94,.92-.41,.94-.94,.94-.94-.41-.94-.92Zm.37,3.84h1.15v12h-1.15v-12Z"/><path class="cls-11" d="M476.4,401.11c0-3.58,2.55-6.09,6.07-6.09,1.91,0,3.56,.74,4.55,2.21l-.85,.62c-.87-1.22-2.21-1.79-3.7-1.79-2.83,0-4.9,2.02-4.9,5.06s2.07,5.06,4.9,5.06c1.49,0,2.83-.57,3.7-1.79l.85,.62c-.99,1.45-2.64,2.21-4.55,2.21-3.52,0-6.07-2.53-6.07-6.09Z"/><path class="cls-11" d="M496.74,391.02h6.37c5.1,0,8.55,3.36,8.55,8.04s-3.45,8.04-8.55,8.04h-6.37v-16.09Zm6.27,15.03c4.55,0,7.47-2.9,7.47-6.99s-2.92-6.99-7.47-6.99h-5.1v13.97h5.1Z"/><path class="cls-11" d="M525.49,401.38h-10.32c.11,2.85,2.21,4.78,5.08,4.78,1.52,0,2.92-.55,3.84-1.68l.67,.76c-1.06,1.29-2.71,1.95-4.53,1.95-3.63,0-6.18-2.53-6.18-6.09s2.46-6.09,5.75-6.09,5.72,2.48,5.72,6.04c0,.09-.02,.21-.02,.32Zm-10.29-.9h9.19c-.16-2.6-2.04-4.46-4.6-4.46s-4.41,1.84-4.6,4.46Z"/><path class="cls-11" d="M527.3,405.66l.53-.92c.92,.78,2.55,1.45,4.32,1.45,2.53,0,3.54-.9,3.54-2.25,0-3.49-7.95-.92-7.95-5.63,0-1.82,1.52-3.29,4.55-3.29,1.52,0,3.17,.46,4.11,1.17l-.53,.92c-1.01-.74-2.32-1.08-3.61-1.08-2.34,0-3.38,.96-3.38,2.25,0,3.61,7.95,1.06,7.95,5.63,0,1.95-1.68,3.29-4.73,3.29-1.98,0-3.86-.67-4.8-1.54Z"/><path class="cls-11" d="M539.69,391.27c0-.51,.41-.94,.94-.94s.94,.41,.94,.92-.41,.94-.94,.94-.94-.41-.94-.92Zm.37,3.84h1.15v12h-1.15v-12Z"/><path class="cls-11" d="M556.86,395.11v10.71c0,4.02-1.95,5.84-5.81,5.84-2.18,0-4.27-.69-5.49-1.91l.62-.87c1.19,1.1,2.92,1.75,4.85,1.75,3.19,0,4.69-1.47,4.69-4.67v-2.02c-.99,1.75-2.83,2.73-4.99,2.73-3.4,0-5.97-2.41-5.97-5.84s2.57-5.81,5.97-5.81c2.21,0,4.07,1.01,5.03,2.8v-2.71h1.1Zm-1.13,5.72c0-2.83-2.07-4.78-4.92-4.78s-4.9,1.95-4.9,4.78,2.07,4.8,4.9,4.8,4.92-1.98,4.92-4.8Z"/><path class="cls-11" d="M572.46,400.09v7.01h-1.15v-6.92c0-2.71-1.45-4.14-3.88-4.14-2.83,0-4.55,1.82-4.55,4.67v6.39h-1.15v-12h1.1v2.6c.8-1.68,2.48-2.69,4.76-2.69,2.92,0,4.87,1.72,4.87,5.08Z"/><path class="cls-11" d="M587.35,401.38h-10.32c.11,2.85,2.21,4.78,5.08,4.78,1.52,0,2.92-.55,3.84-1.68l.67,.76c-1.06,1.29-2.71,1.95-4.53,1.95-3.63,0-6.18-2.53-6.18-6.09s2.46-6.09,5.75-6.09,5.72,2.48,5.72,6.04c0,.09-.02,.21-.02,.32Zm-10.29-.9h9.19c-.16-2.6-2.04-4.46-4.6-4.46s-4.41,1.84-4.6,4.46Z"/><path class="cls-11" d="M596.61,395.02v1.13c-.09,0-.18-.02-.28-.02-2.67,0-4.25,1.77-4.25,4.73v6.25h-1.15v-12h1.1v2.62c.74-1.75,2.32-2.71,4.57-2.71Z"/></g><g class="cls-57"><path class="cls-11" d="M741.16,388.74l-5.95-18.6h6.46l4.81,15.7h-3.24l5.1-15.7h5.77l4.76,15.7h-3.11l5.02-15.7h5.95l-5.95,18.6h-6.72l-3.88-12.86h1.81l-4.09,12.86h-6.72Z"/><path class="cls-11" d="M774.26,384.01h9.3v4.73h-15.46v-18.6h15.12v4.73h-8.96v9.14Zm-.42-6.96h8.29v4.52h-8.29v-4.52Z"/><path class="cls-11" d="M785.98,388.74v-18.6h6.27v13.74h8.4v4.86h-14.67Z"/><path class="cls-11" d="M811.73,389.17c-1.49,0-2.87-.23-4.13-.7-1.27-.47-2.37-1.14-3.29-2.01-.93-.87-1.65-1.89-2.17-3.08s-.77-2.5-.77-3.93,.26-2.75,.77-3.93c.51-1.19,1.24-2.21,2.17-3.08,.93-.87,2.03-1.54,3.29-2.01,1.27-.47,2.64-.7,4.13-.7,1.82,0,3.44,.32,4.85,.96s2.57,1.56,3.49,2.76l-3.96,3.53c-.55-.69-1.16-1.23-1.82-1.61s-1.41-.57-2.25-.57c-.66,0-1.25,.11-1.78,.32-.53,.21-.99,.52-1.37,.93-.38,.41-.68,.9-.89,1.47-.21,.58-.32,1.22-.32,1.93s.11,1.35,.32,1.93c.21,.58,.51,1.07,.89,1.47,.38,.41,.84,.72,1.37,.93,.53,.21,1.12,.32,1.78,.32,.83,0,1.58-.19,2.25-.57s1.27-.92,1.82-1.61l3.96,3.53c-.92,1.19-2.09,2.1-3.49,2.75s-3.02,.97-4.85,.97Z"/><path class="cls-11" d="M831.26,389.17c-1.52,0-2.93-.24-4.21-.72-1.28-.48-2.4-1.16-3.33-2.03-.94-.88-1.67-1.91-2.19-3.09-.52-1.19-.78-2.48-.78-3.88s.26-2.71,.78-3.89c.52-1.18,1.25-2.21,2.19-3.08,.94-.88,2.05-1.55,3.33-2.03s2.68-.72,4.19-.72,2.92,.24,4.2,.72,2.38,1.16,3.32,2.03c.94,.88,1.67,1.9,2.19,3.08,.52,1.18,.78,2.48,.78,3.89s-.26,2.69-.78,3.88c-.52,1.19-1.25,2.22-2.19,3.09-.94,.88-2.05,1.55-3.32,2.03-1.28,.48-2.67,.72-4.17,.72Zm-.03-5.07c.58,0,1.13-.11,1.63-.32,.5-.21,.95-.52,1.33-.92,.38-.4,.68-.89,.89-1.46,.21-.58,.32-1.23,.32-1.95s-.11-1.38-.32-1.95-.51-1.06-.89-1.46-.82-.7-1.33-.92c-.5-.21-1.05-.32-1.63-.32s-1.13,.11-1.63,.32c-.5,.21-.95,.52-1.33,.92s-.68,.89-.89,1.46c-.21,.58-.32,1.23-.32,1.95s.11,1.38,.32,1.95c.21,.58,.51,1.06,.89,1.46,.38,.4,.82,.7,1.33,.92,.5,.21,1.05,.32,1.63,.32Z"/><path class="cls-11" d="M844.01,388.74v-18.6h5.15l7.44,12.14h-2.71l7.23-12.14h5.15l.05,18.6h-5.71l-.05-9.99h.9l-4.94,8.32h-2.76l-5.16-8.32h1.12v9.99h-5.71Z"/><path class="cls-11" d="M875.53,384.01h9.3v4.73h-15.46v-18.6h15.12v4.73h-8.96v9.14Zm-.42-6.96h8.29v4.52h-8.29v-4.52Z"/><path class="cls-11" d="M899.25,388.74v-13.74h-5.45v-4.86h17.17v4.86h-5.45v13.74h-6.27Z"/><path class="cls-11" d="M922.1,389.17c-1.52,0-2.93-.24-4.21-.72-1.28-.48-2.4-1.16-3.33-2.03-.94-.88-1.67-1.91-2.19-3.09-.52-1.19-.78-2.48-.78-3.88s.26-2.71,.78-3.89c.52-1.18,1.25-2.21,2.19-3.08,.94-.88,2.05-1.55,3.33-2.03s2.68-.72,4.19-.72,2.92,.24,4.2,.72,2.38,1.16,3.32,2.03c.94,.88,1.67,1.9,2.19,3.08,.52,1.18,.78,2.48,.78,3.89s-.26,2.69-.78,3.88c-.52,1.19-1.25,2.22-2.19,3.09-.94,.88-2.05,1.55-3.32,2.03-1.28,.48-2.67,.72-4.17,.72Zm-.03-5.07c.58,0,1.13-.11,1.63-.32,.5-.21,.95-.52,1.33-.92,.38-.4,.68-.89,.89-1.46,.21-.58,.32-1.23,.32-1.95s-.11-1.38-.32-1.95-.51-1.06-.89-1.46-.82-.7-1.33-.92c-.5-.21-1.05-.32-1.63-.32s-1.13,.11-1.63,.32c-.5,.21-.95,.52-1.33,.92s-.68,.89-.89,1.46c-.21,.58-.32,1.23-.32,1.95s.11,1.38,.32,1.95c.21,.58,.51,1.06,.89,1.46,.38,.4,.82,.7,1.33,.92,.5,.21,1.05,.32,1.63,.32Z"/><path class="cls-11" d="M942.83,388.74v-18.6h5.15l7.44,12.14h-2.71l7.23-12.14h5.15l.05,18.6h-5.71l-.05-9.99h.9l-4.94,8.32h-2.76l-5.16-8.32h1.12v9.99h-5.71Z"/><path class="cls-11" d="M972.96,388.74v-8.16l1.43,3.75-8.45-14.19h6.62l5.71,9.7h-3.85l5.77-9.7h6.06l-8.4,14.19,1.38-3.75v8.16h-6.27Z"/><path class="cls-11" d="M995.01,388.74v-18.6h8.95c1.74,0,3.24,.28,4.5,.85s2.25,1.38,2.94,2.43c.69,1.05,1.04,2.3,1.04,3.73s-.35,2.67-1.04,3.72c-.69,1.05-1.67,1.86-2.94,2.43s-2.77,.86-4.5,.86h-5.47l2.79-2.68v7.25h-6.27Zm6.27-6.56l-2.79-2.84h5.08c.87,0,1.51-.19,1.93-.58,.42-.39,.62-.92,.62-1.59s-.21-1.2-.62-1.59c-.42-.39-1.06-.58-1.93-.58h-5.08l2.79-2.84v10.04Z"/><path class="cls-11" d="M1024.54,389.17c-1.52,0-2.93-.24-4.21-.72-1.28-.48-2.4-1.16-3.33-2.03-.94-.88-1.67-1.91-2.19-3.09-.52-1.19-.78-2.48-.78-3.88s.26-2.71,.78-3.89c.52-1.18,1.25-2.21,2.19-3.08,.94-.88,2.05-1.55,3.33-2.03s2.68-.72,4.19-.72,2.92,.24,4.2,.72,2.38,1.16,3.32,2.03c.94,.88,1.67,1.9,2.19,3.08,.52,1.18,.78,2.48,.78,3.89s-.26,2.69-.78,3.88c-.52,1.19-1.25,2.22-2.19,3.09-.94,.88-2.05,1.55-3.32,2.03-1.28,.48-2.67,.72-4.17,.72Zm-.03-5.07c.58,0,1.13-.11,1.63-.32,.5-.21,.95-.52,1.33-.92,.38-.4,.68-.89,.89-1.46,.21-.58,.32-1.23,.32-1.95s-.11-1.38-.32-1.95-.51-1.06-.89-1.46-.82-.7-1.33-.92c-.5-.21-1.05-.32-1.63-.32s-1.13,.11-1.63,.32c-.5,.21-.95,.52-1.33,.92s-.68,.89-.89,1.46c-.21,.58-.32,1.23-.32,1.95s.11,1.38,.32,1.95c.21,.58,.51,1.06,.89,1.46,.38,.4,.82,.7,1.33,.92,.5,.21,1.05,.32,1.63,.32Z"/><path class="cls-11" d="M1037.29,388.74v-18.6h8.95c1.74,0,3.24,.28,4.5,.85s2.25,1.38,2.94,2.43c.69,1.05,1.04,2.3,1.04,3.73s-.35,2.67-1.04,3.71c-.69,1.04-1.67,1.83-2.94,2.38-1.27,.55-2.77,.82-4.5,.82h-5.47l2.79-2.58v7.25h-6.27Zm6.27-6.56l-2.79-2.84h5.08c.87,0,1.51-.19,1.93-.58,.42-.39,.62-.92,.62-1.59s-.21-1.2-.62-1.59c-.42-.39-1.06-.58-1.93-.58h-5.08l2.79-2.84v10.04Zm4.86,6.56l-4.57-6.78h6.64l4.62,6.78h-6.7Z"/><path class="cls-11" d="M1060.86,388.74v-13.74h-5.45v-4.86h17.17v4.86h-5.45v13.74h-6.27Z"/><path class="cls-11" d="M1080.47,388.74h-6.27v-18.6h15.12v4.73h-8.85v13.87Zm-.42-10.68h8.18v4.73h-8.18v-4.73Z"/><path class="cls-11" d="M1100.95,389.17c-1.52,0-2.93-.24-4.21-.72-1.28-.48-2.4-1.16-3.33-2.03-.94-.88-1.67-1.91-2.19-3.09-.52-1.19-.78-2.48-.78-3.88s.26-2.71,.78-3.89c.52-1.18,1.25-2.21,2.19-3.08,.94-.88,2.05-1.55,3.33-2.03s2.68-.72,4.19-.72,2.92,.24,4.2,.72,2.38,1.16,3.32,2.03c.94,.88,1.67,1.9,2.19,3.08,.52,1.18,.78,2.48,.78,3.89s-.26,2.69-.78,3.88c-.52,1.19-1.25,2.22-2.19,3.09-.94,.88-2.05,1.55-3.32,2.03-1.28,.48-2.67,.72-4.17,.72Zm-.03-5.07c.58,0,1.13-.11,1.63-.32,.5-.21,.95-.52,1.33-.92,.38-.4,.68-.89,.89-1.46,.21-.58,.32-1.23,.32-1.95s-.11-1.38-.32-1.95-.51-1.06-.89-1.46-.82-.7-1.33-.92c-.5-.21-1.05-.32-1.63-.32s-1.13,.11-1.63,.32c-.5,.21-.95,.52-1.33,.92s-.68,.89-.89,1.46c-.21,.58-.32,1.23-.32,1.95s.11,1.38,.32,1.95c.21,.58,.51,1.06,.89,1.46,.38,.4,.82,.7,1.33,.92,.5,.21,1.05,.32,1.63,.32Z"/><path class="cls-11" d="M1113.71,388.74v-18.6h6.27v13.74h8.4v4.86h-14.67Z"/><path class="cls-11" d="M1130.1,388.74v-18.6h6.27v18.6h-6.27Z"/><path class="cls-11" d="M1149.18,389.17c-1.52,0-2.93-.24-4.21-.72-1.28-.48-2.4-1.16-3.33-2.03-.94-.88-1.67-1.91-2.19-3.09-.52-1.19-.78-2.48-.78-3.88s.26-2.71,.78-3.89c.52-1.18,1.25-2.21,2.19-3.08,.94-.88,2.05-1.55,3.33-2.03s2.68-.72,4.19-.72,2.92,.24,4.2,.72,2.38,1.16,3.32,2.03c.94,.88,1.67,1.9,2.19,3.08,.52,1.18,.78,2.48,.78,3.89s-.26,2.69-.78,3.88c-.52,1.19-1.25,2.22-2.19,3.09-.94,.88-2.05,1.55-3.32,2.03-1.28,.48-2.67,.72-4.17,.72Zm-.03-5.07c.58,0,1.13-.11,1.63-.32,.5-.21,.95-.52,1.33-.92,.38-.4,.68-.89,.89-1.46,.21-.58,.32-1.23,.32-1.95s-.11-1.38-.32-1.95-.51-1.06-.89-1.46-.82-.7-1.33-.92c-.5-.21-1.05-.32-1.63-.32s-1.13,.11-1.63,.32c-.5,.21-.95,.52-1.33,.92s-.68,.89-.89,1.46c-.21,.58-.32,1.23-.32,1.95s.11,1.38,.32,1.95c.21,.58,.51,1.06,.89,1.46,.38,.4,.82,.7,1.33,.92,.5,.21,1.05,.32,1.63,.32Z"/><path class="cls-11" d="M1162.2,381.62l-1.2-11.48h7.17l-1.2,11.48h-4.78Zm2.39,7.39c-1.03,0-1.87-.31-2.52-.94-.66-.63-.98-1.38-.98-2.25s.33-1.63,.98-2.23c.66-.6,1.5-.9,2.52-.9s1.89,.3,2.54,.9c.65,.6,.97,1.35,.97,2.23s-.32,1.62-.97,2.25c-.65,.63-1.49,.94-2.54,.94Z"/></g><line class="cls-2" x1="677.65" y1="290.71" x2="677.65" y2="477.29"/></svg>