<?xml version="1.0" encoding="UTF-8"?><svg id="Layer_1" xmlns="http://www.w3.org/2000/svg" xmlns:xlink="http://www.w3.org/1999/xlink" viewBox="0 0 1366 768"><defs><style>.cls-1,.cls-2{fill:none;}.cls-3{clip-path:url(#clippath);}.cls-4{fill:#f9f9f9;}.cls-5{fill:#fff;}.cls-6{fill:#8c8787;}.cls-7{fill:#bbb7b7;}.cls-8{fill:#d2d0d0;}.cls-9{fill:#d9d9d9;}.cls-10{fill:#231f20;}.cls-11{fill:#282828;}.cls-12{clip-path:url(#clippath-1);}.cls-13{clip-path:url(#clippath-4);}.cls-14{clip-path:url(#clippath-3);}.cls-15{clip-path:url(#clippath-2);}.cls-16{clip-path:url(#clippath-7);}.cls-17{clip-path:url(#clippath-8);}.cls-18{clip-path:url(#clippath-6);}.cls-19{clip-path:url(#clippath-5);}.cls-20{clip-path:url(#clippath-9);}.cls-21{clip-path:url(#clippath-60);}.cls-22{clip-path:url(#clippath-20);}.cls-23{clip-path:url(#clippath-24);}.cls-24{clip-path:url(#clippath-42);}.cls-25{clip-path:url(#clippath-46);}.cls-26{clip-path:url(#clippath-28);}.cls-27{clip-path:url(#clippath-50);}.cls-28{clip-path:url(#clippath-51);}.cls-29{clip-path:url(#clippath-55);}.cls-30{clip-path:url(#clippath-56);}.cls-31{clip-path:url(#clippath-57);}.cls-32{clip-path:url(#clippath-58);}.cls-33{clip-path:url(#clippath-64);}.cls-34{clip-path:url(#clippath-62);}.cls-35{clip-path:url(#clippath-67);}.cls-36{clip-path:url(#clippath-73);}.cls-37{clip-path:url(#clippath-59);}.cls-38{clip-path:url(#clippath-65);}.cls-39{clip-path:url(#clippath-63);}.cls-40{clip-path:url(#clippath-66);}.cls-41{clip-path:url(#clippath-70);}.cls-42{clip-path:url(#clippath-75);}.cls-43{clip-path:url(#clippath-72);}.cls-44{clip-path:url(#clippath-71);}.cls-45{clip-path:url(#clippath-74);}.cls-46{clip-path:url(#clippath-76);}.cls-47{clip-path:url(#clippath-14);}.cls-48{clip-path:url(#clippath-13);}.cls-49{clip-path:url(#clippath-12);}.cls-50{clip-path:url(#clippath-10);}.cls-51{clip-path:url(#clippath-15);}.cls-52{clip-path:url(#clippath-17);}.cls-53{clip-path:url(#clippath-16);}.cls-54{clip-path:url(#clippath-19);}.cls-55{clip-path:url(#clippath-11);}.cls-56{clip-path:url(#clippath-18);}.cls-2{stroke:#282828;stroke-miterlimit:10;stroke-width:5.92px;}.cls-57{isolation:isolate;}</style><clipPath id="clippath"><rect class="cls-1" x="-233.43" y="-14.57" width="1826.39" height="955.93"/></clipPath><clipPath id="clippath-1"><rect class="cls-1" x="-233.43" y="-14.57" width="1826.39" height="955.93"/></clipPath><clipPath id="clippath-2"><rect class="cls-1" x="-233.43" y="-14.57" width="1826.39" height="955.93"/></clipPath><clipPath id="clippath-3"><rect class="cls-1" x="-233.43" y="-14.57" width="1826.39" height="955.93"/></clipPath><clipPath id="clippath-4"><rect class="cls-1" x="499.04" y="644.85" width="441.93" height="296.51"/></clipPath><clipPath id="clippath-5"><rect class="cls-1" x="499.04" y="644.85" width="441.93" height="296.51"/></clipPath><clipPath id="clippath-6"><rect class="cls-1" x="499.04" y="644.85" width="441.93" height="296.51"/></clipPath><clipPath id="clippath-7"><rect class="cls-1" x="499.04" y="644.85" width="441.93" height="296.51"/></clipPath><clipPath id="clippath-8"><rect class="cls-1" x="499.04" y="644.85" width="441.93" height="296.51"/></clipPath><clipPath id="clippath-9"><rect class="cls-1" x="194.14" y="-14.57" width="489.43" height="165.46"/></clipPath><clipPath id="clippath-10"><rect class="cls-1" x="194.14" y="-14.57" width="489.43" height="165.46"/></clipPath><clipPath id="clippath-11"><rect class="cls-1" x="194.14" y="-14.57" width="489.43" height="165.46"/></clipPath><clipPath id="clippath-12"><rect class="cls-1" x="194.14" y="-14.57" width="489.43" height="165.46"/></clipPath><clipPath id="clippath-13"><rect class="cls-1" x="194.14" y="-14.57" width="489.43" height="165.46"/></clipPath><clipPath id="clippath-14"><rect class="cls-1" x="194.14" y="-14.57" width="489.43" height="165.46"/></clipPath><clipPath id="clippath-15"><rect class="cls-1" x="194.14" y="-14.57" width="489.43" height="165.46"/></clipPath><clipPath id="clippath-16"><rect class="cls-1" x="194.14" y="-14.57" width="489.43" height="165.46"/></clipPath><clipPath id="clippath-17"><rect class="cls-1" x="194.14" y="-14.57" width="489.43" height="165.46"/></clipPath><clipPath id="clippath-18"><rect class="cls-1" x="194.14" y="-14.57" width="489.43" height="165.46"/></clipPath><clipPath id="clippath-19"><rect class="cls-1" x="1264.56" y="252.93" width="328.51" height="512.95"/></clipPath><clipPath id="clippath-20"><rect class="cls-1" x="1264.56" y="252.93" width="328.51" height="512.95"/></clipPath><clipPath id="clippath-24"><rect class="cls-1" x="1264.56" y="252.93" width="328.51" height="512.95"/></clipPath><clipPath id="clippath-28"><rect class="cls-1" x="1264.56" y="252.93" width="328.51" height="512.95"/></clipPath><clipPath id="clippath-42"><rect class="cls-1" x="1264.56" y="252.93" width="328.51" height="512.95"/></clipPath><clipPath id="clippath-46"><rect class="cls-1" x="1264.56" y="252.93" width="328.51" height="512.95"/></clipPath><clipPath id="clippath-50"><rect class="cls-1" x="1264.56" y="252.93" width="328.51" height="512.95"/></clipPath><clipPath id="clippath-51"><rect class="cls-1" x="1264.56" y="252.93" width="328.51" height="512.95"/></clipPath><clipPath id="clippath-55"><rect class="cls-1" x="-171.85" y="590.88" width="551.3" height="350.48"/></clipPath><clipPath id="clippath-56"><rect class="cls-1" x="-171.85" y="590.88" width="551.3" height="350.48"/></clipPath><clipPath id="clippath-57"><rect class="cls-1" x="-171.85" y="590.88" width="551.3" height="350.48"/></clipPath><clipPath id="clippath-58"><rect class="cls-1" x="-171.85" y="590.88" width="551.3" height="350.48"/></clipPath><clipPath id="clippath-59"><rect class="cls-1" x="-171.85" y="590.88" width="551.3" height="350.48"/></clipPath><clipPath id="clippath-60"><rect class="cls-1" x="-171.85" y="590.88" width="551.3" height="350.48"/></clipPath><clipPath id="clippath-62"><rect class="cls-1" x="-171.85" y="590.88" width="551.3" height="350.48"/></clipPath><clipPath id="clippath-63"><rect class="cls-1" x="-171.85" y="590.88" width="551.3" height="350.48"/></clipPath><clipPath id="clippath-64"><rect class="cls-1" x="-171.85" y="590.88" width="551.3" height="350.48"/></clipPath><clipPath id="clippath-65"><rect class="cls-1" x="-171.85" y="590.88" width="551.3" height="350.48"/></clipPath><clipPath id="clippath-66"><rect class="cls-1" x="-171.85" y="590.88" width="551.3" height="350.48"/></clipPath><clipPath id="clippath-67"><rect class="cls-1" x="-171.85" y="590.88" width="551.3" height="350.48"/></clipPath><clipPath id="clippath-70"><rect class="cls-1" x="-171.85" y="590.88" width="551.3" height="350.48"/></clipPath><clipPath id="clippath-71"><rect class="cls-1" x="-171.85" y="590.88" width="551.3" height="350.48"/></clipPath><clipPath id="clippath-72"><rect class="cls-1" x="-171.85" y="590.88" width="551.3" height="350.48"/></clipPath><clipPath id="clippath-73"><rect class="cls-1" x="-171.85" y="590.88" width="551.3" height="350.48"/></clipPath><clipPath id="clippath-74"><rect class="cls-1" x="-171.85" y="590.88" width="551.3" height="350.48"/></clipPath><clipPath id="clippath-75"><rect class="cls-1" x="-171.85" y="590.88" width="551.3" height="350.48"/></clipPath><clipPath id="clippath-76"><rect class="cls-1" x="-171.85" y="590.88" width="551.3" height="350.48"/></clipPath></defs><g><g class="cls-3"><path class="cls-5" d="M393.42,241.95l118.53,110.14L801.24,83.33l51.27,47.7-289.19,268.76,119.4,110.92-.39,.39-144.64,134.14c2.79-2.22,5.2-4.91,7.61-7.52,30.07-31.22,47.22-69.58,51.27-108.6,1.16-12.05,1.16-24.48,0-36.43-4.43-41.73-23.22-82.3-57.24-114.29-.77-.77-1.16-1.16-1.64-1.93-.77-.77-1.16-1.16-2.02-1.54-80.08-72.56-208.24-72.18-287.55,1.54-74.88,69.58-79.69,180.01-13.97,254.5,4.43,4.91,8.77,9.73,13.97,14.26,4.82,4.53,10.02,9.06,15.23,12.82,77.67,58.98,190.71,56.76,265.97-5.97,2.79-2.22,5.59-4.53,8-7.13l-144.64,134.43-.39-.39-.77-.77L103.08,510.32l.77-.77L393.42,241.95Zm1015.01,131.54c78.54-74.01,78.15-193.6-1.16-267.6l144.55,134.52-144.64,134.14c.48-.29,.87-.67,1.25-1.06Zm-1.64,1.45l-144.64,134.52-144.55-134.52c79.69,73.62,208.24,74.01,288.42,1.16,0-.77,.39-.77,.77-1.16ZM1117.6,105.88c-80.08,74.39-80.08,194.66,0,268.76l-144.55-134.62,168.25-156.01,120.17-111.59,1.16-1.16,1.16,1.16,97.71,91.35,45.29,42.11c-79.69-74.1-209.4-74.1-289.19,0ZM103.08,509.94l-.77,.77H-236.51v-221.45l50.88-47.31L103.08,509.94ZM1603.85,191.94v48.47h-52.04l52.04-48.47ZM104.23,240.41h124.21l-124.21,115.44L-19.89,240.41H104.23Zm992.55,270.21l-124.21,115.35-124.21-115.35h248.43Zm403.38,221.45l50.88,47.31,.39,.39-289.19,268.76-51.27-47.31,289.19-269.15Zm-119.78-110.92l51.27,47.7-289.19,268.76-51.27-47.7,289.19-268.76Zm-407.72,158.23l289.19-268.37,51.27,47.31-289.57,268.76-51.27-47.7h.39ZM-134.46,191.16l-51.27,47.7-50.88-47.31V96.44l102.15,94.73Zm68.13-63.5L-233.43-27.2h102.53L-15.07,80.35l.39,.39-51.65,46.93ZM84.28-9.95l-31.7,27.46L4.49-27.2H100.67l1.64-1.54,.77,.77-.77,.77-18.02,17.25ZM632.21,462.91L921.79,194.15l50.88,47.31-289.19,268.86-51.27-47.41Zm-187.53-173.65L734.36,20.5l-51.27-47.7L393.42,241.56l51.27,47.7Z"/></g><g class="cls-12"><path class="cls-4" d="M264.1,657.95c-5.2-4.14-10.41-8.29-15.23-12.82s-9.64-9.44-13.97-14.26c-65.72-74.78-61.29-184.92,13.97-254.5l289.19,268.37,.39,.39c-2.79,2.22-5.2,4.91-8,7.13-75.36,62.83-188.68,64.76-266.35,5.69Zm1339.75,169.89v220.67h-340.84l289.19-268.76,51.65,48.09Zm-513.04,62.06l51.27,47.7,119.4,110.92H682.61l289.19-268.76,119.01,110.14Zm-1327.42-62.06l51.65-48.09L104.23,1048.13l289.19-268.37,289.19,268.76H104.23l-.39,.39-.39-.39H-236.99v-220.67h.39Zm630.03-48.47l145.03-134.14,144.64-134.14,289.19,268.76-289.57,268.76-289.29-269.24Zm868.82-270.21l144.64-134.52c-.39,.39-.77,.77-1.16,1.16-80.08,72.95-208.73,72.95-288.42-1.16-80.08-74.39-80.08-194.66,0-268.76l289.57,268.76,144.93-134.24,52.04,48.47v440.87l-52.04,48.47-289.57-269.05ZM228.06,240.41H-20.27L103.85,125.06l124.21,115.35Zm165.36,1.16l-.77-.77L103.85-27.58l.77-.77,.77,.77H683L393.42,241.56ZM103.85,1046.98L-184.96,778.99l-.77-.77L101.82,511l.77-.77,.77-.77,.77,.77-.77,.77,288.42,267.99L103.85,1046.98ZM1551.82,240.41l-144.64-134.52-45.68-42.5,40.09,37.2c38.06-35.37,57.24-81.52,57.72-127.78h144.64V181.05c-14.84,21.01-32.47,40.95-52.13,59.36Zm-455.03,270.21h-248.43l124.21-115.35,124.21,115.35Zm44.04-426.22l120.17-111.59h-408.1c.39,96.94,40.47,193.6,119.78,267.6l168.16-156.01Z"/></g><g class="cls-15"><path class="cls-8" d="M536.43,374.64c.77,.39,1.16,1.16,2.02,1.54,.77,.77,1.16,1.16,1.64,1.93,33.63,32.28,52.9,72.95,57.24,114.29,1.16,12.05,1.16,24.48,0,36.43-.39,3.37-.77,6.75-1.16,10.12-5.59,35.75-22.45,70.25-50.11,98.87-2.41,2.6-4.82,4.91-7.61,7.52l-.39-.39L248.88,376.09c79.31-73.24,207.47-74.01,287.55-1.45ZM1416.81,115.61c1.64,1.54,2.79,2.99,4.43,4.91,.77,.77,1.16,1.54,2.02,2.6,1.64,1.54,2.79,3.37,4.05,4.91,.39,.77,.77,1.16,1.64,1.93,1.64,1.93,2.79,3.76,4.43,5.97,.39,.77,.77,1.54,1.64,2.22,1.16,1.93,2.79,3.76,4.05,5.69,0,.39,.39,.77,.39,1.16,1.16,2.22,2.79,4.53,4.05,6.75,.39,.39,.39,.77,.77,1.16,1.16,2.22,2.79,4.91,4.05,7.13,.39,.77,.39,1.16,.77,1.93,1.16,2.22,2.02,4.53,3.18,6.36,.39,.39,.39,.77,.39,1.54,1.16,2.22,2.02,4.91,2.79,7.13q0,.39,.39,.77c3.18,8.67,5.59,16.96,7.61,25.92,0,.39,0,1.16,.39,1.54,7.23,34.98,3.57,71.41-10.41,104.46,0,.39-.39,.77-.39,1.16-2.02,4.91-4.43,9.73-6.84,14.26-.39,.77-.77,1.54-1.16,2.6-.77,1.93-2.02,3.37-3.18,5.3-.39,1.16-1.16,1.93-1.64,2.99-1.16,1.93-2.41,3.37-3.57,5.3-.77,.77-1.16,1.93-2.02,2.6-1.16,1.54-2.41,2.99-3.18,4.53-.77,1.16-1.64,2.22-2.41,3.37-1.16,1.54-2.41,2.6-3.57,4.14-.77,1.16-2.02,2.22-2.79,3.37-1.16,1.54-2.41,2.6-3.57,4.14-1.16,1.16-2.02,2.22-2.79,3.37-1.16,1.54-2.41,2.6-4.05,3.76-1.16,1.16-2.02,2.22-3.18,3.37-.39,.39-.77,.77-1.16,1.16L1118.37,106.36c80.08-74.39,209.5-74.39,289.57,0,.77,.77,2.02,1.93,2.79,2.6,1.64,1.54,2.79,2.99,4.43,4.14,.1,.67,.87,1.73,1.64,2.51ZM-185.34,779.37l-51.27,48.09v-95.5l51.27,47.41ZM104.23,509.17v-153.7l124.21-115.35L104.23,124.67V-27.2L393.04,241.18,104.23,509.17Zm1157.63,1.45l-289.19,268.37v-153.7l124.21-115.35-124.21-115.35V241.56l289.19,269.05ZM852.89-27.2c.39,96.94,40.47,193.6,119.78,267.6L684.63-27.2h168.25ZM-236.61,287.82v-95.11l51.27,47.31-51.27,47.8Zm1787.66,491.55l-50.88-47.31-289.57,268.76-68.52-63.5,289.19-268.76-51.27-47.7-289.19,268.76-67.65-62.73,289.96-268.47-51.27-47.31,289.19,268.28ZM-232.95-27.2L-65.95,127.66l-68.52,63.5-102.15-95.11V-27.2h3.66ZM4.49-27.2L52.58,17.52-15.07,80.25-130.9-27.2H4.49ZM853.27,131.03l-51.27-47.7-289.19,268.66-67.65-62.73L734.36,20.5l238.31,221.35-50.88-47.31-289.57,268.76-68.52-63.5L853.27,131.03ZM104.23-28.35l-.77,.77,.77,.77,.77-.77-.77-.77Z"/></g><g class="cls-14"><path class="cls-9" d="M1603.85,827.46l-51.65-47.7,51.65-47.7v95.4ZM102.3,510.61L-185.34,777.93l.77,.77-.77,.77-50.88-47.31v-221.54H102.3ZM1603.85,240.41v48.47l-52.04-48.47h52.04ZM84.28-9.95l18.41-17.25,.77-.77,.77,.77V125.06L-19.89,240.41l124.21,115.35v153.7L-185.34,240.79,84.28-9.95ZM972.67,241.56v153.7l-124.21,115.35,124.21,115.35v153.7l-289.19-268.28L972.67,241.56Zm428.92-140.98l-40.09-37.2-97.71-90.97h195.04c.1,46.64-19.18,92.9-57.24,128.16Zm202.27,80.85c-14.84,21.01-32.47,40.57-52.04,58.98l52.04-48.47v-10.5Z"/></g></g><g><g class="cls-13"><path class="cls-8" d="M720.39,760.97l101.09-93.57c-1.54-.96-10.02-4.53-11.76-5.2l-89.33,82.68-89.33-82.68c-3.18,1.06-8.19,3.57-11.76,5.2l101.09,93.57h0Z"/></g><g class="cls-19"><path class="cls-8" d="M720.39,712.59l63.89-59.17c-4.53-1.25-9.15-2.41-13.78-3.37l-50.11,46.35-50.11-46.35c-4.63,.96-9.25,2.12-13.78,3.37l63.89,59.17h0Z"/></g><g class="cls-18"><path class="cls-8" d="M720.39,664.22l20.14-18.6c-5.49-.48-10.99-.67-16.57-.77l-3.57,3.28-3.57-3.28c-3.47,.29-12.33,.29-16.57,.77l20.14,18.6h0Z"/></g><g class="cls-16"><path class="cls-8" d="M720.39,809.34h0l114.1-105.62,99.54,92.12c3.85-22.74-62.83-73.53-99.54-108.22l-114.1,105.52h0l-114.1-105.52c-13.78,15.51-103.01,85.09-99.54,108.22l99.54-92.12,114.1,105.62Z"/></g><g class="cls-17"><path class="cls-8" d="M941.06,834.69l-106.58-98.68-114.1,105.52h0l-114.1-105.52-106.58,98.68c-.39,5.49-.77,11.08-.58,16.67l107.16-99.26,114.1,105.62h0l114-105.62,107.16,99.26c.19-5.59-.1-11.18-.48-16.67Z"/></g></g><g><g class="cls-20"><path class="cls-7" d="M439.19-300.97c-3.95,0-7.9,.1-11.85,.29-3.95,.19-7.9,.48-11.76,.87-3.95,.39-7.81,.77-11.76,1.35-3.85,.58-7.81,1.16-11.66,1.93-3.85,.67-7.71,1.54-11.56,2.41s-7.61,1.83-11.37,2.99c-3.76,1.06-7.52,2.22-11.27,3.47-3.76,1.25-7.42,2.6-11.08,3.95-3.66,1.45-7.23,2.89-10.79,4.43s-7.13,3.18-10.6,4.91c-3.47,1.73-6.94,3.57-10.31,5.4-3.37,1.93-6.75,3.85-10.02,5.88s-6.46,4.14-9.64,6.36c-3.18,2.22-6.26,4.43-9.35,6.75s-6.07,4.72-8.96,7.23-5.78,5.01-8.58,7.61c-2.79,2.6-5.49,5.3-8.19,8-2.6,2.7-5.2,5.49-7.71,8.38-2.51,2.79-4.91,5.69-7.32,8.67-2.31,2.99-4.63,5.97-6.84,8.96-2.22,3.08-4.34,6.17-6.36,9.35s-3.95,6.36-5.88,9.54c-1.83,3.28-3.66,6.55-5.3,9.83-1.73,3.28-3.28,6.65-4.82,10.02s-2.89,6.84-4.24,10.31c-1.35,3.47-2.6,6.94-3.76,10.41-1.16,3.47-2.22,7.03-3.18,10.6s-1.83,7.13-2.6,10.7c-.77,3.57-1.45,7.23-2.02,10.89s-1.06,7.23-1.45,10.89-.67,7.32-.87,10.99c-.19,3.66-.29,7.32-.29,10.99,0,9.54,.67,19.08,1.93,28.52,1.45,10.31,3.57,20.53,6.55,30.55,5.4,18.41,13.11,35.85,23.32,52.42,6.65,10.79,14.26,21.01,22.74,30.55,8.87,10.02,18.5,19.27,29.1,27.75,14.17,11.47,29.58,21.2,46.16,29.2,4.24,2.02,8.58,4.05,13.01,5.88s8.87,3.57,13.39,5.11c4.53,1.54,9.06,2.99,13.68,4.34s9.25,2.51,13.97,3.57c4.72,1.06,9.44,2.02,14.17,2.79,4.72,.77,9.54,1.45,14.26,2.02,4.82,.58,9.64,.96,14.45,1.25s9.64,.39,14.45,.39,9.64-.1,14.45-.39c4.82-.29,9.64-.67,14.45-1.25s9.54-1.25,14.26-2.02c4.72-.77,9.44-1.73,14.17-2.79s9.35-2.22,13.97-3.57,9.15-2.79,13.68-4.34,8.96-3.28,13.39-5.11c4.43-1.83,8.77-3.76,13.01-5.88,16.67-8.09,31.99-17.83,46.16-29.2,10.31-8.29,19.85-17.35,28.52-27.17,8.67-9.83,16.48-20.24,23.22-31.22,4.91-8,9.25-16.19,13.11-24.57,4.05-9.06,7.52-18.31,10.21-27.75,2.99-10.02,5.11-20.24,6.46-30.55,.58-3.95,.96-7.9,1.25-11.85s.48-7.9,.58-11.85c.1-3.95,.1-7.9-.1-11.95-.1-3.95-.39-7.9-.77-11.85-.39-3.95-.87-7.9-1.45-11.85-.58-3.95-1.25-7.81-2.12-11.76-.77-3.85-1.73-7.81-2.79-11.66-1.06-3.85-2.22-7.71-3.37-11.47-1.25-3.76-2.6-7.52-4.05-11.27s-2.99-7.42-4.72-11.08c-1.64-3.66-3.47-7.23-5.3-10.79-1.93-3.57-3.85-7.03-5.97-10.5-2.12-3.47-4.24-6.84-6.55-10.21-2.31-3.37-4.63-6.65-7.13-9.93-2.51-3.28-5.01-6.46-7.71-9.54-2.6-3.08-5.4-6.17-8.19-9.15s-5.69-5.88-8.67-8.77c-2.99-2.79-6.07-5.59-9.15-8.29-3.18-2.7-6.36-5.3-9.64-7.81s-6.65-5.01-10.12-7.32c-3.47-2.41-6.94-4.63-10.5-6.84-3.57-2.22-7.23-4.24-10.89-6.26s-7.42-3.95-11.18-5.78c-3.76-1.83-7.61-3.57-11.56-5.2-3.85-1.64-7.81-3.18-11.76-4.63-3.95-1.45-8-2.79-12.05-4.05-4.05-1.25-8.09-2.41-12.24-3.47s-8.29-2.02-12.43-2.79c-4.14-.87-8.38-1.54-12.62-2.22-4.24-.67-8.48-1.16-12.72-1.54s-8.48-.77-12.72-.96-7.9-.19-12.24-.19Zm0,452.53c-9.83,0-19.56-.58-29.29-1.64-9.73-1.06-19.37-2.7-28.91-4.91-9.54-2.12-18.89-4.82-28.04-8.09-9.15-3.18-18.12-6.94-26.89-11.18-16.86-8.19-32.57-18.12-46.93-29.68-10.7-8.58-20.62-18.02-29.58-28.23-8.67-9.73-16.29-20.14-23.13-31.13-10.41-16.77-18.31-34.5-23.71-53.29-2.99-10.21-5.2-20.62-6.65-31.13-1.25-9.64-1.93-19.27-1.93-28.91,0-3.85,.1-7.81,.29-11.66,.19-3.85,.58-7.71,.96-11.66,.39-3.85,.96-7.71,1.64-11.56s1.35-7.61,2.22-11.47c.87-3.76,1.83-7.61,2.89-11.37,1.06-3.76,2.22-7.52,3.47-11.18s2.6-7.42,4.05-10.99c1.45-3.66,2.99-7.23,4.72-10.79s3.37-7.13,5.3-10.6c1.83-3.47,3.76-6.94,5.88-10.31,2.02-3.37,4.14-6.75,6.36-10.02,2.22-3.28,4.53-6.55,6.94-9.73s4.91-6.26,7.42-9.35c2.6-3.08,5.2-6.07,8-8.96,2.7-2.89,5.59-5.78,8.48-8.58,2.89-2.79,5.88-5.49,8.87-8.19,3.08-2.7,6.17-5.2,9.35-7.71,3.18-2.51,6.46-4.91,9.73-7.32,3.28-2.31,6.75-4.63,10.12-6.84s6.94-4.34,10.5-6.36c3.57-2.02,7.13-3.95,10.79-5.78,3.66-1.83,7.42-3.66,11.18-5.3s7.61-3.28,11.47-4.72c3.85-1.54,7.71-2.89,11.66-4.24s7.9-2.51,11.85-3.66,8-2.12,12.05-3.08,8.09-1.73,12.24-2.51c4.14-.77,8.19-1.35,12.33-1.93s8.29-.96,12.43-1.35c4.14-.39,8.29-.58,12.53-.77,4.14-.19,8.38-.19,12.53-.19,4.14,.1,8.38,.19,12.53,.48s8.29,.58,12.43,1.06c4.14,.48,8.29,.96,12.43,1.64,4.14,.67,8.19,1.35,12.33,2.22,4.05,.87,8.09,1.73,12.14,2.79,4.05,1.06,8,2.12,11.95,3.37,3.95,1.25,7.9,2.51,11.76,3.95s7.71,2.89,11.56,4.53c3.85,1.54,7.61,3.28,11.27,5.01,3.76,1.73,7.42,3.66,10.99,5.59,3.66,1.93,7.13,3.95,10.7,6.07,3.47,2.12,6.94,4.34,10.31,6.55,3.37,2.31,6.75,4.63,9.93,7.03,3.28,2.41,6.46,4.91,9.54,7.52,3.08,2.6,6.17,5.2,9.15,8,2.99,2.7,5.88,5.49,8.67,8.38s5.59,5.78,8.19,8.77c2.7,2.99,5.2,6.07,7.71,9.15s4.91,6.26,7.23,9.54,4.53,6.55,6.65,9.83c2.12,3.37,4.14,6.75,6.17,10.12,1.93,3.47,3.76,6.94,5.59,10.41,1.73,3.57,3.37,7.13,5.01,10.7,1.54,3.57,2.99,7.23,4.34,10.89s2.6,7.42,3.76,11.08c1.16,3.76,2.22,7.52,3.18,11.27s1.83,7.61,2.51,11.37c.77,3.85,1.35,7.61,1.93,11.47s.96,7.71,1.25,11.56,.58,7.71,.67,11.66c.1,3.85,.1,7.81,0,11.66-.1,3.85-.29,7.81-.67,11.66-.29,3.85-.77,7.71-1.25,11.56-1.45,10.5-3.57,20.91-6.65,31.13-2.79,9.64-6.26,19.08-10.41,28.23-3.95,8.58-8.38,16.86-13.3,24.96-6.94,11.18-14.84,21.78-23.61,31.7-8.87,9.93-18.5,19.18-29.01,27.66-14.36,11.66-30.07,21.49-46.93,29.68-8.67,4.24-17.63,7.9-26.89,11.18-9.15,3.18-18.6,5.88-28.14,8.09-9.54,2.12-19.18,3.76-28.91,4.91-9.64,1.35-19.47,1.93-29.29,1.93Z"/></g><g class="cls-50"><path class="cls-7" d="M439.29,151.56c-9.83,0-19.56-.58-29.29-1.64-9.73-1.06-19.37-2.7-28.91-4.91s-18.89-4.82-28.04-8.09c-9.15-3.18-18.12-6.94-26.89-11.18-16.86-8.19-32.57-18.12-46.93-29.68-10.7-8.58-20.62-18.02-29.58-28.23-8.67-9.73-16.29-20.14-23.03-31.13-10.41-16.77-18.31-34.5-23.71-53.29l3.85-.96c5.3,18.41,13.11,35.85,23.32,52.42,6.65,10.79,14.26,21.01,22.74,30.55,8.87,10.02,18.5,19.27,29.1,27.75,5.4,4.34,10.99,8.48,16.86,12.33,5.78,3.85,11.76,7.52,17.92,10.89s12.43,6.55,18.89,9.44,13.01,5.49,19.75,7.81c6.75,2.31,13.49,4.34,20.43,6.17,6.94,1.73,13.88,3.18,20.91,4.43,7.03,1.16,14.17,2.02,21.3,2.6,7.13,.58,14.26,.87,21.39,.87,9.64,0,19.27-.58,28.91-1.64,9.64-1.06,19.08-2.7,28.43-4.82s18.6-4.82,27.66-7.9c9.06-3.18,17.83-6.84,26.4-10.99,16.67-8.09,31.99-17.83,46.16-29.2,10.31-8.29,19.85-17.35,28.52-27.17s16.48-20.24,23.22-31.22c4.91-8,9.25-16.19,13.11-24.57,4.05-9.06,7.52-18.31,10.21-27.75,2.89-10.02,5.11-20.14,6.46-30.35-.48-3.37-.96-6.65-1.64-10.02-.58-3.28-1.35-6.65-2.12-9.93s-1.64-6.55-2.6-9.83c-.96-3.28-1.93-6.46-3.08-9.73-1.06-3.18-2.31-6.36-3.57-9.54s-2.6-6.26-3.95-9.44c-1.45-3.08-2.89-6.17-4.43-9.25-1.54-3.08-3.18-6.07-4.91-9.06-1.73-2.99-3.47-5.88-5.3-8.87-1.83-2.89-3.76-5.78-5.78-8.58s-4.05-5.59-6.17-8.38c-2.12-2.7-4.34-5.4-6.55-8.09-2.22-2.6-4.53-5.2-6.94-7.81-2.41-2.51-4.82-5.01-7.32-7.52-2.51-2.41-5.01-4.82-7.71-7.23-2.6-2.31-5.3-4.63-8-6.84s-5.49-4.43-8.29-6.55c-2.79-2.12-5.69-4.14-8.67-6.17-2.89-2.02-5.88-3.95-8.96-5.78-2.99-1.83-6.07-3.66-9.15-5.4s-6.26-3.37-9.44-5.01-6.46-3.18-9.64-4.63c-3.28-1.45-6.55-2.89-9.93-4.24s-6.65-2.6-10.12-3.76c-3.37-1.16-6.84-2.31-10.21-3.37-3.47-1.06-6.94-2.02-10.41-2.89s-7.03-1.73-10.5-2.51c-3.57-.77-7.13-1.45-10.7-2.02-3.57-.58-7.13-1.16-10.7-1.54-3.57-.48-7.23-.87-10.79-1.16-3.57-.29-7.23-.48-10.89-.67s-7.23-.19-10.89-.19-7.23,.1-10.89,.19c-3.66,.19-7.23,.39-10.89,.67-3.57,.29-7.23,.67-10.79,1.16s-7.13,.96-10.7,1.64c-3.57,.58-7.13,1.25-10.7,2.02-3.57,.77-7.03,1.54-10.5,2.51s-6.94,1.93-10.41,2.89c-3.47,1.06-6.84,2.22-10.21,3.37s-6.75,2.41-10.12,3.76-6.65,2.7-9.93,4.24c-3.28,1.45-6.46,2.99-9.64,4.63s-6.36,3.28-9.44,5.01c-3.08,1.73-6.17,3.57-9.15,5.4s-5.97,3.76-8.96,5.78c-2.89,2.02-5.78,4.05-8.67,6.17-2.79,2.12-5.59,4.24-8.29,6.55-2.7,2.22-5.4,4.53-8,6.84-2.6,2.31-5.2,4.72-7.61,7.23-2.51,2.41-4.91,4.91-7.32,7.52s-4.72,5.11-6.94,7.81c-2.22,2.6-4.43,5.3-6.55,8.09-2.12,2.7-4.14,5.49-6.17,8.38-2.02,2.79-3.85,5.69-5.78,8.58-1.83,2.89-3.57,5.88-5.3,8.87-1.73,2.99-3.37,5.97-4.91,9.06s-2.99,6.17-4.43,9.25-2.7,6.26-3.95,9.44c-1.25,3.18-2.41,6.36-3.57,9.54-1.06,3.18-2.12,6.46-3.08,9.73s-1.83,6.55-2.6,9.83c-.77,3.28-1.45,6.65-2.12,9.93-.58,3.28-1.16,6.65-1.64,10.02l-3.95-.48c.48-3.37,1.06-6.84,1.64-10.21,.67-3.37,1.35-6.75,2.12-10.12,.77-3.37,1.64-6.65,2.6-10.02,.96-3.28,2.02-6.65,3.08-9.83,1.16-3.28,2.31-6.55,3.57-9.73,1.25-3.18,2.6-6.46,4.05-9.54s2.89-6.26,4.53-9.35c1.54-3.08,3.28-6.17,5.01-9.15,1.73-2.99,3.57-5.97,5.4-8.96s3.85-5.88,5.88-8.77,4.14-5.69,6.26-8.48c2.12-2.79,4.34-5.49,6.65-8.19s4.63-5.3,7.03-7.9,4.91-5.11,7.42-7.61c2.51-2.51,5.11-4.91,7.81-7.32,2.7-2.41,5.4-4.72,8.09-6.94,2.79-2.31,5.59-4.43,8.48-6.65,2.89-2.12,5.78-4.24,8.77-6.26s5.97-3.95,9.06-5.88c3.08-1.93,6.17-3.76,9.35-5.49,3.18-1.73,6.36-3.47,9.64-5.11s6.55-3.18,9.83-4.72c3.28-1.54,6.65-2.89,10.02-4.24s6.84-2.6,10.21-3.85c3.47-1.25,6.94-2.31,10.41-3.37s7.03-2.02,10.6-2.99,7.13-1.73,10.7-2.51c3.57-.77,7.23-1.45,10.79-2.12,3.66-.58,7.23-1.16,10.89-1.64s7.32-.87,10.99-1.16c3.66-.29,7.32-.58,10.99-.67,3.66-.19,7.32-.19,11.08-.19s7.32,.1,11.08,.19c3.66,.19,7.32,.39,10.99,.67,3.66,.29,7.32,.67,10.99,1.16,3.66,.48,7.32,.96,10.89,1.64,3.66,.58,7.23,1.35,10.79,2.12,3.57,.77,7.13,1.64,10.7,2.51,3.57,.96,7.03,1.93,10.6,2.99,3.47,1.06,6.94,2.22,10.41,3.37,3.47,1.25,6.84,2.51,10.21,3.85s6.75,2.79,10.02,4.24c3.28,1.54,6.55,3.08,9.83,4.72s6.46,3.37,9.64,5.11,6.26,3.57,9.35,5.49c3.08,1.93,6.07,3.85,9.06,5.88,2.99,2.02,5.88,4.14,8.77,6.26s5.69,4.34,8.48,6.65c2.79,2.31,5.49,4.63,8.09,6.94,2.7,2.41,5.2,4.82,7.81,7.32,2.51,2.51,5.01,5.01,7.42,7.61s4.72,5.2,7.03,7.9c2.31,2.7,4.53,5.4,6.65,8.19s4.24,5.59,6.26,8.48,3.95,5.78,5.88,8.77c1.83,2.99,3.66,5.97,5.4,8.96s3.37,6.07,5.01,9.15c1.54,3.08,3.08,6.26,4.53,9.35,1.45,3.18,2.79,6.36,4.05,9.54s2.51,6.46,3.57,9.73c1.16,3.28,2.12,6.55,3.08,9.83,.96,3.28,1.83,6.65,2.6,10.02s1.54,6.75,2.12,10.12c.67,3.37,1.16,6.75,1.64,10.21v.39c-1.45,10.5-3.57,20.91-6.65,31.13-2.79,9.64-6.26,19.08-10.41,28.23-3.95,8.58-8.38,16.86-13.3,24.96-6.94,11.18-14.84,21.78-23.61,31.7-8.87,9.93-18.5,19.18-29.01,27.66-14.36,11.66-30.07,21.49-46.93,29.68-8.67,4.24-17.63,7.9-26.89,11.18-9.15,3.18-18.6,5.88-28.14,8.09-9.54,2.12-19.18,3.76-28.91,4.91-9.06,1.35-18.89,1.93-28.62,1.93Z"/></g><g class="cls-55"><path class="cls-7" d="M206.67-16.98c5.3,18.21,13.11,35.56,23.22,51.94,6.65,10.79,14.26,21.01,22.74,30.55,8.87,10.02,18.5,19.27,29.1,27.75,5.4,4.34,10.99,8.48,16.86,12.33,5.78,3.85,11.76,7.52,17.92,10.89s12.43,6.55,18.89,9.44,13.01,5.49,19.75,7.81c6.75,2.31,13.49,4.34,20.43,6.17,6.94,1.73,13.88,3.18,20.91,4.43,7.03,1.16,14.17,2.02,21.3,2.6,7.13,.58,14.26,.87,21.39,.87,9.64,0,19.27-.58,28.91-1.64,9.64-1.06,19.08-2.7,28.43-4.82s18.6-4.82,27.66-7.9c9.06-3.18,17.83-6.84,26.4-10.99,16.67-8.09,31.99-17.83,46.16-29.2,10.31-8.29,19.85-17.35,28.52-27.17,8.67-9.83,16.48-20.24,23.22-31.22,4.91-8,9.25-16.19,13.11-24.57,3.95-8.87,7.32-18.02,10.12-27.27-.87-2.89-1.83-5.88-2.79-8.77s-2.02-5.78-3.18-8.67-2.31-5.69-3.57-8.48c-1.25-2.79-2.51-5.59-3.95-8.38-1.35-2.79-2.79-5.49-4.24-8.19s-2.99-5.4-4.63-8.09-3.28-5.3-5.01-7.9-3.47-5.11-5.3-7.71c-1.83-2.51-3.76-5.01-5.69-7.42s-3.95-4.82-5.97-7.23c-2.02-2.41-4.14-4.72-6.26-7.03s-4.34-4.53-6.55-6.75-4.53-4.34-6.84-6.55c-2.31-2.12-4.72-4.24-7.13-6.26s-4.91-4.05-7.42-5.97c-2.51-1.93-5.11-3.85-7.71-5.69s-5.2-3.66-7.9-5.4-5.4-3.47-8.19-5.11-5.59-3.28-8.38-4.72c-2.79-1.54-5.69-2.99-8.58-4.43s-5.78-2.79-8.77-4.14c-2.99-1.35-5.97-2.6-8.96-3.76-2.99-1.25-6.07-2.31-9.06-3.47-3.08-1.06-6.17-2.12-9.25-3.08-3.08-.96-6.26-1.93-9.35-2.7-3.18-.87-6.26-1.64-9.44-2.41s-6.36-1.45-9.54-2.02c-3.18-.58-6.46-1.16-9.64-1.64-3.28-.48-6.46-.96-9.73-1.25-3.28-.39-6.46-.67-9.73-.96-3.28-.29-6.55-.39-9.83-.58-3.28-.1-6.55-.19-9.83-.19s-6.55,.1-9.83,.19c-3.28,.1-6.55,.29-9.83,.58s-6.55,.58-9.73,.96c-3.28,.39-6.46,.77-9.73,1.25-3.28,.48-6.46,1.06-9.64,1.64-3.18,.58-6.36,1.25-9.54,2.02-3.18,.77-6.36,1.54-9.44,2.41-3.18,.87-6.26,1.73-9.35,2.7s-6.17,2.02-9.25,3.08c-3.08,1.06-6.07,2.22-9.06,3.47s-5.97,2.51-8.96,3.76c-2.99,1.35-5.88,2.7-8.77,4.14s-5.78,2.89-8.58,4.43-5.59,3.08-8.38,4.72c-2.79,1.64-5.49,3.37-8.19,5.11s-5.3,3.57-7.9,5.4c-2.6,1.83-5.2,3.76-7.71,5.69s-5.01,3.95-7.42,5.97c-2.41,2.02-4.82,4.14-7.13,6.26s-4.63,4.34-6.84,6.55c-2.22,2.22-4.43,4.43-6.55,6.75-2.12,2.31-4.24,4.63-6.26,7.03s-4.05,4.82-5.97,7.23-3.85,4.91-5.69,7.42-3.57,5.11-5.3,7.71-3.37,5.2-5.01,7.9-3.18,5.3-4.63,8.09c-1.45,2.7-2.89,5.49-4.24,8.19-1.35,2.79-2.7,5.59-3.95,8.38-1.25,2.79-2.41,5.69-3.57,8.48-1.16,2.89-2.22,5.78-3.18,8.67-1.16,2.89-2.12,5.88-2.99,8.77Zm232.53,168.54c-9.83,0-19.56-.58-29.29-1.64-9.73-1.06-19.37-2.7-28.91-4.91-9.54-2.12-18.89-4.82-28.04-8.09-9.15-3.18-18.12-6.94-26.89-11.18-16.86-8.19-32.57-18.12-46.93-29.68-10.7-8.58-20.62-18.02-29.58-28.23-8.67-9.73-16.29-20.14-23.13-31.13-10.41-16.77-18.31-34.5-23.71-53.29l-.1-.48,.1-.48c.87-2.99,1.83-5.97,2.79-8.96s2.12-5.88,3.18-8.77c1.16-2.89,2.31-5.78,3.57-8.67,1.25-2.89,2.6-5.69,3.95-8.58,1.35-2.79,2.79-5.59,4.34-8.38,1.54-2.79,3.08-5.49,4.72-8.19,1.64-2.7,3.28-5.4,5.11-8,1.73-2.6,3.57-5.2,5.4-7.81s3.76-5.11,5.78-7.61c1.93-2.51,3.95-4.91,6.07-7.42,2.12-2.41,4.24-4.82,6.36-7.13,2.22-2.31,4.43-4.63,6.75-6.94,2.31-2.22,4.63-4.43,7.03-6.65,2.41-2.12,4.82-4.34,7.32-6.36,2.51-2.12,5.01-4.14,7.52-6.07,2.6-2.02,5.2-3.95,7.81-5.78,2.6-1.93,5.3-3.76,8.09-5.49,2.7-1.73,5.49-3.47,8.29-5.2,2.79-1.64,5.69-3.28,8.48-4.82,2.89-1.54,5.78-3.08,8.77-4.53s5.88-2.89,8.96-4.24c2.99-1.35,6.07-2.6,9.06-3.85,3.08-1.25,6.17-2.41,9.25-3.47,3.08-1.16,6.26-2.12,9.44-3.18,3.18-.96,6.36-1.93,9.54-2.79,3.18-.87,6.46-1.64,9.64-2.41,3.28-.77,6.46-1.45,9.73-2.02,3.28-.67,6.55-1.16,9.83-1.73,3.28-.48,6.55-.96,9.93-1.35,3.28-.39,6.65-.67,9.93-.96,3.28-.29,6.65-.48,10.02-.58s6.65-.19,10.02-.19,6.65,.1,10.02,.19c3.37,.1,6.65,.29,10.02,.58,3.28,.29,6.65,.58,9.93,.96,3.28,.39,6.65,.77,9.93,1.35s6.55,1.06,9.83,1.73,6.55,1.35,9.73,2.02c3.28,.77,6.46,1.54,9.64,2.41s6.36,1.83,9.54,2.79c3.18,.96,6.26,2.02,9.44,3.18,3.08,1.16,6.17,2.31,9.25,3.47,3.08,1.25,6.07,2.51,9.06,3.85,2.99,1.35,5.97,2.7,8.96,4.24,2.99,1.45,5.88,2.99,8.77,4.53,2.89,1.54,5.69,3.18,8.48,4.82,2.79,1.64,5.59,3.37,8.29,5.2,2.7,1.73,5.4,3.57,8.09,5.49,2.6,1.93,5.3,3.85,7.81,5.78,2.6,2.02,5.11,4.05,7.52,6.07s4.91,4.24,7.32,6.36c2.41,2.12,4.72,4.34,7.03,6.65,2.31,2.22,4.53,4.53,6.75,6.94,2.22,2.31,4.34,4.72,6.36,7.13,2.12,2.41,4.14,4.91,6.07,7.42s3.85,5.01,5.78,7.61c1.83,2.6,3.66,5.2,5.4,7.81s3.47,5.3,5.11,8,3.18,5.4,4.72,8.19c1.54,2.79,2.99,5.59,4.34,8.38,1.35,2.79,2.7,5.69,3.95,8.58,1.25,2.89,2.51,5.78,3.57,8.67,1.16,2.89,2.22,5.88,3.18,8.77,.96,2.99,1.93,5.97,2.79,8.96l.1,.48-.1,.48c-2.79,9.64-6.26,19.08-10.41,28.23-3.95,8.58-8.38,16.86-13.3,24.96-6.94,11.18-14.84,21.78-23.61,31.7-8.87,9.93-18.5,19.18-29.01,27.66-14.36,11.66-30.07,21.49-46.93,29.68-8.67,4.24-17.63,7.9-26.89,11.18-9.15,3.18-18.6,5.88-28.14,8.09-9.54,2.12-19.18,3.76-28.91,4.91-10.02,1.16-19.85,1.73-29.68,1.73Z"/></g><g class="cls-49"><path class="cls-7" d="M217.17,11.06c3.76,8.19,8,16.19,12.72,23.9,6.65,10.79,14.26,21.01,22.74,30.55,8.87,10.02,18.5,19.27,29.1,27.75,5.4,4.34,10.99,8.48,16.86,12.33,5.78,3.85,11.76,7.52,17.92,10.89s12.43,6.55,18.89,9.44,13.01,5.49,19.75,7.81c6.75,2.31,13.49,4.34,20.43,6.17,6.94,1.73,13.88,3.18,20.91,4.43,7.03,1.16,14.17,2.02,21.3,2.6,7.13,.58,14.26,.87,21.39,.87,9.64,0,19.27-.58,28.91-1.64,9.64-1.06,19.08-2.7,28.43-4.82s18.6-4.82,27.66-7.9c9.06-3.18,17.83-6.84,26.4-10.99,16.67-8.09,31.99-17.83,46.16-29.2,10.31-8.29,19.85-17.35,28.52-27.17,8.67-9.83,16.48-20.24,23.22-31.22,4.72-7.71,8.96-15.71,12.72-23.9-1.16-2.51-2.31-5.01-3.57-7.52-1.25-2.51-2.51-4.91-3.85-7.32s-2.7-4.82-4.14-7.23-2.89-4.72-4.43-7.13c-1.54-2.31-3.08-4.63-4.72-6.94s-3.28-4.53-5.01-6.75-3.47-4.43-5.3-6.55-3.66-4.34-5.49-6.36c-1.93-2.12-3.76-4.14-5.78-6.17-1.93-2.02-3.95-4.05-5.97-5.97-2.02-1.93-4.14-3.95-6.26-5.78-2.12-1.93-4.24-3.76-6.46-5.59s-4.43-3.66-6.65-5.4c-2.22-1.73-4.53-3.47-6.84-5.11-2.31-1.64-4.72-3.28-7.03-4.91-2.41-1.64-4.82-3.18-7.23-4.63-2.41-1.54-4.91-2.99-7.42-4.43s-5.01-2.79-7.61-4.14-5.11-2.6-7.81-3.85c-2.6-1.25-5.3-2.51-7.9-3.66-2.7-1.16-5.3-2.31-8.09-3.37-2.7-1.06-5.4-2.12-8.19-3.08-2.7-.96-5.49-1.93-8.29-2.79-2.79-.87-5.59-1.73-8.38-2.51s-5.69-1.54-8.48-2.22-5.69-1.35-8.58-1.93-5.78-1.16-8.67-1.64-5.78-.96-8.67-1.35-5.78-.77-8.77-1.06c-2.89-.29-5.88-.58-8.77-.77s-5.88-.39-8.77-.48-5.88-.19-8.87-.19-5.88,.1-8.87,.19c-2.89,.1-5.88,.29-8.77,.48s-5.88,.48-8.77,.77-5.88,.67-8.77,1.06c-2.89,.39-5.78,.87-8.67,1.35s-5.78,1.06-8.67,1.64c-2.89,.58-5.69,1.25-8.58,1.93s-5.69,1.45-8.48,2.22-5.59,1.64-8.38,2.51c-2.79,.87-5.59,1.83-8.29,2.79-2.7,.96-5.49,2.02-8.19,3.08s-5.4,2.22-8.09,3.37-5.3,2.41-7.9,3.66-5.2,2.51-7.81,3.85-5.11,2.7-7.61,4.14-5.01,2.89-7.42,4.43-4.91,3.08-7.23,4.63c-2.41,1.64-4.72,3.18-7.03,4.91-2.31,1.64-4.63,3.37-6.84,5.11-2.22,1.73-4.53,3.57-6.65,5.4-2.22,1.83-4.34,3.66-6.46,5.59s-4.24,3.85-6.26,5.78-4.05,3.95-5.97,5.97c-1.93,2.02-3.85,4.14-5.78,6.17-1.93,2.12-3.76,4.24-5.49,6.36-1.83,2.12-3.57,4.34-5.3,6.55s-3.37,4.43-5.01,6.75-3.18,4.63-4.72,6.94c-1.54,2.31-2.99,4.72-4.43,7.13s-2.79,4.82-4.14,7.23-2.6,4.91-3.85,7.32c-1.25,2.6-2.51,5.11-3.57,7.61Zm222.02,140.5c-9.83,0-19.56-.58-29.29-1.64-9.73-1.06-19.37-2.7-28.91-4.91-9.54-2.12-18.89-4.82-28.04-8.09-9.15-3.18-18.12-6.94-26.89-11.18-16.86-8.19-32.57-18.12-46.93-29.68-10.7-8.58-20.62-18.02-29.58-28.23-8.67-9.73-16.29-20.14-23.13-31.13-5.01-8.09-9.44-16.38-13.3-24.96l-.29-.67,.29-.67c1.16-2.6,2.41-5.11,3.66-7.61s2.6-5.01,3.95-7.52c1.35-2.51,2.79-4.91,4.24-7.42,1.45-2.41,2.99-4.82,4.53-7.23,1.54-2.41,3.18-4.72,4.82-7.03s3.37-4.63,5.11-6.94,3.47-4.53,5.3-6.75,3.66-4.43,5.59-6.55,3.85-4.24,5.88-6.36,4.05-4.14,6.07-6.17c2.12-2.02,4.14-3.95,6.36-5.97,2.12-1.93,4.34-3.85,6.55-5.69s4.53-3.66,6.75-5.49c2.31-1.83,4.63-3.57,7.03-5.2,2.41-1.73,4.72-3.37,7.23-5.01,2.41-1.64,4.91-3.18,7.42-4.72s5.01-3.08,7.61-4.53c2.6-1.45,5.11-2.89,7.71-4.24s5.2-2.7,7.9-3.95c2.7-1.25,5.4-2.51,8.09-3.66s5.49-2.31,8.19-3.47c2.79-1.06,5.49-2.12,8.29-3.18,2.79-.96,5.59-1.93,8.48-2.89,2.79-.87,5.69-1.73,8.58-2.6,2.89-.77,5.78-1.54,8.67-2.31,2.89-.67,5.78-1.35,8.77-1.93,2.89-.58,5.88-1.16,8.77-1.64s5.88-.96,8.87-1.35c2.99-.39,5.97-.77,8.96-1.06s5.97-.58,8.96-.77,5.97-.39,8.96-.48,5.97-.19,8.96-.19,5.97,.1,8.96,.19c2.99,.1,5.97,.29,8.96,.48s5.97,.48,8.96,.77,5.97,.67,8.96,1.06c2.99,.39,5.88,.87,8.87,1.35s5.88,1.06,8.77,1.64c2.89,.58,5.88,1.25,8.77,1.93s5.78,1.45,8.67,2.31c2.89,.77,5.69,1.64,8.58,2.6,2.79,.87,5.69,1.83,8.48,2.89,2.79,.96,5.59,2.02,8.29,3.18,2.79,1.06,5.49,2.22,8.19,3.47s5.4,2.41,8.09,3.66c2.7,1.25,5.3,2.6,7.9,3.95s5.2,2.79,7.71,4.24c2.6,1.45,5.11,2.99,7.61,4.53,2.51,1.54,4.91,3.08,7.42,4.72,2.41,1.64,4.82,3.28,7.23,5.01,2.41,1.73,4.72,3.47,7.03,5.2,2.31,1.83,4.53,3.66,6.75,5.49,2.22,1.83,4.43,3.76,6.55,5.69s4.24,3.95,6.36,5.97c2.12,2.02,4.14,4.05,6.07,6.17,2.02,2.12,3.95,4.24,5.88,6.36,1.93,2.12,3.76,4.34,5.59,6.55,1.83,2.22,3.57,4.43,5.3,6.75s3.47,4.53,5.11,6.94c1.64,2.31,3.28,4.72,4.82,7.03,1.54,2.41,3.08,4.82,4.53,7.23s2.89,4.91,4.24,7.42,2.7,5.01,3.95,7.52c1.25,2.51,2.51,5.11,3.66,7.61v.67s-.29,.67-.29,.67c-3.95,8.58-8.29,16.86-13.3,24.96-6.94,11.18-14.84,21.78-23.61,31.7-8.87,9.93-18.5,19.18-29.01,27.66-14.36,11.66-30.07,21.49-46.93,29.68-8.67,4.24-17.63,7.9-26.89,11.18-9.15,3.18-18.6,5.88-28.14,8.09-9.54,2.12-19.18,3.76-28.91,4.91-9.73,1.06-19.56,1.64-29.39,1.64Z"/></g><g class="cls-48"><path class="cls-7" d="M230.47,35.82c6.55,10.41,13.88,20.33,22.16,29.68,8.87,10.02,18.5,19.27,29.1,27.75,14.17,11.47,29.58,21.2,46.16,29.2,4.24,2.02,8.58,4.05,13.01,5.88s8.87,3.57,13.39,5.11c4.53,1.54,9.06,2.99,13.68,4.34s9.25,2.51,13.97,3.57c4.72,1.06,9.44,2.02,14.17,2.79,4.72,.77,9.54,1.45,14.26,2.02,4.82,.58,9.64,.96,14.45,1.25s9.64,.39,14.45,.39,9.64-.1,14.45-.39c4.82-.29,9.64-.67,14.45-1.25s9.54-1.25,14.26-2.02c4.72-.77,9.44-1.73,14.17-2.79s9.35-2.22,13.97-3.57,9.15-2.79,13.68-4.34,8.96-3.28,13.39-5.11c4.43-1.83,8.77-3.76,13.01-5.88,16.67-8.09,31.99-17.83,46.16-29.2,10.21-8.19,19.56-17.15,28.14-26.79,8.58-9.64,16.29-19.85,23.03-30.74-2.6-4.24-5.4-8.38-8.38-12.43s-5.97-8-9.15-11.95c-3.18-3.85-6.55-7.61-10.02-11.37-3.47-3.66-7.03-7.23-10.79-10.7-3.76-3.47-7.52-6.84-11.56-10.02-3.95-3.18-8-6.36-12.24-9.35-4.14-2.99-8.48-5.78-12.82-8.58-4.34-2.7-8.87-5.3-13.39-7.71s-9.15-4.72-13.88-6.94c-4.72-2.12-9.54-4.14-14.36-6.07-4.82-1.83-9.83-3.57-14.74-5.2s-10.02-2.99-15.13-4.24-10.21-2.41-15.32-3.37c-5.2-.96-10.31-1.73-15.51-2.41-5.2-.67-10.41-1.16-15.71-1.45-5.2-.29-10.5-.48-15.8-.48s-10.5,.19-15.8,.48c-5.2,.29-10.5,.77-15.71,1.45-5.2,.67-10.41,1.45-15.51,2.41-5.2,.96-10.31,2.02-15.32,3.37-5.11,1.25-10.12,2.7-15.13,4.24s-9.93,3.28-14.74,5.2c-4.82,1.83-9.64,3.85-14.36,6.07-4.72,2.12-9.35,4.43-13.88,6.94-4.53,2.41-9.06,5.01-13.39,7.71s-8.67,5.59-12.82,8.58-8.29,6.07-12.24,9.35c-3.95,3.18-7.81,6.55-11.56,10.02s-7.32,7.03-10.79,10.7-6.84,7.42-10.02,11.37c-3.18,3.85-6.26,7.9-9.15,11.95-2.89,4.14-5.69,8.29-8.29,12.53Zm208.73,115.73c-9.83,0-19.56-.58-29.29-1.64-9.73-1.06-19.37-2.7-28.91-4.91-9.54-2.12-18.89-4.82-28.04-8.09-9.15-3.18-18.12-6.94-26.89-11.18-16.86-8.19-32.57-18.12-46.93-29.68-10.7-8.58-20.62-18.02-29.58-28.23-8.67-9.73-16.29-20.14-23.13-31.13l-.58-.87,.58-.87c2.7-4.34,5.49-8.58,8.48-12.72,2.99-4.14,6.07-8.19,9.35-12.24,3.28-3.95,6.65-7.81,10.21-11.66,3.57-3.76,7.23-7.42,10.99-10.99,3.76-3.57,7.71-6.94,11.76-10.31,4.05-3.28,8.19-6.46,12.43-9.54,4.24-3.08,8.58-5.97,13.11-8.77,4.43-2.79,9.06-5.4,13.68-7.9,4.63-2.51,9.35-4.91,14.17-7.13,4.82-2.22,9.73-4.24,14.65-6.17s10.02-3.66,15.03-5.3c5.11-1.64,10.21-3.08,15.42-4.34s10.41-2.41,15.71-3.37,10.6-1.83,15.9-2.41c5.3-.67,10.7-1.16,16-1.45,5.4-.29,10.7-.48,16.09-.48s10.7,.19,16.09,.48c5.4,.29,10.7,.87,16,1.45,5.3,.67,10.6,1.45,15.9,2.41s10.5,2.12,15.71,3.37c5.2,1.25,10.31,2.79,15.42,4.34,5.11,1.64,10.12,3.37,15.03,5.3s9.83,3.95,14.65,6.17,9.54,4.63,14.17,7.13c4.63,2.51,9.15,5.11,13.68,7.9s8.77,5.69,13.11,8.77c4.24,3.08,8.38,6.26,12.43,9.54,4.05,3.28,7.9,6.75,11.76,10.31,3.76,3.57,7.42,7.23,10.99,10.99,3.57,3.76,6.94,7.61,10.21,11.66,3.28,3.95,6.36,8,9.35,12.24,2.99,4.14,5.78,8.38,8.48,12.72l.58,.96-.58,.87c-6.94,11.18-14.84,21.78-23.61,31.7-8.77,9.93-18.5,19.18-29.01,27.66-14.36,11.66-30.07,21.49-46.93,29.68-8.67,4.24-17.63,7.9-26.89,11.18-9.15,3.18-18.6,5.88-28.14,8.09-9.54,2.12-19.18,3.76-28.91,4.91-10.02,.96-19.85,1.54-29.68,1.54Z"/></g><g class="cls-47"><path class="cls-7" d="M253.6,66.66c8.58,9.64,17.92,18.5,28.04,26.6,5.4,4.34,10.99,8.48,16.86,12.33,5.78,3.85,11.76,7.52,17.92,10.89s12.43,6.55,18.89,9.44,13.01,5.49,19.75,7.81c6.75,2.31,13.49,4.34,20.43,6.17,6.94,1.73,13.88,3.18,20.91,4.43,7.03,1.16,14.17,2.02,21.3,2.6,7.13,.58,14.26,.87,21.39,.87,9.64,0,19.27-.58,28.91-1.64,9.64-1.06,19.08-2.7,28.43-4.82s18.6-4.82,27.66-7.9c9.06-3.18,17.83-6.84,26.4-10.99,16.67-8.09,31.99-17.83,46.16-29.2,10.12-8.19,19.47-17.06,28.04-26.6-2.79-3.18-5.69-6.26-8.77-9.25-2.99-2.99-6.07-5.97-9.25-8.77-3.18-2.89-6.46-5.59-9.73-8.29-3.37-2.7-6.75-5.3-10.21-7.81s-7.03-4.91-10.7-7.23-7.32-4.53-11.08-6.75c-3.76-2.12-7.61-4.14-11.47-6.17-3.85-1.93-7.81-3.76-11.85-5.59-3.95-1.73-8-3.37-12.14-4.91-4.05-1.54-8.19-2.99-12.43-4.34-4.14-1.35-8.38-2.51-12.62-3.66-4.24-1.16-8.58-2.12-12.82-2.99-4.34-.87-8.67-1.64-13.01-2.31-4.34-.67-8.77-1.25-13.11-1.64-4.43-.48-8.77-.77-13.2-1.06-4.43-.19-8.87-.39-13.2-.39s-8.87,.1-13.2,.39c-4.43,.19-8.77,.58-13.2,1.06-4.43,.48-8.77,1.06-13.11,1.64-4.34,.67-8.67,1.45-13.01,2.31s-8.58,1.93-12.82,2.99c-4.24,1.16-8.48,2.31-12.62,3.66-4.14,1.35-8.29,2.79-12.43,4.34s-8.09,3.18-12.14,4.91c-3.95,1.73-7.9,3.57-11.85,5.59-3.85,1.93-7.71,3.95-11.47,6.17-3.76,2.12-7.42,4.34-11.08,6.75-3.66,2.31-7.23,4.72-10.7,7.23s-6.94,5.11-10.21,7.81c-3.37,2.7-6.55,5.49-9.73,8.29-3.18,2.89-6.26,5.78-9.25,8.77-2.89,2.99-5.88,6.17-8.67,9.25h0Zm185.6,84.9c-4.53,0-9.06-.1-13.59-.39-4.53-.19-9.06-.58-13.49-1.06-4.53-.48-8.96-1.06-13.39-1.73-4.43-.67-8.87-1.54-13.3-2.41-4.43-.96-8.77-1.93-13.11-3.08s-8.67-2.41-12.91-3.76-8.48-2.89-12.72-4.43c-4.14-1.54-8.29-3.28-12.43-5.11-4.05-1.83-8.09-3.66-12.05-5.69s-7.9-4.14-11.76-6.36c-3.85-2.22-7.61-4.53-11.37-6.94-3.66-2.41-7.32-4.91-10.89-7.52-3.57-2.6-7.03-5.3-10.41-8-3.37-2.79-6.75-5.59-9.93-8.58-3.28-2.99-6.36-5.97-9.44-9.06-3.08-3.08-5.97-6.26-8.87-9.54l-1.06-1.16,1.06-1.16c2.89-3.28,5.78-6.46,8.87-9.54s6.17-6.17,9.44-9.06c3.28-2.99,6.55-5.78,9.93-8.58,3.37-2.79,6.84-5.49,10.41-8.09,3.57-2.6,7.23-5.11,10.89-7.52,3.66-2.41,7.52-4.72,11.37-6.94,3.85-2.22,7.71-4.34,11.76-6.36,3.95-2.02,8-3.95,12.05-5.69,4.05-1.83,8.19-3.47,12.43-5.11,4.14-1.54,8.38-3.08,12.72-4.43,4.24-1.35,8.58-2.6,12.91-3.76,4.34-1.16,8.77-2.22,13.11-3.08s8.87-1.73,13.3-2.41,8.96-1.25,13.39-1.73c4.53-.48,8.96-.77,13.49-1.06,4.53-.19,9.06-.39,13.59-.39s9.06,.1,13.59,.39c4.53,.19,9.06,.58,13.49,1.06,4.53,.48,8.96,1.06,13.39,1.73,4.43,.67,8.87,1.54,13.3,2.41,4.43,.96,8.77,1.93,13.11,3.08s8.67,2.41,12.91,3.76,8.48,2.89,12.72,4.43c4.14,1.54,8.29,3.28,12.43,5.11s8.09,3.66,12.05,5.69c3.95,2.02,7.9,4.14,11.76,6.36,3.85,2.22,7.61,4.53,11.37,6.94,3.66,2.41,7.32,4.91,10.89,7.52,3.57,2.6,7.03,5.3,10.41,8.09s6.75,5.59,9.93,8.58c3.28,2.99,6.36,5.97,9.44,9.06s5.97,6.26,8.87,9.54l1.06,1.16-1.06,1.16c-8.96,10.21-18.89,19.66-29.58,28.23-14.36,11.66-30.07,21.49-46.93,29.68-8.67,4.24-17.63,7.9-26.89,11.18-9.15,3.18-18.6,5.88-28.14,8.09-9.54,2.12-19.18,3.76-28.91,4.91-9.54,.96-19.37,1.54-29.2,1.54Z"/></g><g class="cls-51"><path class="cls-7" d="M283.37,94.7c5.4,4.24,10.99,8.29,16.77,12.05,5.78,3.76,11.66,7.32,17.83,10.7,6.07,3.28,12.33,6.36,18.79,9.15,6.36,2.79,12.91,5.3,19.56,7.61,6.65,2.22,13.39,4.24,20.14,5.97,6.84,1.73,13.68,3.18,20.62,4.24,6.94,1.16,13.97,2.02,21.01,2.6,7.03,.58,14.07,.87,21.2,.87,9.64,0,19.27-.58,28.91-1.64,9.64-1.06,19.08-2.7,28.43-4.82s18.6-4.82,27.66-7.9c9.06-3.18,17.83-6.84,26.4-10.99,15.9-7.71,30.74-16.96,44.42-27.85-2.7-2.12-5.4-4.14-8.19-6.17s-5.59-3.95-8.48-5.88-5.78-3.76-8.77-5.49c-2.99-1.73-5.97-3.47-9.06-5.11-3.08-1.64-6.17-3.28-9.25-4.72-3.08-1.54-6.26-2.99-9.44-4.34s-6.46-2.7-9.64-3.95c-3.28-1.25-6.55-2.51-9.83-3.57-3.28-1.16-6.65-2.22-10.02-3.18s-6.75-1.93-10.12-2.79-6.84-1.64-10.31-2.31c-3.47-.67-6.94-1.35-10.41-1.93s-6.94-1.06-10.5-1.54-7.03-.77-10.5-1.06-7.03-.48-10.6-.67c-3.57-.1-7.03-.19-10.6-.19s-7.03,.1-10.6,.19c-3.57,.1-7.03,.39-10.6,.67-3.47,.29-7.03,.67-10.5,1.06-3.47,.39-7.03,.96-10.5,1.54-3.47,.58-6.94,1.25-10.41,1.93s-6.84,1.54-10.31,2.31c-3.37,.87-6.84,1.73-10.12,2.79-3.37,.96-6.75,2.02-10.02,3.18s-6.65,2.31-9.83,3.57c-3.28,1.25-6.46,2.6-9.64,3.95-3.18,1.35-6.36,2.89-9.44,4.34-3.08,1.54-6.17,3.08-9.25,4.72-3.08,1.64-6.07,3.37-9.06,5.11s-5.88,3.57-8.77,5.49-5.69,3.85-8.48,5.88c-2.99,2.02-5.78,4.05-8.48,6.17Zm155.82,56.85c-7.32,0-14.55-.29-21.78-.87-7.23-.58-14.45-1.45-21.59-2.7-7.13-1.16-14.26-2.7-21.3-4.43-7.03-1.83-13.97-3.85-20.72-6.26-6.84-2.41-13.49-5.01-20.04-7.9s-13.01-6.07-19.27-9.54-12.33-7.13-18.21-11.08c-5.88-3.95-11.56-8.19-17.15-12.62l-1.73-1.35,1.73-1.35c2.79-2.22,5.59-4.34,8.38-6.46,2.89-2.12,5.78-4.14,8.67-6.07s5.97-3.85,8.96-5.78c3.08-1.83,6.17-3.66,9.25-5.4,3.08-1.73,6.26-3.37,9.54-5.01,3.18-1.64,6.46-3.08,9.73-4.53s6.55-2.89,9.93-4.14c3.37-1.35,6.75-2.6,10.12-3.76s6.84-2.31,10.31-3.37c3.47-1.06,6.94-2.02,10.41-2.89s7.03-1.73,10.6-2.51,7.13-1.45,10.7-2.02c3.57-.58,7.13-1.16,10.79-1.54,3.57-.48,7.23-.87,10.79-1.16,3.66-.29,7.23-.48,10.89-.67s7.23-.19,10.89-.19,7.23,.1,10.89,.19c3.66,.19,7.23,.39,10.89,.67,3.66,.29,7.23,.67,10.79,1.16s7.23,.96,10.79,1.54,7.13,1.25,10.7,2.02c3.57,.77,7.03,1.54,10.6,2.51,3.47,.87,7.03,1.83,10.41,2.89,3.47,1.06,6.94,2.12,10.31,3.37,3.37,1.16,6.75,2.41,10.12,3.76s6.65,2.7,9.93,4.14c3.28,1.45,6.55,2.99,9.73,4.53,3.18,1.64,6.36,3.28,9.54,5.01,3.08,1.73,6.26,3.47,9.25,5.4,3.08,1.83,6.07,3.76,8.96,5.78,2.99,1.93,5.88,4.05,8.67,6.07,2.89,2.12,5.69,4.24,8.38,6.46l1.73,1.35-1.73,1.35c-14.36,11.66-30.07,21.49-46.93,29.68-8.67,4.24-17.63,7.9-26.89,11.18-9.15,3.18-18.6,5.88-28.14,8.09-9.54,2.12-19.18,3.76-28.91,4.91-9.35,.96-19.18,1.54-29.01,1.54Z"/></g><g class="cls-53"><path class="cls-7" d="M331.27,124.19c8.38,3.95,16.86,7.32,25.63,10.31,8.77,2.99,17.73,5.49,26.79,7.42,9.06,2.02,18.31,3.47,27.56,4.43,9.25,.96,18.6,1.45,27.95,1.45s18.6-.48,27.95-1.54c9.25-.96,18.5-2.51,27.56-4.53,9.06-2.02,18.02-4.43,26.79-7.42,8.77-2.99,17.35-6.36,25.73-10.21-8.38-3.85-16.96-7.32-25.73-10.31-8.77-2.99-17.73-5.4-26.79-7.42-9.06-2.02-18.31-3.47-27.56-4.53-9.25-.96-18.6-1.54-27.95-1.54s-18.69,.48-27.95,1.45-18.5,2.51-27.56,4.53-18.02,4.53-26.79,7.42-17.25,6.55-25.63,10.5Zm107.93,27.37c-9.83,0-19.56-.58-29.29-1.64-9.73-1.06-19.37-2.7-28.91-4.91-9.54-2.12-18.89-4.82-28.04-8.09-9.15-3.18-18.12-6.94-26.89-11.18l-3.37-1.64,3.37-1.64c4.34-2.12,8.77-4.05,13.2-5.97,4.43-1.83,9.06-3.57,13.59-5.2,4.63-1.64,9.25-3.08,13.88-4.43,4.72-1.35,9.44-2.6,14.17-3.66,4.72-1.06,9.54-2.02,14.36-2.89,4.82-.77,9.64-1.54,14.55-2.02,4.91-.58,9.73-.96,14.65-1.25,4.91-.29,9.83-.39,14.74-.39s9.83,.1,14.74,.39,9.73,.67,14.65,1.25c4.91,.58,9.73,1.25,14.55,2.02,4.82,.77,9.64,1.73,14.36,2.89s9.44,2.31,14.17,3.66,9.35,2.79,13.88,4.43,9.15,3.37,13.59,5.2,8.87,3.85,13.2,5.97l3.37,1.64-3.37,1.64c-8.67,4.24-17.63,7.9-26.89,11.18-9.15,3.18-18.6,5.88-28.14,8.09-9.54,2.12-19.18,3.76-28.91,4.91-9.54,1.06-19.37,1.64-29.2,1.64Z"/></g><g class="cls-52"><path class="cls-7" d="M439.29,94.13c-3.66,0-7.32-.1-11.08-.29-3.66-.19-7.32-.39-10.99-.67-3.66-.29-7.32-.67-10.99-1.16-3.66-.48-7.32-.96-10.89-1.64-3.66-.58-7.23-1.35-10.79-2.12-3.57-.77-7.13-1.64-10.7-2.51-3.57-.96-7.03-1.93-10.6-2.99-3.47-1.06-6.94-2.22-10.41-3.37-3.47-1.25-6.84-2.51-10.21-3.85s-6.75-2.79-10.02-4.24c-3.28-1.54-6.55-3.08-9.83-4.72-3.28-1.64-6.46-3.37-9.64-5.11s-6.26-3.57-9.35-5.49-6.07-3.85-9.06-5.88-5.88-4.14-8.77-6.26-5.69-4.34-8.48-6.65-5.49-4.63-8.09-6.94c-2.7-2.41-5.2-4.82-7.81-7.32-2.51-2.51-5.01-5.01-7.42-7.61-2.41-2.6-4.72-5.2-7.03-7.9s-4.53-5.4-6.65-8.19c-2.12-2.79-4.24-5.59-6.26-8.48s-3.95-5.78-5.88-8.77c-1.83-2.99-3.66-5.97-5.4-8.96-1.73-2.99-3.37-6.07-5.01-9.15-1.54-3.08-3.08-6.26-4.53-9.35-1.45-3.18-2.79-6.36-4.05-9.54-1.25-3.18-2.51-6.46-3.57-9.73-1.16-3.28-2.12-6.55-3.08-9.83-.96-3.28-1.83-6.65-2.6-10.02-.77-3.37-1.54-6.75-2.12-10.12-.67-3.37-1.16-6.75-1.64-10.21l3.95-.48c.48,3.37,.96,6.65,1.64,10.02,.58,3.28,1.35,6.65,2.12,9.93,.77,3.28,1.64,6.55,2.6,9.83,.96,3.28,1.93,6.46,3.08,9.73,1.06,3.18,2.31,6.36,3.57,9.54,1.25,3.18,2.6,6.26,3.95,9.44,1.45,3.08,2.89,6.17,4.43,9.25s3.18,6.07,4.91,9.06c1.73,2.99,3.47,5.88,5.3,8.87,1.83,2.89,3.76,5.78,5.78,8.58s4.05,5.59,6.17,8.38,4.34,5.4,6.55,8.09c2.22,2.6,4.53,5.2,6.94,7.81,2.41,2.51,4.82,5.01,7.32,7.52,2.51,2.41,5.01,4.82,7.61,7.23,2.6,2.31,5.3,4.63,8,6.84s5.49,4.43,8.29,6.55c2.79,2.12,5.69,4.14,8.67,6.17,2.89,2.02,5.88,3.95,8.96,5.78s6.07,3.66,9.15,5.4,6.26,3.37,9.44,5.01,6.46,3.18,9.64,4.63c3.28,1.45,6.55,2.89,9.93,4.24s6.65,2.6,10.12,3.76c3.37,1.16,6.84,2.31,10.21,3.37,3.47,1.06,6.94,2.02,10.41,2.89s7.03,1.73,10.5,2.51c3.57,.77,7.13,1.45,10.7,2.02,3.57,.58,7.13,1.16,10.7,1.64,3.57,.48,7.23,.87,10.79,1.16,3.57,.29,7.23,.58,10.89,.67,3.66,.19,7.23,.19,10.89,.19s7.23-.1,10.89-.19c3.66-.19,7.23-.39,10.89-.67,3.57-.29,7.23-.67,10.79-1.16s7.13-.96,10.7-1.54c3.57-.58,7.13-1.25,10.7-2.02,3.57-.77,7.03-1.54,10.5-2.51,3.47-.87,6.94-1.83,10.41-2.89s6.84-2.12,10.21-3.37c3.37-1.16,6.75-2.41,10.12-3.76s6.65-2.7,9.93-4.24c3.28-1.45,6.46-2.99,9.64-4.63s6.36-3.28,9.44-5.01,6.17-3.57,9.15-5.4c2.99-1.83,5.97-3.76,8.96-5.78,2.89-2.02,5.78-4.05,8.67-6.17,2.79-2.12,5.59-4.24,8.29-6.55,2.7-2.22,5.4-4.53,8-6.84s5.2-4.72,7.71-7.23c2.51-2.41,4.91-4.91,7.32-7.52s4.72-5.11,6.94-7.81c2.22-2.6,4.43-5.3,6.55-8.09,2.12-2.7,4.14-5.49,6.17-8.38,2.02-2.79,3.85-5.69,5.78-8.58,1.83-2.89,3.66-5.88,5.3-8.87,1.73-2.99,3.37-5.97,4.91-9.06s3.08-6.17,4.43-9.25c1.45-3.08,2.7-6.26,3.95-9.44s2.41-6.36,3.57-9.54c1.06-3.18,2.12-6.46,3.08-9.73s1.83-6.55,2.6-9.83c.77-3.28,1.45-6.65,2.12-9.93,.58-3.28,1.16-6.65,1.64-10.02-1.35-10.31-3.57-20.43-6.46-30.35-2.79-9.44-6.17-18.69-10.21-27.75-3.85-8.48-8.19-16.67-13.11-24.57-6.84-10.99-14.55-21.39-23.22-31.22-8.67-9.83-18.21-18.89-28.52-27.17-2.7-2.22-5.49-4.34-8.29-6.36-2.79-2.02-5.69-4.05-8.58-5.97s-5.88-3.85-8.87-5.69c-2.99-1.83-6.07-3.57-9.15-5.3s-6.17-3.37-9.35-4.91-6.36-3.08-9.54-4.53c-3.28-1.45-6.46-2.79-9.83-4.14-3.28-1.25-6.65-2.51-9.93-3.66-3.37-1.16-6.75-2.22-10.12-3.28s-6.84-1.93-10.31-2.89c-3.47-.87-6.94-1.73-10.41-2.41-3.47-.77-7.03-1.45-10.5-2.02-3.57-.58-7.03-1.06-10.6-1.54s-7.13-.77-10.7-1.16c-3.57-.29-7.13-.48-10.7-.67-3.57-.19-7.13-.19-10.7-.19s-7.13,.1-10.7,.19c-3.57,.19-7.13,.39-10.7,.67-3.57,.29-7.13,.67-10.7,1.16-3.57,.48-7.03,.96-10.6,1.54s-7.03,1.25-10.5,2.02-6.94,1.54-10.41,2.41-6.84,1.83-10.31,2.89c-3.37,1.06-6.75,2.12-10.12,3.28-3.37,1.16-6.65,2.41-9.93,3.66s-6.55,2.7-9.83,4.14c-3.28,1.45-6.46,2.89-9.54,4.53-3.18,1.54-6.26,3.18-9.35,4.91-3.08,1.73-6.07,3.47-9.15,5.3-2.99,1.83-5.97,3.66-8.87,5.69-2.89,1.93-5.78,3.95-8.58,5.97s-5.59,4.14-8.29,6.36c-10.6,8.48-20.24,17.73-29.1,27.75-8.48,9.64-16.09,19.85-22.74,30.64-10.21,16.48-18.02,34.02-23.32,52.42l-3.85-.96c5.4-18.69,13.3-36.43,23.71-53.29,6.75-10.99,14.45-21.3,23.13-31.13,8.96-10.21,18.79-19.66,29.58-28.23,5.49-4.43,11.18-8.58,17.15-12.62,5.88-3.95,11.95-7.61,18.21-11.08s12.72-6.65,19.27-9.54c6.55-2.89,13.3-5.59,20.04-7.9,6.84-2.31,13.78-4.43,20.72-6.26,7.03-1.83,14.07-3.28,21.3-4.43,7.13-1.16,14.36-2.12,21.59-2.7,7.23-.58,14.55-.87,21.78-.87,9.83,0,19.56,.58,29.39,1.64,9.73,1.06,19.37,2.7,28.91,4.91s18.89,4.82,28.14,8.09c9.15,3.18,18.12,6.94,26.89,11.18,16.86,8.19,32.57,18.12,46.93,29.68,10.5,8.48,20.14,17.63,29.01,27.66,8.87,9.93,16.67,20.53,23.61,31.7,4.91,8.09,9.35,16.38,13.3,24.96,4.14,9.25,7.61,18.6,10.41,28.23,2.99,10.21,5.2,20.62,6.65,31.13v.39c-.48,3.37-1.06,6.75-1.64,10.21-.67,3.37-1.35,6.75-2.12,10.12s-1.64,6.65-2.6,10.02c-.96,3.28-2.02,6.65-3.08,9.83-1.16,3.28-2.31,6.55-3.57,9.73-1.25,3.18-2.6,6.36-4.05,9.54-1.45,3.18-2.89,6.26-4.53,9.35s-3.28,6.17-5.01,9.15-3.57,5.97-5.4,8.96c-1.83,2.99-3.85,5.88-5.88,8.77s-4.14,5.69-6.26,8.48c-2.12,2.79-4.34,5.49-6.65,8.19-2.31,2.7-4.63,5.3-7.03,7.9s-4.91,5.11-7.42,7.61c-2.51,2.51-5.11,4.91-7.81,7.32s-5.4,4.72-8.09,6.94c-2.79,2.31-5.59,4.43-8.48,6.65-2.89,2.12-5.78,4.24-8.77,6.26s-5.97,3.95-9.06,5.88-6.17,3.76-9.35,5.49-6.36,3.47-9.64,5.11-6.55,3.18-9.83,4.72-6.65,2.89-10.02,4.24-6.84,2.6-10.21,3.85c-3.47,1.25-6.94,2.31-10.41,3.37s-7.03,2.02-10.6,2.99-7.13,1.73-10.7,2.51c-3.57,.77-7.23,1.45-10.79,2.12-3.66,.58-7.23,1.16-10.89,1.64s-7.32,.87-10.99,1.16c-3.66,.29-7.32,.58-10.99,.67-4.53,.29-8.19,.39-11.85,.39Z"/></g><g class="cls-56"><path class="cls-7" d="M206.67-136.09c.87,2.89,1.83,5.88,2.79,8.77s2.02,5.78,3.18,8.67c1.16,2.89,2.31,5.69,3.57,8.48,1.25,2.79,2.51,5.59,3.95,8.38,1.35,2.79,2.79,5.49,4.24,8.19s2.99,5.4,4.63,8.09,3.28,5.3,5.01,7.9c1.73,2.6,3.47,5.11,5.3,7.71,1.83,2.51,3.76,5.01,5.69,7.42s3.95,4.82,5.97,7.23,4.14,4.72,6.26,7.03c2.12,2.31,4.34,4.53,6.55,6.75s4.53,4.34,6.84,6.55c2.31,2.12,4.72,4.24,7.13,6.26s4.91,4.05,7.42,5.97,5.11,3.85,7.71,5.69,5.2,3.66,7.9,5.4c2.7,1.73,5.4,3.47,8.19,5.11,2.79,1.64,5.59,3.28,8.38,4.72s5.69,2.99,8.58,4.43c2.89,1.45,5.78,2.79,8.77,4.14,2.99,1.35,5.97,2.6,8.96,3.76,2.99,1.25,6.07,2.31,9.06,3.47,3.08,1.06,6.17,2.12,9.25,3.08s6.26,1.93,9.35,2.7c3.18,.87,6.26,1.64,9.44,2.41s6.36,1.45,9.54,2.02c3.18,.58,6.46,1.16,9.64,1.64,3.28,.48,6.46,.96,9.73,1.25,3.28,.39,6.46,.67,9.73,.96,3.28,.29,6.55,.39,9.83,.58,3.28,.1,6.55,.19,9.83,.19s6.55-.1,9.83-.19,6.55-.29,9.83-.58c3.28-.29,6.55-.58,9.73-.96,3.28-.39,6.46-.77,9.73-1.25,3.28-.48,6.46-1.06,9.64-1.64,3.18-.58,6.36-1.25,9.54-2.02,3.18-.77,6.36-1.54,9.44-2.41,3.18-.87,6.26-1.73,9.35-2.7s6.17-2.02,9.25-3.08,6.07-2.22,9.06-3.47c2.99-1.25,5.97-2.51,8.96-3.76,2.99-1.35,5.88-2.7,8.77-4.14s5.78-2.89,8.58-4.43,5.59-3.08,8.38-4.72c2.79-1.64,5.49-3.37,8.19-5.11,2.7-1.73,5.3-3.57,7.9-5.4s5.2-3.76,7.71-5.69,5.01-3.95,7.42-5.97c2.41-2.02,4.82-4.14,7.13-6.26s4.63-4.34,6.84-6.55,4.43-4.43,6.55-6.75,4.24-4.63,6.26-7.03,4.05-4.82,5.97-7.23,3.85-4.91,5.69-7.42,3.57-5.11,5.3-7.71,3.37-5.2,5.01-7.9c1.64-2.7,3.18-5.3,4.63-8.09,1.45-2.7,2.89-5.49,4.24-8.19,1.35-2.79,2.7-5.59,3.95-8.38,1.25-2.79,2.41-5.69,3.57-8.48,1.16-2.89,2.22-5.78,3.18-8.67s1.93-5.78,2.79-8.77c-2.79-9.35-6.17-18.41-10.12-27.27-3.85-8.48-8.19-16.67-13.11-24.57-6.84-10.99-14.55-21.39-23.22-31.22s-18.21-18.89-28.52-27.17c-2.7-2.22-5.49-4.34-8.29-6.36-2.79-2.02-5.69-4.05-8.58-5.97s-5.88-3.85-8.87-5.69c-2.99-1.83-6.07-3.57-9.15-5.3s-6.17-3.37-9.35-4.91-6.36-3.08-9.54-4.53c-3.28-1.45-6.46-2.79-9.83-4.14-3.28-1.25-6.65-2.51-9.93-3.66-3.37-1.16-6.75-2.22-10.12-3.28s-6.84-1.93-10.31-2.89c-3.47-.87-6.94-1.73-10.41-2.41-3.47-.77-7.03-1.45-10.5-2.02-3.57-.58-7.03-1.06-10.6-1.54s-7.13-.77-10.7-1.16c-3.57-.29-7.13-.48-10.7-.67-3.57-.19-7.13-.19-10.7-.19s-7.13,.1-10.7,.19c-3.57,.19-7.13,.39-10.7,.67-3.57,.29-7.13,.67-10.7,1.16-3.57,.48-7.03,.96-10.6,1.54s-7.03,1.25-10.5,2.02c-3.47,.77-6.94,1.54-10.41,2.41s-6.84,1.83-10.31,2.89c-3.37,1.06-6.75,2.12-10.12,3.28s-6.65,2.41-9.93,3.66-6.55,2.7-9.83,4.14c-3.28,1.45-6.46,2.89-9.54,4.53-3.18,1.54-6.26,3.18-9.35,4.91-3.08,1.73-6.07,3.47-9.15,5.3-2.99,1.83-5.97,3.66-8.87,5.69-2.89,1.93-5.78,3.95-8.58,5.97s-5.59,4.14-8.29,6.36c-10.6,8.48-20.24,17.73-29.1,27.75-8.48,9.64-16.09,19.85-22.74,30.64-9.83,16.29-17.54,33.63-22.93,51.84h0ZM439.29,32.45c-3.37,0-6.65-.1-10.02-.19s-6.65-.29-9.93-.58c-3.28-.29-6.65-.58-9.93-.96-3.28-.39-6.65-.87-9.93-1.35-3.28-.48-6.55-1.06-9.83-1.73-3.28-.67-6.55-1.35-9.73-2.12-3.28-.77-6.46-1.54-9.64-2.41s-6.36-1.83-9.54-2.79c-3.18-.96-6.26-2.02-9.35-3.18s-6.17-2.31-9.25-3.47c-3.08-1.25-6.07-2.51-9.06-3.85-2.99-1.35-5.97-2.7-8.87-4.24-2.99-1.45-5.88-2.99-8.67-4.53-2.89-1.54-5.69-3.18-8.48-4.82s-5.59-3.37-8.29-5.2c-2.7-1.73-5.4-3.57-8.09-5.49s-5.2-3.85-7.81-5.78c-2.6-2.02-5.11-4.05-7.52-6.07-2.51-2.12-4.91-4.24-7.32-6.36-2.41-2.12-4.72-4.34-7.03-6.65-2.31-2.22-4.53-4.53-6.75-6.94-2.22-2.31-4.34-4.72-6.36-7.13-2.12-2.41-4.14-4.91-6.07-7.42s-3.85-5.01-5.78-7.61c-1.83-2.6-3.66-5.2-5.4-7.81-1.73-2.6-3.47-5.3-5.11-8-1.64-2.7-3.18-5.4-4.72-8.19s-2.99-5.59-4.34-8.38c-1.35-2.79-2.7-5.69-3.95-8.48-1.25-2.89-2.51-5.78-3.57-8.67-1.16-2.89-2.22-5.88-3.18-8.77-.96-2.99-1.93-5.88-2.79-8.87l-.1-.48,.1-.48c5.4-18.69,13.3-36.43,23.71-53.29,6.75-10.99,14.45-21.3,23.13-31.13,8.96-10.21,18.79-19.66,29.58-28.23,5.49-4.43,11.18-8.58,17.15-12.62,5.88-3.95,11.95-7.61,18.21-11.08s12.72-6.65,19.27-9.54,13.3-5.59,20.04-7.9c6.84-2.31,13.78-4.43,20.72-6.26,7.03-1.83,14.07-3.28,21.3-4.43,7.13-1.16,14.36-2.12,21.59-2.7,7.23-.58,14.55-.87,21.78-.87,9.83,0,19.56,.58,29.39,1.64,9.73,1.06,19.37,2.7,28.91,4.91,9.54,2.22,18.89,4.82,28.14,8.09,9.15,3.18,18.12,6.94,26.89,11.18,16.86,8.19,32.57,18.12,46.93,29.68,10.5,8.48,20.14,17.63,29.01,27.66,8.87,9.93,16.67,20.53,23.61,31.7,4.91,8.09,9.35,16.38,13.3,24.96,4.14,9.25,7.61,18.6,10.41,28.23l.1,.48-.1,.48c-.87,2.99-1.83,5.97-2.79,8.96s-2.12,5.88-3.18,8.77c-1.16,2.89-2.31,5.78-3.57,8.67s-2.6,5.69-3.95,8.48c-1.35,2.79-2.79,5.59-4.34,8.38-1.54,2.79-3.08,5.49-4.72,8.19s-3.28,5.4-5.11,8c-1.73,2.6-3.57,5.2-5.4,7.81-1.83,2.6-3.76,5.11-5.78,7.61-1.93,2.51-3.95,4.91-6.07,7.42-2.12,2.41-4.24,4.82-6.36,7.13-2.22,2.31-4.43,4.63-6.75,6.94-2.31,2.22-4.63,4.43-7.03,6.65-2.41,2.12-4.82,4.34-7.32,6.36s-5.01,4.14-7.52,6.07c-2.6,2.02-5.2,3.95-7.81,5.78s-5.3,3.76-8.09,5.49c-2.7,1.73-5.49,3.47-8.29,5.2-2.79,1.64-5.69,3.28-8.48,4.82-2.89,1.54-5.78,3.08-8.67,4.53-2.99,1.45-5.88,2.89-8.87,4.24-2.99,1.35-6.07,2.6-9.06,3.85-3.08,1.25-6.17,2.41-9.25,3.47-3.08,1.16-6.26,2.12-9.44,3.18-3.18,.96-6.36,1.93-9.54,2.79s-6.46,1.73-9.64,2.41c-3.28,.77-6.46,1.45-9.73,2.12-3.28,.67-6.55,1.16-9.83,1.73-3.28,.48-6.55,.96-9.93,1.35-3.28,.39-6.65,.67-9.93,.96-3.28,.29-6.65,.48-9.93,.58-3.76,0-7.13,.1-10.41,.1Z"/></g></g><g><g class="cls-54"><path class="cls-6" d="M1264.56,530.37c0,.29,0,.58,.1,.96,.1,.29,.1,.58,.29,.87,.1,.29,.29,.58,.48,.87,.19,.29,.39,.48,.58,.77,.19,.19,.48,.48,.77,.58,.29,.19,.58,.39,.87,.48s.58,.19,.96,.29,.67,.1,.96,.1,.67-.1,.96-.19c.29-.1,.67-.19,.96-.29s.58-.29,.87-.48,.48-.39,.77-.58c.19-.19,.39-.48,.58-.77s.29-.58,.48-.87c.1-.29,.19-.58,.29-.87s.1-.58,.1-.96c0-.29,0-.58-.1-.96s-.19-.58-.29-.87c-.1-.29-.29-.58-.48-.87-.19-.29-.39-.48-.58-.77-.19-.19-.48-.39-.77-.58-.29-.19-.58-.39-.87-.48s-.58-.29-.96-.29c-.29-.1-.67-.1-.96-.19-.29,0-.67,.1-.96,.1-.29,.1-.67,.19-.96,.29s-.58,.29-.87,.48-.48,.39-.77,.58c-.19,.19-.39,.48-.58,.77s-.29,.58-.48,.87c-.1,.29-.19,.58-.29,.87-.1,.48-.1,.87-.1,1.16Z"/></g><g class="cls-22"><path class="cls-6" d="M1318.71,530.37c0,.29,.1,.58,.19,.87,.1,.29,.19,.58,.39,.87,.1,.29,.29,.48,.48,.77,.19,.19,.39,.48,.67,.67s.48,.39,.77,.48c.29,.19,.58,.29,.87,.39,.29,.1,.58,.19,.96,.19,.29,0,.67,.1,.96,0,.29,0,.67-.1,.96-.1,.29-.1,.58-.19,.87-.29s.58-.29,.77-.48c.29-.19,.48-.39,.67-.58,.19-.19,.39-.48,.58-.67,.19-.29,.29-.48,.39-.77s.19-.58,.29-.87c.1-.29,.1-.58,.1-.87s0-.58-.1-.87c-.1-.29-.19-.58-.29-.87-.1-.29-.29-.48-.48-.77s-.39-.48-.58-.67-.48-.39-.77-.58c-.29-.19-.58-.29-.87-.39-.29-.1-.58-.19-.87-.29s-.67-.1-.96-.1-.67,.1-.96,.1c-.29,.1-.67,.19-.96,.29s-.58,.29-.87,.48-.48,.39-.77,.58c-.19,.19-.39,.48-.58,.77s-.29,.58-.48,.87c-.1,.29-.19,.58-.29,.87,0,.29-.1,.67-.1,.96Z"/></g><g class="cls-23"><path class="cls-6" d="M1318.71,576.81c0,.29,.1,.58,.19,.87,.1,.29,.19,.58,.39,.87,.1,.29,.29,.48,.48,.77,.19,.19,.39,.48,.67,.67s.48,.39,.77,.48c.29,.19,.58,.29,.87,.39,.29,.1,.58,.19,.96,.19,.29,0,.67,.1,.96,0,.29,0,.67-.1,.96-.1,.29-.1,.58-.19,.87-.29s.58-.29,.77-.48c.29-.19,.48-.39,.67-.58,.19-.19,.39-.48,.58-.67,.19-.29,.29-.48,.39-.77s.19-.58,.29-.87,.1-.58,.1-.87,0-.58-.1-.87c-.1-.29-.19-.58-.29-.87-.1-.29-.29-.48-.48-.77s-.39-.48-.58-.67-.48-.39-.77-.58c-.29-.19-.58-.29-.87-.39-.29-.1-.58-.19-.87-.29s-.67-.1-.96-.1-.67,.1-.96,.1c-.29,.1-.67,.19-.96,.29s-.58,.29-.87,.48-.48,.39-.77,.58c-.19,.19-.39,.48-.58,.77s-.29,.58-.48,.87c-.1,.29-.19,.58-.29,.87s-.1,.67-.1,.96Z"/></g><g class="cls-26"><path class="cls-6" d="M1318.71,623.26c0,.29,.1,.58,.19,.87s.19,.58,.39,.87c.1,.29,.29,.48,.48,.77,.19,.19,.39,.48,.67,.67,.19,.19,.48,.39,.77,.48,.29,.19,.58,.29,.87,.39,.29,.1,.58,.19,.96,.19,.29,0,.67,.1,.96,0,.29,0,.67-.1,.96-.1,.29-.1,.58-.19,.87-.29s.58-.29,.77-.48c.29-.19,.48-.39,.67-.58s.39-.48,.58-.67c.19-.29,.29-.48,.39-.77s.19-.58,.29-.87c.1-.29,.1-.58,.1-.87s0-.58-.1-.87c-.1-.29-.19-.58-.29-.87-.1-.29-.29-.48-.48-.77s-.39-.48-.58-.67-.48-.39-.77-.58c-.29-.19-.58-.29-.87-.39-.29-.1-.58-.19-.87-.29s-.67-.1-.96-.1-.67,.1-.96,.1c-.29,.1-.67,.19-.96,.29s-.58,.29-.87,.48-.48,.39-.77,.58c-.19,.19-.39,.48-.58,.77s-.29,.58-.48,.87c-.1,.29-.19,.58-.29,.87,0,.39-.1,.67-.1,.96Z"/></g><g class="cls-24"><path class="cls-6" d="M1318.71,397.29c0,.29,.1,.58,.19,.87s.19,.58,.39,.87c.1,.29,.29,.48,.48,.77,.19,.19,.39,.48,.67,.67,.19,.19,.48,.39,.77,.48,.29,.19,.58,.29,.87,.39s.58,.19,.96,.19c.29,0,.67,.1,.96,0,.29,0,.67-.1,.96-.1,.29-.1,.58-.19,.87-.29,.29-.1,.58-.29,.77-.48,.29-.19,.48-.39,.67-.58s.39-.48,.58-.67c.19-.29,.29-.48,.39-.77s.19-.58,.29-.87c.1-.29,.1-.58,.1-.87s0-.58-.1-.87-.19-.58-.29-.87c-.1-.29-.29-.48-.48-.77s-.39-.48-.58-.67-.48-.39-.77-.58-.58-.29-.87-.39-.58-.19-.87-.29c-.29-.1-.67-.1-.96-.1s-.67,.1-.96,.1c-.29,.1-.67,.19-.96,.29-.29,.1-.58,.29-.87,.48s-.48,.39-.77,.58c-.19,.19-.39,.48-.58,.77s-.29,.58-.48,.87c-.1,.29-.19,.58-.29,.87,0,.39-.1,.67-.1,.96Z"/></g><g class="cls-25"><path class="cls-6" d="M1318.71,443.83c0,.29,.1,.58,.19,.87s.19,.58,.39,.87c.1,.29,.29,.48,.48,.77,.19,.19,.39,.48,.67,.67,.19,.19,.48,.39,.77,.48,.29,.19,.58,.29,.87,.39s.58,.19,.96,.19c.29,0,.67,.1,.96,0,.29,0,.67-.1,.96-.1,.29-.1,.58-.19,.87-.29,.29-.1,.58-.29,.77-.48,.29-.19,.48-.39,.67-.58s.39-.48,.58-.67c.19-.29,.29-.48,.39-.77s.19-.58,.29-.87c.1-.29,.1-.58,.1-.87s0-.58-.1-.87-.19-.58-.29-.87c-.1-.29-.29-.48-.48-.77s-.39-.48-.58-.67-.48-.39-.77-.58-.58-.29-.87-.39-.58-.19-.87-.29c-.29-.1-.67-.1-.96-.1s-.67,.1-.96,.1c-.29,.1-.67,.19-.96,.29-.29,.1-.58,.29-.87,.48s-.48,.39-.77,.58c-.19,.19-.39,.48-.58,.77s-.29,.58-.48,.87c-.1,.29-.19,.58-.29,.87,0,.29-.1,.58-.1,.96Z"/></g><g class="cls-27"><path class="cls-6" d="M1264.56,490.28c0,.29,0,.58,.1,.96,.1,.29,.1,.58,.29,.87,.1,.29,.29,.58,.48,.87s.39,.48,.58,.77c.19,.19,.48,.48,.77,.58,.29,.19,.58,.39,.87,.48s.58,.19,.96,.29c.29,.1,.67,.1,.96,.1s.67-.1,.96-.19,.67-.19,.96-.29c.29-.1,.58-.29,.87-.48s.48-.39,.77-.58c.19-.19,.39-.48,.58-.77s.29-.58,.48-.87c.1-.29,.19-.58,.29-.87,.1-.29,.1-.58,.1-.96,0-.29,0-.58-.1-.96-.1-.29-.19-.58-.29-.87s-.29-.58-.48-.87-.39-.48-.58-.77c-.19-.19-.48-.39-.77-.58s-.58-.39-.87-.48-.58-.29-.96-.29c-.29-.1-.67-.1-.96-.19-.29,0-.67,.1-.96,.1-.29,.1-.67,.19-.96,.29-.29,.1-.58,.29-.87,.48s-.48,.39-.77,.58c-.19,.19-.39,.48-.58,.77s-.29,.58-.48,.87c-.1,.29-.19,.58-.29,.87-.1,.48-.1,.87-.1,1.16Z"/></g><g class="cls-28"><path class="cls-6" d="M1318.71,490.28c0,.29,.1,.58,.19,.87s.19,.58,.39,.87c.1,.29,.29,.48,.48,.77,.19,.19,.39,.48,.67,.67,.19,.19,.48,.39,.77,.48,.29,.19,.58,.29,.87,.39s.58,.19,.96,.19c.29,0,.67,.1,.96,0,.29,0,.67-.1,.96-.1,.29-.1,.58-.19,.87-.29,.29-.1,.58-.29,.77-.48,.29-.19,.48-.39,.67-.58s.39-.48,.58-.67c.19-.29,.29-.48,.39-.77s.19-.58,.29-.87c.1-.29,.1-.58,.1-.87s0-.58-.1-.87-.19-.58-.29-.87c-.1-.29-.29-.48-.48-.77s-.39-.48-.58-.67-.48-.39-.77-.58-.58-.29-.87-.39-.58-.19-.87-.29-.67-.1-.96-.1-.67,.1-.96,.1c-.29,.1-.67,.19-.96,.29-.29,.1-.58,.29-.87,.48s-.48,.39-.77,.58-.39,.48-.58,.77-.29,.58-.48,.87-.19,.58-.29,.87c0,.29-.1,.67-.1,.96Z"/></g></g><g><g class="cls-29"><path class="cls-6" d="M99.22,595.8v.96c0,.29,.1,.58,.19,.96,.1,.29,.29,.58,.39,.87,.19,.29,.39,.48,.58,.77,.19,.19,.48,.48,.77,.58,.29,.19,.58,.39,.87,.48,.29,.1,.67,.19,.96,.29s.67,.1,.96,.1c.39,0,.67,0,.96-.1s.67-.19,.96-.29,.58-.29,.87-.48c.29-.19,.58-.39,.77-.58,.19-.19,.48-.48,.58-.77,.19-.29,.29-.58,.39-.87,.1-.29,.19-.58,.19-.96,0-.29,.1-.67,0-.96v-.96c0-.29-.1-.58-.19-.96-.1-.29-.29-.58-.39-.87-.19-.29-.39-.48-.58-.77-.19-.19-.48-.48-.77-.58-.29-.19-.58-.39-.87-.48s-.67-.19-.96-.29-.67-.1-.96-.1c-.39,0-.67,0-.96,.1s-.67,.19-.96,.29-.58,.29-.87,.48c-.29,.19-.58,.39-.77,.58-.19,.19-.48,.48-.58,.77-.19,.29-.29,.58-.39,.87-.1,.29-.19,.58-.19,.96v.96Z"/></g><g class="cls-30"><path class="cls-6" d="M-9.19,642.25c0,.29,.1,.58,.19,.87,.1,.29,.19,.58,.39,.87,.1,.29,.29,.48,.48,.77,.19,.19,.39,.48,.67,.67,.19,.19,.48,.39,.77,.48,.29,.19,.58,.29,.87,.39s.58,.19,.96,.19c.29,0,.67,.1,.96,0,.29,0,.67-.1,.96-.1,.29-.1,.58-.19,.87-.29,.29-.1,.58-.29,.77-.48,.29-.19,.48-.39,.67-.58,.19-.19,.39-.48,.58-.67,.19-.29,.29-.48,.39-.77,.1-.29,.19-.58,.29-.87,.1-.29,.1-.58,.1-.87s0-.58-.1-.87c-.1-.29-.19-.58-.29-.87-.1-.29-.29-.48-.48-.77s-.39-.48-.58-.67c-.19-.19-.48-.39-.77-.58-.29-.19-.58-.29-.87-.39-.29-.1-.58-.19-.87-.29-.29-.1-.67-.1-.96-.1s-.67,.1-.96,.1c-.29,.1-.67,.19-.96,.29s-.58,.29-.87,.48c-.29,.19-.48,.39-.77,.58-.19,.19-.39,.48-.58,.77s-.29,.58-.48,.87c-.1,.29-.19,.58-.29,.87-.1,.39-.1,.67-.1,.96Z"/></g><g class="cls-31"><path class="cls-6" d="M45.06,642.25c0,.29,.1,.58,.19,.87,.1,.29,.19,.58,.39,.87,.1,.29,.29,.48,.48,.77,.19,.19,.39,.48,.67,.67,.19,.19,.48,.39,.77,.48,.29,.19,.58,.29,.87,.39,.29,.1,.58,.19,.96,.19,.29,0,.67,.1,.96,0,.29,0,.67-.1,.96-.1,.29-.1,.58-.19,.87-.29,.29-.1,.58-.29,.77-.48,.29-.19,.48-.39,.67-.58,.19-.19,.39-.48,.58-.67,.19-.29,.29-.48,.39-.77,.1-.29,.19-.58,.29-.87,.1-.29,.1-.58,.1-.87s0-.58-.1-.87c-.1-.29-.19-.58-.29-.87-.1-.29-.29-.48-.48-.77s-.39-.48-.58-.67c-.19-.19-.48-.39-.77-.58-.29-.19-.58-.29-.87-.39-.29-.1-.58-.19-.87-.29-.29-.1-.67-.1-.96-.1s-.67,.1-.96,.1c-.29,.1-.67,.19-.96,.29s-.58,.29-.87,.48c-.29,.19-.48,.39-.77,.58-.19,.19-.39,.48-.58,.77-.19,.29-.29,.58-.48,.87-.1,.29-.19,.58-.29,.87-.1,.39-.1,.67-.1,.96Z"/></g><g class="cls-32"><path class="cls-6" d="M99.22,642.25c0,.29,.1,.58,.19,.87,.1,.29,.19,.58,.39,.87,.1,.29,.29,.48,.48,.77,.19,.19,.39,.48,.67,.67,.19,.19,.48,.39,.77,.48,.29,.19,.58,.29,.87,.39,.29,.1,.58,.19,.96,.19,.29,0,.67,.1,.96,0,.29,0,.67-.1,.96-.1,.29-.1,.58-.19,.87-.29,.29-.1,.58-.29,.77-.48,.29-.19,.48-.39,.67-.58,.19-.19,.39-.48,.58-.67,.19-.29,.29-.48,.39-.77,.1-.29,.19-.58,.29-.87,.1-.29,.1-.58,.1-.87s0-.58-.1-.87c-.1-.29-.19-.58-.29-.87-.1-.29-.29-.48-.48-.77s-.39-.48-.58-.67c-.19-.19-.48-.39-.77-.58-.29-.19-.58-.29-.87-.39-.29-.1-.58-.19-.87-.29-.29-.1-.67-.1-.96-.1s-.67,.1-.96,.1c-.29,.1-.67,.19-.96,.29s-.58,.29-.87,.48c-.29,.19-.48,.39-.77,.58-.19,.19-.39,.48-.58,.77-.19,.29-.29,.58-.48,.87-.1,.29-.19,.58-.29,.87-.1,.39-.1,.67-.1,.96Z"/></g><g class="cls-37"><path class="cls-6" d="M153.47,642.25c0,.29,.1,.58,.19,.87,.1,.29,.19,.58,.39,.87,.1,.29,.29,.48,.48,.77,.19,.19,.39,.48,.67,.67,.19,.19,.48,.39,.77,.48s.58,.29,.87,.39,.58,.19,.96,.19c.29,0,.67,.1,.96,0,.29,0,.67-.1,.96-.1,.29-.1,.58-.19,.87-.29s.58-.29,.77-.48c.29-.19,.48-.39,.67-.58,.19-.19,.39-.48,.58-.67,.19-.29,.29-.48,.39-.77s.19-.58,.29-.87c.1-.29,.1-.58,.1-.87s0-.58-.1-.87c-.1-.29-.19-.58-.29-.87-.1-.29-.29-.48-.48-.77s-.39-.48-.58-.67-.48-.39-.77-.58c-.29-.19-.58-.29-.87-.39-.29-.1-.58-.19-.87-.29s-.67-.1-.96-.1-.67,.1-.96,.1c-.29,.1-.67,.19-.96,.29s-.58,.29-.87,.48-.48,.39-.77,.58c-.19,.19-.39,.48-.58,.77s-.29,.58-.48,.87c-.1,.29-.19,.58-.29,.87-.1,.39-.1,.67-.1,.96Z"/></g><g class="cls-21"><path class="cls-6" d="M207.73,642.25c0,.29,.1,.58,.19,.87,.1,.29,.19,.58,.39,.87,.1,.29,.29,.48,.48,.77,.19,.19,.39,.48,.67,.67,.19,.19,.48,.39,.77,.48s.58,.29,.87,.39c.29,.1,.58,.19,.96,.19,.29,0,.67,.1,.96,0,.29,0,.67-.1,.96-.1,.29-.1,.58-.19,.87-.29s.58-.29,.77-.48c.29-.19,.48-.39,.67-.58,.19-.19,.39-.48,.58-.67,.19-.29,.29-.48,.39-.77s.19-.58,.29-.87c.1-.29,.1-.58,.1-.87s0-.58-.1-.87c-.1-.29-.19-.58-.29-.87-.1-.29-.29-.48-.48-.77s-.39-.48-.58-.67-.48-.39-.77-.58c-.29-.19-.58-.29-.87-.39-.29-.1-.58-.19-.87-.29s-.67-.1-.96-.1-.67,.1-.96,.1c-.29,.1-.67,.19-.96,.29s-.58,.29-.87,.48-.48,.39-.77,.58c-.19,.19-.39,.48-.58,.77s-.29,.58-.48,.87c-.1,.29-.19,.58-.29,.87s-.1,.67-.1,.96Z"/></g><g class="cls-34"><path class="cls-6" d="M-9.19,688.79c0,.29,.1,.58,.19,.87,.1,.29,.19,.58,.39,.87,.1,.29,.29,.48,.48,.77,.19,.19,.39,.48,.67,.67,.19,.19,.48,.39,.77,.48,.29,.19,.58,.29,.87,.39,.29,.1,.58,.19,.96,.19,.29,0,.67,.1,.96,0,.29,0,.67-.1,.96-.1,.29-.1,.58-.19,.87-.29,.29-.1,.58-.29,.77-.48,.29-.19,.48-.39,.67-.58,.19-.19,.39-.48,.58-.67,.19-.29,.29-.48,.39-.77,.1-.29,.19-.58,.29-.87,.1-.29,.1-.58,.1-.87s0-.58-.1-.87c-.1-.29-.19-.58-.29-.87-.1-.29-.29-.48-.48-.77s-.39-.48-.58-.67c-.19-.19-.48-.39-.77-.58-.29-.19-.58-.29-.87-.39-.29-.1-.58-.19-.87-.29-.29-.1-.67-.1-.96-.1s-.67,.1-.96,.1c-.29,.1-.67,.19-.96,.29s-.58,.29-.87,.48c-.29,.19-.48,.39-.77,.58-.19,.19-.39,.48-.58,.77-.19,.29-.29,.58-.48,.87-.1,.29-.19,.58-.29,.87-.1,.29-.1,.58-.1,.96Z"/></g><g class="cls-39"><path class="cls-6" d="M45.06,688.79c0,.29,.1,.58,.19,.87,.1,.29,.19,.58,.39,.87,.1,.29,.29,.48,.48,.77,.19,.19,.39,.48,.67,.67,.19,.19,.48,.39,.77,.48,.29,.19,.58,.29,.87,.39,.29,.1,.58,.19,.96,.19,.29,0,.67,.1,.96,0,.29,0,.67-.1,.96-.1,.29-.1,.58-.19,.87-.29,.29-.1,.58-.29,.77-.48,.29-.19,.48-.39,.67-.58,.19-.19,.39-.48,.58-.67,.19-.29,.29-.48,.39-.77,.1-.29,.19-.58,.29-.87,.1-.29,.1-.58,.1-.87s0-.58-.1-.87c-.1-.29-.19-.58-.29-.87-.1-.29-.29-.48-.48-.77s-.39-.48-.58-.67c-.19-.19-.48-.39-.77-.58-.29-.19-.58-.29-.87-.39-.29-.1-.58-.19-.87-.29s-.67-.1-.96-.1-.67,.1-.96,.1c-.29,.1-.67,.19-.96,.29s-.58,.29-.87,.48c-.29,.19-.48,.39-.77,.58-.19,.19-.39,.48-.58,.77-.19,.29-.29,.58-.48,.87-.1,.29-.19,.58-.29,.87-.1,.29-.1,.58-.1,.96Z"/></g><g class="cls-33"><path class="cls-6" d="M99.22,688.79c0,.29,.1,.58,.19,.87,.1,.29,.19,.58,.39,.87,.1,.29,.29,.48,.48,.77,.19,.19,.39,.48,.67,.67,.19,.19,.48,.39,.77,.48,.29,.19,.58,.29,.87,.39,.29,.1,.58,.19,.96,.19,.29,0,.67,.1,.96,0,.29,0,.67-.1,.96-.1,.29-.1,.58-.19,.87-.29s.58-.29,.77-.48c.29-.19,.48-.39,.67-.58,.19-.19,.39-.48,.58-.67,.19-.29,.29-.48,.39-.77s.19-.58,.29-.87c.1-.29,.1-.58,.1-.87s0-.58-.1-.87c-.1-.29-.19-.58-.29-.87-.1-.29-.29-.48-.48-.77s-.39-.48-.58-.67c-.19-.19-.48-.39-.77-.58-.29-.19-.58-.29-.87-.39-.29-.1-.58-.19-.87-.29-.29-.1-.67-.1-.96-.1s-.67,.1-.96,.1c-.29,.1-.67,.19-.96,.29s-.58,.29-.87,.48c-.29,.19-.48,.39-.77,.58-.19,.19-.39,.48-.58,.77-.19,.29-.29,.58-.48,.87-.1,.29-.19,.58-.29,.87-.1,.29-.1,.58-.1,.96Z"/></g><g class="cls-38"><path class="cls-6" d="M153.47,688.79c0,.29,.1,.58,.19,.87,.1,.29,.19,.58,.39,.87,.1,.29,.29,.48,.48,.77,.19,.19,.39,.48,.67,.67s.48,.39,.77,.48c.29,.19,.58,.29,.87,.39,.29,.1,.58,.19,.96,.19,.29,0,.67,.1,.96,0,.29,0,.67-.1,.96-.1,.29-.1,.58-.19,.87-.29s.58-.29,.77-.48c.29-.19,.48-.39,.67-.58,.19-.19,.39-.48,.58-.67,.19-.29,.29-.48,.39-.77s.19-.58,.29-.87c.1-.29,.1-.58,.1-.87s0-.58-.1-.87c-.1-.29-.19-.58-.29-.87-.1-.29-.29-.48-.48-.77s-.39-.48-.58-.67-.48-.39-.77-.58c-.29-.19-.58-.29-.87-.39-.29-.1-.58-.19-.87-.29s-.67-.1-.96-.1-.67,.1-.96,.1c-.29,.1-.67,.19-.96,.29s-.58,.29-.87,.48-.48,.39-.77,.58c-.19,.19-.39,.48-.58,.77s-.29,.58-.48,.87c-.1,.29-.19,.58-.29,.87-.1,.29-.1,.58-.1,.96Z"/></g><g class="cls-40"><path class="cls-6" d="M207.73,688.79c0,.29,.1,.58,.19,.87,.1,.29,.19,.58,.39,.87,.1,.29,.29,.48,.48,.77,.19,.19,.39,.48,.67,.67,.19,.19,.48,.39,.77,.48,.29,.19,.58,.29,.87,.39,.29,.1,.58,.19,.96,.19,.29,0,.67,.1,.96,0,.29,0,.67-.1,.96-.1,.29-.1,.58-.19,.87-.29s.58-.29,.77-.48,.48-.39,.67-.58c.19-.19,.39-.48,.58-.67,.19-.29,.29-.48,.39-.77s.19-.58,.29-.87c.1-.29,.1-.58,.1-.87s0-.58-.1-.87c-.1-.29-.19-.58-.29-.87-.1-.29-.29-.48-.48-.77s-.39-.48-.58-.67-.48-.39-.77-.58-.58-.29-.87-.39c-.29-.1-.58-.19-.87-.29s-.67-.1-.96-.1-.67,.1-.96,.1c-.29,.1-.67,.19-.96,.29s-.58,.29-.87,.48-.48,.39-.77,.58c-.19,.19-.39,.48-.58,.77s-.29,.58-.48,.87c-.1,.29-.19,.58-.29,.87-.1,.29-.1,.58-.1,.96Z"/></g><g class="cls-35"><path class="cls-6" d="M261.88,688.79c0,.29,.1,.58,.19,.87,.1,.29,.19,.58,.39,.87,.1,.29,.29,.48,.48,.77,.19,.19,.39,.48,.67,.67,.19,.19,.48,.39,.77,.48,.29,.19,.58,.29,.87,.39,.29,.1,.58,.19,.96,.19,.29,0,.67,.1,.96,0,.29,0,.67-.1,.96-.1,.29-.1,.58-.19,.87-.29s.58-.29,.77-.48,.48-.39,.67-.58c.19-.19,.39-.48,.58-.67,.19-.29,.29-.48,.39-.77s.19-.58,.29-.87c.1-.29,.1-.58,.1-.87s0-.58-.1-.87c-.1-.29-.19-.58-.29-.87-.1-.29-.29-.48-.48-.77s-.39-.48-.58-.67-.48-.39-.77-.58c-.29-.19-.58-.29-.87-.39-.29-.1-.58-.19-.87-.29s-.67-.1-.96-.1-.67,.1-.96,.1c-.29,.1-.67,.19-.96,.29s-.58,.29-.87,.48-.48,.39-.77,.58c-.19,.19-.39,.48-.58,.77s-.29,.58-.48,.87c-.1,.29-.19,.58-.29,.87-.1,.29-.1,.58-.1,.96Z"/></g><g class="cls-41"><path class="cls-6" d="M-9.19,735.24c0,.29,.1,.58,.19,.87,.1,.29,.19,.58,.39,.87,.1,.29,.29,.48,.48,.77,.19,.19,.39,.48,.67,.67,.19,.19,.48,.39,.77,.48,.29,.19,.58,.29,.87,.39,.29,.1,.58,.19,.96,.19,.29,0,.67,.1,.96,0,.29,0,.67-.1,.96-.1,.29-.1,.58-.19,.87-.29,.29-.1,.58-.29,.77-.48,.29-.19,.48-.39,.67-.58,.19-.19,.39-.48,.58-.67,.19-.29,.29-.48,.39-.77,.1-.29,.19-.58,.29-.87,.1-.29,.1-.58,.1-.87s0-.58-.1-.87c-.1-.29-.19-.58-.29-.87-.1-.29-.29-.48-.48-.77s-.39-.48-.58-.67c-.19-.19-.48-.39-.77-.58-.29-.19-.58-.29-.87-.39-.29-.1-.58-.19-.87-.29-.29-.1-.67-.1-.96-.1s-.67,.1-.96,.1c-.29,.1-.67,.19-.96,.29s-.58,.29-.87,.48c-.29,.19-.48,.39-.77,.58-.19,.19-.39,.48-.58,.77-.19,.29-.29,.58-.48,.87-.1,.29-.19,.58-.29,.87s-.1,.67-.1,.96Z"/></g><g class="cls-44"><path class="cls-6" d="M45.06,735.24c0,.29,.1,.58,.19,.87,.1,.29,.19,.58,.39,.87,.1,.29,.29,.48,.48,.77s.39,.48,.67,.67c.19,.19,.48,.39,.77,.48,.29,.19,.58,.29,.87,.39,.29,.1,.58,.19,.96,.19,.29,0,.67,.1,.96,0,.29,0,.67-.1,.96-.1,.29-.1,.58-.19,.87-.29,.29-.1,.58-.29,.77-.48,.29-.19,.48-.39,.67-.58,.19-.19,.39-.48,.58-.67,.19-.29,.29-.48,.39-.77,.1-.29,.19-.58,.29-.87,.1-.29,.1-.58,.1-.87s0-.58-.1-.87c-.1-.29-.19-.58-.29-.87-.1-.29-.29-.48-.48-.77s-.39-.48-.58-.67c-.19-.19-.48-.39-.77-.58-.29-.19-.58-.29-.87-.39-.29-.1-.58-.19-.87-.29-.29-.1-.67-.1-.96-.1s-.67,.1-.96,.1c-.29,.1-.67,.19-.96,.29s-.58,.29-.87,.48c-.29,.19-.48,.39-.77,.58-.19,.19-.39,.48-.58,.77-.19,.29-.29,.58-.48,.87-.1,.29-.19,.58-.29,.87-.1,.39-.1,.67-.1,.96Z"/></g><g class="cls-43"><path class="cls-6" d="M99.22,735.24c0-2.7,2.22-4.91,4.91-4.91s4.91,2.22,4.91,4.91-2.22,4.91-4.91,4.91-4.91-2.22-4.91-4.91Z"/></g><g class="cls-36"><path class="cls-6" d="M153.47,735.24c0-2.7,2.22-4.91,4.91-4.91s4.91,2.22,4.91,4.91-2.22,4.91-4.91,4.91-4.91-2.22-4.91-4.91Z"/></g><g class="cls-45"><path class="cls-6" d="M207.73,735.24c0-2.7,2.22-4.91,4.91-4.91s4.91,2.22,4.91,4.91-2.22,4.91-4.91,4.91-4.91-2.22-4.91-4.91Z"/></g><g class="cls-42"><path class="cls-6" d="M261.88,735.24c0-2.7,2.22-4.91,4.91-4.91s4.91,2.22,4.91,4.91-2.22,4.91-4.91,4.91-4.91-2.22-4.91-4.91Z"/></g><g class="cls-46"><path class="cls-6" d="M316.14,735.24c0-2.7,2.22-4.91,4.91-4.91s4.91,2.22,4.91,4.91-2.22,4.91-4.91,4.91-4.91-2.22-4.91-4.91Z"/></g></g><rect class="cls-1" x="232.29" y="37.38" width="1144.9" height="558.1"/><g><g><path class="cls-10" d="M221.97,372.2c2.5-.08,5.01-.46,7.44-.99,4.1-.91,7.51-2.96,10.17-6.22,2.2-2.81,3.49-5.92,4.48-9.41,1.52-5.99,1.59-12.22,1.21-18.21,0-.15-.08-.23-.08-.46h-32.78v-2.12h32.48v-.61c-.53-2.28-.99-4.7-1.75-6.98-1.75-4.86-4.86-8.5-9.86-10.32-3.95-1.44-8.12-1.75-12.37-1.44-1.97,.15-4.1,.53-5.99,1.14-4.86,1.59-8.2,5.01-10.62,9.41-1.75,3.26-2.96,6.68-3.79,10.17-1.52,5.69-2.73,11.31-3.34,17.15-.46,4.1-.68,8.2-.99,12.29-.15,2.28,0,4.63,0,6.98l25.8-.38Z"/><path class="cls-10" d="M241.77,299.51c-17.23,0-33.08,5.77-45.76,15.4h.08v29.9h.08c.3-1.67,.53-3.34,.91-5.01,1.37-6.45,3.49-12.6,7.28-18.06,3.26-4.7,7.74-7.51,13.43-8.35,3.41-.53,6.91-.38,10.32-.08,4.25,.3,8.27,1.14,12.29,2.73,5.46,2.05,10.02,5.31,13.28,10.24,1.59,2.35,2.73,4.93,3.26,7.74,.15,.61,.46,.76,1.14,.76h41.66v2.12h-37.56v88.93h-12.37v-59.72c-.15,.08-.23,.08-.3,.15-3.87,3.49-8.5,5.39-13.66,6.6-3.95,.99-7.97,1.52-12.07,1.52-9.03,.15-17.98,.15-26.94,.15h-.91v31.49h-12.44v-79.45c-11.08,13.13-17.68,30.13-17.68,48.56,0,41.81,33.84,75.66,75.66,75.66s75.66-33.84,75.66-75.66-33.54-75.66-75.35-75.66Z"/><path class="cls-5" d="M196.24,406.05v-31.49h.91c9.03-.08,17.98,0,26.94-.15,4.1-.08,8.04-.61,12.07-1.52,5.01-1.21,9.71-3.11,13.66-6.6,.08-.08,.15-.08,.3-.15v59.72h12.37v-88.93h37.56v-2.12h-41.66c-.61,0-.99-.15-1.14-.76-.61-2.81-1.82-5.31-3.26-7.74-3.26-4.93-7.89-8.2-13.28-10.24-3.87-1.52-8.04-2.35-12.29-2.73-3.41-.23-6.91-.38-10.32,.08-5.77,.76-10.17,3.57-13.43,8.35-3.72,5.46-5.92,11.69-7.28,18.06-.38,1.67-.61,3.34-.91,5.01h-.08v-29.9h-.08c-4.55,3.41-8.57,7.36-12.29,11.69v79.45c3.95,0,7.97,0,12.22,0Zm-.08-40.75c.23-4.1,.53-8.2,.99-12.29,.61-5.84,1.82-11.46,3.34-17.15,.99-3.49,2.05-6.98,3.79-10.17,2.35-4.4,5.77-7.82,10.62-9.41,1.97-.61,3.95-.99,5.99-1.14,4.25-.23,8.35,0,12.37,1.44,5.01,1.82,8.2,5.46,9.86,10.32,.76,2.2,1.21,4.63,1.75,6.98,.08,.15,0,.38,0,.61h-32.48v2.12h32.78c.08,.23,.08,.38,.08,.46,.38,6.15,.3,12.29-1.21,18.21-.76,3.34-2.12,6.6-4.48,9.41-2.66,3.26-6.15,5.24-10.17,6.22-2.35,.53-4.93,.99-7.44,.99l-25.8,.08c0-2.12-.15-4.4,0-6.68Z"/></g><g class="cls-57"><path class="cls-11" d="M390.26,366.87v-22.31h9.66c2,0,3.72,.32,5.16,.97,1.44,.65,2.56,1.58,3.35,2.79,.79,1.21,1.18,2.66,1.18,4.33s-.39,3.09-1.18,4.3c-.79,1.21-1.9,2.14-3.35,2.79-1.45,.65-3.17,.97-5.16,.97h-6.79l2.29-2.33v8.48h-5.16Zm5.16-7.9l-2.29-2.45h6.5c1.59,0,2.78-.34,3.57-1.02,.79-.68,1.18-1.63,1.18-2.84s-.39-2.19-1.18-2.87c-.79-.68-1.98-1.02-3.57-1.02h-6.5l2.29-2.45v12.65Z"/><path class="cls-11" d="M418.05,367.13c-1.34,0-2.49-.23-3.44-.69s-1.69-1.08-2.2-1.86c-.51-.79-.76-1.67-.76-2.65s.25-1.91,.75-2.68c.5-.77,1.29-1.37,2.37-1.8,1.08-.43,2.5-.65,4.24-.65h4.56v2.9h-4.02c-1.17,0-1.97,.19-2.41,.57-.44,.38-.65,.86-.65,1.43,0,.64,.25,1.14,.75,1.51,.5,.37,1.18,.56,2.06,.56s1.57-.2,2.23-.59c.66-.39,1.14-.97,1.43-1.74l.76,2.29c-.36,1.11-1.02,1.94-1.98,2.52s-2.19,.86-3.7,.86Zm5.23-.25v-3.35l-.32-.73v-5.99c0-1.06-.32-1.89-.97-2.49s-1.64-.89-2.98-.89c-.91,0-1.81,.14-2.69,.43-.88,.29-1.63,.67-2.25,1.16l-1.78-3.47c.93-.66,2.06-1.17,3.38-1.53,1.32-.36,2.66-.54,4.02-.54,2.61,0,4.64,.62,6.09,1.85,1.44,1.23,2.17,3.16,2.17,5.77v9.78h-4.65Z"/><path class="cls-11" d="M440.71,367.13c-1.83,0-3.45-.38-4.86-1.15-1.41-.76-2.53-1.81-3.35-3.14-.82-1.33-1.23-2.84-1.23-4.54s.41-3.25,1.23-4.57c.82-1.33,1.93-2.37,3.35-3.12,1.41-.75,3.03-1.13,4.86-1.13s3.42,.38,4.84,1.13,2.54,1.79,3.35,3.11c.81,1.32,1.21,2.85,1.21,4.59s-.4,3.21-1.21,4.54c-.81,1.33-1.92,2.37-3.35,3.14-1.42,.77-3.04,1.15-4.84,1.15Zm0-4.08c.83,0,1.57-.19,2.23-.57,.66-.38,1.18-.93,1.56-1.64,.38-.71,.57-1.56,.57-2.53s-.19-1.85-.57-2.55-.9-1.24-1.56-1.63c-.66-.38-1.4-.57-2.23-.57s-1.57,.19-2.23,.57c-.66,.38-1.18,.92-1.58,1.63s-.59,1.55-.59,2.55,.2,1.82,.59,2.53c.39,.71,.92,1.26,1.58,1.64,.66,.38,1.4,.57,2.23,.57Z"/><path class="cls-11" d="M453.43,366.87v-23.65h4.97v23.65h-4.97Z"/><path class="cls-11" d="M468.31,367.13c-1.34,0-2.49-.23-3.44-.69s-1.69-1.08-2.2-1.86c-.51-.79-.76-1.67-.76-2.65s.25-1.91,.75-2.68c.5-.77,1.29-1.37,2.37-1.8,1.08-.43,2.5-.65,4.24-.65h4.56v2.9h-4.02c-1.17,0-1.97,.19-2.41,.57-.44,.38-.65,.86-.65,1.43,0,.64,.25,1.14,.75,1.51,.5,.37,1.18,.56,2.06,.56s1.57-.2,2.23-.59c.66-.39,1.14-.97,1.43-1.74l.76,2.29c-.36,1.11-1.02,1.94-1.98,2.52s-2.19,.86-3.7,.86Zm5.23-.25v-3.35l-.32-.73v-5.99c0-1.06-.32-1.89-.97-2.49s-1.64-.89-2.98-.89c-.91,0-1.81,.14-2.69,.43-.88,.29-1.63,.67-2.25,1.16l-1.78-3.47c.93-.66,2.06-1.17,3.38-1.53,1.32-.36,2.66-.54,4.02-.54,2.61,0,4.64,.62,6.09,1.85,1.44,1.23,2.17,3.16,2.17,5.77v9.78h-4.65Z"/><path class="cls-11" d="M496.67,366.87v-18.1h-7.14v-4.21h19.44v4.21h-7.14v18.1h-5.16Z"/><path class="cls-11" d="M517.8,367.13c-1.83,0-3.45-.38-4.86-1.15-1.41-.76-2.53-1.81-3.35-3.14-.82-1.33-1.23-2.84-1.23-4.54s.41-3.25,1.23-4.57c.82-1.33,1.93-2.37,3.35-3.12,1.41-.75,3.03-1.13,4.86-1.13s3.42,.38,4.84,1.13,2.54,1.79,3.35,3.11c.81,1.32,1.21,2.85,1.21,4.59s-.4,3.21-1.21,4.54c-.81,1.33-1.92,2.37-3.35,3.14-1.42,.77-3.04,1.15-4.84,1.15Zm0-4.08c.83,0,1.57-.19,2.23-.57,.66-.38,1.18-.93,1.56-1.64,.38-.71,.57-1.56,.57-2.53s-.19-1.85-.57-2.55-.9-1.24-1.56-1.63c-.66-.38-1.4-.57-2.23-.57s-1.57,.19-2.23,.57c-.66,.38-1.18,.92-1.58,1.63s-.59,1.55-.59,2.55,.2,1.82,.59,2.53c.39,.71,.92,1.26,1.58,1.64,.66,.38,1.4,.57,2.23,.57Z"/><path class="cls-11" d="M530.52,366.87v-17.15h4.75v4.84l-.67-1.4c.51-1.21,1.33-2.13,2.45-2.76,1.13-.63,2.5-.94,4.11-.94v4.59c-.21-.02-.4-.04-.57-.05-.17-.01-.35-.02-.54-.02-1.36,0-2.46,.39-3.3,1.16-.84,.78-1.26,1.98-1.26,3.62v8.1h-4.97Z"/><path class="cls-11" d="M544.13,366.87v-17.15h4.75v4.84l-.67-1.4c.51-1.21,1.33-2.13,2.45-2.76,1.13-.63,2.5-.94,4.11-.94v4.59c-.21-.02-.4-.04-.57-.05-.17-.01-.35-.02-.54-.02-1.36,0-2.46,.39-3.3,1.16-.84,.78-1.26,1.98-1.26,3.62v8.1h-4.97Z"/><path class="cls-11" d="M566.09,367.13c-1.96,0-3.67-.38-5.15-1.15-1.48-.76-2.62-1.81-3.43-3.14-.81-1.33-1.21-2.84-1.21-4.54s.4-3.25,1.19-4.57c.8-1.33,1.89-2.37,3.27-3.12,1.38-.75,2.94-1.13,4.68-1.13s3.19,.36,4.54,1.07c1.35,.71,2.42,1.73,3.2,3.06,.79,1.33,1.18,2.92,1.18,4.76,0,.19-.01,.41-.03,.65-.02,.24-.04,.47-.06,.69h-13.93v-2.9h11.31l-1.91,.86c0-.89-.18-1.67-.54-2.33-.36-.66-.86-1.17-1.5-1.55-.64-.37-1.38-.56-2.23-.56s-1.6,.19-2.25,.56c-.65,.37-1.15,.89-1.51,1.56-.36,.67-.54,1.46-.54,2.37v.76c0,.94,.21,1.76,.62,2.47,.41,.71,1,1.25,1.75,1.63,.75,.37,1.64,.56,2.66,.56,.91,0,1.72-.14,2.41-.41s1.32-.69,1.9-1.24l2.65,2.87c-.79,.89-1.77,1.58-2.96,2.06-1.19,.48-2.56,.72-4.11,.72Z"/><path class="cls-11" d="M583.46,367.13c-1.47,0-2.87-.18-4.22-.53-1.35-.35-2.42-.79-3.2-1.32l1.66-3.57c.79,.49,1.72,.89,2.79,1.19,1.07,.31,2.13,.46,3.17,.46,1.15,0,1.96-.14,2.44-.41,.48-.28,.72-.66,.72-1.15,0-.4-.19-.71-.56-.91-.37-.2-.87-.36-1.48-.46-.62-.11-1.29-.21-2.02-.32-.73-.11-1.47-.25-2.21-.43-.74-.18-1.42-.45-2.04-.81-.62-.36-1.11-.85-1.48-1.47-.37-.62-.56-1.41-.56-2.39,0-1.08,.31-2.04,.94-2.87,.63-.83,1.53-1.48,2.72-1.96,1.19-.48,2.61-.72,4.27-.72,1.17,0,2.36,.13,3.57,.38s2.22,.63,3.03,1.12l-1.66,3.54c-.83-.49-1.66-.82-2.5-1s-1.65-.27-2.44-.27c-1.11,0-1.91,.15-2.42,.45-.51,.3-.77,.68-.77,1.15,0,.43,.19,.74,.56,.96,.37,.21,.87,.38,1.48,.51,.62,.13,1.29,.24,2.02,.33,.73,.1,1.47,.24,2.21,.43,.74,.19,1.42,.46,2.02,.81,.61,.35,1.1,.83,1.48,1.43,.38,.61,.57,1.4,.57,2.37,0,1.06-.32,2-.96,2.82-.64,.82-1.56,1.46-2.76,1.93-1.2,.47-2.66,.7-4.38,.7Z"/></g><g class="cls-57"><path class="cls-11" d="M401.79,394.7h1.19v6.36c-1.53,1.46-3.74,2.19-6.07,2.19-5.12,0-8.89-3.67-8.89-8.62s3.76-8.62,8.91-8.62c2.45,0,4.61,.78,6.12,2.33l-.78,.83c-1.48-1.46-3.25-2.02-5.32-2.02-4.42,0-7.7,3.21-7.7,7.48s3.28,7.48,7.7,7.48c1.8,0,3.45-.44,4.83-1.55v-5.85Z"/><path class="cls-11" d="M414.03,390.36v1.19c-.1,0-.19-.02-.29-.02-2.82,0-4.49,1.87-4.49,5v6.6h-1.21v-12.67h1.17v2.77c.78-1.85,2.45-2.86,4.83-2.86Z"/><path class="cls-11" d="M426.53,395.09v8.04h-1.17v-2.26c-.8,1.46-2.36,2.35-4.57,2.35-2.84,0-4.56-1.46-4.56-3.62,0-1.92,1.21-3.55,4.73-3.55h4.35v-1.02c0-2.35-1.29-3.62-3.76-3.62-1.75,0-3.33,.66-4.37,1.6l-.61-.87c1.26-1.12,3.11-1.8,5.07-1.8,3.13,0,4.88,1.6,4.88,4.73Zm-1.21,4.3v-2.38h-4.32c-2.62,0-3.55,1.09-3.55,2.55,0,1.65,1.29,2.67,3.52,2.67s3.62-1.02,4.35-2.84Z"/><path class="cls-11" d="M444.16,396.79c0,3.81-2.7,6.43-6.26,6.43-2.23,0-4.13-1.09-5.15-2.99v7.6h-1.21v-17.39h1.17v2.99c1-1.94,2.91-3.08,5.2-3.08,3.57,0,6.26,2.65,6.26,6.43Zm-1.21,0c0-3.18-2.21-5.34-5.12-5.34s-5.1,2.16-5.1,5.34,2.19,5.34,5.1,5.34,5.12-2.16,5.12-5.34Z"/><path class="cls-11" d="M459.26,395.72v7.41h-1.21v-7.31c0-2.87-1.53-4.37-4.1-4.37-2.99,0-4.81,1.92-4.81,4.93v6.75h-1.21v-18.02h1.21v7.99c.87-1.72,2.62-2.74,4.98-2.74,3.08,0,5.15,1.82,5.15,5.37Z"/><path class="cls-11" d="M463.88,386.4c0-.53,.44-1,1-1s1,.44,1,.97-.44,1-1,1-1-.44-1-.97Zm.39,4.06h1.21v12.67h-1.21v-12.67Z"/><path class="cls-11" d="M469.22,396.79c0-3.79,2.7-6.43,6.41-6.43,2.02,0,3.76,.78,4.81,2.33l-.9,.66c-.92-1.29-2.33-1.89-3.91-1.89-2.99,0-5.17,2.14-5.17,5.34s2.19,5.34,5.17,5.34c1.58,0,2.99-.61,3.91-1.89l.9,.66c-1.04,1.53-2.79,2.33-4.81,2.33-3.72,0-6.41-2.67-6.41-6.43Z"/><path class="cls-11" d="M490.71,386.13h6.73c5.39,0,9.03,3.55,9.03,8.5s-3.64,8.5-9.03,8.5h-6.73v-17Zm6.63,15.88c4.81,0,7.89-3.06,7.89-7.38s-3.08-7.38-7.89-7.38h-5.39v14.76h5.39Z"/><path class="cls-11" d="M521.09,397.08h-10.9c.12,3.01,2.33,5.05,5.37,5.05,1.6,0,3.08-.58,4.05-1.77l.7,.8c-1.12,1.36-2.87,2.06-4.78,2.06-3.84,0-6.53-2.67-6.53-6.43s2.6-6.43,6.07-6.43,6.05,2.62,6.05,6.39c0,.1-.02,.22-.02,.34Zm-10.88-.95h9.71c-.17-2.74-2.16-4.71-4.86-4.71s-4.66,1.94-4.86,4.71Z"/><path class="cls-11" d="M523,401.6l.56-.97c.97,.83,2.7,1.53,4.57,1.53,2.67,0,3.74-.95,3.74-2.38,0-3.69-8.4-.97-8.4-5.95,0-1.92,1.6-3.47,4.81-3.47,1.6,0,3.35,.48,4.35,1.24l-.56,.97c-1.07-.78-2.45-1.14-3.81-1.14-2.48,0-3.57,1.02-3.57,2.38,0,3.81,8.4,1.12,8.4,5.95,0,2.06-1.77,3.47-5,3.47-2.09,0-4.08-.7-5.07-1.63Z"/><path class="cls-11" d="M536.09,386.4c0-.53,.44-1,1-1s1,.44,1,.97-.44,1-1,1-1-.44-1-.97Zm.39,4.06h1.21v12.67h-1.21v-12.67Z"/><path class="cls-11" d="M554.23,390.45v11.31c0,4.25-2.06,6.17-6.14,6.17-2.31,0-4.52-.73-5.8-2.02l.66-.92c1.26,1.17,3.08,1.85,5.12,1.85,3.38,0,4.95-1.55,4.95-4.93v-2.14c-1.04,1.85-2.99,2.89-5.27,2.89-3.59,0-6.31-2.55-6.31-6.17s2.72-6.14,6.31-6.14c2.33,0,4.3,1.07,5.32,2.96v-2.86h1.17Zm-1.19,6.05c0-2.99-2.19-5.05-5.2-5.05s-5.17,2.06-5.17,5.05,2.19,5.07,5.17,5.07,5.2-2.09,5.2-5.07Z"/><path class="cls-11" d="M570.72,395.72v7.41h-1.21v-7.31c0-2.87-1.53-4.37-4.1-4.37-2.99,0-4.81,1.92-4.81,4.93v6.75h-1.21v-12.67h1.17v2.74c.85-1.77,2.62-2.84,5.03-2.84,3.08,0,5.15,1.82,5.15,5.37Z"/><path class="cls-11" d="M586.45,397.08h-10.9c.12,3.01,2.33,5.05,5.37,5.05,1.6,0,3.08-.58,4.05-1.77l.7,.8c-1.12,1.36-2.87,2.06-4.78,2.06-3.84,0-6.53-2.67-6.53-6.43s2.6-6.43,6.07-6.43,6.05,2.62,6.05,6.39c0,.1-.02,.22-.02,.34Zm-10.88-.95h9.71c-.17-2.74-2.16-4.71-4.86-4.71s-4.66,1.94-4.86,4.71Z"/><path class="cls-11" d="M596.24,390.36v1.19c-.1,0-.19-.02-.29-.02-2.82,0-4.49,1.87-4.49,5v6.6h-1.21v-12.67h1.17v2.77c.78-1.85,2.45-2.86,4.83-2.86Z"/></g><g class="cls-57"><path class="cls-11" d="M748.97,383.73l-6.29-19.65h6.82l5.08,16.59h-3.43l5.39-16.59h6.09l5.03,16.59h-3.28l5.31-16.59h6.29l-6.29,19.65h-7.1l-4.1-13.59h1.91l-4.32,13.59h-7.1Z"/><path class="cls-11" d="M783.95,378.73h9.83v5h-16.34v-19.65h15.98v5h-9.46v9.66Zm-.45-7.36h8.76v4.77h-8.76v-4.77Z"/><path class="cls-11" d="M796.34,383.73v-19.65h6.63v14.52h8.87v5.14h-15.5Z"/><path class="cls-11" d="M823.54,384.17c-1.57,0-3.03-.25-4.37-.74-1.34-.5-2.5-1.2-3.48-2.12-.98-.92-1.75-2-2.29-3.26s-.81-2.64-.81-4.16,.27-2.9,.81-4.16c.54-1.25,1.31-2.34,2.29-3.26,.98-.92,2.14-1.62,3.48-2.12,1.34-.5,2.79-.74,4.37-.74,1.93,0,3.64,.34,5.12,1.01s2.72,1.65,3.69,2.92l-4.18,3.73c-.58-.73-1.22-1.3-1.92-1.7s-1.49-.6-2.37-.6c-.69,0-1.32,.11-1.88,.34-.56,.22-1.04,.55-1.45,.98-.4,.43-.72,.95-.94,1.56-.22,.61-.34,1.29-.34,2.04s.11,1.43,.34,2.04c.22,.61,.54,1.13,.94,1.56,.4,.43,.88,.76,1.45,.98,.56,.22,1.19,.34,1.88,.34,.88,0,1.67-.2,2.37-.6s1.34-.97,1.92-1.7l4.18,3.73c-.97,1.25-2.2,2.22-3.69,2.91s-3.2,1.02-5.12,1.02Z"/><path class="cls-11" d="M844.18,384.17c-1.61,0-3.09-.25-4.45-.76-1.36-.51-2.53-1.22-3.52-2.15-.99-.93-1.76-2.02-2.32-3.27-.55-1.25-.83-2.62-.83-4.1s.28-2.87,.83-4.11c.55-1.24,1.32-2.33,2.32-3.26,.99-.93,2.17-1.64,3.52-2.15s2.83-.76,4.42-.76,3.09,.25,4.44,.76,2.52,1.22,3.51,2.15c.99,.93,1.76,2.01,2.32,3.26,.55,1.25,.83,2.62,.83,4.11s-.28,2.85-.83,4.1c-.55,1.25-1.32,2.34-2.32,3.27-.99,.93-2.16,1.64-3.51,2.15-1.35,.5-2.82,.76-4.41,.76Zm-.03-5.36c.62,0,1.19-.11,1.73-.34,.53-.22,1-.55,1.4-.97,.4-.42,.72-.94,.94-1.54,.22-.61,.34-1.3,.34-2.06s-.11-1.46-.34-2.06-.54-1.12-.94-1.54-.87-.74-1.4-.97c-.53-.22-1.11-.34-1.73-.34s-1.19,.11-1.73,.34c-.53,.22-1,.55-1.4,.97s-.72,.94-.94,1.54c-.22,.61-.34,1.3-.34,2.06s.11,1.46,.34,2.06c.22,.61,.54,1.12,.94,1.54,.4,.42,.87,.74,1.4,.97,.53,.22,1.11,.34,1.73,.34Z"/><path class="cls-11" d="M857.65,383.73v-19.65h5.45l7.86,12.83h-2.86l7.64-12.83h5.45l.06,19.65h-6.04l-.06-10.56h.95l-5.22,8.79h-2.92l-5.45-8.79h1.18v10.56h-6.04Z"/><path class="cls-11" d="M890.95,378.73h9.83v5h-16.34v-19.65h15.98v5h-9.46v9.66Zm-.45-7.36h8.76v4.77h-8.76v-4.77Z"/><path class="cls-11" d="M916.03,383.73v-14.52h-5.76v-5.14h18.14v5.14h-5.76v14.52h-6.63Z"/><path class="cls-11" d="M940.17,384.17c-1.61,0-3.09-.25-4.45-.76-1.36-.51-2.53-1.22-3.52-2.15-.99-.93-1.76-2.02-2.32-3.27-.55-1.25-.83-2.62-.83-4.1s.28-2.87,.83-4.11c.55-1.24,1.32-2.33,2.32-3.26,.99-.93,2.17-1.64,3.52-2.15s2.83-.76,4.42-.76,3.09,.25,4.44,.76,2.52,1.22,3.51,2.15c.99,.93,1.76,2.01,2.32,3.26,.55,1.25,.83,2.62,.83,4.11s-.28,2.85-.83,4.1c-.55,1.25-1.32,2.34-2.32,3.27-.99,.93-2.16,1.64-3.51,2.15-1.35,.5-2.82,.76-4.41,.76Zm-.03-5.36c.62,0,1.19-.11,1.73-.34,.53-.22,1-.55,1.4-.97,.4-.42,.72-.94,.94-1.54,.22-.61,.34-1.3,.34-2.06s-.11-1.46-.34-2.06-.54-1.12-.94-1.54-.87-.74-1.4-.97c-.53-.22-1.11-.34-1.73-.34s-1.19,.11-1.73,.34c-.53,.22-1,.55-1.4,.97s-.72,.94-.94,1.54c-.22,.61-.34,1.3-.34,2.06s.11,1.46,.34,2.06c.22,.61,.54,1.12,.94,1.54,.4,.42,.87,.74,1.4,.97,.53,.22,1.11,.34,1.73,.34Z"/><path class="cls-11" d="M962.07,383.73v-19.65h5.45l7.86,12.83h-2.86l7.64-12.83h5.45l.06,19.65h-6.04l-.06-10.56h.95l-5.22,8.79h-2.92l-5.45-8.79h1.18v10.56h-6.04Z"/><path class="cls-11" d="M993.91,383.73v-8.62l1.52,3.96-8.93-14.99h6.99l6.04,10.25h-4.07l6.09-10.25h6.4l-8.87,14.99,1.46-3.96v8.62h-6.63Z"/><path class="cls-11" d="M1017.21,383.73v-19.65h9.46c1.83,0,3.42,.3,4.76,.9s2.37,1.46,3.1,2.57c.73,1.11,1.09,2.43,1.09,3.94s-.37,2.83-1.09,3.93c-.73,1.1-1.76,1.96-3.1,2.57s-2.92,.91-4.76,.91h-5.78l2.95-2.84v7.66h-6.63Zm6.63-6.93l-2.95-3h5.36c.92,0,1.6-.21,2.04-.62,.44-.41,.66-.97,.66-1.68s-.22-1.27-.66-1.68c-.44-.41-1.12-.62-2.04-.62h-5.36l2.95-3v10.61Z"/><path class="cls-11" d="M1048.41,384.17c-1.61,0-3.09-.25-4.45-.76-1.36-.51-2.53-1.22-3.52-2.15-.99-.93-1.76-2.02-2.32-3.27-.55-1.25-.83-2.62-.83-4.1s.28-2.87,.83-4.11c.55-1.24,1.32-2.33,2.32-3.26,.99-.93,2.17-1.64,3.52-2.15s2.83-.76,4.42-.76,3.09,.25,4.44,.76,2.52,1.22,3.51,2.15c.99,.93,1.76,2.01,2.32,3.26,.55,1.25,.83,2.62,.83,4.11s-.28,2.85-.83,4.1c-.55,1.25-1.32,2.34-2.32,3.27-.99,.93-2.16,1.64-3.51,2.15-1.35,.5-2.82,.76-4.41,.76Zm-.03-5.36c.62,0,1.19-.11,1.73-.34,.53-.22,1-.55,1.4-.97,.4-.42,.72-.94,.94-1.54,.22-.61,.34-1.3,.34-2.06s-.11-1.46-.34-2.06-.54-1.12-.94-1.54-.87-.74-1.4-.97c-.53-.22-1.11-.34-1.73-.34s-1.19,.11-1.73,.34c-.53,.22-1,.55-1.4,.97s-.72,.94-.94,1.54c-.22,.61-.34,1.3-.34,2.06s.11,1.46,.34,2.06c.22,.61,.54,1.12,.94,1.54,.4,.42,.87,.74,1.4,.97,.53,.22,1.11,.34,1.73,.34Z"/><path class="cls-11" d="M1061.88,383.73v-19.65h9.46c1.83,0,3.42,.3,4.76,.9s2.37,1.46,3.1,2.57c.73,1.11,1.09,2.43,1.09,3.94s-.37,2.82-1.09,3.92c-.73,1.09-1.76,1.93-3.1,2.51-1.34,.58-2.92,.87-4.76,.87h-5.78l2.95-2.72v7.66h-6.63Zm6.63-6.93l-2.95-3h5.36c.92,0,1.6-.21,2.04-.62,.44-.41,.66-.97,.66-1.68s-.22-1.27-.66-1.68c-.44-.41-1.12-.62-2.04-.62h-5.36l2.95-3v10.61Zm5.14,6.93l-4.83-7.16h7.02l4.88,7.16h-7.08Z"/><path class="cls-11" d="M1086.79,383.73v-14.52h-5.76v-5.14h18.14v5.14h-5.76v14.52h-6.63Z"/><path class="cls-11" d="M1107.51,383.73h-6.63v-19.65h15.98v5h-9.35v14.66Zm-.45-11.29h8.65v5h-8.65v-5Z"/><path class="cls-11" d="M1129.15,384.17c-1.61,0-3.09-.25-4.45-.76-1.36-.51-2.53-1.22-3.52-2.15-.99-.93-1.76-2.02-2.32-3.27-.55-1.25-.83-2.62-.83-4.1s.28-2.87,.83-4.11c.55-1.24,1.32-2.33,2.32-3.26,.99-.93,2.17-1.64,3.52-2.15s2.83-.76,4.42-.76,3.09,.25,4.44,.76,2.52,1.22,3.51,2.15c.99,.93,1.76,2.01,2.32,3.26,.55,1.25,.83,2.62,.83,4.11s-.28,2.85-.83,4.1c-.55,1.25-1.32,2.34-2.32,3.27-.99,.93-2.16,1.64-3.51,2.15-1.35,.5-2.82,.76-4.41,.76Zm-.03-5.36c.62,0,1.19-.11,1.73-.34,.53-.22,1-.55,1.4-.97,.4-.42,.72-.94,.94-1.54,.22-.61,.34-1.3,.34-2.06s-.11-1.46-.34-2.06-.54-1.12-.94-1.54-.87-.74-1.4-.97c-.53-.22-1.11-.34-1.73-.34s-1.19,.11-1.73,.34c-.53,.22-1,.55-1.4,.97s-.72,.94-.94,1.54c-.22,.61-.34,1.3-.34,2.06s.11,1.46,.34,2.06c.22,.61,.54,1.12,.94,1.54,.4,.42,.87,.74,1.4,.97,.53,.22,1.11,.34,1.73,.34Z"/><path class="cls-11" d="M1142.63,383.73v-19.65h6.63v14.52h8.87v5.14h-15.5Z"/><path class="cls-11" d="M1159.95,383.73v-19.65h6.63v19.65h-6.63Z"/><path class="cls-11" d="M1180.11,384.17c-1.61,0-3.09-.25-4.45-.76-1.36-.51-2.53-1.22-3.52-2.15-.99-.93-1.76-2.02-2.32-3.27-.55-1.25-.83-2.62-.83-4.1s.28-2.87,.83-4.11c.55-1.24,1.32-2.33,2.32-3.26,.99-.93,2.17-1.64,3.52-2.15s2.83-.76,4.42-.76,3.09,.25,4.44,.76,2.52,1.22,3.51,2.15c.99,.93,1.76,2.01,2.32,3.26,.55,1.25,.83,2.62,.83,4.11s-.28,2.85-.83,4.1c-.55,1.25-1.32,2.34-2.32,3.27-.99,.93-2.16,1.64-3.51,2.15-1.35,.5-2.82,.76-4.41,.76Zm-.03-5.36c.62,0,1.19-.11,1.73-.34,.53-.22,1-.55,1.4-.97,.4-.42,.72-.94,.94-1.54,.22-.61,.34-1.3,.34-2.06s-.11-1.46-.34-2.06-.54-1.12-.94-1.54-.87-.74-1.4-.97c-.53-.22-1.11-.34-1.73-.34s-1.19,.11-1.73,.34c-.53,.22-1,.55-1.4,.97s-.72,.94-.94,1.54c-.22,.61-.34,1.3-.34,2.06s.11,1.46,.34,2.06c.22,.61,.54,1.12,.94,1.54,.4,.42,.87,.74,1.4,.97,.53,.22,1.11,.34,1.73,.34Z"/><path class="cls-11" d="M1193.87,376.2l-1.26-12.13h7.58l-1.26,12.13h-5.05Zm2.53,7.8c-1.09,0-1.98-.33-2.67-1-.69-.66-1.04-1.45-1.04-2.37s.35-1.72,1.04-2.36c.69-.64,1.58-.95,2.67-.95s2,.32,2.68,.95c.68,.64,1.02,1.42,1.02,2.36s-.34,1.71-1.02,2.37c-.68,.66-1.58,1-2.68,1Z"/></g><line class="cls-2" x1="681.86" y1="280.14" x2="681.86" y2="477.29"/></g></svg>