<?xml version="1.0" encoding="utf-8"?>
<!-- Generator: Adobe Illustrator 26.5.0, SVG Export Plug-In . SVG Version: 6.00 Build 0)  -->
<svg version="1.1" id="Layer_1" xmlns="http://www.w3.org/2000/svg" xmlns:xlink="http://www.w3.org/1999/xlink" x="0px" y="0px"
	 viewBox="0 0 1700 500" style="enable-background:new 0 0 1700 500;" xml:space="preserve">
<style type="text/css">
	.st0{fill:#FFFFFF;stroke:#231F20;stroke-width:1.4374;stroke-miterlimit:10;}
	.st1{fill:#231F20;}
	.st2{fill:#FFFFFF;}
	.st3{fill:#282828;}
	.st4{font-family:'Futura-Medium';}
	.st5{font-size:42.9743px;}
	.st6{font-family:'Montserrat-Light';}
	.st7{font-size:28.8427px;}
	.st8{fill:#717070;}
	.st9{font-family:'Futura-CondensedExtraBold';}
	.st10{font-size:42.5009px;}
	.st11{stroke:#B3B3B3;stroke-width:8;stroke-miterlimit:10;}
	.st12{fill:none;stroke:#231F20;stroke-width:7;stroke-miterlimit:10;}
	.st13{fill:none;stroke:#282828;stroke-width:6.0428;stroke-miterlimit:10;}
</style>
<rect x="-19.1" y="-61.2" class="st0" width="1759.4" height="634.4"/>
<g>
	<path class="st1" d="M251.6,246c3.3-0.1,6.7-0.6,9.9-1.3c5.4-1.2,10-3.9,13.6-8.3c3-3.7,4.7-7.9,5.9-12.5c2-8,2.1-16.2,1.6-24.3
		c0-0.2-0.1-0.3-0.1-0.6c-14.5,0-29.1,0-43.6,0c0-1,0-1.9,0-2.9c14.5,0,28.9,0,43.3,0c0-0.4,0-0.6,0-0.9c-0.7-3.1-1.3-6.3-2.3-9.3
		c-2.3-6.5-6.5-11.4-13.2-13.8c-5.3-1.9-10.8-2.3-16.4-1.9c-2.7,0.2-5.4,0.7-8,1.5c-6.5,2.1-10.9,6.7-14.1,12.5
		c-2.3,4.3-3.9,8.9-5.1,13.6c-2,7.5-3.6,15.1-4.5,22.8c-0.6,5.4-1,10.9-1.3,16.3c-0.2,3.1,0,6.2,0,9.3L251.6,246z"/>
	<path class="st1" d="M278,149.2c-22.9,0-44,7.6-60.9,20.5c0,0,0,0,0.1,0c0,13.3,0,26.6,0,39.8c0,0,0.1,0,0.1,0
		c0.4-2.2,0.7-4.5,1.2-6.7c1.8-8.6,4.7-16.8,9.7-24.1c4.3-6.3,10.3-10,17.9-11.1c4.6-0.7,9.2-0.5,13.8-0.1c5.6,0.4,11,1.5,16.3,3.6
		c7.3,2.8,13.4,7.1,17.7,13.7c2.1,3.2,3.6,6.6,4.4,10.3c0.2,0.9,0.6,1.1,1.5,1.1c18.1,0,36.1,0,54.2,0c0.4,0,0.8,0,1.2,0
		c0,1,0,1.9,0,2.9c-16.7,0-33.3,0-50,0c0,39.5,0,78.9,0,118.4c-5.5,0-10.9,0-16.4,0c0-26.5,0-53,0-79.6c-0.2,0.1-0.3,0.1-0.4,0.2
		c-5.2,4.7-11.4,7.2-18.1,8.8c-5.3,1.3-10.6,2-16,2c-12,0.2-24,0.2-35.9,0.2c-0.4,0-0.7,0-1.2,0c0,14,0,27.9,0,41.9
		c-5.5,0-11,0-16.5,0c0-35.2,0-70.4,0-105.7c-14.7,17.5-23.5,40.1-23.5,64.7c0,55.7,45.1,100.8,100.8,100.8S378.8,305.7,378.8,250
		S333.7,149.2,278,149.2z"/>
	<path class="st2" d="M217.3,291c0-14,0-27.9,0-41.9c0.5,0,0.8,0,1.2,0c12-0.1,24,0,35.9-0.2c5.4-0.1,10.7-0.8,16-2
		c6.7-1.6,12.9-4.1,18.1-8.8c0.1-0.1,0.2-0.1,0.4-0.2c0,26.6,0,53.1,0,79.6c5.5,0,10.9,0,16.4,0c0-39.5,0-78.9,0-118.4
		c16.7,0,33.3,0,50,0c0-1,0-1.9,0-2.9c-0.4,0-0.8,0-1.2,0c-18.1,0-36.1,0-54.2,0c-0.9,0-1.3-0.2-1.5-1.1c-0.9-3.7-2.4-7.1-4.4-10.3
		c-4.3-6.6-10.5-10.9-17.7-13.7c-5.2-2-10.7-3.2-16.3-3.6c-4.6-0.3-9.2-0.5-13.8,0.1c-7.6,1.1-13.6,4.8-17.9,11.1
		c-5,7.3-7.8,15.6-9.7,24.1c-0.5,2.2-0.8,4.5-1.2,6.7c0,0-0.1,0-0.1,0c0-13.3,0-26.5,0-39.8c0,0,0,0-0.1,0
		c-6,4.6-11.5,9.8-16.3,15.6c0,35.3,0,70.5,0,105.7C206.3,291,211.7,291,217.3,291z M217.2,236.7c0.3-5.4,0.7-10.9,1.3-16.3
		c0.9-7.7,2.4-15.3,4.5-22.8c1.3-4.7,2.8-9.3,5.1-13.6c3.2-5.8,7.6-10.4,14.1-12.5c2.6-0.8,5.3-1.3,8-1.5c5.6-0.3,11.1,0,16.4,1.9
		c6.7,2.4,10.9,7.3,13.2,13.8c1.1,3,1.6,6.2,2.3,9.3c0.1,0.2,0,0.5,0,0.9c-14.4,0-28.8,0-43.3,0c0,1,0,1.9,0,2.9c14.5,0,29,0,43.6,0
		c0.1,0.3,0.1,0.5,0.1,0.6c0.5,8.2,0.4,16.3-1.6,24.3c-1.1,4.5-2.9,8.8-5.9,12.5c-3.5,4.4-8.2,7-13.6,8.3c-3.2,0.7-6.6,1.3-9.9,1.3
		l-34.4,0.1C217.2,242.9,217,239.8,217.2,236.7z"/>
</g>
<g>
	<text transform="matrix(1 0 0 1 467.0095 243.9727)" class="st3 st4 st5">Paola Torres </text>
	<text transform="matrix(1 0 0 1 472.6476 286.3428)" class="st3 st6 st7">Graphic Deginer </text>
</g>
<text transform="matrix(1 0 0 1 994.3882 261.8391)" class="st8 st9 st10">WELCOME TO MY PORTFOLIO </text>
<line class="st11" x1="850" y1="126.4" x2="850" y2="373.6"/>
<rect x="56.8" y="49.4" class="st13" width="1586.5" height="401.2"/>
</svg>
