<?xml version="1.0" encoding="utf-8"?>
<!-- Generator: Adobe Illustrator 26.5.0, SVG Export Plug-In . SVG Version: 6.00 Build 0)  -->
<svg version="1.1" id="Layer_1" xmlns="http://www.w3.org/2000/svg" xmlns:xlink="http://www.w3.org/1999/xlink" x="0px" y="0px"
	 viewBox="0 0 1700 750" style="enable-background:new 0 0 1700 750;" xml:space="preserve">
<style type="text/css">
	.st0{fill:#FFFFFF;stroke:#231F20;stroke-width:1.6039;stroke-miterlimit:10;}
	.st1{fill:#231F20;}
	.st2{fill:#FFFFFF;}
	.st3{fill:#282828;}
	.st4{font-family:'Futura-Medium';}
	.st5{font-size:40.5155px;}
	.st6{font-family:'Montserrat-Light';}
	.st7{font-size:27.1924px;}
	.st8{font-family:'Futura-CondensedExtraBold';}
	.st9{font-size:40.0692px;}
	.st10{fill:none;stroke:#B3B3B3;stroke-width:7.5423;stroke-miterlimit:10;}
	.st11{fill:none;stroke:#282828;stroke-width:7.0482;stroke-miterlimit:10;}
</style>
<rect x="-19.1" y="-18" class="st0" width="1759.4" height="789.9"/>
<g>
	<path class="st1" d="M285.8,371.2c3.1-0.1,6.3-0.6,9.3-1.2c5.1-1.1,9.4-3.7,12.8-7.8c2.8-3.5,4.4-7.4,5.6-11.8
		c1.9-7.5,2-15.3,1.5-22.9c0-0.2-0.1-0.3-0.1-0.6c-13.7,0-27.4,0-41.1,0c0-0.9,0-1.8,0-2.7c13.7,0,27.2,0,40.8,0c0-0.4,0-0.6,0-0.8
		c-0.7-2.9-1.2-5.9-2.2-8.8c-2.2-6.1-6.1-10.7-12.4-13c-5-1.8-10.2-2.2-15.5-1.8c-2.5,0.2-5.1,0.7-7.5,1.4
		c-6.1,2-10.3,6.3-13.3,11.8c-2.2,4.1-3.7,8.4-4.8,12.8c-1.9,7.1-3.4,14.2-4.2,21.5c-0.6,5.1-0.9,10.3-1.2,15.4
		c-0.2,2.9,0,5.8,0,8.8L285.8,371.2z"/>
	<path class="st1" d="M310.7,280c-21.6,0-41.5,7.2-57.4,19.3c0,0,0,0,0.1,0c0,12.5,0,25.1,0,37.5h0.1c0.4-2.1,0.7-4.2,1.1-6.3
		c1.7-8.1,4.4-15.8,9.1-22.7c4.1-5.9,9.7-9.4,16.9-10.5c4.3-0.7,8.7-0.5,13-0.1c5.3,0.4,10.4,1.4,15.4,3.4
		c6.9,2.6,12.6,6.7,16.7,12.9c2,3,3.4,6.2,4.1,9.7c0.2,0.8,0.6,1,1.4,1c17.1,0,34,0,51.1,0c0.4,0,0.8,0,1.1,0c0,0.9,0,1.8,0,2.7
		c-15.7,0-31.4,0-47.1,0c0,37.2,0,74.4,0,111.6c-5.2,0-10.3,0-15.5,0c0-25,0-50,0-75c-0.2,0.1-0.3,0.1-0.4,0.2
		c-4.9,4.4-10.7,6.8-17.1,8.3c-5,1.2-10,1.9-15.1,1.9c-11.3,0.2-22.6,0.2-33.8,0.2c-0.4,0-0.7,0-1.1,0c0,13.2,0,26.3,0,39.5
		c-5.2,0-10.4,0-15.6,0c0-33.2,0-66.4,0-99.7c-13.9,16.5-22.2,37.8-22.2,61c0,52.5,42.5,95,95,95s95-42.5,95-95S363.2,280,310.7,280
		z"/>
	<path class="st2" d="M253.5,413.7c0-13.2,0-26.3,0-39.5c0.5,0,0.8,0,1.1,0c11.3-0.1,22.6,0,33.8-0.2c5.1-0.1,10.1-0.8,15.1-1.9
		c6.3-1.5,12.2-3.9,17.1-8.3c0.1-0.1,0.2-0.1,0.4-0.2c0,25.1,0,50.1,0,75c5.2,0,10.3,0,15.5,0c0-37.2,0-74.4,0-111.6
		c15.7,0,31.4,0,47.1,0c0-0.9,0-1.8,0-2.7c-0.4,0-0.8,0-1.1,0c-17.1,0-34,0-51.1,0c-0.8,0-1.2-0.2-1.4-1c-0.8-3.5-2.3-6.7-4.1-9.7
		c-4.1-6.2-9.9-10.3-16.7-12.9c-4.9-1.9-10.1-3-15.4-3.4c-4.3-0.3-8.7-0.5-13,0.1c-7.2,1-12.8,4.5-16.9,10.5
		c-4.7,6.9-7.4,14.7-9.1,22.7c-0.5,2.1-0.8,4.2-1.1,6.3h-0.1c0-12.5,0-25,0-37.5c0,0,0,0-0.1,0c-5.7,4.3-10.8,9.2-15.4,14.7
		c0,33.3,0,66.5,0,99.7C243.1,413.7,248.2,413.7,253.5,413.7z M253.4,362.5c0.3-5.1,0.7-10.3,1.2-15.4c0.8-7.3,2.3-14.4,4.2-21.5
		c1.2-4.4,2.6-8.8,4.8-12.8c3-5.5,7.2-9.8,13.3-11.8c2.5-0.8,5-1.2,7.5-1.4c5.3-0.3,10.5,0,15.5,1.8c6.3,2.3,10.3,6.9,12.4,13
		c1,2.8,1.5,5.8,2.2,8.8c0.1,0.2,0,0.5,0,0.8c-13.6,0-27.2,0-40.8,0c0,0.9,0,1.8,0,2.7c13.7,0,27.3,0,41.1,0
		c0.1,0.3,0.1,0.5,0.1,0.6c0.5,7.7,0.4,15.4-1.5,22.9c-1,4.2-2.7,8.3-5.6,11.8c-3.3,4.1-7.7,6.6-12.8,7.8c-3,0.7-6.2,1.2-9.3,1.2
		l-32.4,0.1C253.4,368.3,253.2,365.4,253.4,362.5z"/>
</g>
<g>
	<text transform="matrix(1 0 0 1 505.0538 369.3174)" class="st3 st4 st5">Paola Torres </text>
	<text transform="matrix(1 0 0 1 503.7067 409.2637)" class="st3 st6 st7">Graphic Designer </text>
</g>
<text transform="matrix(1 0 0 1 986.0797 386.1619)" class="st3 st8 st9">WELCOME TO MY PORTFOLIO! </text>
<line class="st10" x1="850" y1="258.5" x2="850" y2="491.5"/>
<rect x="120.7" y="78.2" class="st11" width="1458.5" height="593.6"/>
</svg>
