<?xml version="1.0" encoding="utf-8"?>
<!-- Generator: Adobe Illustrator 26.5.0, SVG Export Plug-In . SVG Version: 6.00 Build 0)  -->
<svg version="1.1" id="Layer_1" xmlns="http://www.w3.org/2000/svg" xmlns:xlink="http://www.w3.org/1999/xlink" x="0px" y="0px"
	 viewBox="0 0 1700 750" style="enable-background:new 0 0 1700 750;" xml:space="preserve">
<style type="text/css">
	.st0{fill:#FFFFFF;stroke:#231F20;stroke-width:1.6039;stroke-miterlimit:10;}
	.st1{opacity:0.5;}
	.st2{clip-path:url(#SVGID_00000153682157639572304040000012544920855633773759_);fill:#FFFFFF;}
	.st3{clip-path:url(#SVGID_00000114046377511155122630000007552307975828980394_);fill:#FFFFFF;}
	.st4{clip-path:url(#SVGID_00000111911403690171195400000013456282387213781156_);fill:#FFFFFF;}
	.st5{clip-path:url(#SVGID_00000111911403690171195400000013456282387213781156_);fill:#F9F9F9;}
	.st6{clip-path:url(#SVGID_00000111911403690171195400000013456282387213781156_);fill:#D2D0D0;}
	.st7{clip-path:url(#SVGID_00000111911403690171195400000013456282387213781156_);fill:#D9D9D9;}
	.st8{clip-path:url(#SVGID_00000078039944026471905360000010054550145541028016_);fill:#D2D0D0;}
	.st9{clip-path:url(#SVGID_00000130632357006183192320000014676855759179080885_);fill:#BBB7B7;}
	.st10{clip-path:url(#SVGID_00000004525825536164191870000004123464051241139854_);fill:#8C8787;}
	.st11{clip-path:url(#SVGID_00000171685398077956400850000016201474393937247399_);fill:#8C8787;}
	.st12{opacity:0.24;fill-rule:evenodd;clip-rule:evenodd;fill:none;}
	.st13{fill:#231F20;}
	.st14{fill:#FFFFFF;}
	.st15{fill:#282828;}
	.st16{font-family:'Futura-Medium';}
	.st17{font-size:44.6643px;}
	.st18{font-family:'Montserrat-Light';}
	.st19{font-size:29.9769px;}
	.st20{font-family:'Futura-CondensedExtraBold';}
	.st21{font-size:43px;}
	.st22{fill:#B3B3B3;stroke:#282828;stroke-width:8.6074;stroke-miterlimit:10;}
	.st23{fill:none;stroke:#282828;stroke-width:7.0482;stroke-miterlimit:10;}
</style>
<g class="st1">
	<g>
		<defs>
			<rect id="SVGID_1_" x="-104" y="-49.6" width="1895.3" height="992"/>
		</defs>
		<clipPath id="SVGID_00000120516449783317684360000008709561101816519041_">
			<use xlink:href="#SVGID_1_"  style="overflow:visible;"/>
		</clipPath>
		
			<rect x="-104" y="-49.6" style="clip-path:url(#SVGID_00000120516449783317684360000008709561101816519041_);fill:#FFFFFF;" width="1895.3" height="992"/>
	</g>
	<g>
		<defs>
			<rect id="SVGID_00000163032522453076532850000000071108205327446925_" x="-104" y="-49.6" width="1895.3" height="992"/>
		</defs>
		<clipPath id="SVGID_00000054241876565344053770000014943667707388594063_">
			<use xlink:href="#SVGID_00000163032522453076532850000000071108205327446925_"  style="overflow:visible;"/>
		</clipPath>
		
			<rect x="-104" y="-49.6" style="clip-path:url(#SVGID_00000054241876565344053770000014943667707388594063_);fill:#FFFFFF;" width="1895.3" height="992"/>
	</g>
	<g>
		<defs>
			<rect id="SVGID_00000170967977268571035420000016267283649738975906_" x="-104" y="-49.6" width="1895.3" height="992"/>
		</defs>
		<clipPath id="SVGID_00000168828769827304100140000015958767369160051357_">
			<use xlink:href="#SVGID_00000170967977268571035420000016267283649738975906_"  style="overflow:visible;"/>
		</clipPath>
		<path style="clip-path:url(#SVGID_00000168828769827304100140000015958767369160051357_);fill:#FFFFFF;" d="M546.5,216.6
			l123,114.3L969.7,52l53.2,49.5L722.8,380.4l123.9,115.1l-0.4,0.4L696.2,635.1c2.9-2.3,5.4-5.1,7.9-7.8
			c31.2-32.4,49-72.2,53.2-112.7c1.2-12.5,1.2-25.4,0-37.8c-4.6-43.3-24.1-85.4-59.4-118.6c-0.8-0.8-1.2-1.2-1.7-2
			c-0.8-0.8-1.2-1.2-2.1-1.6c-83.1-75.3-216.1-74.9-298.4,1.6c-77.7,72.2-82.7,186.8-14.5,264.1c4.6,5.1,9.1,10.1,14.5,14.8
			c5,4.7,10.4,9.4,15.8,13.3c80.6,61.2,197.9,58.9,276-6.2c2.9-2.3,5.8-4.7,8.3-7.4L545.7,774.3l-0.4-0.4l-0.8-0.8L245.2,495.1
			l0.8-0.8L546.5,216.6z M1599.8,353.1c81.5-76.8,81.1-200.9-1.2-277.7L1748.6,215l-150.1,139.2
			C1599,353.9,1599.4,353.5,1599.8,353.1z M1598.1,354.6l-150.1,139.6L1298,354.6c82.7,76.4,216.1,76.8,299.3,1.2
			C1597.3,355,1597.7,355,1598.1,354.6z M1298,75.4c-83.1,77.2-83.1,202,0,278.9L1148,214.6l174.6-161.9l124.7-115.8l1.2-1.2
			l1.2,1.2l101.4,94.8l47,43.7C1515.4-1.5,1380.8-1.5,1298,75.4z M245.2,494.7l-0.8,0.8h-351.6V265.7l52.8-49.1L245.2,494.7z
			 M1802.6,164.7V215h-54L1802.6,164.7z M246.4,215h128.9L246.4,334.8L117.6,215H246.4z M1276.4,495.4l-128.9,119.7l-128.9-119.7
			h128.9H1276.4z M1695,725.2l52.8,49.1l0.4,0.4l-300.1,278.9l-53.2-49.1L1695,725.2z M1570.7,610.1l53.2,49.5l-300.1,278.9
			l-53.2-49.5L1570.7,610.1z M1147.6,774.3l300.1-278.5l53.2,49.1l-300.5,278.9l-53.2-49.5H1147.6z M-1.3,163.9l-53.2,49.5
			l-52.8-49.1v-0.4V65.6L-1.3,163.9z M69.4,98L-104-62.7H2.4L122.6,48.9l0.4,0.4L69.4,98z M225.7-44.8l-32.8,28.5l-49.9-46.4h99.8
			l1.7-1.6l0.8,0.8l-0.8,0.8L225.7-44.8z M794.3,445.9L1094.8,167l52.8,49.1L847.5,495.1L794.3,445.9z M599.7,265.7L900.3-13.2
			l-53.2-49.5L546.5,216.2L599.7,265.7z"/>
		<path style="clip-path:url(#SVGID_00000168828769827304100140000015958767369160051357_);fill:#F9F9F9;" d="M412.3,648.3
			c-5.4-4.3-10.8-8.6-15.8-13.3c-5-4.7-10-9.8-14.5-14.8c-68.2-77.6-63.6-191.9,14.5-264.1l300.1,278.5l0.4,0.4
			c-2.9,2.3-5.4,5.1-8.3,7.4C610.5,707.6,492.9,709.6,412.3,648.3z M1802.6,824.6v229h-353.7L1749,774.7L1802.6,824.6z M1270.2,889
			l53.2,49.5l123.9,115.1H846.6l300.1-278.9L1270.2,889z M-107.3,824.6l53.6-49.9l300.1,278.5l300.1-278.5l300.1,278.9H246.4
			l-0.4,0.4l-0.4-0.4h-353.3v-229H-107.3z M546.5,774.3L697,635.1l150.1-139.2l300.1,278.9l-300.5,278.9L546.5,774.3z M1448.1,493.9
			l150.1-139.6c-0.4,0.4-0.8,0.8-1.2,1.2c-83.1,75.7-216.6,75.7-299.3-1.2c-83.1-77.2-83.1-202,0-278.9l300.5,278.9L1748.6,215
			l54,50.3v457.5l-54,50.3L1448.1,493.9z M374.9,215H246H117.2L246,95.3L374.9,215z M546.5,216.2l-0.8-0.8L246-63.1l0.8-0.8l0.8,0.8
			h599.4L546.5,216.2z M246,1052L-53.7,773.9l-0.8-0.8l298.4-277.3l0.8-0.8l0.8-0.8l0.8,0.8l-0.8,0.8l299.3,278.1L246,1052z
			 M1748.6,215L1598.6,75.4l-47.4-44.1l41.6,38.6c39.5-36.7,59.4-84.6,59.9-132.6h150.1v216.1C1787.3,175.2,1769,195.9,1748.6,215z
			 M1276.4,495.4h-128.9h-128.9l128.9-119.7L1276.4,495.4z M1322.1,53.1l124.7-115.8H1244h-220.7c0.4,100.6,42,200.9,124.3,277.7
			L1322.1,53.1z"/>
		<path style="clip-path:url(#SVGID_00000168828769827304100140000015958767369160051357_);fill:#D2D0D0;" d="M694.9,354.3
			c0.8,0.4,1.2,1.2,2.1,1.6c0.8,0.8,1.2,1.2,1.7,2c34.9,33.5,54.9,75.7,59.4,118.6c1.2,12.5,1.2,25.4,0,37.8
			c-0.4,3.5-0.8,7-1.2,10.5c-5.8,37.1-23.3,72.9-52,102.6c-2.5,2.7-5,5.1-7.9,7.8l-0.4-0.4L396.5,355.8
			C478.8,279.8,611.8,279,694.9,354.3z M1608.5,85.5c1.7,1.6,2.9,3.1,4.6,5.1c0.8,0.8,1.2,1.6,2.1,2.7c1.7,1.6,2.9,3.5,4.2,5.1
			c0.4,0.8,0.8,1.2,1.7,2c1.7,2,2.9,3.9,4.6,6.2c0.4,0.8,0.8,1.6,1.7,2.3c1.2,2,2.9,3.9,4.2,5.9c0,0.4,0.4,0.8,0.4,1.2
			c1.2,2.3,2.9,4.7,4.2,7c0.4,0.4,0.4,0.8,0.8,1.2c1.2,2.3,2.9,5.1,4.2,7.4c0.4,0.8,0.4,1.2,0.8,2c1.2,2.3,2.1,4.7,3.3,6.6
			c0.4,0.4,0.4,0.8,0.4,1.6c1.2,2.3,2.1,5.1,2.9,7.4c0,0.4,0,0.4,0.4,0.8c3.3,9,5.8,17.6,7.9,26.9c0,0.4,0,1.2,0.4,1.6
			c7.5,36.3,3.7,74.1-10.8,108.4c0,0.4-0.4,0.8-0.4,1.2c-2.1,5.1-4.6,10.1-7.1,14.8c-0.4,0.8-0.8,1.6-1.2,2.7
			c-0.8,2-2.1,3.5-3.3,5.5c-0.4,1.2-1.2,2-1.7,3.1c-1.2,2-2.5,3.5-3.7,5.5c-0.8,0.8-1.2,2-2.1,2.7c-1.2,1.6-2.5,3.1-3.3,4.7
			c-0.8,1.2-1.7,2.3-2.5,3.5c-1.2,1.6-2.5,2.7-3.7,4.3c-0.8,1.2-2.1,2.3-2.9,3.5c-1.2,1.6-2.5,2.7-3.7,4.3c-1.2,1.2-2.1,2.3-2.9,3.5
			c-1.2,1.6-2.5,2.7-4.2,3.9c-1.2,1.2-2.1,2.3-3.3,3.5c-0.4,0.4-0.8,0.8-1.2,1.2L1298.5,75.8c83.1-77.2,217.4-77.2,300.5,0
			c0.8,0.8,2.1,2,2.9,2.7c1.7,1.6,2.9,3.1,4.6,4.3C1606.9,83.6,1607.7,84.7,1608.5,85.5z M-54.1,774.3l-53.2,49.9v-99.1L-54.1,774.3
			z M246.4,493.9V334.4l128.9-119.7L246.4,94.9V-62.7l299.7,278.5L246.4,493.9z M1447.7,495.4l-300.1,278.5v-0.4V614.4l128.9-119.7
			l-128.9-119.7V216.2L1447.7,495.4z M1023.3-62.7c0.4,100.6,42,200.9,124.3,277.7L848.7-62.7H1023.3z M-107.3,264.2v-98.7
			l53.2,49.1L-107.3,264.2z M1747.8,774.3l-52.8-49.1l-300.5,278.9l-71.1-65.9l300.1-278.9l-53.2-49.5l-300.1,278.9l-70.2-65.1
			L1500.9,545l-53.2-49.1L1747.8,774.3z M-103.5-62.7L69.8,98l-71.1,65.9l-106-98.7V-62.7H-103.5z M142.9-62.7l49.9,46.4l-70.2,65.1
			L2.4-62.7H142.9z M1023.7,101.5L970.5,52L670.4,330.8l-70.2-65.1L900.3-13.2l247.3,229.7l-52.8-49.1L794.3,446.3l-71.1-65.9
			L1023.7,101.5z M246.4-63.9l-0.8,0.8l0.8,0.8l0.8-0.8L246.4-63.9z"/>
		<path style="clip-path:url(#SVGID_00000168828769827304100140000015958767369160051357_);fill:#D9D9D9;" d="M1802.6,824.2
			l-53.6-49.5l53.6-49.5V824.2z M244.4,495.4L-54.1,772.8l0.8,0.8l-0.8,0.8l-52.8-49.1v-0.4V495.4H244.4z M1802.6,215v50.3l-54-50.3
			H1802.6z M225.7-44.8l19.1-17.9l0.8-0.8l0.8,0.8v158L117.6,215l128.9,119.7v159.5L-54.1,215.4L225.7-44.8z M1147.6,216.2v159.5
			l-128.9,119.7l128.9,119.7v159.1v0.4L847.5,496.2L1147.6,216.2z M1592.7,69.9l-41.6-38.6l-101.4-94.4h202.4
			C1652.2-14.7,1632.2,33.3,1592.7,69.9z M1802.6,153.8c-15.4,21.8-33.7,42.1-54,61.2l54-50.3V153.8z"/>
	</g>
	<g>
		<defs>
			<rect id="SVGID_00000050625352475702017700000004366072288918465412_" x="656.1" y="634.7" width="458.6" height="307.7"/>
		</defs>
		<clipPath id="SVGID_00000034064100079083546150000008489802940540061372_">
			<use xlink:href="#SVGID_00000050625352475702017700000004366072288918465412_"  style="overflow:visible;"/>
		</clipPath>
		<path style="clip-path:url(#SVGID_00000034064100079083546150000008489802940540061372_);fill:#D2D0D0;" d="M885.8,755.2
			l104.9-97.1c-1.6-1-10.4-4.7-12.2-5.4l-92.7,85.8l-92.7-85.8c-3.3,1.1-8.5,3.7-12.2,5.4L885.8,755.2L885.8,755.2z"/>
		<path style="clip-path:url(#SVGID_00000034064100079083546150000008489802940540061372_);fill:#D2D0D0;" d="M885.8,705l66.3-61.4
			c-4.7-1.3-9.5-2.5-14.3-3.5l-52,48.1l-52-48.1c-4.8,1-9.6,2.2-14.3,3.5L885.8,705L885.8,705z"/>
		<path style="clip-path:url(#SVGID_00000034064100079083546150000008489802940540061372_);fill:#D2D0D0;" d="M885.8,654.8
			l20.9-19.3c-5.7-0.5-11.4-0.7-17.2-0.8l-3.7,3.4l-3.7-3.4c-3.6,0.3-12.8,0.3-17.2,0.8L885.8,654.8L885.8,654.8z"/>
		<path style="clip-path:url(#SVGID_00000034064100079083546150000008489802940540061372_);fill:#D2D0D0;" d="M885.8,805.4
			L885.8,805.4l118.4-109.6l103.3,95.6c4-23.6-65.2-76.3-103.3-112.3L885.8,788.6v0L767.4,679.1c-14.3,16.1-106.9,88.3-103.3,112.3
			l103.3-95.6L885.8,805.4z"/>
		<path style="clip-path:url(#SVGID_00000034064100079083546150000008489802940540061372_);fill:#D2D0D0;" d="M1114.8,831.7
			l-110.6-102.4L885.8,838.8v0L767.4,729.3L656.8,831.7c-0.4,5.7-0.8,11.5-0.6,17.3l111.2-103l118.4,109.6v0L1004.1,746l111.2,103
			C1115.5,843.2,1115.2,837.4,1114.8,831.7z"/>
	</g>
	<g>
		<defs>
			<rect id="SVGID_00000048460959896421834290000008862406234297097114_" x="339.7" y="-49.6" width="507.9" height="171.7"/>
		</defs>
		<clipPath id="SVGID_00000155838206940210754880000003572045677419525799_">
			<use xlink:href="#SVGID_00000048460959896421834290000008862406234297097114_"  style="overflow:visible;"/>
		</clipPath>
		<path style="clip-path:url(#SVGID_00000155838206940210754880000003572045677419525799_);fill:#BBB7B7;" d="M594-346.8
			c-4.1,0-8.2,0.1-12.3,0.3c-4.1,0.2-8.2,0.5-12.2,0.9c-4.1,0.4-8.1,0.8-12.2,1.4c-4,0.6-8.1,1.2-12.1,2c-4,0.7-8,1.6-12,2.5
			c-4,0.9-7.9,1.9-11.8,3.1c-3.9,1.1-7.8,2.3-11.7,3.6c-3.9,1.3-7.7,2.7-11.5,4.1c-3.8,1.5-7.5,3-11.2,4.6c-3.7,1.6-7.4,3.3-11,5.1
			c-3.6,1.8-7.2,3.7-10.7,5.6c-3.5,2-7,4-10.4,6.1s-6.7,4.3-10,6.6c-3.3,2.3-6.5,4.6-9.7,7c-3.2,2.4-6.3,4.9-9.3,7.5
			c-3,2.6-6,5.2-8.9,7.9c-2.9,2.7-5.7,5.5-8.5,8.3c-2.7,2.8-5.4,5.7-8,8.7c-2.6,2.9-5.1,5.9-7.6,9c-2.4,3.1-4.8,6.2-7.1,9.3
			c-2.3,3.2-4.5,6.4-6.6,9.7c-2.1,3.3-4.1,6.6-6.1,9.9c-1.9,3.4-3.8,6.8-5.5,10.2c-1.8,3.4-3.4,6.9-5,10.4c-1.6,3.5-3,7.1-4.4,10.7
			c-1.4,3.6-2.7,7.2-3.9,10.8c-1.2,3.6-2.3,7.3-3.3,11c-1,3.7-1.9,7.4-2.7,11.1c-0.8,3.7-1.5,7.5-2.1,11.3
			c-0.6,3.8-1.1,7.5-1.5,11.3s-0.7,7.6-0.9,11.4c-0.2,3.8-0.3,7.6-0.3,11.4c0,9.9,0.7,19.8,2,29.6c1.5,10.7,3.7,21.3,6.8,31.7
			c5.6,19.1,13.6,37.2,24.2,54.4c6.9,11.2,14.8,21.8,23.6,31.7c9.2,10.4,19.2,20,30.2,28.8c14.7,11.9,30.7,22,47.9,30.3
			c4.4,2.1,8.9,4.2,13.5,6.1s9.2,3.7,13.9,5.3c4.7,1.6,9.4,3.1,14.2,4.5c4.8,1.4,9.6,2.6,14.5,3.7c4.9,1.1,9.8,2.1,14.7,2.9
			c4.9,0.8,9.9,1.5,14.8,2.1c5,0.6,10,1,15,1.3c5,0.3,10,0.4,15,0.4s10-0.1,15-0.4c5-0.3,10-0.7,15-1.3c5-0.6,9.9-1.3,14.8-2.1
			c4.9-0.8,9.8-1.8,14.7-2.9c4.9-1.1,9.7-2.3,14.5-3.7c4.8-1.4,9.5-2.9,14.2-4.5s9.3-3.4,13.9-5.3c4.6-1.9,9.1-3.9,13.5-6.1
			c17.3-8.4,33.2-18.5,47.9-30.3c10.7-8.6,20.6-18,29.6-28.2c9-10.2,17.1-21,24.1-32.4c5.1-8.3,9.6-16.8,13.6-25.5
			c4.2-9.4,7.8-19,10.6-28.8c3.1-10.4,5.3-21,6.7-31.7c0.6-4.1,1-8.2,1.3-12.3c0.3-4.1,0.5-8.2,0.6-12.3c0.1-4.1,0.1-8.2-0.1-12.4
			c-0.1-4.1-0.4-8.2-0.8-12.3c-0.4-4.1-0.9-8.2-1.5-12.3c-0.6-4.1-1.3-8.1-2.2-12.2c-0.8-4-1.8-8.1-2.9-12.1c-1.1-4-2.3-8-3.5-11.9
			c-1.3-3.9-2.7-7.8-4.2-11.7c-1.5-3.9-3.1-7.7-4.9-11.5c-1.7-3.8-3.6-7.5-5.5-11.2c-2-3.7-4-7.3-6.2-10.9
			c-2.2-3.6-4.4-7.1-6.8-10.6c-2.4-3.5-4.8-6.9-7.4-10.3c-2.6-3.4-5.2-6.7-8-9.9c-2.7-3.2-5.6-6.4-8.5-9.5c-2.9-3.1-5.9-6.1-9-9.1
			c-3.1-2.9-6.3-5.8-9.5-8.6c-3.3-2.8-6.6-5.5-10-8.1c-3.4-2.6-6.9-5.2-10.5-7.6c-3.6-2.5-7.2-4.8-10.9-7.1
			c-3.7-2.3-7.5-4.4-11.3-6.5c-3.8-2.1-7.7-4.1-11.6-6c-3.9-1.9-7.9-3.7-12-5.4c-4-1.7-8.1-3.3-12.2-4.8c-4.1-1.5-8.3-2.9-12.5-4.2
			c-4.2-1.3-8.4-2.5-12.7-3.6c-4.3-1.1-8.6-2.1-12.9-2.9c-4.3-0.9-8.7-1.6-13.1-2.3c-4.4-0.7-8.8-1.2-13.2-1.6
			c-4.4-0.4-8.8-0.8-13.2-1S598.5-346.8,594-346.8z M594,122.8c-10.2,0-20.3-0.6-30.4-1.7c-10.1-1.1-20.1-2.8-30-5.1
			c-9.9-2.2-19.6-5-29.1-8.4c-9.5-3.3-18.8-7.2-27.9-11.6c-17.5-8.5-33.8-18.8-48.7-30.8c-11.1-8.9-21.4-18.7-30.7-29.3
			c-9-10.1-16.9-20.9-24-32.3c-10.8-17.4-19-35.8-24.6-55.3c-3.1-10.6-5.4-21.4-6.9-32.3c-1.3-10-2-20-2-30c0-4,0.1-8.1,0.3-12.1
			c0.2-4,0.6-8,1-12.1c0.4-4,1-8,1.7-12c0.7-4,1.4-7.9,2.3-11.9c0.9-3.9,1.9-7.9,3-11.8c1.1-3.9,2.3-7.8,3.6-11.6s2.7-7.7,4.2-11.4
			c1.5-3.8,3.1-7.5,4.9-11.2s3.5-7.4,5.5-11c1.9-3.6,3.9-7.2,6.1-10.7c2.1-3.5,4.3-7,6.6-10.4c2.3-3.4,4.7-6.8,7.2-10.1
			c2.5-3.3,5.1-6.5,7.7-9.7c2.7-3.2,5.4-6.3,8.3-9.3c2.8-3,5.8-6,8.8-8.9c3-2.9,6.1-5.7,9.2-8.5c3.2-2.8,6.4-5.4,9.7-8
			c3.3-2.6,6.7-5.1,10.1-7.6c3.4-2.4,7-4.8,10.5-7.1s7.2-4.5,10.9-6.6c3.7-2.1,7.4-4.1,11.2-6c3.8-1.9,7.7-3.8,11.6-5.5
			c3.9-1.7,7.9-3.4,11.9-4.9c4-1.6,8-3,12.1-4.4c4.1-1.4,8.2-2.6,12.3-3.8s8.3-2.2,12.5-3.2s8.4-1.8,12.7-2.6
			c4.3-0.8,8.5-1.4,12.8-2c4.3-0.6,8.6-1,12.9-1.4c4.3-0.4,8.6-0.6,13-0.8c4.3-0.2,8.7-0.2,13-0.2c4.3,0.1,8.7,0.2,13,0.5
			s8.6,0.6,12.9,1.1c4.3,0.5,8.6,1,12.9,1.7c4.3,0.7,8.5,1.4,12.8,2.3c4.2,0.9,8.4,1.8,12.6,2.9c4.2,1.1,8.3,2.2,12.4,3.5
			c4.1,1.3,8.2,2.6,12.2,4.1c4,1.5,8,3,12,4.7c4,1.6,7.9,3.4,11.7,5.2c3.9,1.8,7.7,3.8,11.4,5.8c3.8,2,7.4,4.1,11.1,6.3
			c3.6,2.2,7.2,4.5,10.7,6.8c3.5,2.4,7,4.8,10.3,7.3c3.4,2.5,6.7,5.1,9.9,7.8c3.2,2.7,6.4,5.4,9.5,8.3c3.1,2.8,6.1,5.7,9,8.7
			c2.9,3,5.8,6,8.5,9.1s5.4,6.3,8,9.5c2.6,3.2,5.1,6.5,7.5,9.9c2.4,3.4,4.7,6.8,6.9,10.2c2.2,3.5,4.3,7,6.4,10.5
			c2,3.6,3.9,7.2,5.8,10.8c1.8,3.7,3.5,7.4,5.2,11.1c1.6,3.7,3.1,7.5,4.5,11.3c1.4,3.8,2.7,7.7,3.9,11.5c1.2,3.9,2.3,7.8,3.3,11.7
			c1,3.9,1.9,7.9,2.6,11.8c0.8,4,1.4,7.9,2,11.9c0.6,4,1,8,1.3,12c0.3,4,0.6,8,0.7,12.1c0.1,4,0.1,8.1,0,12.1s-0.3,8.1-0.7,12.1
			c-0.3,4-0.8,8-1.3,12c-1.5,10.9-3.7,21.7-6.9,32.3c-2.9,10-6.5,19.8-10.8,29.3c-4.1,8.9-8.7,17.5-13.8,25.9
			c-7.2,11.6-15.4,22.6-24.5,32.9c-9.2,10.3-19.2,19.9-30.1,28.7c-14.9,12.1-31.2,22.3-48.7,30.8c-9,4.4-18.3,8.2-27.9,11.6
			c-9.5,3.3-19.3,6.1-29.2,8.4c-9.9,2.2-19.9,3.9-30,5.1C614.4,122.2,604.2,122.8,594,122.8z"/>
		<path style="clip-path:url(#SVGID_00000155838206940210754880000003572045677419525799_);fill:#BBB7B7;" d="M594.1,122.8
			c-10.2,0-20.3-0.6-30.4-1.7c-10.1-1.1-20.1-2.8-30-5.1c-9.9-2.2-19.6-5-29.1-8.4c-9.5-3.3-18.8-7.2-27.9-11.6
			c-17.5-8.5-33.8-18.8-48.7-30.8c-11.1-8.9-21.4-18.7-30.7-29.3c-9-10.1-16.9-20.9-23.9-32.3c-10.8-17.4-19-35.8-24.6-55.3l4-1
			c5.5,19.1,13.6,37.2,24.2,54.4c6.9,11.2,14.8,21.8,23.6,31.7c9.2,10.4,19.2,20,30.2,28.8c5.6,4.5,11.4,8.8,17.5,12.8
			c6,4,12.2,7.8,18.6,11.3c6.4,3.5,12.9,6.8,19.6,9.8c6.7,3,13.5,5.7,20.5,8.1c7,2.4,14,4.5,21.2,6.4c7.2,1.8,14.4,3.3,21.7,4.6
			c7.3,1.2,14.7,2.1,22.1,2.7c7.4,0.6,14.8,0.9,22.2,0.9c10,0,20-0.6,30-1.7c10-1.1,19.8-2.8,29.5-5c9.7-2.2,19.3-5,28.7-8.2
			c9.4-3.3,18.5-7.1,27.4-11.4c17.3-8.4,33.2-18.5,47.9-30.3c10.7-8.6,20.6-18,29.6-28.2c9-10.2,17.1-21,24.1-32.4
			c5.1-8.3,9.6-16.8,13.6-25.5c4.2-9.4,7.8-19,10.6-28.8c3-10.4,5.3-20.9,6.7-31.5c-0.5-3.5-1-6.9-1.7-10.4
			c-0.6-3.4-1.4-6.9-2.2-10.3c-0.8-3.4-1.7-6.8-2.7-10.2c-1-3.4-2-6.7-3.2-10.1c-1.1-3.3-2.4-6.6-3.7-9.9c-1.3-3.3-2.7-6.5-4.1-9.8
			c-1.5-3.2-3-6.4-4.6-9.6c-1.6-3.2-3.3-6.3-5.1-9.4c-1.8-3.1-3.6-6.1-5.5-9.2c-1.9-3-3.9-6-6-8.9c-2.1-2.9-4.2-5.8-6.4-8.7
			c-2.2-2.8-4.5-5.6-6.8-8.4c-2.3-2.7-4.7-5.4-7.2-8.1c-2.5-2.6-5-5.2-7.6-7.8c-2.6-2.5-5.2-5-8-7.5c-2.7-2.4-5.5-4.8-8.3-7.1
			c-2.8-2.3-5.7-4.6-8.6-6.8c-2.9-2.2-5.9-4.3-9-6.4c-3-2.1-6.1-4.1-9.3-6c-3.1-1.9-6.3-3.8-9.5-5.6s-6.5-3.5-9.8-5.2
			c-3.3-1.7-6.7-3.3-10-4.8c-3.4-1.5-6.8-3-10.3-4.4c-3.5-1.4-6.9-2.7-10.5-3.9c-3.5-1.2-7.1-2.4-10.6-3.5c-3.6-1.1-7.2-2.1-10.8-3
			c-3.6-0.9-7.3-1.8-10.9-2.6c-3.7-0.8-7.4-1.5-11.1-2.1c-3.7-0.6-7.4-1.2-11.1-1.6c-3.7-0.5-7.5-0.9-11.2-1.2
			c-3.7-0.3-7.5-0.5-11.3-0.7c-3.8-0.2-7.5-0.2-11.3-0.2s-7.5,0.1-11.3,0.2c-3.8,0.2-7.5,0.4-11.3,0.7c-3.7,0.3-7.5,0.7-11.2,1.2
			c-3.7,0.5-7.4,1-11.1,1.7c-3.7,0.6-7.4,1.3-11.1,2.1c-3.7,0.8-7.3,1.6-10.9,2.6s-7.2,2-10.8,3c-3.6,1.1-7.1,2.3-10.6,3.5
			c-3.5,1.2-7,2.5-10.5,3.9c-3.5,1.4-6.9,2.8-10.3,4.4c-3.4,1.5-6.7,3.1-10,4.8c-3.3,1.7-6.6,3.4-9.8,5.2c-3.2,1.8-6.4,3.7-9.5,5.6
			s-6.2,3.9-9.3,6c-3,2.1-6,4.2-9,6.4c-2.9,2.2-5.8,4.4-8.6,6.8c-2.8,2.3-5.6,4.7-8.3,7.1c-2.7,2.4-5.4,4.9-7.9,7.5
			c-2.6,2.5-5.1,5.1-7.6,7.8s-4.9,5.3-7.2,8.1c-2.3,2.7-4.6,5.5-6.8,8.4c-2.2,2.8-4.3,5.7-6.4,8.7c-2.1,2.9-4,5.9-6,8.9
			c-1.9,3-3.7,6.1-5.5,9.2c-1.8,3.1-3.5,6.2-5.1,9.4c-1.6,3.2-3.1,6.4-4.6,9.6c-1.5,3.2-2.8,6.5-4.1,9.8c-1.3,3.3-2.5,6.6-3.7,9.9
			c-1.1,3.3-2.2,6.7-3.2,10.1c-1,3.4-1.9,6.8-2.7,10.2c-0.8,3.4-1.5,6.9-2.2,10.3c-0.6,3.4-1.2,6.9-1.7,10.4l-4.1-0.5
			c0.5-3.5,1.1-7.1,1.7-10.6c0.7-3.5,1.4-7,2.2-10.5c0.8-3.5,1.7-6.9,2.7-10.4c1-3.4,2.1-6.9,3.2-10.2c1.2-3.4,2.4-6.8,3.7-10.1
			c1.3-3.3,2.7-6.7,4.2-9.9s3-6.5,4.7-9.7c1.6-3.2,3.4-6.4,5.2-9.5c1.8-3.1,3.7-6.2,5.6-9.3c1.9-3.1,4-6.1,6.1-9.1
			c2.1-3,4.3-5.9,6.5-8.8c2.2-2.9,4.5-5.7,6.9-8.5c2.4-2.8,4.8-5.5,7.3-8.2c2.5-2.7,5.1-5.3,7.7-7.9c2.6-2.6,5.3-5.1,8.1-7.6
			c2.8-2.5,5.6-4.9,8.4-7.2c2.9-2.4,5.8-4.6,8.8-6.9c3-2.2,6-4.4,9.1-6.5c3.1-2.1,6.2-4.1,9.4-6.1c3.2-2,6.4-3.9,9.7-5.7
			c3.3-1.8,6.6-3.6,10-5.3c3.4-1.7,6.8-3.3,10.2-4.9c3.4-1.6,6.9-3,10.4-4.4c3.5-1.4,7.1-2.7,10.6-4c3.6-1.3,7.2-2.4,10.8-3.5
			c3.6-1.1,7.3-2.1,11-3.1c3.7-1,7.4-1.8,11.1-2.6c3.7-0.8,7.5-1.5,11.2-2.2c3.8-0.6,7.5-1.2,11.3-1.7c3.8-0.5,7.6-0.9,11.4-1.2
			c3.8-0.3,7.6-0.6,11.4-0.7c3.8-0.2,7.6-0.2,11.5-0.2c3.8,0,7.6,0.1,11.5,0.2c3.8,0.2,7.6,0.4,11.4,0.7c3.8,0.3,7.6,0.7,11.4,1.2
			c3.8,0.5,7.6,1,11.3,1.7c3.8,0.6,7.5,1.4,11.2,2.2c3.7,0.8,7.4,1.7,11.1,2.6c3.7,1,7.3,2,11,3.1c3.6,1.1,7.2,2.3,10.8,3.5
			c3.6,1.3,7.1,2.6,10.6,4c3.5,1.4,7,2.9,10.4,4.4c3.4,1.6,6.8,3.2,10.2,4.9c3.4,1.7,6.7,3.5,10,5.3c3.3,1.8,6.5,3.7,9.7,5.7
			c3.2,2,6.3,4,9.4,6.1c3.1,2.1,6.1,4.3,9.1,6.5c3,2.2,5.9,4.5,8.8,6.9c2.9,2.4,5.7,4.8,8.4,7.2c2.8,2.5,5.4,5,8.1,7.6
			c2.6,2.6,5.2,5.2,7.7,7.9c2.5,2.7,4.9,5.4,7.3,8.2c2.4,2.8,4.7,5.6,6.9,8.5c2.2,2.9,4.4,5.8,6.5,8.8c2.1,3,4.1,6,6.1,9.1
			c1.9,3.1,3.8,6.2,5.6,9.3c1.8,3.1,3.5,6.3,5.2,9.5c1.6,3.2,3.2,6.5,4.7,9.7c1.5,3.3,2.9,6.6,4.2,9.9c1.3,3.3,2.6,6.7,3.7,10.1
			c1.2,3.4,2.2,6.8,3.2,10.2c1,3.4,1.9,6.9,2.7,10.4c0.8,3.5,1.6,7,2.2,10.5c0.7,3.5,1.2,7,1.7,10.6l0,0.2l0,0.2
			c-1.5,10.9-3.7,21.7-6.9,32.3c-2.9,10-6.5,19.8-10.8,29.3c-4.1,8.9-8.7,17.5-13.8,25.9c-7.2,11.6-15.4,22.6-24.5,32.9
			c-9.2,10.3-19.2,19.9-30.1,28.7c-14.9,12.1-31.2,22.3-48.7,30.8c-9,4.4-18.3,8.2-27.9,11.6c-9.5,3.3-19.3,6.1-29.2,8.4
			c-9.9,2.2-19.9,3.9-30,5.1C614.4,122.2,604.2,122.8,594.1,122.8z"/>
		<path style="clip-path:url(#SVGID_00000155838206940210754880000003572045677419525799_);fill:#BBB7B7;" d="M352.7-52.1
			c5.5,18.9,13.6,36.9,24.1,53.9c6.9,11.2,14.8,21.8,23.6,31.7c9.2,10.4,19.2,20,30.2,28.8c5.6,4.5,11.4,8.8,17.5,12.8
			c6,4,12.2,7.8,18.6,11.3c6.4,3.5,12.9,6.8,19.6,9.8c6.7,3,13.5,5.7,20.5,8.1c7,2.4,14,4.5,21.2,6.4c7.2,1.8,14.4,3.3,21.7,4.6
			c7.3,1.2,14.7,2.1,22.1,2.7c7.4,0.6,14.8,0.9,22.2,0.9c10,0,20-0.6,30-1.7c10-1.1,19.8-2.8,29.5-5c9.7-2.2,19.3-5,28.7-8.2
			c9.4-3.3,18.5-7.1,27.4-11.4c17.3-8.4,33.2-18.5,47.9-30.3c10.7-8.6,20.6-18,29.6-28.2c9-10.2,17.1-21,24.1-32.4
			c5.1-8.3,9.6-16.8,13.6-25.5c4.1-9.2,7.6-18.7,10.5-28.3c-0.9-3-1.9-6.1-2.9-9.1c-1-3-2.1-6-3.3-9c-1.2-3-2.4-5.9-3.7-8.8
			c-1.3-2.9-2.6-5.8-4.1-8.7c-1.4-2.9-2.9-5.7-4.4-8.5c-1.5-2.8-3.1-5.6-4.8-8.4c-1.7-2.8-3.4-5.5-5.2-8.2c-1.8-2.7-3.6-5.3-5.5-8
			c-1.9-2.6-3.9-5.2-5.9-7.7c-2-2.5-4.1-5-6.2-7.5c-2.1-2.5-4.3-4.9-6.5-7.3c-2.2-2.4-4.5-4.7-6.8-7c-2.3-2.3-4.7-4.5-7.1-6.8
			c-2.4-2.2-4.9-4.4-7.4-6.5c-2.5-2.1-5.1-4.2-7.7-6.2c-2.6-2-5.3-4-8-5.9c-2.7-1.9-5.4-3.8-8.2-5.6c-2.8-1.8-5.6-3.6-8.5-5.3
			c-2.9-1.7-5.8-3.4-8.7-4.9c-2.9-1.6-5.9-3.1-8.9-4.6c-3-1.5-6-2.9-9.1-4.3c-3.1-1.4-6.2-2.7-9.3-3.9c-3.1-1.3-6.3-2.4-9.4-3.6
			c-3.2-1.1-6.4-2.2-9.6-3.2c-3.2-1-6.5-2-9.7-2.8c-3.3-0.9-6.5-1.7-9.8-2.5c-3.3-0.8-6.6-1.5-9.9-2.1c-3.3-0.6-6.7-1.2-10-1.7
			c-3.4-0.5-6.7-1-10.1-1.3c-3.4-0.4-6.7-0.7-10.1-1c-3.4-0.3-6.8-0.4-10.2-0.6c-3.4-0.1-6.8-0.2-10.2-0.2c-3.4,0-6.8,0.1-10.2,0.2
			c-3.4,0.1-6.8,0.3-10.2,0.6c-3.4,0.3-6.8,0.6-10.1,1c-3.4,0.4-6.7,0.8-10.1,1.3c-3.4,0.5-6.7,1.1-10,1.7c-3.3,0.6-6.6,1.3-9.9,2.1
			c-3.3,0.8-6.6,1.6-9.8,2.5c-3.3,0.9-6.5,1.8-9.7,2.8c-3.2,1-6.4,2.1-9.6,3.2c-3.2,1.1-6.3,2.3-9.4,3.6c-3.1,1.3-6.2,2.6-9.3,3.9
			c-3.1,1.4-6.1,2.8-9.1,4.3c-3,1.5-6,3-8.9,4.6c-2.9,1.6-5.8,3.2-8.7,4.9c-2.9,1.7-5.7,3.5-8.5,5.3s-5.5,3.7-8.2,5.6
			c-2.7,1.9-5.4,3.9-8,5.9c-2.6,2-5.2,4.1-7.7,6.2c-2.5,2.1-5,4.3-7.4,6.5s-4.8,4.5-7.1,6.8c-2.3,2.3-4.6,4.6-6.8,7
			c-2.2,2.4-4.4,4.8-6.5,7.3c-2.1,2.5-4.2,5-6.2,7.5c-2,2.5-4,5.1-5.9,7.7c-1.9,2.6-3.7,5.3-5.5,8c-1.8,2.7-3.5,5.4-5.2,8.2
			s-3.3,5.5-4.8,8.4c-1.5,2.8-3,5.7-4.4,8.5c-1.4,2.9-2.8,5.8-4.1,8.7c-1.3,2.9-2.5,5.9-3.7,8.8c-1.2,3-2.3,6-3.3,9
			C354.6-58.2,353.6-55.1,352.7-52.1z M594,122.8c-10.2,0-20.3-0.6-30.4-1.7c-10.1-1.1-20.1-2.8-30-5.1c-9.9-2.2-19.6-5-29.1-8.4
			c-9.5-3.3-18.8-7.2-27.9-11.6c-17.5-8.5-33.8-18.8-48.7-30.8c-11.1-8.9-21.4-18.7-30.7-29.3c-9-10.1-16.9-20.9-24-32.3
			c-10.8-17.4-19-35.8-24.6-55.3l-0.1-0.5l0.1-0.5c0.9-3.1,1.9-6.2,2.9-9.3c1-3.1,2.2-6.1,3.3-9.1c1.2-3,2.4-6,3.7-9
			c1.3-3,2.7-5.9,4.1-8.9s2.9-5.8,4.5-8.7c1.6-2.9,3.2-5.7,4.9-8.5c1.7-2.8,3.4-5.6,5.3-8.3c1.8-2.7,3.7-5.4,5.6-8.1
			c1.9-2.7,3.9-5.3,6-7.9c2-2.6,4.1-5.1,6.3-7.7c2.2-2.5,4.4-5,6.6-7.4s4.6-4.8,7-7.2c2.4-2.3,4.8-4.6,7.3-6.9
			c2.5-2.2,5-4.5,7.6-6.6c2.6-2.2,5.2-4.3,7.8-6.3c2.7-2.1,5.4-4.1,8.1-6c2.7-2,5.5-3.9,8.4-5.7c2.8-1.8,5.7-3.6,8.6-5.4
			c2.9-1.7,5.9-3.4,8.8-5c3-1.6,6-3.2,9.1-4.7c3.1-1.5,6.1-3,9.3-4.4c3.1-1.4,6.3-2.7,9.4-4c3.2-1.3,6.4-2.5,9.6-3.6
			c3.2-1.2,6.5-2.2,9.8-3.3c3.3-1,6.6-2,9.9-2.9c3.3-0.9,6.7-1.7,10-2.5c3.4-0.8,6.7-1.5,10.1-2.1c3.4-0.7,6.8-1.2,10.2-1.8
			c3.4-0.5,6.8-1,10.3-1.4c3.4-0.4,6.9-0.7,10.3-1c3.4-0.3,6.9-0.5,10.4-0.6c3.5-0.1,6.9-0.2,10.4-0.2s6.9,0.1,10.4,0.2
			c3.5,0.1,6.9,0.3,10.4,0.6c3.4,0.3,6.9,0.6,10.3,1c3.4,0.4,6.9,0.8,10.3,1.4s6.8,1.1,10.2,1.8c3.4,0.7,6.8,1.4,10.1,2.1
			c3.4,0.8,6.7,1.6,10,2.5c3.3,0.9,6.6,1.9,9.9,2.9c3.3,1,6.5,2.1,9.8,3.3c3.2,1.2,6.4,2.4,9.6,3.6c3.2,1.3,6.3,2.6,9.4,4
			c3.1,1.4,6.2,2.8,9.3,4.4c3.1,1.5,6.1,3.1,9.1,4.7c3,1.6,5.9,3.3,8.8,5c2.9,1.7,5.8,3.5,8.6,5.4c2.8,1.8,5.6,3.7,8.4,5.7
			c2.7,2,5.5,4,8.1,6c2.7,2.1,5.3,4.2,7.8,6.3s5.1,4.4,7.6,6.6c2.5,2.2,4.9,4.5,7.3,6.9c2.4,2.3,4.7,4.7,7,7.2
			c2.3,2.4,4.5,4.9,6.6,7.4c2.2,2.5,4.3,5.1,6.3,7.7c2,2.6,4,5.2,6,7.9c1.9,2.7,3.8,5.4,5.6,8.1c1.8,2.7,3.6,5.5,5.3,8.3
			c1.7,2.8,3.3,5.6,4.9,8.5c1.6,2.9,3.1,5.8,4.5,8.7c1.4,2.9,2.8,5.9,4.1,8.9c1.3,3,2.6,6,3.7,9c1.2,3,2.3,6.1,3.3,9.1
			c1,3.1,2,6.2,2.9,9.3l0.1,0.5l-0.1,0.5c-2.9,10-6.5,19.8-10.8,29.3c-4.1,8.9-8.7,17.5-13.8,25.9c-7.2,11.6-15.4,22.6-24.5,32.9
			c-9.2,10.3-19.2,19.9-30.1,28.7c-14.9,12.1-31.2,22.3-48.7,30.8c-9,4.4-18.3,8.2-27.9,11.6c-9.5,3.3-19.3,6.1-29.2,8.4
			c-9.9,2.2-19.9,3.9-30,5.1C614.4,122.2,604.2,122.8,594,122.8z"/>
		<path style="clip-path:url(#SVGID_00000155838206940210754880000003572045677419525799_);fill:#BBB7B7;" d="M363.6-23
			c3.9,8.5,8.3,16.8,13.2,24.8c6.9,11.2,14.8,21.8,23.6,31.7c9.2,10.4,19.2,20,30.2,28.8c5.6,4.5,11.4,8.8,17.5,12.8
			c6,4,12.2,7.8,18.6,11.3c6.4,3.5,12.9,6.8,19.6,9.8c6.7,3,13.5,5.7,20.5,8.1c7,2.4,14,4.5,21.2,6.4c7.2,1.8,14.4,3.3,21.7,4.6
			c7.3,1.2,14.7,2.1,22.1,2.7c7.4,0.6,14.8,0.9,22.2,0.9c10,0,20-0.6,30-1.7c10-1.1,19.8-2.8,29.5-5c9.7-2.2,19.3-5,28.7-8.2
			c9.4-3.3,18.5-7.1,27.4-11.4c17.3-8.4,33.2-18.5,47.9-30.3c10.7-8.6,20.6-18,29.6-28.2c9-10.2,17.1-21,24.1-32.4
			c4.9-8,9.3-16.3,13.2-24.8c-1.2-2.6-2.4-5.2-3.7-7.8c-1.3-2.6-2.6-5.1-4-7.6c-1.4-2.5-2.8-5-4.3-7.5c-1.5-2.5-3-4.9-4.6-7.4
			c-1.6-2.4-3.2-4.8-4.9-7.2c-1.7-2.4-3.4-4.7-5.2-7c-1.8-2.3-3.6-4.6-5.5-6.8c-1.9-2.2-3.8-4.5-5.7-6.6c-2-2.2-3.9-4.3-6-6.4
			s-4.1-4.2-6.2-6.2c-2.1-2-4.3-4.1-6.5-6c-2.2-2-4.4-3.9-6.7-5.8c-2.3-1.9-4.6-3.8-6.9-5.6c-2.3-1.8-4.7-3.6-7.1-5.3
			c-2.4-1.7-4.9-3.4-7.3-5.1c-2.5-1.7-5-3.3-7.5-4.8c-2.5-1.6-5.1-3.1-7.7-4.6c-2.6-1.5-5.2-2.9-7.9-4.3c-2.7-1.4-5.3-2.7-8.1-4
			c-2.7-1.3-5.5-2.6-8.2-3.8c-2.8-1.2-5.5-2.4-8.4-3.5c-2.8-1.1-5.6-2.2-8.5-3.2c-2.8-1-5.7-2-8.6-2.9c-2.9-0.9-5.8-1.8-8.7-2.6
			c-2.9-0.8-5.9-1.6-8.8-2.3s-5.9-1.4-8.9-2c-3-0.6-6-1.2-9-1.7c-3-0.5-6-1-9-1.4c-3-0.4-6-0.8-9.1-1.1c-3-0.3-6.1-0.6-9.1-0.8
			c-3-0.2-6.1-0.4-9.1-0.5c-3-0.1-6.1-0.2-9.2-0.2s-6.1,0.1-9.2,0.2c-3,0.1-6.1,0.3-9.1,0.5c-3,0.2-6.1,0.5-9.1,0.8
			c-3,0.3-6.1,0.7-9.1,1.1c-3,0.4-6,0.9-9,1.4c-3,0.5-6,1.1-9,1.7c-3,0.6-5.9,1.3-8.9,2c-3,0.7-5.9,1.5-8.8,2.3s-5.8,1.7-8.7,2.6
			c-2.9,0.9-5.8,1.9-8.6,2.9c-2.8,1-5.7,2.1-8.5,3.2c-2.8,1.1-5.6,2.3-8.4,3.5c-2.8,1.2-5.5,2.5-8.2,3.8c-2.7,1.3-5.4,2.6-8.1,4
			c-2.7,1.4-5.3,2.8-7.9,4.3c-2.6,1.5-5.2,3-7.7,4.6c-2.5,1.6-5.1,3.2-7.5,4.8c-2.5,1.7-4.9,3.3-7.3,5.1c-2.4,1.7-4.8,3.5-7.1,5.3
			c-2.3,1.8-4.7,3.7-6.9,5.6c-2.3,1.9-4.5,3.8-6.7,5.8c-2.2,2-4.4,4-6.5,6c-2.1,2-4.2,4.1-6.2,6.2c-2,2.1-4,4.3-6,6.4
			c-2,2.2-3.9,4.4-5.7,6.6c-1.9,2.2-3.7,4.5-5.5,6.8c-1.8,2.3-3.5,4.6-5.2,7c-1.7,2.4-3.3,4.8-4.9,7.2c-1.6,2.4-3.1,4.9-4.6,7.4
			c-1.5,2.5-2.9,5-4.3,7.5c-1.4,2.5-2.7,5.1-4,7.6C366-28.2,364.7-25.6,363.6-23z M594,122.8c-10.2,0-20.3-0.6-30.4-1.7
			c-10.1-1.1-20.1-2.8-30-5.1c-9.9-2.2-19.6-5-29.1-8.4c-9.5-3.3-18.8-7.2-27.9-11.6c-17.5-8.5-33.8-18.8-48.7-30.8
			c-11.1-8.9-21.4-18.7-30.7-29.3c-9-10.1-16.9-20.9-24-32.3c-5.2-8.4-9.8-17-13.8-25.9l-0.3-0.7l0.3-0.7c1.2-2.7,2.5-5.3,3.8-7.9
			c1.3-2.6,2.7-5.2,4.1-7.8c1.4-2.6,2.9-5.1,4.4-7.7c1.5-2.5,3.1-5,4.7-7.5c1.6-2.5,3.3-4.9,5-7.3c1.7-2.4,3.5-4.8,5.3-7.2
			c1.8-2.4,3.6-4.7,5.5-7s3.8-4.6,5.8-6.8c2-2.2,4-4.4,6.1-6.6c2.1-2.2,4.2-4.3,6.3-6.4c2.2-2.1,4.3-4.1,6.6-6.2
			c2.2-2,4.5-4,6.8-5.9c2.3-1.9,4.7-3.8,7-5.7c2.4-1.9,4.8-3.7,7.3-5.4c2.5-1.8,4.9-3.5,7.5-5.2c2.5-1.7,5.1-3.3,7.7-4.9
			c2.6-1.6,5.2-3.2,7.9-4.7c2.7-1.5,5.3-3,8-4.4c2.7-1.4,5.4-2.8,8.2-4.1c2.8-1.3,5.6-2.6,8.4-3.8c2.8-1.2,5.7-2.4,8.5-3.6
			c2.9-1.1,5.7-2.2,8.6-3.3c2.9-1,5.8-2,8.8-3c2.9-0.9,5.9-1.8,8.9-2.7c3-0.8,6-1.6,9-2.4c3-0.7,6-1.4,9.1-2c3-0.6,6.1-1.2,9.1-1.7
			s6.1-1,9.2-1.4c3.1-0.4,6.2-0.8,9.3-1.1c3.1-0.3,6.2-0.6,9.3-0.8c3.1-0.2,6.2-0.4,9.3-0.5c3.1-0.1,6.2-0.2,9.3-0.2
			c3.1,0,6.2,0.1,9.3,0.2c3.1,0.1,6.2,0.3,9.3,0.5c3.1,0.2,6.2,0.5,9.3,0.8c3.1,0.3,6.2,0.7,9.3,1.1c3.1,0.4,6.1,0.9,9.2,1.4
			s6.1,1.1,9.1,1.7c3,0.6,6.1,1.3,9.1,2c3,0.7,6,1.5,9,2.4c3,0.8,5.9,1.7,8.9,2.7c2.9,0.9,5.9,1.9,8.8,3c2.9,1,5.8,2.1,8.6,3.3
			c2.9,1.1,5.7,2.3,8.5,3.6c2.8,1.2,5.6,2.5,8.4,3.8c2.8,1.3,5.5,2.7,8.2,4.1c2.7,1.4,5.4,2.9,8,4.4s5.3,3.1,7.9,4.7
			c2.6,1.6,5.1,3.2,7.7,4.9c2.5,1.7,5,3.4,7.5,5.2c2.5,1.8,4.9,3.6,7.3,5.4c2.4,1.9,4.7,3.8,7,5.7c2.3,1.9,4.6,3.9,6.8,5.9
			s4.4,4.1,6.6,6.2c2.2,2.1,4.3,4.2,6.3,6.4c2.1,2.2,4.1,4.4,6.1,6.6c2,2.2,3.9,4.5,5.8,6.8c1.9,2.3,3.7,4.6,5.5,7
			c1.8,2.4,3.6,4.7,5.3,7.2c1.7,2.4,3.4,4.9,5,7.3c1.6,2.5,3.2,5,4.7,7.5c1.5,2.5,3,5.1,4.4,7.7c1.4,2.6,2.8,5.2,4.1,7.8
			c1.3,2.6,2.6,5.3,3.8,7.9L829-23l-0.3,0.7c-4.1,8.9-8.6,17.5-13.8,25.9c-7.2,11.6-15.4,22.6-24.5,32.9
			c-9.2,10.3-19.2,19.9-30.1,28.7c-14.9,12.1-31.2,22.3-48.7,30.8c-9,4.4-18.3,8.2-27.9,11.6c-9.5,3.3-19.3,6.1-29.2,8.4
			c-9.9,2.2-19.9,3.9-30,5.1C614.4,122.2,604.2,122.8,594,122.8z"/>
		<path style="clip-path:url(#SVGID_00000155838206940210754880000003572045677419525799_);fill:#BBB7B7;" d="M377.4,2.7
			c6.8,10.8,14.4,21.1,23,30.8c9.2,10.4,19.2,20,30.2,28.8c14.7,11.9,30.7,22,47.9,30.3c4.4,2.1,8.9,4.2,13.5,6.1s9.2,3.7,13.9,5.3
			c4.7,1.6,9.4,3.1,14.2,4.5c4.8,1.4,9.6,2.6,14.5,3.7c4.9,1.1,9.8,2.1,14.7,2.9c4.9,0.8,9.9,1.5,14.8,2.1c5,0.6,10,1,15,1.3
			c5,0.3,10,0.4,15,0.4s10-0.1,15-0.4c5-0.3,10-0.7,15-1.3c5-0.6,9.9-1.3,14.8-2.1c4.9-0.8,9.8-1.8,14.7-2.9
			c4.9-1.1,9.7-2.3,14.5-3.7c4.8-1.4,9.5-2.9,14.2-4.5s9.3-3.4,13.9-5.3c4.6-1.9,9.1-3.9,13.5-6.1c17.3-8.4,33.2-18.5,47.9-30.3
			c10.6-8.5,20.3-17.8,29.2-27.8c8.9-10,16.9-20.6,23.9-31.9c-2.7-4.4-5.6-8.7-8.7-12.9s-6.2-8.3-9.5-12.4c-3.3-4-6.8-7.9-10.4-11.8
			c-3.6-3.8-7.3-7.5-11.2-11.1c-3.9-3.6-7.8-7.1-12-10.4c-4.1-3.3-8.3-6.6-12.7-9.7c-4.3-3.1-8.8-6-13.3-8.9
			c-4.5-2.8-9.2-5.5-13.9-8c-4.7-2.5-9.5-4.9-14.4-7.2c-4.9-2.2-9.9-4.3-14.9-6.3c-5-1.9-10.2-3.7-15.3-5.4s-10.4-3.1-15.7-4.4
			c-5.3-1.3-10.6-2.5-15.9-3.5c-5.4-1-10.7-1.8-16.1-2.5c-5.4-0.7-10.8-1.2-16.3-1.5c-5.4-0.3-10.9-0.5-16.4-0.5
			c-5.5,0-10.9,0.2-16.4,0.5c-5.4,0.3-10.9,0.8-16.3,1.5c-5.4,0.7-10.8,1.5-16.1,2.5c-5.4,1-10.7,2.1-15.9,3.5
			c-5.3,1.3-10.5,2.8-15.7,4.4c-5.2,1.6-10.3,3.4-15.3,5.4c-5,1.9-10,4-14.9,6.3c-4.9,2.2-9.7,4.6-14.4,7.2c-4.7,2.5-9.4,5.2-13.9,8
			c-4.5,2.8-9,5.8-13.3,8.9c-4.3,3.1-8.6,6.3-12.7,9.7c-4.1,3.3-8.1,6.8-12,10.4c-3.9,3.6-7.6,7.3-11.2,11.1
			c-3.6,3.8-7.1,7.7-10.4,11.8c-3.3,4-6.5,8.2-9.5,12.4C383-6,380.1-1.7,377.4,2.7z M594,122.8c-10.2,0-20.3-0.6-30.4-1.7
			c-10.1-1.1-20.1-2.8-30-5.1c-9.9-2.2-19.6-5-29.1-8.4c-9.5-3.3-18.8-7.2-27.9-11.6c-17.5-8.5-33.8-18.8-48.7-30.8
			c-11.1-8.9-21.4-18.7-30.7-29.3c-9-10.1-16.9-20.9-24-32.3l-0.6-0.9l0.6-0.9c2.8-4.5,5.7-8.9,8.8-13.2c3.1-4.3,6.3-8.5,9.7-12.7
			c3.4-4.1,6.9-8.1,10.6-12.1c3.7-3.9,7.5-7.7,11.4-11.4c3.9-3.7,8-7.2,12.2-10.7c4.2-3.4,8.5-6.7,12.9-9.9
			c4.4-3.2,8.9-6.2,13.6-9.1c4.6-2.9,9.4-5.6,14.2-8.2c4.8-2.6,9.7-5.1,14.7-7.4c5-2.3,10.1-4.4,15.2-6.4c5.1-2,10.4-3.8,15.6-5.5
			c5.3-1.7,10.6-3.2,16-4.5c5.4-1.3,10.8-2.5,16.3-3.5c5.5-1,11-1.9,16.5-2.5c5.5-0.7,11.1-1.2,16.6-1.5c5.6-0.3,11.1-0.5,16.7-0.5
			c5.6,0,11.1,0.2,16.7,0.5c5.6,0.3,11.1,0.9,16.6,1.5c5.5,0.7,11,1.5,16.5,2.5s10.9,2.2,16.3,3.5c5.4,1.3,10.7,2.9,16,4.5
			c5.3,1.7,10.5,3.5,15.6,5.5c5.1,2,10.2,4.1,15.2,6.4c5,2.3,9.9,4.8,14.7,7.4c4.8,2.6,9.5,5.3,14.2,8.2s9.1,5.9,13.6,9.1
			c4.4,3.2,8.7,6.5,12.9,9.9c4.2,3.4,8.2,7,12.2,10.7c3.9,3.7,7.7,7.5,11.4,11.4c3.7,3.9,7.2,7.9,10.6,12.1
			c3.4,4.1,6.6,8.3,9.7,12.7c3.1,4.3,6,8.7,8.8,13.2l0.6,1l-0.6,0.9c-7.2,11.6-15.4,22.6-24.5,32.9s-19.2,19.9-30.1,28.7
			c-14.9,12.1-31.2,22.3-48.7,30.8c-9,4.4-18.3,8.2-27.9,11.6c-9.5,3.3-19.3,6.1-29.2,8.4c-9.9,2.2-19.9,3.9-30,5.1
			C614.4,122.2,604.2,122.8,594,122.8z"/>
		<path style="clip-path:url(#SVGID_00000155838206940210754880000003572045677419525799_);fill:#BBB7B7;" d="M401.4,34.7
			c8.9,10,18.6,19.2,29.1,27.6c5.6,4.5,11.4,8.8,17.5,12.8c6,4,12.2,7.8,18.6,11.3c6.4,3.5,12.9,6.8,19.6,9.8
			c6.7,3,13.5,5.7,20.5,8.1c7,2.4,14,4.5,21.2,6.4c7.2,1.8,14.4,3.3,21.7,4.6c7.3,1.2,14.7,2.1,22.1,2.7c7.4,0.6,14.8,0.9,22.2,0.9
			c10,0,20-0.6,30-1.7c10-1.1,19.8-2.8,29.5-5c9.7-2.2,19.3-5,28.7-8.2c9.4-3.3,18.5-7.1,27.4-11.4c17.3-8.4,33.2-18.5,47.9-30.3
			c10.5-8.5,20.2-17.7,29.1-27.6c-2.9-3.3-5.9-6.5-9.1-9.6c-3.1-3.1-6.3-6.2-9.6-9.1c-3.3-3-6.7-5.8-10.1-8.6
			c-3.5-2.8-7-5.5-10.6-8.1c-3.6-2.6-7.3-5.1-11.1-7.5c-3.8-2.4-7.6-4.7-11.5-7c-3.9-2.2-7.9-4.3-11.9-6.4c-4-2-8.1-3.9-12.3-5.8
			c-4.1-1.8-8.3-3.5-12.6-5.1c-4.2-1.6-8.5-3.1-12.9-4.5c-4.3-1.4-8.7-2.6-13.1-3.8c-4.4-1.2-8.9-2.2-13.3-3.1
			c-4.5-0.9-9-1.7-13.5-2.4c-4.5-0.7-9.1-1.3-13.6-1.7c-4.6-0.5-9.1-0.8-13.7-1.1c-4.6-0.2-9.2-0.4-13.7-0.4s-9.2,0.1-13.7,0.4
			c-4.6,0.2-9.1,0.6-13.7,1.1c-4.6,0.5-9.1,1.1-13.6,1.7c-4.5,0.7-9,1.5-13.5,2.4c-4.5,0.9-8.9,2-13.3,3.1
			c-4.4,1.2-8.8,2.4-13.1,3.8c-4.3,1.4-8.6,2.9-12.9,4.5c-4.2,1.6-8.4,3.3-12.6,5.1c-4.1,1.8-8.2,3.7-12.3,5.8c-4,2-8,4.1-11.9,6.4
			c-3.9,2.2-7.7,4.5-11.5,7c-3.8,2.4-7.5,4.9-11.1,7.5c-3.6,2.6-7.2,5.3-10.6,8.1c-3.5,2.8-6.8,5.7-10.1,8.6c-3.3,3-6.5,6-9.6,9.1
			C407.4,28.2,404.3,31.5,401.4,34.7L401.4,34.7z M594,122.8c-4.7,0-9.4-0.1-14.1-0.4c-4.7-0.2-9.4-0.6-14-1.1
			c-4.7-0.5-9.3-1.1-13.9-1.8c-4.6-0.7-9.2-1.6-13.8-2.5c-4.6-1-9.1-2-13.6-3.2c-4.5-1.2-9-2.5-13.4-3.9c-4.4-1.4-8.8-3-13.2-4.6
			c-4.3-1.6-8.6-3.4-12.9-5.3c-4.2-1.9-8.4-3.8-12.5-5.9s-8.2-4.3-12.2-6.6c-4-2.3-7.9-4.7-11.8-7.2c-3.8-2.5-7.6-5.1-11.3-7.8
			c-3.7-2.7-7.3-5.5-10.8-8.3c-3.5-2.9-7-5.8-10.3-8.9c-3.4-3.1-6.6-6.2-9.8-9.4c-3.2-3.2-6.2-6.5-9.2-9.9l-1.1-1.2l1.1-1.2
			c3-3.4,6-6.7,9.2-9.9c3.2-3.2,6.4-6.4,9.8-9.4c3.4-3.1,6.8-6,10.3-8.9c3.5-2.9,7.1-5.7,10.8-8.4c3.7-2.7,7.5-5.3,11.3-7.8
			c3.8-2.5,7.8-4.9,11.8-7.2c4-2.3,8-4.5,12.2-6.6c4.1-2.1,8.3-4.1,12.5-5.9c4.2-1.9,8.5-3.6,12.9-5.3c4.3-1.6,8.7-3.2,13.2-4.6
			c4.4-1.4,8.9-2.7,13.4-3.9s9.1-2.3,13.6-3.2s9.2-1.8,13.8-2.5c4.6-0.7,9.3-1.3,13.9-1.8c4.7-0.5,9.3-0.8,14-1.1
			c4.7-0.2,9.4-0.4,14.1-0.4c4.7,0,9.4,0.1,14.1,0.4c4.7,0.2,9.4,0.6,14,1.1c4.7,0.5,9.3,1.1,13.9,1.8c4.6,0.7,9.2,1.6,13.8,2.5
			c4.6,1,9.1,2,13.6,3.2c4.5,1.2,9,2.5,13.4,3.9s8.8,3,13.2,4.6c4.3,1.6,8.6,3.4,12.9,5.3c4.2,1.9,8.4,3.8,12.5,5.9
			c4.1,2.1,8.2,4.3,12.2,6.6c4,2.3,7.9,4.7,11.8,7.2c3.8,2.5,7.6,5.1,11.3,7.8c3.7,2.7,7.3,5.5,10.8,8.4c3.5,2.9,7,5.8,10.3,8.9
			c3.4,3.1,6.6,6.2,9.8,9.4c3.2,3.2,6.2,6.5,9.2,9.9l1.1,1.2l-1.1,1.2c-9.3,10.6-19.6,20.4-30.7,29.3
			c-14.9,12.1-31.2,22.3-48.7,30.8c-9,4.4-18.3,8.2-27.9,11.6c-9.5,3.3-19.3,6.1-29.2,8.4c-9.9,2.2-19.9,3.9-30,5.1
			C614.4,122.2,604.2,122.8,594,122.8z"/>
		<path style="clip-path:url(#SVGID_00000155838206940210754880000003572045677419525799_);fill:#BBB7B7;" d="M432.3,63.8
			c5.6,4.4,11.4,8.6,17.4,12.5c6,3.9,12.1,7.6,18.5,11.1c6.3,3.4,12.8,6.6,19.5,9.5c6.6,2.9,13.4,5.5,20.3,7.9
			c6.9,2.3,13.9,4.4,20.9,6.2c7.1,1.8,14.2,3.3,21.4,4.4c7.2,1.2,14.5,2.1,21.8,2.7c7.3,0.6,14.6,0.9,22,0.9c10,0,20-0.6,30-1.7
			c10-1.1,19.8-2.8,29.5-5c9.7-2.2,19.3-5,28.7-8.2c9.4-3.3,18.5-7.1,27.4-11.4c16.5-8,31.9-17.6,46.1-28.9
			c-2.8-2.2-5.6-4.3-8.5-6.4c-2.9-2.1-5.8-4.1-8.8-6.1c-3-2-6-3.9-9.1-5.7c-3.1-1.8-6.2-3.6-9.4-5.3c-3.2-1.7-6.4-3.4-9.6-4.9
			c-3.2-1.6-6.5-3.1-9.8-4.5c-3.3-1.4-6.7-2.8-10-4.1c-3.4-1.3-6.8-2.6-10.2-3.7c-3.4-1.2-6.9-2.3-10.4-3.3c-3.5-1-7-2-10.5-2.9
			c-3.5-0.9-7.1-1.7-10.7-2.4c-3.6-0.7-7.2-1.4-10.8-2c-3.6-0.6-7.2-1.1-10.9-1.6s-7.3-0.8-10.9-1.1c-3.6-0.3-7.3-0.5-11-0.7
			c-3.7-0.1-7.3-0.2-11-0.2c-3.7,0-7.3,0.1-11,0.2c-3.7,0.1-7.3,0.4-11,0.7c-3.6,0.3-7.3,0.7-10.9,1.1c-3.6,0.4-7.3,1-10.9,1.6
			c-3.6,0.6-7.2,1.3-10.8,2c-3.6,0.7-7.1,1.6-10.7,2.4c-3.5,0.9-7.1,1.8-10.5,2.9c-3.5,1-7,2.1-10.4,3.3c-3.4,1.2-6.9,2.4-10.2,3.7
			c-3.4,1.3-6.7,2.7-10,4.1c-3.3,1.4-6.6,3-9.8,4.5c-3.2,1.6-6.4,3.2-9.6,4.9c-3.2,1.7-6.3,3.5-9.4,5.3c-3.1,1.8-6.1,3.7-9.1,5.7
			s-5.9,4-8.8,6.1C438,59.5,435.1,61.6,432.3,63.8z M594,122.8c-7.6,0-15.1-0.3-22.6-0.9c-7.5-0.6-15-1.5-22.4-2.8
			c-7.4-1.2-14.8-2.8-22.1-4.6c-7.3-1.9-14.5-4-21.5-6.5c-7.1-2.5-14-5.2-20.8-8.2c-6.8-3-13.5-6.3-20-9.9
			c-6.5-3.6-12.8-7.4-18.9-11.5c-6.1-4.1-12-8.5-17.8-13.1l-1.8-1.4l1.8-1.4c2.9-2.3,5.8-4.5,8.7-6.7c3-2.2,6-4.3,9-6.3
			c3.1-2,6.2-4,9.3-6c3.2-1.9,6.4-3.8,9.6-5.6c3.2-1.8,6.5-3.5,9.9-5.2c3.3-1.7,6.7-3.2,10.1-4.7c3.4-1.5,6.8-3,10.3-4.3
			c3.5-1.4,7-2.7,10.5-3.9s7.1-2.4,10.7-3.5c3.6-1.1,7.2-2.1,10.8-3c3.6-0.9,7.3-1.8,11-2.6c3.7-0.8,7.4-1.5,11.1-2.1
			c3.7-0.6,7.4-1.2,11.2-1.6c3.7-0.5,7.5-0.9,11.2-1.2c3.8-0.3,7.5-0.5,11.3-0.7c3.8-0.2,7.5-0.2,11.3-0.2c3.8,0,7.5,0.1,11.3,0.2
			c3.8,0.2,7.5,0.4,11.3,0.7s7.5,0.7,11.2,1.2c3.7,0.5,7.5,1,11.2,1.6c3.7,0.6,7.4,1.3,11.1,2.1c3.7,0.8,7.3,1.6,11,2.6
			c3.6,0.9,7.3,1.9,10.8,3c3.6,1.1,7.2,2.2,10.7,3.5c3.5,1.2,7,2.5,10.5,3.9c3.5,1.4,6.9,2.8,10.3,4.3c3.4,1.5,6.8,3.1,10.1,4.7
			c3.3,1.7,6.6,3.4,9.9,5.2c3.2,1.8,6.5,3.6,9.6,5.6c3.2,1.9,6.3,3.9,9.3,6c3.1,2,6.1,4.2,9,6.3c3,2.2,5.9,4.4,8.7,6.7l1.8,1.4
			l-1.8,1.4c-14.9,12.1-31.2,22.3-48.7,30.8c-9,4.4-18.3,8.2-27.9,11.6c-9.5,3.3-19.3,6.1-29.2,8.4c-9.9,2.2-19.9,3.9-30,5.1
			C614.4,122.2,604.2,122.8,594,122.8z"/>
		<path style="clip-path:url(#SVGID_00000155838206940210754880000003572045677419525799_);fill:#BBB7B7;" d="M482,94.4
			c8.7,4.1,17.5,7.6,26.6,10.7c9.1,3.1,18.4,5.7,27.8,7.7c9.4,2.1,19,3.6,28.6,4.6c9.6,1,19.3,1.5,29,1.5c9.7,0,19.3-0.5,29-1.6
			c9.6-1,19.2-2.6,28.6-4.7c9.4-2.1,18.7-4.6,27.8-7.7c9.1-3.1,18-6.6,26.7-10.6c-8.7-4-17.6-7.6-26.7-10.7
			c-9.1-3.1-18.4-5.6-27.8-7.7c-9.4-2.1-19-3.6-28.6-4.7c-9.6-1-19.3-1.6-29-1.6c-9.7,0-19.4,0.5-29,1.5c-9.6,1-19.2,2.6-28.6,4.7
			s-18.7,4.7-27.8,7.7S490.7,90.3,482,94.4z M594,122.8c-10.2,0-20.3-0.6-30.4-1.7c-10.1-1.1-20.1-2.8-30-5.1
			c-9.9-2.2-19.6-5-29.1-8.4c-9.5-3.3-18.8-7.2-27.9-11.6l-3.5-1.7l3.5-1.7c4.5-2.2,9.1-4.2,13.7-6.2c4.6-1.9,9.4-3.7,14.1-5.4
			c4.8-1.7,9.6-3.2,14.4-4.6c4.9-1.4,9.8-2.7,14.7-3.8c4.9-1.1,9.9-2.1,14.9-3c5-0.8,10-1.6,15.1-2.1c5.1-0.6,10.1-1,15.2-1.3
			c5.1-0.3,10.2-0.4,15.3-0.4s10.2,0.1,15.3,0.4c5.1,0.3,10.1,0.7,15.2,1.3c5.1,0.6,10.1,1.3,15.1,2.1c5,0.8,10,1.8,14.9,3
			s9.8,2.4,14.7,3.8c4.9,1.4,9.7,2.9,14.4,4.6s9.5,3.5,14.1,5.4c4.6,1.9,9.2,4,13.7,6.2l3.5,1.7l-3.5,1.7c-9,4.4-18.3,8.2-27.9,11.6
			s-19.3,6.1-29.2,8.4c-9.9,2.2-19.9,3.9-30,5.1C614.4,122.2,604.2,122.8,594,122.8z"/>
		<path style="clip-path:url(#SVGID_00000155838206940210754880000003572045677419525799_);fill:#BBB7B7;" d="M594.1,63.2
			c-3.8,0-7.6-0.1-11.5-0.3c-3.8-0.2-7.6-0.4-11.4-0.7c-3.8-0.3-7.6-0.7-11.4-1.2c-3.8-0.5-7.6-1-11.3-1.7
			c-3.8-0.6-7.5-1.4-11.2-2.2c-3.7-0.8-7.4-1.7-11.1-2.6c-3.7-1-7.3-2-11-3.1c-3.6-1.1-7.2-2.3-10.8-3.5c-3.6-1.3-7.1-2.6-10.6-4
			c-3.5-1.4-7-2.9-10.4-4.4c-3.4-1.6-6.8-3.2-10.2-4.9c-3.4-1.7-6.7-3.5-10-5.3c-3.3-1.8-6.5-3.7-9.7-5.7c-3.2-2-6.3-4-9.4-6.1
			c-3.1-2.1-6.1-4.3-9.1-6.5c-3-2.2-5.9-4.5-8.8-6.9c-2.9-2.4-5.7-4.8-8.4-7.2c-2.8-2.5-5.4-5-8.1-7.6c-2.6-2.6-5.2-5.2-7.7-7.9
			c-2.5-2.7-4.9-5.4-7.3-8.2c-2.4-2.8-4.7-5.6-6.9-8.5c-2.2-2.9-4.4-5.8-6.5-8.8c-2.1-3-4.1-6-6.1-9.1c-1.9-3.1-3.8-6.2-5.6-9.3
			c-1.8-3.1-3.5-6.3-5.2-9.5c-1.6-3.2-3.2-6.5-4.7-9.7c-1.5-3.3-2.9-6.6-4.2-9.9c-1.3-3.3-2.6-6.7-3.7-10.1
			c-1.2-3.4-2.2-6.8-3.2-10.2c-1-3.4-1.9-6.9-2.7-10.4c-0.8-3.5-1.6-7-2.2-10.5c-0.7-3.5-1.2-7-1.7-10.6l4.1-0.5
			c0.5,3.5,1,6.9,1.7,10.4c0.6,3.4,1.4,6.9,2.2,10.3c0.8,3.4,1.7,6.8,2.7,10.2c1,3.4,2,6.7,3.2,10.1c1.1,3.3,2.4,6.6,3.7,9.9
			c1.3,3.3,2.7,6.5,4.1,9.8c1.5,3.2,3,6.4,4.6,9.6c1.6,3.2,3.3,6.3,5.1,9.4c1.8,3.1,3.6,6.1,5.5,9.2c1.9,3,3.9,6,6,8.9
			c2.1,2.9,4.2,5.8,6.4,8.7c2.2,2.8,4.5,5.6,6.8,8.4c2.3,2.7,4.7,5.4,7.2,8.1c2.5,2.6,5,5.2,7.6,7.8c2.6,2.5,5.2,5,7.9,7.5
			c2.7,2.4,5.5,4.8,8.3,7.1c2.8,2.3,5.7,4.6,8.6,6.8c2.9,2.2,5.9,4.3,9,6.4s6.1,4.1,9.3,6s6.3,3.8,9.5,5.6c3.2,1.8,6.5,3.5,9.8,5.2
			c3.3,1.7,6.7,3.3,10,4.8c3.4,1.5,6.8,3,10.3,4.4c3.5,1.4,6.9,2.7,10.5,3.9c3.5,1.2,7.1,2.4,10.6,3.5c3.6,1.1,7.2,2.1,10.8,3
			c3.6,0.9,7.3,1.8,10.9,2.6c3.7,0.8,7.4,1.5,11.1,2.1c3.7,0.6,7.4,1.2,11.1,1.7c3.7,0.5,7.5,0.9,11.2,1.2c3.7,0.3,7.5,0.6,11.3,0.7
			c3.8,0.2,7.5,0.2,11.3,0.2c3.8,0,7.5-0.1,11.3-0.2c3.8-0.2,7.5-0.4,11.3-0.7c3.7-0.3,7.5-0.7,11.2-1.2c3.7-0.5,7.4-1,11.1-1.6
			c3.7-0.6,7.4-1.3,11.1-2.1c3.7-0.8,7.3-1.6,10.9-2.6c3.6-0.9,7.2-1.9,10.8-3c3.6-1.1,7.1-2.2,10.6-3.5c3.5-1.2,7-2.5,10.5-3.9
			c3.5-1.4,6.9-2.8,10.3-4.4c3.4-1.5,6.7-3.1,10-4.8c3.3-1.7,6.6-3.4,9.8-5.2c3.2-1.8,6.4-3.7,9.5-5.6s6.2-3.9,9.3-6
			c3-2.1,6-4.2,9-6.4c2.9-2.2,5.8-4.4,8.6-6.8c2.8-2.3,5.6-4.7,8.3-7.1c2.7-2.4,5.4-4.9,8-7.5c2.6-2.5,5.1-5.1,7.6-7.8
			s4.9-5.3,7.2-8.1c2.3-2.7,4.6-5.5,6.8-8.4c2.2-2.8,4.3-5.7,6.4-8.7c2.1-2.9,4-5.9,6-8.9c1.9-3,3.8-6.1,5.5-9.2
			c1.8-3.1,3.5-6.2,5.1-9.4c1.6-3.2,3.2-6.4,4.6-9.6c1.5-3.2,2.8-6.5,4.1-9.8c1.3-3.3,2.5-6.6,3.7-9.9c1.1-3.3,2.2-6.7,3.2-10.1
			c1-3.4,1.9-6.8,2.7-10.2c0.8-3.4,1.5-6.9,2.2-10.3c0.6-3.4,1.2-6.9,1.7-10.4c-1.4-10.7-3.7-21.2-6.7-31.5
			c-2.9-9.8-6.4-19.4-10.6-28.8c-4-8.8-8.5-17.3-13.6-25.5c-7.1-11.4-15.1-22.2-24.1-32.4c-9-10.2-18.9-19.6-29.6-28.2
			c-2.8-2.3-5.7-4.5-8.6-6.6c-2.9-2.1-5.9-4.2-8.9-6.2c-3-2-6.1-4-9.2-5.9c-3.1-1.9-6.3-3.7-9.5-5.5c-3.2-1.8-6.4-3.5-9.7-5.1
			c-3.3-1.6-6.6-3.2-9.9-4.7c-3.4-1.5-6.7-2.9-10.2-4.3c-3.4-1.3-6.9-2.6-10.3-3.8c-3.5-1.2-7-2.3-10.5-3.4c-3.5-1.1-7.1-2-10.7-3
			c-3.6-0.9-7.2-1.8-10.8-2.5c-3.6-0.8-7.3-1.5-10.9-2.1c-3.7-0.6-7.3-1.1-11-1.6c-3.7-0.5-7.4-0.8-11.1-1.2
			c-3.7-0.3-7.4-0.5-11.1-0.7c-3.7-0.2-7.4-0.2-11.1-0.2s-7.4,0.1-11.1,0.2c-3.7,0.2-7.4,0.4-11.1,0.7c-3.7,0.3-7.4,0.7-11.1,1.2
			c-3.7,0.5-7.3,1-11,1.6c-3.7,0.6-7.3,1.3-10.9,2.1s-7.2,1.6-10.8,2.5c-3.6,0.9-7.1,1.9-10.7,3c-3.5,1.1-7,2.2-10.5,3.4
			c-3.5,1.2-6.9,2.5-10.3,3.8c-3.4,1.3-6.8,2.8-10.2,4.3c-3.4,1.5-6.7,3-9.9,4.7c-3.3,1.6-6.5,3.3-9.7,5.1c-3.2,1.8-6.3,3.6-9.5,5.5
			c-3.1,1.9-6.2,3.8-9.2,5.9c-3,2-6,4.1-8.9,6.2c-2.9,2.1-5.8,4.3-8.6,6.6c-11,8.8-21,18.4-30.2,28.8c-8.8,10-16.7,20.6-23.6,31.8
			c-10.6,17.1-18.7,35.3-24.2,54.4l-4-1c5.6-19.4,13.8-37.8,24.6-55.3c7-11.4,15-22.1,24-32.3c9.3-10.6,19.5-20.4,30.7-29.3
			c5.7-4.6,11.6-8.9,17.8-13.1c6.1-4.1,12.4-7.9,18.9-11.5c6.5-3.6,13.2-6.9,20-9.9c6.8-3,13.8-5.8,20.8-8.2
			c7.1-2.4,14.3-4.6,21.5-6.5c7.3-1.9,14.6-3.4,22.1-4.6c7.4-1.2,14.9-2.2,22.4-2.8c7.5-0.6,15.1-0.9,22.6-0.9
			c10.2,0,20.3,0.6,30.5,1.7c10.1,1.1,20.1,2.8,30,5.1s19.6,5,29.2,8.4c9.5,3.3,18.8,7.2,27.9,11.6c17.5,8.5,33.8,18.8,48.7,30.8
			c10.9,8.8,20.9,18.3,30.1,28.7c9.2,10.3,17.3,21.3,24.5,32.9c5.1,8.4,9.7,17,13.8,25.9c4.3,9.6,7.9,19.3,10.8,29.3
			c3.1,10.6,5.4,21.4,6.9,32.3l0,0.2l0,0.2c-0.5,3.5-1.1,7-1.7,10.6c-0.7,3.5-1.4,7-2.2,10.5c-0.8,3.5-1.7,6.9-2.7,10.4
			c-1,3.4-2.1,6.9-3.2,10.2c-1.2,3.4-2.4,6.8-3.7,10.1c-1.3,3.3-2.7,6.6-4.2,9.9s-3,6.5-4.7,9.7c-1.6,3.2-3.4,6.4-5.2,9.5
			s-3.7,6.2-5.6,9.3c-1.9,3.1-4,6.1-6.1,9.1c-2.1,3-4.3,5.9-6.5,8.8c-2.2,2.9-4.5,5.7-6.9,8.5c-2.4,2.8-4.8,5.5-7.3,8.2
			c-2.5,2.7-5.1,5.3-7.7,7.9c-2.6,2.6-5.3,5.1-8.1,7.6s-5.6,4.9-8.4,7.2c-2.9,2.4-5.8,4.6-8.8,6.9c-3,2.2-6,4.4-9.1,6.5
			c-3.1,2.1-6.2,4.1-9.4,6.1c-3.2,2-6.4,3.9-9.7,5.7c-3.3,1.8-6.6,3.6-10,5.3c-3.4,1.7-6.8,3.3-10.2,4.9c-3.4,1.6-6.9,3-10.4,4.4
			c-3.5,1.4-7.1,2.7-10.6,4s-7.2,2.4-10.8,3.5c-3.6,1.1-7.3,2.1-11,3.1c-3.7,1-7.4,1.8-11.1,2.6c-3.7,0.8-7.5,1.5-11.2,2.2
			c-3.8,0.6-7.5,1.2-11.3,1.7c-3.8,0.5-7.6,0.9-11.4,1.2c-3.8,0.3-7.6,0.6-11.4,0.7C601.7,63.1,597.9,63.2,594.1,63.2z"/>
	</g>
	<g>
		<defs>
			<rect id="SVGID_00000165930417204505061180000013966910228354245784_" x="1450.5" y="228" width="340.9" height="532.3"/>
		</defs>
		<clipPath id="SVGID_00000000183098853944598890000012362155679139462073_">
			<use xlink:href="#SVGID_00000165930417204505061180000013966910228354245784_"  style="overflow:visible;"/>
		</clipPath>
		<path style="clip-path:url(#SVGID_00000000183098853944598890000012362155679139462073_);fill:#8C8787;" d="M1450.5,515.9
			c0,0.3,0,0.6,0.1,1c0.1,0.3,0.1,0.6,0.3,0.9c0.1,0.3,0.3,0.6,0.5,0.9c0.2,0.3,0.4,0.5,0.6,0.8c0.2,0.2,0.5,0.5,0.8,0.6
			c0.3,0.2,0.6,0.4,0.9,0.5c0.3,0.1,0.6,0.2,1,0.3s0.7,0.1,1,0.1c0.3,0,0.7-0.1,1-0.2c0.3-0.1,0.7-0.2,1-0.3
			c0.3-0.1,0.6-0.3,0.9-0.5c0.3-0.2,0.5-0.4,0.8-0.6c0.2-0.2,0.4-0.5,0.6-0.8c0.2-0.3,0.3-0.6,0.5-0.9c0.1-0.3,0.2-0.6,0.3-0.9
			s0.1-0.6,0.1-1c0-0.3,0-0.6-0.1-1s-0.2-0.6-0.3-0.9c-0.1-0.3-0.3-0.6-0.5-0.9c-0.2-0.3-0.4-0.5-0.6-0.8c-0.2-0.2-0.5-0.4-0.8-0.6
			s-0.6-0.4-0.9-0.5c-0.3-0.1-0.6-0.3-1-0.3c-0.3-0.1-0.7-0.1-1-0.2c-0.3,0-0.7,0.1-1,0.1c-0.3,0.1-0.7,0.2-1,0.3
			c-0.3,0.1-0.6,0.3-0.9,0.5c-0.3,0.2-0.5,0.4-0.8,0.6c-0.2,0.2-0.4,0.5-0.6,0.8c-0.2,0.3-0.3,0.6-0.5,0.9c-0.1,0.3-0.2,0.6-0.3,0.9
			C1450.5,515.2,1450.5,515.6,1450.5,515.9z"/>
		<path style="clip-path:url(#SVGID_00000000183098853944598890000012362155679139462073_);fill:#8C8787;" d="M1506.7,515.9
			c0,0.3,0.1,0.6,0.2,0.9c0.1,0.3,0.2,0.6,0.4,0.9c0.1,0.3,0.3,0.5,0.5,0.8c0.2,0.2,0.4,0.5,0.7,0.7s0.5,0.4,0.8,0.5
			c0.3,0.2,0.6,0.3,0.9,0.4c0.3,0.1,0.6,0.2,1,0.2c0.3,0,0.7,0.1,1,0c0.3,0,0.7-0.1,1-0.1c0.3-0.1,0.6-0.2,0.9-0.3
			c0.3-0.1,0.6-0.3,0.8-0.5c0.3-0.2,0.5-0.4,0.7-0.6c0.2-0.2,0.4-0.5,0.6-0.7c0.2-0.3,0.3-0.5,0.4-0.8c0.1-0.3,0.2-0.6,0.3-0.9
			c0.1-0.3,0.1-0.6,0.1-0.9c0-0.3,0-0.6-0.1-0.9c-0.1-0.3-0.2-0.6-0.3-0.9c-0.1-0.3-0.3-0.5-0.5-0.8c-0.2-0.3-0.4-0.5-0.6-0.7
			c-0.2-0.2-0.5-0.4-0.8-0.6c-0.3-0.2-0.6-0.3-0.9-0.4c-0.3-0.1-0.6-0.2-0.9-0.3c-0.3-0.1-0.7-0.1-1-0.1c-0.3,0-0.7,0.1-1,0.1
			c-0.3,0.1-0.7,0.2-1,0.3c-0.3,0.1-0.6,0.3-0.9,0.5c-0.3,0.2-0.5,0.4-0.8,0.6c-0.2,0.2-0.4,0.5-0.6,0.8s-0.3,0.6-0.5,0.9
			c-0.1,0.3-0.2,0.6-0.3,0.9C1506.8,515.2,1506.7,515.6,1506.7,515.9z"/>
		<path style="clip-path:url(#SVGID_00000000183098853944598890000012362155679139462073_);fill:#8C8787;" d="M1563,515.9
			c0,0.3,0.1,0.6,0.2,0.9c0.1,0.3,0.2,0.6,0.4,0.9c0.1,0.3,0.3,0.5,0.5,0.8c0.2,0.2,0.4,0.5,0.7,0.7c0.2,0.2,0.5,0.4,0.8,0.5
			c0.3,0.2,0.6,0.3,0.9,0.4c0.3,0.1,0.6,0.2,1,0.2s0.7,0.1,1,0c0.3,0,0.7-0.1,1-0.1c0.3-0.1,0.6-0.2,0.9-0.3
			c0.3-0.1,0.6-0.3,0.8-0.5c0.3-0.2,0.5-0.4,0.7-0.6c0.2-0.2,0.4-0.5,0.6-0.7s0.3-0.5,0.4-0.8c0.1-0.3,0.2-0.6,0.3-0.9
			c0.1-0.3,0.1-0.6,0.1-0.9c0-0.3,0-0.6-0.1-0.9c-0.1-0.3-0.2-0.6-0.3-0.9c-0.1-0.3-0.3-0.5-0.5-0.8c-0.2-0.3-0.4-0.5-0.6-0.7
			c-0.2-0.2-0.5-0.4-0.8-0.6c-0.3-0.2-0.6-0.3-0.9-0.4c-0.3-0.1-0.6-0.2-0.9-0.3c-0.3-0.1-0.7-0.1-1-0.1c-0.3,0-0.7,0.1-1,0.1
			c-0.3,0.1-0.7,0.2-1,0.3c-0.3,0.1-0.6,0.3-0.9,0.5c-0.3,0.2-0.5,0.4-0.8,0.6c-0.2,0.2-0.4,0.5-0.6,0.8c-0.2,0.3-0.3,0.6-0.5,0.9
			c-0.1,0.3-0.2,0.6-0.3,0.9C1563,515.2,1563,515.6,1563,515.9z"/>
		<path style="clip-path:url(#SVGID_00000000183098853944598890000012362155679139462073_);fill:#8C8787;" d="M1619.3,515.9
			c0,0.3,0.1,0.6,0.2,0.9c0.1,0.3,0.2,0.6,0.4,0.9s0.3,0.5,0.5,0.8c0.2,0.2,0.4,0.5,0.7,0.7c0.2,0.2,0.5,0.4,0.8,0.5
			c0.3,0.2,0.6,0.3,0.9,0.4c0.3,0.1,0.6,0.2,1,0.2s0.7,0.1,1,0c0.3,0,0.7-0.1,1-0.1c0.3-0.1,0.6-0.2,0.9-0.3
			c0.3-0.1,0.6-0.3,0.8-0.5c0.3-0.2,0.5-0.4,0.7-0.6c0.2-0.2,0.4-0.5,0.6-0.7c0.2-0.3,0.3-0.5,0.4-0.8c0.1-0.3,0.2-0.6,0.3-0.9
			c0.1-0.3,0.1-0.6,0.1-0.9c0-0.3,0-0.6-0.1-0.9c-0.1-0.3-0.2-0.6-0.3-0.9c-0.1-0.3-0.3-0.5-0.5-0.8s-0.4-0.5-0.6-0.7
			c-0.2-0.2-0.5-0.4-0.8-0.6c-0.3-0.2-0.6-0.3-0.9-0.4c-0.3-0.1-0.6-0.2-0.9-0.3c-0.3-0.1-0.7-0.1-1-0.1c-0.3,0-0.7,0.1-1,0.1
			c-0.3,0.1-0.7,0.2-1,0.3c-0.3,0.1-0.6,0.3-0.9,0.5c-0.3,0.2-0.5,0.4-0.8,0.6s-0.4,0.5-0.6,0.8c-0.2,0.3-0.3,0.6-0.5,0.9
			c-0.1,0.3-0.2,0.6-0.3,0.9C1619.3,515.2,1619.3,515.6,1619.3,515.9z"/>
		<path style="clip-path:url(#SVGID_00000000183098853944598890000012362155679139462073_);fill:#8C8787;" d="M1675.5,515.9
			c0,0.3,0.1,0.6,0.2,0.9c0.1,0.3,0.2,0.6,0.4,0.9c0.1,0.3,0.3,0.5,0.5,0.8c0.2,0.2,0.4,0.5,0.7,0.7c0.2,0.2,0.5,0.4,0.8,0.5
			c0.3,0.2,0.6,0.3,0.9,0.4c0.3,0.1,0.6,0.2,1,0.2c0.3,0,0.7,0.1,1,0c0.3,0,0.7-0.1,1-0.1c0.3-0.1,0.6-0.2,0.9-0.3
			c0.3-0.1,0.6-0.3,0.8-0.5c0.3-0.2,0.5-0.4,0.7-0.6c0.2-0.2,0.4-0.5,0.6-0.7c0.2-0.3,0.3-0.5,0.4-0.8s0.2-0.6,0.3-0.9
			c0.1-0.3,0.1-0.6,0.1-0.9c0-0.3,0-0.6-0.1-0.9c-0.1-0.3-0.2-0.6-0.3-0.9c-0.1-0.3-0.3-0.5-0.5-0.8c-0.2-0.3-0.4-0.5-0.6-0.7
			c-0.2-0.2-0.5-0.4-0.8-0.6c-0.3-0.2-0.6-0.3-0.9-0.4c-0.3-0.1-0.6-0.2-0.9-0.3c-0.3-0.1-0.7-0.1-1-0.1c-0.3,0-0.7,0.1-1,0.1
			c-0.3,0.1-0.7,0.2-1,0.3c-0.3,0.1-0.6,0.3-0.9,0.5c-0.3,0.2-0.5,0.4-0.8,0.6c-0.2,0.2-0.4,0.5-0.6,0.8c-0.2,0.3-0.3,0.6-0.5,0.9
			c-0.1,0.3-0.2,0.6-0.3,0.9C1675.5,515.2,1675.5,515.6,1675.5,515.9z"/>
		<path style="clip-path:url(#SVGID_00000000183098853944598890000012362155679139462073_);fill:#8C8787;" d="M1506.7,564.1
			c0,0.3,0.1,0.6,0.2,0.9c0.1,0.3,0.2,0.6,0.4,0.9c0.1,0.3,0.3,0.5,0.5,0.8c0.2,0.2,0.4,0.5,0.7,0.7s0.5,0.4,0.8,0.5
			c0.3,0.2,0.6,0.3,0.9,0.4c0.3,0.1,0.6,0.2,1,0.2c0.3,0,0.7,0.1,1,0c0.3,0,0.7-0.1,1-0.1c0.3-0.1,0.6-0.2,0.9-0.3
			c0.3-0.1,0.6-0.3,0.8-0.5c0.3-0.2,0.5-0.4,0.7-0.6c0.2-0.2,0.4-0.5,0.6-0.7c0.2-0.3,0.3-0.5,0.4-0.8c0.1-0.3,0.2-0.6,0.3-0.9
			s0.1-0.6,0.1-0.9c0-0.3,0-0.6-0.1-0.9c-0.1-0.3-0.2-0.6-0.3-0.9c-0.1-0.3-0.3-0.5-0.5-0.8c-0.2-0.3-0.4-0.5-0.6-0.7
			c-0.2-0.2-0.5-0.4-0.8-0.6c-0.3-0.2-0.6-0.3-0.9-0.4c-0.3-0.1-0.6-0.2-0.9-0.3c-0.3-0.1-0.7-0.1-1-0.1c-0.3,0-0.7,0.1-1,0.1
			c-0.3,0.1-0.7,0.2-1,0.3c-0.3,0.1-0.6,0.3-0.9,0.5c-0.3,0.2-0.5,0.4-0.8,0.6c-0.2,0.2-0.4,0.5-0.6,0.8c-0.2,0.3-0.3,0.6-0.5,0.9
			c-0.1,0.3-0.2,0.6-0.3,0.9S1506.7,563.8,1506.7,564.1z"/>
		<path style="clip-path:url(#SVGID_00000000183098853944598890000012362155679139462073_);fill:#8C8787;" d="M1563,564.1
			c0,0.3,0.1,0.6,0.2,0.9c0.1,0.3,0.2,0.6,0.4,0.9c0.1,0.3,0.3,0.5,0.5,0.8c0.2,0.2,0.4,0.5,0.7,0.7c0.2,0.2,0.5,0.4,0.8,0.5
			c0.3,0.2,0.6,0.3,0.9,0.4c0.3,0.1,0.6,0.2,1,0.2c0.3,0,0.7,0.1,1,0c0.3,0,0.7-0.1,1-0.1c0.3-0.1,0.6-0.2,0.9-0.3
			c0.3-0.1,0.6-0.3,0.8-0.5c0.3-0.2,0.5-0.4,0.7-0.6c0.2-0.2,0.4-0.5,0.6-0.7c0.2-0.3,0.3-0.5,0.4-0.8c0.1-0.3,0.2-0.6,0.3-0.9
			c0.1-0.3,0.1-0.6,0.1-0.9c0-0.3,0-0.6-0.1-0.9s-0.2-0.6-0.3-0.9c-0.1-0.3-0.3-0.5-0.5-0.8c-0.2-0.3-0.4-0.5-0.6-0.7
			c-0.2-0.2-0.5-0.4-0.8-0.6c-0.3-0.2-0.6-0.3-0.9-0.4c-0.3-0.1-0.6-0.2-0.9-0.3c-0.3-0.1-0.7-0.1-1-0.1c-0.3,0-0.7,0.1-1,0.1
			c-0.3,0.1-0.7,0.2-1,0.3c-0.3,0.1-0.6,0.3-0.9,0.5s-0.5,0.4-0.8,0.6c-0.2,0.2-0.4,0.5-0.6,0.8c-0.2,0.3-0.3,0.6-0.5,0.9
			c-0.1,0.3-0.2,0.6-0.3,0.9C1563,563.5,1563,563.8,1563,564.1z"/>
		<path style="clip-path:url(#SVGID_00000000183098853944598890000012362155679139462073_);fill:#8C8787;" d="M1619.3,564.1
			c0,0.3,0.1,0.6,0.2,0.9c0.1,0.3,0.2,0.6,0.4,0.9c0.1,0.3,0.3,0.5,0.5,0.8c0.2,0.2,0.4,0.5,0.7,0.7c0.2,0.2,0.5,0.4,0.8,0.5
			s0.6,0.3,0.9,0.4c0.3,0.1,0.6,0.2,1,0.2c0.3,0,0.7,0.1,1,0s0.7-0.1,1-0.1c0.3-0.1,0.6-0.2,0.9-0.3c0.3-0.1,0.6-0.3,0.8-0.5
			c0.3-0.2,0.5-0.4,0.7-0.6c0.2-0.2,0.4-0.5,0.6-0.7c0.2-0.3,0.3-0.5,0.4-0.8c0.1-0.3,0.2-0.6,0.3-0.9c0.1-0.3,0.1-0.6,0.1-0.9
			c0-0.3,0-0.6-0.1-0.9c-0.1-0.3-0.2-0.6-0.3-0.9c-0.1-0.3-0.3-0.5-0.5-0.8c-0.2-0.3-0.4-0.5-0.6-0.7c-0.2-0.2-0.5-0.4-0.8-0.6
			c-0.3-0.2-0.6-0.3-0.9-0.4c-0.3-0.1-0.6-0.2-0.9-0.3c-0.3-0.1-0.7-0.1-1-0.1c-0.3,0-0.7,0.1-1,0.1c-0.3,0.1-0.7,0.2-1,0.3
			c-0.3,0.1-0.6,0.3-0.9,0.5c-0.3,0.2-0.5,0.4-0.8,0.6c-0.2,0.2-0.4,0.5-0.6,0.8c-0.2,0.3-0.3,0.6-0.5,0.9c-0.1,0.3-0.2,0.6-0.3,0.9
			C1619.3,563.5,1619.3,563.8,1619.3,564.1z"/>
		<path style="clip-path:url(#SVGID_00000000183098853944598890000012362155679139462073_);fill:#8C8787;" d="M1675.5,564.1
			c0,0.3,0.1,0.6,0.2,0.9c0.1,0.3,0.2,0.6,0.4,0.9c0.1,0.3,0.3,0.5,0.5,0.8c0.2,0.2,0.4,0.5,0.7,0.7c0.2,0.2,0.5,0.4,0.8,0.5
			c0.3,0.2,0.6,0.3,0.9,0.4c0.3,0.1,0.6,0.2,1,0.2c0.3,0,0.7,0.1,1,0c0.3,0,0.7-0.1,1-0.1c0.3-0.1,0.6-0.2,0.9-0.3
			c0.3-0.1,0.6-0.3,0.8-0.5c0.3-0.2,0.5-0.4,0.7-0.6c0.2-0.2,0.4-0.5,0.6-0.7c0.2-0.3,0.3-0.5,0.4-0.8c0.1-0.3,0.2-0.6,0.3-0.9
			c0.1-0.3,0.1-0.6,0.1-0.9c0-0.3,0-0.6-0.1-0.9c-0.1-0.3-0.2-0.6-0.3-0.9c-0.1-0.3-0.3-0.5-0.5-0.8c-0.2-0.3-0.4-0.5-0.6-0.7
			c-0.2-0.2-0.5-0.4-0.8-0.6c-0.3-0.2-0.6-0.3-0.9-0.4c-0.3-0.1-0.6-0.2-0.9-0.3c-0.3-0.1-0.7-0.1-1-0.1c-0.3,0-0.7,0.1-1,0.1
			c-0.3,0.1-0.7,0.2-1,0.3c-0.3,0.1-0.6,0.3-0.9,0.5c-0.3,0.2-0.5,0.4-0.8,0.6c-0.2,0.2-0.4,0.5-0.6,0.8c-0.2,0.3-0.3,0.6-0.5,0.9
			c-0.1,0.3-0.2,0.6-0.3,0.9C1675.5,563.5,1675.5,563.8,1675.5,564.1z"/>
		<path style="clip-path:url(#SVGID_00000000183098853944598890000012362155679139462073_);fill:#8C8787;" d="M1506.7,612.3
			c0,0.3,0.1,0.6,0.2,0.9s0.2,0.6,0.4,0.9c0.1,0.3,0.3,0.5,0.5,0.8c0.2,0.2,0.4,0.5,0.7,0.7c0.2,0.2,0.5,0.4,0.8,0.5
			c0.3,0.2,0.6,0.3,0.9,0.4c0.3,0.1,0.6,0.2,1,0.2c0.3,0,0.7,0.1,1,0c0.3,0,0.7-0.1,1-0.1c0.3-0.1,0.6-0.2,0.9-0.3
			c0.3-0.1,0.6-0.3,0.8-0.5c0.3-0.2,0.5-0.4,0.7-0.6s0.4-0.5,0.6-0.7c0.2-0.3,0.3-0.5,0.4-0.8c0.1-0.3,0.2-0.6,0.3-0.9
			c0.1-0.3,0.1-0.6,0.1-0.9c0-0.3,0-0.6-0.1-0.9c-0.1-0.3-0.2-0.6-0.3-0.9c-0.1-0.3-0.3-0.5-0.5-0.8s-0.4-0.5-0.6-0.7
			c-0.2-0.2-0.5-0.4-0.8-0.6c-0.3-0.2-0.6-0.3-0.9-0.4c-0.3-0.1-0.6-0.2-0.9-0.3s-0.7-0.1-1-0.1c-0.3,0-0.7,0.1-1,0.1
			c-0.3,0.1-0.7,0.2-1,0.3c-0.3,0.1-0.6,0.3-0.9,0.5c-0.3,0.2-0.5,0.4-0.8,0.6c-0.2,0.2-0.4,0.5-0.6,0.8c-0.2,0.3-0.3,0.6-0.5,0.9
			c-0.1,0.3-0.2,0.6-0.3,0.9C1506.8,611.7,1506.7,612,1506.7,612.3z"/>
		<path style="clip-path:url(#SVGID_00000000183098853944598890000012362155679139462073_);fill:#8C8787;" d="M1563,612.3
			c0,0.3,0.1,0.6,0.2,0.9c0.1,0.3,0.2,0.6,0.4,0.9c0.1,0.3,0.3,0.5,0.5,0.8c0.2,0.2,0.4,0.5,0.7,0.7c0.2,0.2,0.5,0.4,0.8,0.5
			c0.3,0.2,0.6,0.3,0.9,0.4c0.3,0.1,0.6,0.2,1,0.2s0.7,0.1,1,0c0.3,0,0.7-0.1,1-0.1c0.3-0.1,0.6-0.2,0.9-0.3
			c0.3-0.1,0.6-0.3,0.8-0.5c0.3-0.2,0.5-0.4,0.7-0.6c0.2-0.2,0.4-0.5,0.6-0.7c0.2-0.3,0.3-0.5,0.4-0.8s0.2-0.6,0.3-0.9
			c0.1-0.3,0.1-0.6,0.1-0.9c0-0.3,0-0.6-0.1-0.9c-0.1-0.3-0.2-0.6-0.3-0.9s-0.3-0.5-0.5-0.8c-0.2-0.3-0.4-0.5-0.6-0.7
			c-0.2-0.2-0.5-0.4-0.8-0.6c-0.3-0.2-0.6-0.3-0.9-0.4c-0.3-0.1-0.6-0.2-0.9-0.3s-0.7-0.1-1-0.1c-0.3,0-0.7,0.1-1,0.1
			c-0.3,0.1-0.7,0.2-1,0.3s-0.6,0.3-0.9,0.5c-0.3,0.2-0.5,0.4-0.8,0.6c-0.2,0.2-0.4,0.5-0.6,0.8c-0.2,0.3-0.3,0.6-0.5,0.9
			c-0.1,0.3-0.2,0.6-0.3,0.9C1563,611.7,1563,612,1563,612.3z"/>
		<path style="clip-path:url(#SVGID_00000000183098853944598890000012362155679139462073_);fill:#8C8787;" d="M1619.3,612.3
			c0,0.3,0.1,0.6,0.2,0.9c0.1,0.3,0.2,0.6,0.4,0.9c0.1,0.3,0.3,0.5,0.5,0.8c0.2,0.2,0.4,0.5,0.7,0.7c0.2,0.2,0.5,0.4,0.8,0.5
			c0.3,0.2,0.6,0.3,0.9,0.4c0.3,0.1,0.6,0.2,1,0.2c0.3,0,0.7,0.1,1,0c0.3,0,0.7-0.1,1-0.1c0.3-0.1,0.6-0.2,0.9-0.3
			c0.3-0.1,0.6-0.3,0.8-0.5c0.3-0.2,0.5-0.4,0.7-0.6c0.2-0.2,0.4-0.5,0.6-0.7c0.2-0.3,0.3-0.5,0.4-0.8c0.1-0.3,0.2-0.6,0.3-0.9
			c0.1-0.3,0.1-0.6,0.1-0.9c0-0.3,0-0.6-0.1-0.9c-0.1-0.3-0.2-0.6-0.3-0.9s-0.3-0.5-0.5-0.8c-0.2-0.3-0.4-0.5-0.6-0.7
			c-0.2-0.2-0.5-0.4-0.8-0.6s-0.6-0.3-0.9-0.4c-0.3-0.1-0.6-0.2-0.9-0.3c-0.3-0.1-0.7-0.1-1-0.1c-0.3,0-0.7,0.1-1,0.1
			c-0.3,0.1-0.7,0.2-1,0.3c-0.3,0.1-0.6,0.3-0.9,0.5c-0.3,0.2-0.5,0.4-0.8,0.6c-0.2,0.2-0.4,0.5-0.6,0.8c-0.2,0.3-0.3,0.6-0.5,0.9
			s-0.2,0.6-0.3,0.9S1619.3,612,1619.3,612.3z"/>
		<path style="clip-path:url(#SVGID_00000000183098853944598890000012362155679139462073_);fill:#8C8787;" d="M1675.5,612.3
			c0,0.3,0.1,0.6,0.2,0.9c0.1,0.3,0.2,0.6,0.4,0.9c0.1,0.3,0.3,0.5,0.5,0.8c0.2,0.2,0.4,0.5,0.7,0.7c0.2,0.2,0.5,0.4,0.8,0.5
			s0.6,0.3,0.9,0.4c0.3,0.1,0.6,0.2,1,0.2c0.3,0,0.7,0.1,1,0c0.3,0,0.7-0.1,1-0.1c0.3-0.1,0.6-0.2,0.9-0.3c0.3-0.1,0.6-0.3,0.8-0.5
			c0.3-0.2,0.5-0.4,0.7-0.6c0.2-0.2,0.4-0.5,0.6-0.7c0.2-0.3,0.3-0.5,0.4-0.8c0.1-0.3,0.2-0.6,0.3-0.9c0.1-0.3,0.1-0.6,0.1-0.9
			c0-0.3,0-0.6-0.1-0.9c-0.1-0.3-0.2-0.6-0.3-0.9c-0.1-0.3-0.3-0.5-0.5-0.8c-0.2-0.3-0.4-0.5-0.6-0.7s-0.5-0.4-0.8-0.6
			c-0.3-0.2-0.6-0.3-0.9-0.4c-0.3-0.1-0.6-0.2-0.9-0.3c-0.3-0.1-0.7-0.1-1-0.1c-0.3,0-0.7,0.1-1,0.1c-0.3,0.1-0.7,0.2-1,0.3
			c-0.3,0.1-0.6,0.3-0.9,0.5c-0.3,0.2-0.5,0.4-0.8,0.6s-0.4,0.5-0.6,0.8c-0.2,0.3-0.3,0.6-0.5,0.9c-0.1,0.3-0.2,0.6-0.3,0.9
			C1675.5,611.7,1675.5,612,1675.5,612.3z"/>
		<path style="clip-path:url(#SVGID_00000000183098853944598890000012362155679139462073_);fill:#8C8787;" d="M1563,660.6
			c0-2.8,2.3-5.1,5.1-5.1s5.1,2.3,5.1,5.1c0,2.8-2.3,5.1-5.1,5.1S1563,663.4,1563,660.6z"/>
		<path style="clip-path:url(#SVGID_00000000183098853944598890000012362155679139462073_);fill:#8C8787;" d="M1619.3,660.6
			c0,0.3,0.1,0.6,0.2,0.9c0.1,0.3,0.2,0.6,0.4,0.9s0.3,0.5,0.5,0.8c0.2,0.2,0.4,0.5,0.7,0.7c0.2,0.2,0.5,0.4,0.8,0.5
			c0.3,0.2,0.6,0.3,0.9,0.4c0.3,0.1,0.6,0.2,1,0.2c0.3,0,0.7,0.1,1,0c0.3,0,0.7-0.1,1-0.1c0.3-0.1,0.6-0.2,0.9-0.3
			c0.3-0.1,0.6-0.3,0.8-0.5c0.3-0.2,0.5-0.4,0.7-0.6c0.2-0.2,0.4-0.5,0.6-0.7c0.2-0.3,0.3-0.5,0.4-0.8c0.1-0.3,0.2-0.6,0.3-0.9
			c0.1-0.3,0.1-0.6,0.1-0.9c0-0.3,0-0.6-0.1-0.9c-0.1-0.3-0.2-0.6-0.3-0.9c-0.1-0.3-0.3-0.5-0.5-0.8c-0.2-0.3-0.4-0.5-0.6-0.7
			c-0.2-0.2-0.5-0.4-0.8-0.6c-0.3-0.2-0.6-0.3-0.9-0.4c-0.3-0.1-0.6-0.2-0.9-0.3c-0.3-0.1-0.7-0.1-1-0.1c-0.3,0-0.7,0.1-1,0.1
			c-0.3,0.1-0.7,0.2-1,0.3c-0.3,0.1-0.6,0.3-0.9,0.5c-0.3,0.2-0.5,0.4-0.8,0.6c-0.2,0.2-0.4,0.5-0.6,0.8c-0.2,0.3-0.3,0.6-0.5,0.9
			c-0.1,0.3-0.2,0.6-0.3,0.9C1619.3,659.9,1619.3,660.3,1619.3,660.6z"/>
		<path style="clip-path:url(#SVGID_00000000183098853944598890000012362155679139462073_);fill:#8C8787;" d="M1675.5,660.6
			c0,0.3,0.1,0.6,0.2,0.9c0.1,0.3,0.2,0.6,0.4,0.9c0.1,0.3,0.3,0.5,0.5,0.8c0.2,0.2,0.4,0.5,0.7,0.7c0.2,0.2,0.5,0.4,0.8,0.5
			c0.3,0.2,0.6,0.3,0.9,0.4c0.3,0.1,0.6,0.2,1,0.2c0.3,0,0.7,0.1,1,0c0.3,0,0.7-0.1,1-0.1c0.3-0.1,0.6-0.2,0.9-0.3
			c0.3-0.1,0.6-0.3,0.8-0.5c0.3-0.2,0.5-0.4,0.7-0.6c0.2-0.2,0.4-0.5,0.6-0.7s0.3-0.5,0.4-0.8s0.2-0.6,0.3-0.9
			c0.1-0.3,0.1-0.6,0.1-0.9c0-0.3,0-0.6-0.1-0.9c-0.1-0.3-0.2-0.6-0.3-0.9c-0.1-0.3-0.3-0.5-0.5-0.8c-0.2-0.3-0.4-0.5-0.6-0.7
			c-0.2-0.2-0.5-0.4-0.8-0.6c-0.3-0.2-0.6-0.3-0.9-0.4c-0.3-0.1-0.6-0.2-0.9-0.3c-0.3-0.1-0.7-0.1-1-0.1c-0.3,0-0.7,0.1-1,0.1
			c-0.3,0.1-0.7,0.2-1,0.3c-0.3,0.1-0.6,0.3-0.9,0.5c-0.3,0.2-0.5,0.4-0.8,0.6c-0.2,0.2-0.4,0.5-0.6,0.8c-0.2,0.3-0.3,0.6-0.5,0.9
			c-0.1,0.3-0.2,0.6-0.3,0.9C1675.5,659.9,1675.5,660.3,1675.5,660.6z"/>
		<path style="clip-path:url(#SVGID_00000000183098853944598890000012362155679139462073_);fill:#8C8787;" d="M1619.3,708.8
			c0,0.3,0.1,0.6,0.2,0.9c0.1,0.3,0.2,0.6,0.4,0.9s0.3,0.5,0.5,0.8c0.2,0.2,0.4,0.5,0.7,0.7c0.2,0.2,0.5,0.4,0.8,0.5
			c0.3,0.2,0.6,0.3,0.9,0.4c0.3,0.1,0.6,0.2,1,0.2c0.3,0,0.7,0.1,1,0c0.3,0,0.7-0.1,1-0.1c0.3-0.1,0.6-0.2,0.9-0.3
			c0.3-0.1,0.6-0.3,0.8-0.5c0.3-0.2,0.5-0.4,0.7-0.6c0.2-0.2,0.4-0.5,0.6-0.7c0.2-0.3,0.3-0.5,0.4-0.8c0.1-0.3,0.2-0.6,0.3-0.9
			c0.1-0.3,0.1-0.6,0.1-0.9c0-0.3,0-0.6-0.1-0.9c-0.1-0.3-0.2-0.6-0.3-0.9c-0.1-0.3-0.3-0.5-0.5-0.8c-0.2-0.3-0.4-0.5-0.6-0.7
			c-0.2-0.2-0.5-0.4-0.8-0.6c-0.3-0.2-0.6-0.3-0.9-0.4c-0.3-0.1-0.6-0.2-0.9-0.3c-0.3-0.1-0.7-0.1-1-0.1c-0.3,0-0.7,0.1-1,0.1
			c-0.3,0.1-0.7,0.2-1,0.3c-0.3,0.1-0.6,0.3-0.9,0.5c-0.3,0.2-0.5,0.4-0.8,0.6c-0.2,0.2-0.4,0.5-0.6,0.8c-0.2,0.3-0.3,0.6-0.5,0.9
			s-0.2,0.6-0.3,0.9S1619.3,708.5,1619.3,708.8z"/>
		<path style="clip-path:url(#SVGID_00000000183098853944598890000012362155679139462073_);fill:#8C8787;" d="M1675.5,708.8
			c0,0.3,0.1,0.6,0.2,0.9c0.1,0.3,0.2,0.6,0.4,0.9c0.1,0.3,0.3,0.5,0.5,0.8c0.2,0.2,0.4,0.5,0.7,0.7c0.2,0.2,0.5,0.4,0.8,0.5
			c0.3,0.2,0.6,0.3,0.9,0.4c0.3,0.1,0.6,0.2,1,0.2c0.3,0,0.7,0.1,1,0c0.3,0,0.7-0.1,1-0.1c0.3-0.1,0.6-0.2,0.9-0.3
			c0.3-0.1,0.6-0.3,0.8-0.5c0.3-0.2,0.5-0.4,0.7-0.6c0.2-0.2,0.4-0.5,0.6-0.7c0.2-0.3,0.3-0.5,0.4-0.8c0.1-0.3,0.2-0.6,0.3-0.9
			c0.1-0.3,0.1-0.6,0.1-0.9c0-0.3,0-0.6-0.1-0.9c-0.1-0.3-0.2-0.6-0.3-0.9c-0.1-0.3-0.3-0.5-0.5-0.8c-0.2-0.3-0.4-0.5-0.6-0.7
			c-0.2-0.2-0.5-0.4-0.8-0.6c-0.3-0.2-0.6-0.3-0.9-0.4c-0.3-0.1-0.6-0.2-0.9-0.3c-0.3-0.1-0.7-0.1-1-0.1c-0.3,0-0.7,0.1-1,0.1
			c-0.3,0.1-0.7,0.2-1,0.3c-0.3,0.1-0.6,0.3-0.9,0.5c-0.3,0.2-0.5,0.4-0.8,0.6c-0.2,0.2-0.4,0.5-0.6,0.8s-0.3,0.6-0.5,0.9
			c-0.1,0.3-0.2,0.6-0.3,0.9C1675.5,708.2,1675.5,708.5,1675.5,708.8z"/>
		<path style="clip-path:url(#SVGID_00000000183098853944598890000012362155679139462073_);fill:#8C8787;" d="M1619.3,281.4
			c0,0.3,0.1,0.6,0.2,0.9c0.1,0.3,0.2,0.6,0.4,0.9c0.1,0.3,0.3,0.5,0.5,0.8c0.2,0.2,0.4,0.5,0.7,0.7c0.2,0.2,0.5,0.4,0.8,0.5
			c0.3,0.2,0.6,0.3,0.9,0.4c0.3,0.1,0.6,0.2,1,0.2s0.7,0.1,1,0c0.3,0,0.7-0.1,1-0.1c0.3-0.1,0.6-0.2,0.9-0.3
			c0.3-0.1,0.6-0.3,0.8-0.5c0.3-0.2,0.5-0.4,0.7-0.6s0.4-0.5,0.6-0.7c0.2-0.3,0.3-0.5,0.4-0.8c0.1-0.3,0.2-0.6,0.3-0.9
			c0.1-0.3,0.1-0.6,0.1-0.9c0-0.3,0-0.6-0.1-0.9c-0.1-0.3-0.2-0.6-0.3-0.9c-0.1-0.3-0.3-0.5-0.5-0.8c-0.2-0.3-0.4-0.5-0.6-0.7
			c-0.2-0.2-0.5-0.4-0.8-0.6c-0.3-0.2-0.6-0.3-0.9-0.4c-0.3-0.1-0.6-0.2-0.9-0.3c-0.3-0.1-0.7-0.1-1-0.1c-0.3,0-0.7,0.1-1,0.1
			c-0.3,0.1-0.7,0.2-1,0.3c-0.3,0.1-0.6,0.3-0.9,0.5c-0.3,0.2-0.5,0.4-0.8,0.6c-0.2,0.2-0.4,0.5-0.6,0.8c-0.2,0.3-0.3,0.6-0.5,0.9
			c-0.1,0.3-0.2,0.6-0.3,0.9C1619.3,280.7,1619.3,281,1619.3,281.4z"/>
		<path style="clip-path:url(#SVGID_00000000183098853944598890000012362155679139462073_);fill:#8C8787;" d="M1675.5,281.4
			c0,0.3,0.1,0.6,0.2,0.9c0.1,0.3,0.2,0.6,0.4,0.9c0.1,0.3,0.3,0.5,0.5,0.8c0.2,0.2,0.4,0.5,0.7,0.7c0.2,0.2,0.5,0.4,0.8,0.5
			c0.3,0.2,0.6,0.3,0.9,0.4c0.3,0.1,0.6,0.2,1,0.2s0.7,0.1,1,0c0.3,0,0.7-0.1,1-0.1c0.3-0.1,0.6-0.2,0.9-0.3
			c0.3-0.1,0.6-0.3,0.8-0.5c0.3-0.2,0.5-0.4,0.7-0.6s0.4-0.5,0.6-0.7c0.2-0.3,0.3-0.5,0.4-0.8c0.1-0.3,0.2-0.6,0.3-0.9
			c0.1-0.3,0.1-0.6,0.1-0.9c0-0.3,0-0.6-0.1-0.9c-0.1-0.3-0.2-0.6-0.3-0.9c-0.1-0.3-0.3-0.5-0.5-0.8c-0.2-0.3-0.4-0.5-0.6-0.7
			c-0.2-0.2-0.5-0.4-0.8-0.6c-0.3-0.2-0.6-0.3-0.9-0.4c-0.3-0.1-0.6-0.2-0.9-0.3c-0.3-0.1-0.7-0.1-1-0.1c-0.3,0-0.7,0.1-1,0.1
			c-0.3,0.1-0.7,0.2-1,0.3c-0.3,0.1-0.6,0.3-0.9,0.5c-0.3,0.2-0.5,0.4-0.8,0.6c-0.2,0.2-0.4,0.5-0.6,0.8c-0.2,0.3-0.3,0.6-0.5,0.9
			c-0.1,0.3-0.2,0.6-0.3,0.9C1675.5,280.7,1675.5,281,1675.5,281.4z"/>
		<path style="clip-path:url(#SVGID_00000000183098853944598890000012362155679139462073_);fill:#8C8787;" d="M1563,329.6
			c0,0.3,0.1,0.6,0.2,0.9c0.1,0.3,0.2,0.6,0.4,0.9c0.1,0.3,0.3,0.5,0.5,0.8c0.2,0.2,0.4,0.5,0.7,0.7c0.2,0.2,0.5,0.4,0.8,0.5
			c0.3,0.2,0.6,0.3,0.9,0.4c0.3,0.1,0.6,0.2,1,0.2c0.3,0,0.7,0.1,1,0c0.3,0,0.7-0.1,1-0.1c0.3-0.1,0.6-0.2,0.9-0.3
			c0.3-0.1,0.6-0.3,0.8-0.5c0.3-0.2,0.5-0.4,0.7-0.6c0.2-0.2,0.4-0.5,0.6-0.7c0.2-0.3,0.3-0.5,0.4-0.8c0.1-0.3,0.2-0.6,0.3-0.9
			c0.1-0.3,0.1-0.6,0.1-0.9c0-0.3,0-0.6-0.1-0.9c-0.1-0.3-0.2-0.6-0.3-0.9c-0.1-0.3-0.3-0.5-0.5-0.8c-0.2-0.3-0.4-0.5-0.6-0.7
			c-0.2-0.2-0.5-0.4-0.8-0.6c-0.3-0.2-0.6-0.3-0.9-0.4c-0.3-0.1-0.6-0.2-0.9-0.3s-0.7-0.1-1-0.1c-0.3,0-0.7,0.1-1,0.1
			c-0.3,0.1-0.7,0.2-1,0.3c-0.3,0.1-0.6,0.3-0.9,0.5c-0.3,0.2-0.5,0.4-0.8,0.6c-0.2,0.2-0.4,0.5-0.6,0.8c-0.2,0.3-0.3,0.6-0.5,0.9
			c-0.1,0.3-0.2,0.6-0.3,0.9C1563,329,1563,329.3,1563,329.6z"/>
		<path style="clip-path:url(#SVGID_00000000183098853944598890000012362155679139462073_);fill:#8C8787;" d="M1619.3,329.6
			c0,0.3,0.1,0.6,0.2,0.9c0.1,0.3,0.2,0.6,0.4,0.9s0.3,0.5,0.5,0.8c0.2,0.2,0.4,0.5,0.7,0.7c0.2,0.2,0.5,0.4,0.8,0.5
			c0.3,0.2,0.6,0.3,0.9,0.4c0.3,0.1,0.6,0.2,1,0.2c0.3,0,0.7,0.1,1,0c0.3,0,0.7-0.1,1-0.1c0.3-0.1,0.6-0.2,0.9-0.3
			c0.3-0.1,0.6-0.3,0.8-0.5c0.3-0.2,0.5-0.4,0.7-0.6c0.2-0.2,0.4-0.5,0.6-0.7c0.2-0.3,0.3-0.5,0.4-0.8c0.1-0.3,0.2-0.6,0.3-0.9
			c0.1-0.3,0.1-0.6,0.1-0.9c0-0.3,0-0.6-0.1-0.9c-0.1-0.3-0.2-0.6-0.3-0.9c-0.1-0.3-0.3-0.5-0.5-0.8c-0.2-0.3-0.4-0.5-0.6-0.7
			c-0.2-0.2-0.5-0.4-0.8-0.6c-0.3-0.2-0.6-0.3-0.9-0.4c-0.3-0.1-0.6-0.2-0.9-0.3c-0.3-0.1-0.7-0.1-1-0.1c-0.3,0-0.7,0.1-1,0.1
			c-0.3,0.1-0.7,0.2-1,0.3c-0.3,0.1-0.6,0.3-0.9,0.5c-0.3,0.2-0.5,0.4-0.8,0.6s-0.4,0.5-0.6,0.8c-0.2,0.3-0.3,0.6-0.5,0.9
			s-0.2,0.6-0.3,0.9C1619.3,329,1619.3,329.3,1619.3,329.6z"/>
		<path style="clip-path:url(#SVGID_00000000183098853944598890000012362155679139462073_);fill:#8C8787;" d="M1675.5,329.6
			c0,0.3,0.1,0.6,0.2,0.9c0.1,0.3,0.2,0.6,0.4,0.9c0.1,0.3,0.3,0.5,0.5,0.8c0.2,0.2,0.4,0.5,0.7,0.7c0.2,0.2,0.5,0.4,0.8,0.5
			c0.3,0.2,0.6,0.3,0.9,0.4c0.3,0.1,0.6,0.2,1,0.2c0.3,0,0.7,0.1,1,0c0.3,0,0.7-0.1,1-0.1c0.3-0.1,0.6-0.2,0.9-0.3
			c0.3-0.1,0.6-0.3,0.8-0.5c0.3-0.2,0.5-0.4,0.7-0.6c0.2-0.2,0.4-0.5,0.6-0.7c0.2-0.3,0.3-0.5,0.4-0.8c0.1-0.3,0.2-0.6,0.3-0.9
			c0.1-0.3,0.1-0.6,0.1-0.9c0-0.3,0-0.6-0.1-0.9c-0.1-0.3-0.2-0.6-0.3-0.9c-0.1-0.3-0.3-0.5-0.5-0.8c-0.2-0.3-0.4-0.5-0.6-0.7
			s-0.5-0.4-0.8-0.6c-0.3-0.2-0.6-0.3-0.9-0.4c-0.3-0.1-0.6-0.2-0.9-0.3c-0.3-0.1-0.7-0.1-1-0.1c-0.3,0-0.7,0.1-1,0.1
			c-0.3,0.1-0.7,0.2-1,0.3c-0.3,0.1-0.6,0.3-0.9,0.5c-0.3,0.2-0.5,0.4-0.8,0.6s-0.4,0.5-0.6,0.8c-0.2,0.3-0.3,0.6-0.5,0.9
			c-0.1,0.3-0.2,0.6-0.3,0.9C1675.5,329,1675.5,329.3,1675.5,329.6z"/>
		<path style="clip-path:url(#SVGID_00000000183098853944598890000012362155679139462073_);fill:#8C8787;" d="M1506.7,377.8
			c0,0.3,0.1,0.6,0.2,0.9c0.1,0.3,0.2,0.6,0.4,0.9c0.1,0.3,0.3,0.5,0.5,0.8c0.2,0.2,0.4,0.5,0.7,0.7c0.2,0.2,0.5,0.4,0.8,0.5
			c0.3,0.2,0.6,0.3,0.9,0.4c0.3,0.1,0.6,0.2,1,0.2c0.3,0,0.7,0.1,1,0c0.3,0,0.7-0.1,1-0.1c0.3-0.1,0.6-0.2,0.9-0.3
			c0.3-0.1,0.6-0.3,0.8-0.5c0.3-0.2,0.5-0.4,0.7-0.6c0.2-0.2,0.4-0.5,0.6-0.7c0.2-0.3,0.3-0.5,0.4-0.8c0.1-0.3,0.2-0.6,0.3-0.9
			c0.1-0.3,0.1-0.6,0.1-0.9c0-0.3,0-0.6-0.1-0.9c-0.1-0.3-0.2-0.6-0.3-0.9c-0.1-0.3-0.3-0.5-0.5-0.8c-0.2-0.3-0.4-0.5-0.6-0.7
			c-0.2-0.2-0.5-0.4-0.8-0.6c-0.3-0.2-0.6-0.3-0.9-0.4c-0.3-0.1-0.6-0.2-0.9-0.3c-0.3-0.1-0.7-0.1-1-0.1c-0.3,0-0.7,0.1-1,0.1
			c-0.3,0.1-0.7,0.2-1,0.3c-0.3,0.1-0.6,0.3-0.9,0.5s-0.5,0.4-0.8,0.6c-0.2,0.2-0.4,0.5-0.6,0.8c-0.2,0.3-0.3,0.6-0.5,0.9
			c-0.1,0.3-0.2,0.6-0.3,0.9C1506.8,377.2,1506.7,377.5,1506.7,377.8z"/>
		<path style="clip-path:url(#SVGID_00000000183098853944598890000012362155679139462073_);fill:#8C8787;" d="M1563,377.8
			c0-2.8,2.3-5.1,5.1-5.1s5.1,2.3,5.1,5.1c0,2.8-2.3,5.1-5.1,5.1S1563,380.7,1563,377.8z"/>
		<path style="clip-path:url(#SVGID_00000000183098853944598890000012362155679139462073_);fill:#8C8787;" d="M1619.3,377.8
			c0,0.3,0.1,0.6,0.2,0.9c0.1,0.3,0.2,0.6,0.4,0.9s0.3,0.5,0.5,0.8c0.2,0.2,0.4,0.5,0.7,0.7c0.2,0.2,0.5,0.4,0.8,0.5
			c0.3,0.2,0.6,0.3,0.9,0.4c0.3,0.1,0.6,0.2,1,0.2c0.3,0,0.7,0.1,1,0c0.3,0,0.7-0.1,1-0.1c0.3-0.1,0.6-0.2,0.9-0.3
			c0.3-0.1,0.6-0.3,0.8-0.5s0.5-0.4,0.7-0.6c0.2-0.2,0.4-0.5,0.6-0.7c0.2-0.3,0.3-0.5,0.4-0.8c0.1-0.3,0.2-0.6,0.3-0.9
			c0.1-0.3,0.1-0.6,0.1-0.9c0-0.3,0-0.6-0.1-0.9c-0.1-0.3-0.2-0.6-0.3-0.9c-0.1-0.3-0.3-0.5-0.5-0.8c-0.2-0.3-0.4-0.5-0.6-0.7
			c-0.2-0.2-0.5-0.4-0.8-0.6c-0.3-0.2-0.6-0.3-0.9-0.4c-0.3-0.1-0.6-0.2-0.9-0.3c-0.3-0.1-0.7-0.1-1-0.1c-0.3,0-0.7,0.1-1,0.1
			c-0.3,0.1-0.7,0.2-1,0.3c-0.3,0.1-0.6,0.3-0.9,0.5c-0.3,0.2-0.5,0.4-0.8,0.6c-0.2,0.2-0.4,0.5-0.6,0.8c-0.2,0.3-0.3,0.6-0.5,0.9
			s-0.2,0.6-0.3,0.9C1619.3,377.2,1619.3,377.5,1619.3,377.8z"/>
		<path style="clip-path:url(#SVGID_00000000183098853944598890000012362155679139462073_);fill:#8C8787;" d="M1675.5,377.8
			c0,0.3,0.1,0.6,0.2,0.9c0.1,0.3,0.2,0.6,0.4,0.9c0.1,0.3,0.3,0.5,0.5,0.8c0.2,0.2,0.4,0.5,0.7,0.7c0.2,0.2,0.5,0.4,0.8,0.5
			c0.3,0.2,0.6,0.3,0.9,0.4c0.3,0.1,0.6,0.2,1,0.2c0.3,0,0.7,0.1,1,0c0.3,0,0.7-0.1,1-0.1c0.3-0.1,0.6-0.2,0.9-0.3
			c0.3-0.1,0.6-0.3,0.8-0.5s0.5-0.4,0.7-0.6c0.2-0.2,0.4-0.5,0.6-0.7c0.2-0.3,0.3-0.5,0.4-0.8c0.1-0.3,0.2-0.6,0.3-0.9
			c0.1-0.3,0.1-0.6,0.1-0.9c0-0.3,0-0.6-0.1-0.9c-0.1-0.3-0.2-0.6-0.3-0.9c-0.1-0.3-0.3-0.5-0.5-0.8c-0.2-0.3-0.4-0.5-0.6-0.7
			c-0.2-0.2-0.5-0.4-0.8-0.6c-0.3-0.2-0.6-0.3-0.9-0.4c-0.3-0.1-0.6-0.2-0.9-0.3c-0.3-0.1-0.7-0.1-1-0.1c-0.3,0-0.7,0.1-1,0.1
			c-0.3,0.1-0.7,0.2-1,0.3c-0.3,0.1-0.6,0.3-0.9,0.5c-0.3,0.2-0.5,0.4-0.8,0.6c-0.2,0.2-0.4,0.5-0.6,0.8c-0.2,0.3-0.3,0.6-0.5,0.9
			c-0.1,0.3-0.2,0.6-0.3,0.9C1675.5,377.2,1675.5,377.5,1675.5,377.8z"/>
		<path style="clip-path:url(#SVGID_00000000183098853944598890000012362155679139462073_);fill:#8C8787;" d="M1506.7,426.1
			c0,0.3,0.1,0.6,0.2,0.9c0.1,0.3,0.2,0.6,0.4,0.9c0.1,0.3,0.3,0.5,0.5,0.8c0.2,0.2,0.4,0.5,0.7,0.7c0.2,0.2,0.5,0.4,0.8,0.5
			c0.3,0.2,0.6,0.3,0.9,0.4c0.3,0.1,0.6,0.2,1,0.2c0.3,0,0.7,0.1,1,0c0.3,0,0.7-0.1,1-0.1c0.3-0.1,0.6-0.2,0.9-0.3
			c0.3-0.1,0.6-0.3,0.8-0.5c0.3-0.2,0.5-0.4,0.7-0.6c0.2-0.2,0.4-0.5,0.6-0.7c0.2-0.3,0.3-0.5,0.4-0.8c0.1-0.3,0.2-0.6,0.3-0.9
			c0.1-0.3,0.1-0.6,0.1-0.9c0-0.3,0-0.6-0.1-0.9c-0.1-0.3-0.2-0.6-0.3-0.9c-0.1-0.3-0.3-0.5-0.5-0.8c-0.2-0.3-0.4-0.5-0.6-0.7
			c-0.2-0.2-0.5-0.4-0.8-0.6c-0.3-0.2-0.6-0.3-0.9-0.4c-0.3-0.1-0.6-0.2-0.9-0.3c-0.3-0.1-0.7-0.1-1-0.1c-0.3,0-0.7,0.1-1,0.1
			c-0.3,0.1-0.7,0.2-1,0.3c-0.3,0.1-0.6,0.3-0.9,0.5c-0.3,0.2-0.5,0.4-0.8,0.6c-0.2,0.2-0.4,0.5-0.6,0.8c-0.2,0.3-0.3,0.6-0.5,0.9
			c-0.1,0.3-0.2,0.6-0.3,0.9C1506.8,425.4,1506.7,425.7,1506.7,426.1z"/>
		<path style="clip-path:url(#SVGID_00000000183098853944598890000012362155679139462073_);fill:#8C8787;" d="M1563,426.1
			c0-2.8,2.3-5.1,5.1-5.1s5.1,2.3,5.1,5.1c0,2.8-2.3,5.1-5.1,5.1S1563,428.9,1563,426.1z"/>
		<path style="clip-path:url(#SVGID_00000000183098853944598890000012362155679139462073_);fill:#8C8787;" d="M1619.3,426.1
			c0,0.3,0.1,0.6,0.2,0.9c0.1,0.3,0.2,0.6,0.4,0.9c0.1,0.3,0.3,0.5,0.5,0.8c0.2,0.2,0.4,0.5,0.7,0.7c0.2,0.2,0.5,0.4,0.8,0.5
			c0.3,0.2,0.6,0.3,0.9,0.4c0.3,0.1,0.6,0.2,1,0.2s0.7,0.1,1,0c0.3,0,0.7-0.1,1-0.1c0.3-0.1,0.6-0.2,0.9-0.3
			c0.3-0.1,0.6-0.3,0.8-0.5c0.3-0.2,0.5-0.4,0.7-0.6c0.2-0.2,0.4-0.5,0.6-0.7c0.2-0.3,0.3-0.5,0.4-0.8c0.1-0.3,0.2-0.6,0.3-0.9
			c0.1-0.3,0.1-0.6,0.1-0.9c0-0.3,0-0.6-0.1-0.9s-0.2-0.6-0.3-0.9c-0.1-0.3-0.3-0.5-0.5-0.8c-0.2-0.3-0.4-0.5-0.6-0.7
			c-0.2-0.2-0.5-0.4-0.8-0.6c-0.3-0.2-0.6-0.3-0.9-0.4c-0.3-0.1-0.6-0.2-0.9-0.3c-0.3-0.1-0.7-0.1-1-0.1c-0.3,0-0.7,0.1-1,0.1
			c-0.3,0.1-0.7,0.2-1,0.3c-0.3,0.1-0.6,0.3-0.9,0.5c-0.3,0.2-0.5,0.4-0.8,0.6c-0.2,0.2-0.4,0.5-0.6,0.8c-0.2,0.3-0.3,0.6-0.5,0.9
			c-0.1,0.3-0.2,0.6-0.3,0.9C1619.3,425.4,1619.3,425.7,1619.3,426.1z"/>
		<path style="clip-path:url(#SVGID_00000000183098853944598890000012362155679139462073_);fill:#8C8787;" d="M1675.5,426.1
			c0,0.3,0.1,0.6,0.2,0.9c0.1,0.3,0.2,0.6,0.4,0.9c0.1,0.3,0.3,0.5,0.5,0.8c0.2,0.2,0.4,0.5,0.7,0.7c0.2,0.2,0.5,0.4,0.8,0.5
			c0.3,0.2,0.6,0.3,0.9,0.4c0.3,0.1,0.6,0.2,1,0.2c0.3,0,0.7,0.1,1,0c0.3,0,0.7-0.1,1-0.1c0.3-0.1,0.6-0.2,0.9-0.3
			c0.3-0.1,0.6-0.3,0.8-0.5c0.3-0.2,0.5-0.4,0.7-0.6c0.2-0.2,0.4-0.5,0.6-0.7s0.3-0.5,0.4-0.8c0.1-0.3,0.2-0.6,0.3-0.9
			c0.1-0.3,0.1-0.6,0.1-0.9c0-0.3,0-0.6-0.1-0.9c-0.1-0.3-0.2-0.6-0.3-0.9c-0.1-0.3-0.3-0.5-0.5-0.8c-0.2-0.3-0.4-0.5-0.6-0.7
			s-0.5-0.4-0.8-0.6c-0.3-0.2-0.6-0.3-0.9-0.4c-0.3-0.1-0.6-0.2-0.9-0.3c-0.3-0.1-0.7-0.1-1-0.1c-0.3,0-0.7,0.1-1,0.1
			c-0.3,0.1-0.7,0.2-1,0.3c-0.3,0.1-0.6,0.3-0.9,0.5c-0.3,0.2-0.5,0.4-0.8,0.6c-0.2,0.2-0.4,0.5-0.6,0.8c-0.2,0.3-0.3,0.6-0.5,0.9
			c-0.1,0.3-0.2,0.6-0.3,0.9C1675.5,425.4,1675.5,425.7,1675.5,426.1z"/>
		<path style="clip-path:url(#SVGID_00000000183098853944598890000012362155679139462073_);fill:#8C8787;" d="M1450.5,474.3
			c0,0.3,0,0.6,0.1,1c0.1,0.3,0.1,0.6,0.3,0.9c0.1,0.3,0.3,0.6,0.5,0.9c0.2,0.3,0.4,0.5,0.6,0.8c0.2,0.2,0.5,0.5,0.8,0.6
			c0.3,0.2,0.6,0.4,0.9,0.5c0.3,0.1,0.6,0.2,1,0.3c0.3,0.1,0.7,0.1,1,0.1c0.3,0,0.7-0.1,1-0.2c0.3-0.1,0.7-0.2,1-0.3
			c0.3-0.1,0.6-0.3,0.9-0.5s0.5-0.4,0.8-0.6c0.2-0.2,0.4-0.5,0.6-0.8s0.3-0.6,0.5-0.9c0.1-0.3,0.2-0.6,0.3-0.9
			c0.1-0.3,0.1-0.6,0.1-1c0-0.3,0-0.6-0.1-1c-0.1-0.3-0.2-0.6-0.3-0.9s-0.3-0.6-0.5-0.9c-0.2-0.3-0.4-0.5-0.6-0.8
			c-0.2-0.2-0.5-0.4-0.8-0.6s-0.6-0.4-0.9-0.5c-0.3-0.1-0.6-0.3-1-0.3c-0.3-0.1-0.7-0.1-1-0.2c-0.3,0-0.7,0.1-1,0.1
			c-0.3,0.1-0.7,0.2-1,0.3c-0.3,0.1-0.6,0.3-0.9,0.5c-0.3,0.2-0.5,0.4-0.8,0.6c-0.2,0.2-0.4,0.5-0.6,0.8c-0.2,0.3-0.3,0.6-0.5,0.9
			c-0.1,0.3-0.2,0.6-0.3,0.9C1450.5,473.6,1450.5,474,1450.5,474.3z"/>
		<path style="clip-path:url(#SVGID_00000000183098853944598890000012362155679139462073_);fill:#8C8787;" d="M1506.7,474.3
			c0,0.3,0.1,0.6,0.2,0.9c0.1,0.3,0.2,0.6,0.4,0.9c0.1,0.3,0.3,0.5,0.5,0.8c0.2,0.2,0.4,0.5,0.7,0.7c0.2,0.2,0.5,0.4,0.8,0.5
			c0.3,0.2,0.6,0.3,0.9,0.4c0.3,0.1,0.6,0.2,1,0.2c0.3,0,0.7,0.1,1,0c0.3,0,0.7-0.1,1-0.1c0.3-0.1,0.6-0.2,0.9-0.3
			c0.3-0.1,0.6-0.3,0.8-0.5c0.3-0.2,0.5-0.4,0.7-0.6c0.2-0.2,0.4-0.5,0.6-0.7c0.2-0.3,0.3-0.5,0.4-0.8c0.1-0.3,0.2-0.6,0.3-0.9
			c0.1-0.3,0.1-0.6,0.1-0.9c0-0.3,0-0.6-0.1-0.9c-0.1-0.3-0.2-0.6-0.3-0.9c-0.1-0.3-0.3-0.5-0.5-0.8c-0.2-0.3-0.4-0.5-0.6-0.7
			c-0.2-0.2-0.5-0.4-0.8-0.6c-0.3-0.2-0.6-0.3-0.9-0.4c-0.3-0.1-0.6-0.2-0.9-0.3s-0.7-0.1-1-0.1c-0.3,0-0.7,0.1-1,0.1
			c-0.3,0.1-0.7,0.2-1,0.3c-0.3,0.1-0.6,0.3-0.9,0.5c-0.3,0.2-0.5,0.4-0.8,0.6s-0.4,0.5-0.6,0.8c-0.2,0.3-0.3,0.6-0.5,0.9
			s-0.2,0.6-0.3,0.9C1506.8,473.6,1506.7,474,1506.7,474.3z"/>
		<path style="clip-path:url(#SVGID_00000000183098853944598890000012362155679139462073_);fill:#8C8787;" d="M1563,474.3
			c0,0.3,0.1,0.6,0.2,0.9c0.1,0.3,0.2,0.6,0.4,0.9c0.1,0.3,0.3,0.5,0.5,0.8c0.2,0.2,0.4,0.5,0.7,0.7c0.2,0.2,0.5,0.4,0.8,0.5
			s0.6,0.3,0.9,0.4c0.3,0.1,0.6,0.2,1,0.2s0.7,0.1,1,0c0.3,0,0.7-0.1,1-0.1c0.3-0.1,0.6-0.2,0.9-0.3c0.3-0.1,0.6-0.3,0.8-0.5
			c0.3-0.2,0.5-0.4,0.7-0.6c0.2-0.2,0.4-0.5,0.6-0.7c0.2-0.3,0.3-0.5,0.4-0.8c0.1-0.3,0.2-0.6,0.3-0.9c0.1-0.3,0.1-0.6,0.1-0.9
			c0-0.3,0-0.6-0.1-0.9c-0.1-0.3-0.2-0.6-0.3-0.9c-0.1-0.3-0.3-0.5-0.5-0.8c-0.2-0.3-0.4-0.5-0.6-0.7c-0.2-0.2-0.5-0.4-0.8-0.6
			c-0.3-0.2-0.6-0.3-0.9-0.4c-0.3-0.1-0.6-0.2-0.9-0.3c-0.3-0.1-0.7-0.1-1-0.1c-0.3,0-0.7,0.1-1,0.1c-0.3,0.1-0.7,0.2-1,0.3
			c-0.3,0.1-0.6,0.3-0.9,0.5c-0.3,0.2-0.5,0.4-0.8,0.6c-0.2,0.2-0.4,0.5-0.6,0.8c-0.2,0.3-0.3,0.6-0.5,0.9c-0.1,0.3-0.2,0.6-0.3,0.9
			C1563,473.6,1563,474,1563,474.3z"/>
		<path style="clip-path:url(#SVGID_00000000183098853944598890000012362155679139462073_);fill:#8C8787;" d="M1619.3,474.3
			c0,0.3,0.1,0.6,0.2,0.9c0.1,0.3,0.2,0.6,0.4,0.9c0.1,0.3,0.3,0.5,0.5,0.8c0.2,0.2,0.4,0.5,0.7,0.7c0.2,0.2,0.5,0.4,0.8,0.5
			c0.3,0.2,0.6,0.3,0.9,0.4c0.3,0.1,0.6,0.2,1,0.2c0.3,0,0.7,0.1,1,0c0.3,0,0.7-0.1,1-0.1c0.3-0.1,0.6-0.2,0.9-0.3
			c0.3-0.1,0.6-0.3,0.8-0.5c0.3-0.2,0.5-0.4,0.7-0.6c0.2-0.2,0.4-0.5,0.6-0.7c0.2-0.3,0.3-0.5,0.4-0.8c0.1-0.3,0.2-0.6,0.3-0.9
			c0.1-0.3,0.1-0.6,0.1-0.9c0-0.3,0-0.6-0.1-0.9c-0.1-0.3-0.2-0.6-0.3-0.9c-0.1-0.3-0.3-0.5-0.5-0.8c-0.2-0.3-0.4-0.5-0.6-0.7
			c-0.2-0.2-0.5-0.4-0.8-0.6c-0.3-0.2-0.6-0.3-0.9-0.4c-0.3-0.1-0.6-0.2-0.9-0.3c-0.3-0.1-0.7-0.1-1-0.1c-0.3,0-0.7,0.1-1,0.1
			c-0.3,0.1-0.7,0.2-1,0.3c-0.3,0.1-0.6,0.3-0.9,0.5c-0.3,0.2-0.5,0.4-0.8,0.6c-0.2,0.2-0.4,0.5-0.6,0.8c-0.2,0.3-0.3,0.6-0.5,0.9
			c-0.1,0.3-0.2,0.6-0.3,0.9C1619.3,473.6,1619.3,474,1619.3,474.3z"/>
		<path style="clip-path:url(#SVGID_00000000183098853944598890000012362155679139462073_);fill:#8C8787;" d="M1675.5,474.3
			c0,0.3,0.1,0.6,0.2,0.9c0.1,0.3,0.2,0.6,0.4,0.9c0.1,0.3,0.3,0.5,0.5,0.8c0.2,0.2,0.4,0.5,0.7,0.7c0.2,0.2,0.5,0.4,0.8,0.5
			c0.3,0.2,0.6,0.3,0.9,0.4c0.3,0.1,0.6,0.2,1,0.2c0.3,0,0.7,0.1,1,0c0.3,0,0.7-0.1,1-0.1c0.3-0.1,0.6-0.2,0.9-0.3
			c0.3-0.1,0.6-0.3,0.8-0.5c0.3-0.2,0.5-0.4,0.7-0.6c0.2-0.2,0.4-0.5,0.6-0.7c0.2-0.3,0.3-0.5,0.4-0.8s0.2-0.6,0.3-0.9
			c0.1-0.3,0.1-0.6,0.1-0.9c0-0.3,0-0.6-0.1-0.9c-0.1-0.3-0.2-0.6-0.3-0.9c-0.1-0.3-0.3-0.5-0.5-0.8c-0.2-0.3-0.4-0.5-0.6-0.7
			c-0.2-0.2-0.5-0.4-0.8-0.6c-0.3-0.2-0.6-0.3-0.9-0.4c-0.3-0.1-0.6-0.2-0.9-0.3c-0.3-0.1-0.7-0.1-1-0.1c-0.3,0-0.7,0.1-1,0.1
			c-0.3,0.1-0.7,0.2-1,0.3c-0.3,0.1-0.6,0.3-0.9,0.5c-0.3,0.2-0.5,0.4-0.8,0.6c-0.2,0.2-0.4,0.5-0.6,0.8c-0.2,0.3-0.3,0.6-0.5,0.9
			c-0.1,0.3-0.2,0.6-0.3,0.9C1675.5,473.6,1675.5,474,1675.5,474.3z"/>
	</g>
	<g>
		<defs>
			<rect id="SVGID_00000097464123138825933080000003482113350667721099_" x="-40.1" y="578.7" width="572.1" height="363.7"/>
		</defs>
		<clipPath id="SVGID_00000120527679524986870450000004775302864786392992_">
			<use xlink:href="#SVGID_00000097464123138825933080000003482113350667721099_"  style="overflow:visible;"/>
		</clipPath>
		<path style="clip-path:url(#SVGID_00000120527679524986870450000004775302864786392992_);fill:#8C8787;" d="M241.2,583.8
			c0,0.3,0,0.7,0,1c0,0.3,0.1,0.6,0.2,1c0.1,0.3,0.3,0.6,0.4,0.9c0.2,0.3,0.4,0.5,0.6,0.8c0.2,0.2,0.5,0.5,0.8,0.6
			c0.3,0.2,0.6,0.4,0.9,0.5c0.3,0.1,0.7,0.2,1,0.3c0.3,0.1,0.7,0.1,1,0.1c0.4,0,0.7,0,1-0.1c0.3-0.1,0.7-0.2,1-0.3s0.6-0.3,0.9-0.5
			c0.3-0.2,0.6-0.4,0.8-0.6c0.2-0.2,0.5-0.5,0.6-0.8c0.2-0.3,0.3-0.6,0.4-0.9c0.1-0.3,0.2-0.6,0.2-1c0-0.3,0.1-0.7,0-1
			c0-0.3,0-0.7,0-1c0-0.3-0.1-0.6-0.2-1c-0.1-0.3-0.3-0.6-0.4-0.9c-0.2-0.3-0.4-0.5-0.6-0.8c-0.2-0.2-0.5-0.5-0.8-0.6
			c-0.3-0.2-0.6-0.4-0.9-0.5s-0.7-0.2-1-0.3c-0.3-0.1-0.7-0.1-1-0.1c-0.4,0-0.7,0-1,0.1c-0.3,0.1-0.7,0.2-1,0.3
			c-0.3,0.1-0.6,0.3-0.9,0.5c-0.3,0.2-0.6,0.4-0.8,0.6c-0.2,0.2-0.5,0.5-0.6,0.8c-0.2,0.3-0.3,0.6-0.4,0.9c-0.1,0.3-0.2,0.6-0.2,1
			C241.2,583.2,241.2,583.5,241.2,583.8z"/>
		<path style="clip-path:url(#SVGID_00000120527679524986870450000004775302864786392992_);fill:#8C8787;" d="M128.7,632
			c0,0.3,0.1,0.6,0.2,0.9c0.1,0.3,0.2,0.6,0.4,0.9c0.1,0.3,0.3,0.5,0.5,0.8c0.2,0.2,0.4,0.5,0.7,0.7c0.2,0.2,0.5,0.4,0.8,0.5
			c0.3,0.2,0.6,0.3,0.9,0.4s0.6,0.2,1,0.2c0.3,0,0.7,0.1,1,0c0.3,0,0.7-0.1,1-0.1c0.3-0.1,0.6-0.2,0.9-0.3c0.3-0.1,0.6-0.3,0.8-0.5
			c0.3-0.2,0.5-0.4,0.7-0.6c0.2-0.2,0.4-0.5,0.6-0.7c0.2-0.3,0.3-0.5,0.4-0.8c0.1-0.3,0.2-0.6,0.3-0.9c0.1-0.3,0.1-0.6,0.1-0.9
			c0-0.3,0-0.6-0.1-0.9c-0.1-0.3-0.2-0.6-0.3-0.9c-0.1-0.3-0.3-0.5-0.5-0.8c-0.2-0.3-0.4-0.5-0.6-0.7c-0.2-0.2-0.5-0.4-0.8-0.6
			c-0.3-0.2-0.6-0.3-0.9-0.4c-0.3-0.1-0.6-0.2-0.9-0.3c-0.3-0.1-0.7-0.1-1-0.1c-0.3,0-0.7,0.1-1,0.1c-0.3,0.1-0.7,0.2-1,0.3
			c-0.3,0.1-0.6,0.3-0.9,0.5c-0.3,0.2-0.5,0.4-0.8,0.6c-0.2,0.2-0.4,0.5-0.6,0.8s-0.3,0.6-0.5,0.9c-0.1,0.3-0.2,0.6-0.3,0.9
			C128.7,631.4,128.7,631.7,128.7,632z"/>
		<path style="clip-path:url(#SVGID_00000120527679524986870450000004775302864786392992_);fill:#8C8787;" d="M185,632
			c0,0.3,0.1,0.6,0.2,0.9c0.1,0.3,0.2,0.6,0.4,0.9c0.1,0.3,0.3,0.5,0.5,0.8c0.2,0.2,0.4,0.5,0.7,0.7c0.2,0.2,0.5,0.4,0.8,0.5
			c0.3,0.2,0.6,0.3,0.9,0.4c0.3,0.1,0.6,0.2,1,0.2c0.3,0,0.7,0.1,1,0c0.3,0,0.7-0.1,1-0.1c0.3-0.1,0.6-0.2,0.9-0.3
			c0.3-0.1,0.6-0.3,0.8-0.5c0.3-0.2,0.5-0.4,0.7-0.6c0.2-0.2,0.4-0.5,0.6-0.7c0.2-0.3,0.3-0.5,0.4-0.8c0.1-0.3,0.2-0.6,0.3-0.9
			c0.1-0.3,0.1-0.6,0.1-0.9c0-0.3,0-0.6-0.1-0.9c-0.1-0.3-0.2-0.6-0.3-0.9c-0.1-0.3-0.3-0.5-0.5-0.8c-0.2-0.3-0.4-0.5-0.6-0.7
			c-0.2-0.2-0.5-0.4-0.8-0.6c-0.3-0.2-0.6-0.3-0.9-0.4c-0.3-0.1-0.6-0.2-0.9-0.3c-0.3-0.1-0.7-0.1-1-0.1c-0.3,0-0.7,0.1-1,0.1
			c-0.3,0.1-0.7,0.2-1,0.3c-0.3,0.1-0.6,0.3-0.9,0.5c-0.3,0.2-0.5,0.4-0.8,0.6c-0.2,0.2-0.4,0.5-0.6,0.8c-0.2,0.3-0.3,0.6-0.5,0.9
			c-0.1,0.3-0.2,0.6-0.3,0.9C185,631.4,185,631.7,185,632z"/>
		<path style="clip-path:url(#SVGID_00000120527679524986870450000004775302864786392992_);fill:#8C8787;" d="M241.2,632
			c0,0.3,0.1,0.6,0.2,0.9c0.1,0.3,0.2,0.6,0.4,0.9c0.1,0.3,0.3,0.5,0.5,0.8c0.2,0.2,0.4,0.5,0.7,0.7c0.2,0.2,0.5,0.4,0.8,0.5
			c0.3,0.2,0.6,0.3,0.9,0.4c0.3,0.1,0.6,0.2,1,0.2c0.3,0,0.7,0.1,1,0c0.3,0,0.7-0.1,1-0.1c0.3-0.1,0.6-0.2,0.9-0.3
			c0.3-0.1,0.6-0.3,0.8-0.5c0.3-0.2,0.5-0.4,0.7-0.6c0.2-0.2,0.4-0.5,0.6-0.7c0.2-0.3,0.3-0.5,0.4-0.8c0.1-0.3,0.2-0.6,0.3-0.9
			c0.1-0.3,0.1-0.6,0.1-0.9c0-0.3,0-0.6-0.1-0.9c-0.1-0.3-0.2-0.6-0.3-0.9c-0.1-0.3-0.3-0.5-0.5-0.8c-0.2-0.3-0.4-0.5-0.6-0.7
			c-0.2-0.2-0.5-0.4-0.8-0.6c-0.3-0.2-0.6-0.3-0.9-0.4c-0.3-0.1-0.6-0.2-0.9-0.3c-0.3-0.1-0.7-0.1-1-0.1c-0.3,0-0.7,0.1-1,0.1
			c-0.3,0.1-0.7,0.2-1,0.3c-0.3,0.1-0.6,0.3-0.9,0.5c-0.3,0.2-0.5,0.4-0.8,0.6c-0.2,0.2-0.4,0.5-0.6,0.8c-0.2,0.3-0.3,0.6-0.5,0.9
			c-0.1,0.3-0.2,0.6-0.3,0.9C241.2,631.4,241.2,631.7,241.2,632z"/>
		<path style="clip-path:url(#SVGID_00000120527679524986870450000004775302864786392992_);fill:#8C8787;" d="M297.5,632
			c0,0.3,0.1,0.6,0.2,0.9c0.1,0.3,0.2,0.6,0.4,0.9c0.1,0.3,0.3,0.5,0.5,0.8c0.2,0.2,0.4,0.5,0.7,0.7c0.2,0.2,0.5,0.4,0.8,0.5
			s0.6,0.3,0.9,0.4s0.6,0.2,1,0.2c0.3,0,0.7,0.1,1,0c0.3,0,0.7-0.1,1-0.1c0.3-0.1,0.6-0.2,0.9-0.3c0.3-0.1,0.6-0.3,0.8-0.5
			c0.3-0.2,0.5-0.4,0.7-0.6c0.2-0.2,0.4-0.5,0.6-0.7c0.2-0.3,0.3-0.5,0.4-0.8c0.1-0.3,0.2-0.6,0.3-0.9c0.1-0.3,0.1-0.6,0.1-0.9
			c0-0.3,0-0.6-0.1-0.9c-0.1-0.3-0.2-0.6-0.3-0.9c-0.1-0.3-0.3-0.5-0.5-0.8c-0.2-0.3-0.4-0.5-0.6-0.7c-0.2-0.2-0.5-0.4-0.8-0.6
			c-0.3-0.2-0.6-0.3-0.9-0.4c-0.3-0.1-0.6-0.2-0.9-0.3c-0.3-0.1-0.7-0.1-1-0.1c-0.3,0-0.7,0.1-1,0.1c-0.3,0.1-0.7,0.2-1,0.3
			c-0.3,0.1-0.6,0.3-0.9,0.5c-0.3,0.2-0.5,0.4-0.8,0.6c-0.2,0.2-0.4,0.5-0.6,0.8s-0.3,0.6-0.5,0.9c-0.1,0.3-0.2,0.6-0.3,0.9
			C297.5,631.4,297.5,631.7,297.5,632z"/>
		<path style="clip-path:url(#SVGID_00000120527679524986870450000004775302864786392992_);fill:#8C8787;" d="M353.8,632
			c0,0.3,0.1,0.6,0.2,0.9c0.1,0.3,0.2,0.6,0.4,0.9c0.1,0.3,0.3,0.5,0.5,0.8c0.2,0.2,0.4,0.5,0.7,0.7c0.2,0.2,0.5,0.4,0.8,0.5
			s0.6,0.3,0.9,0.4c0.3,0.1,0.6,0.2,1,0.2c0.3,0,0.7,0.1,1,0c0.3,0,0.7-0.1,1-0.1c0.3-0.1,0.6-0.2,0.9-0.3c0.3-0.1,0.6-0.3,0.8-0.5
			c0.3-0.2,0.5-0.4,0.7-0.6c0.2-0.2,0.4-0.5,0.6-0.7c0.2-0.3,0.3-0.5,0.4-0.8c0.1-0.3,0.2-0.6,0.3-0.9c0.1-0.3,0.1-0.6,0.1-0.9
			c0-0.3,0-0.6-0.1-0.9c-0.1-0.3-0.2-0.6-0.3-0.9c-0.1-0.3-0.3-0.5-0.5-0.8c-0.2-0.3-0.4-0.5-0.6-0.7c-0.2-0.2-0.5-0.4-0.8-0.6
			c-0.3-0.2-0.6-0.3-0.9-0.4c-0.3-0.1-0.6-0.2-0.9-0.3c-0.3-0.1-0.7-0.1-1-0.1c-0.3,0-0.7,0.1-1,0.1c-0.3,0.1-0.7,0.2-1,0.3
			c-0.3,0.1-0.6,0.3-0.9,0.5c-0.3,0.2-0.5,0.4-0.8,0.6c-0.2,0.2-0.4,0.5-0.6,0.8c-0.2,0.3-0.3,0.6-0.5,0.9c-0.1,0.3-0.2,0.6-0.3,0.9
			S353.8,631.7,353.8,632z"/>
		<path style="clip-path:url(#SVGID_00000120527679524986870450000004775302864786392992_);fill:#8C8787;" d="M72.4,680.3
			c0,0.3,0.1,0.6,0.2,0.9c0.1,0.3,0.2,0.6,0.4,0.9c0.1,0.3,0.3,0.5,0.5,0.8c0.2,0.2,0.4,0.5,0.7,0.7c0.2,0.2,0.5,0.4,0.8,0.5
			c0.3,0.2,0.6,0.3,0.9,0.4c0.3,0.1,0.6,0.2,1,0.2c0.3,0,0.7,0.1,1,0c0.3,0,0.7-0.1,1-0.1c0.3-0.1,0.6-0.2,0.9-0.3
			c0.3-0.1,0.6-0.3,0.8-0.5s0.5-0.4,0.7-0.6c0.2-0.2,0.4-0.5,0.6-0.7c0.2-0.3,0.3-0.5,0.4-0.8c0.1-0.3,0.2-0.6,0.3-0.9
			c0.1-0.3,0.1-0.6,0.1-0.9c0-0.3,0-0.6-0.1-0.9c-0.1-0.3-0.2-0.6-0.3-0.9c-0.1-0.3-0.3-0.5-0.5-0.8c-0.2-0.3-0.4-0.5-0.6-0.7
			c-0.2-0.2-0.5-0.4-0.8-0.6c-0.3-0.2-0.6-0.3-0.9-0.4c-0.3-0.1-0.6-0.2-0.9-0.3c-0.3-0.1-0.7-0.1-1-0.1c-0.3,0-0.7,0.1-1,0.1
			c-0.3,0.1-0.7,0.2-1,0.3c-0.3,0.1-0.6,0.3-0.9,0.5c-0.3,0.2-0.5,0.4-0.8,0.6c-0.2,0.2-0.4,0.5-0.6,0.8c-0.2,0.3-0.3,0.6-0.5,0.9
			c-0.1,0.3-0.2,0.6-0.3,0.9C72.5,679.6,72.4,679.9,72.4,680.3z"/>
		<path style="clip-path:url(#SVGID_00000120527679524986870450000004775302864786392992_);fill:#8C8787;" d="M128.7,680.3
			c0,0.3,0.1,0.6,0.2,0.9c0.1,0.3,0.2,0.6,0.4,0.9c0.1,0.3,0.3,0.5,0.5,0.8c0.2,0.2,0.4,0.5,0.7,0.7c0.2,0.2,0.5,0.4,0.8,0.5
			c0.3,0.2,0.6,0.3,0.9,0.4c0.3,0.1,0.6,0.2,1,0.2c0.3,0,0.7,0.1,1,0c0.3,0,0.7-0.1,1-0.1c0.3-0.1,0.6-0.2,0.9-0.3
			c0.3-0.1,0.6-0.3,0.8-0.5c0.3-0.2,0.5-0.4,0.7-0.6c0.2-0.2,0.4-0.5,0.6-0.7c0.2-0.3,0.3-0.5,0.4-0.8c0.1-0.3,0.2-0.6,0.3-0.9
			c0.1-0.3,0.1-0.6,0.1-0.9c0-0.3,0-0.6-0.1-0.9c-0.1-0.3-0.2-0.6-0.3-0.9c-0.1-0.3-0.3-0.5-0.5-0.8c-0.2-0.3-0.4-0.5-0.6-0.7
			c-0.2-0.2-0.5-0.4-0.8-0.6c-0.3-0.2-0.6-0.3-0.9-0.4c-0.3-0.1-0.6-0.2-0.9-0.3c-0.3-0.1-0.7-0.1-1-0.1c-0.3,0-0.7,0.1-1,0.1
			c-0.3,0.1-0.7,0.2-1,0.3c-0.3,0.1-0.6,0.3-0.9,0.5c-0.3,0.2-0.5,0.4-0.8,0.6c-0.2,0.2-0.4,0.5-0.6,0.8c-0.2,0.3-0.3,0.6-0.5,0.9
			c-0.1,0.3-0.2,0.6-0.3,0.9C128.7,679.6,128.7,679.9,128.7,680.3z"/>
		<path style="clip-path:url(#SVGID_00000120527679524986870450000004775302864786392992_);fill:#8C8787;" d="M185,680.3
			c0,0.3,0.1,0.6,0.2,0.9c0.1,0.3,0.2,0.6,0.4,0.9c0.1,0.3,0.3,0.5,0.5,0.8c0.2,0.2,0.4,0.5,0.7,0.7c0.2,0.2,0.5,0.4,0.8,0.5
			c0.3,0.2,0.6,0.3,0.9,0.4c0.3,0.1,0.6,0.2,1,0.2c0.3,0,0.7,0.1,1,0c0.3,0,0.7-0.1,1-0.1c0.3-0.1,0.6-0.2,0.9-0.3
			c0.3-0.1,0.6-0.3,0.8-0.5c0.3-0.2,0.5-0.4,0.7-0.6c0.2-0.2,0.4-0.5,0.6-0.7c0.2-0.3,0.3-0.5,0.4-0.8c0.1-0.3,0.2-0.6,0.3-0.9
			c0.1-0.3,0.1-0.6,0.1-0.9c0-0.3,0-0.6-0.1-0.9c-0.1-0.3-0.2-0.6-0.3-0.9c-0.1-0.3-0.3-0.5-0.5-0.8c-0.2-0.3-0.4-0.5-0.6-0.7
			c-0.2-0.2-0.5-0.4-0.8-0.6c-0.3-0.2-0.6-0.3-0.9-0.4c-0.3-0.1-0.6-0.2-0.9-0.3s-0.7-0.1-1-0.1c-0.3,0-0.7,0.1-1,0.1
			c-0.3,0.1-0.7,0.2-1,0.3c-0.3,0.1-0.6,0.3-0.9,0.5c-0.3,0.2-0.5,0.4-0.8,0.6c-0.2,0.2-0.4,0.5-0.6,0.8c-0.2,0.3-0.3,0.6-0.5,0.9
			c-0.1,0.3-0.2,0.6-0.3,0.9C185,679.6,185,679.9,185,680.3z"/>
		<path style="clip-path:url(#SVGID_00000120527679524986870450000004775302864786392992_);fill:#8C8787;" d="M241.2,680.3
			c0,0.3,0.1,0.6,0.2,0.9c0.1,0.3,0.2,0.6,0.4,0.9c0.1,0.3,0.3,0.5,0.5,0.8c0.2,0.2,0.4,0.5,0.7,0.7c0.2,0.2,0.5,0.4,0.8,0.5
			c0.3,0.2,0.6,0.3,0.9,0.4c0.3,0.1,0.6,0.2,1,0.2c0.3,0,0.7,0.1,1,0c0.3,0,0.7-0.1,1-0.1c0.3-0.1,0.6-0.2,0.9-0.3s0.6-0.3,0.8-0.5
			c0.3-0.2,0.5-0.4,0.7-0.6c0.2-0.2,0.4-0.5,0.6-0.7c0.2-0.3,0.3-0.5,0.4-0.8s0.2-0.6,0.3-0.9c0.1-0.3,0.1-0.6,0.1-0.9
			c0-0.3,0-0.6-0.1-0.9c-0.1-0.3-0.2-0.6-0.3-0.9c-0.1-0.3-0.3-0.5-0.5-0.8c-0.2-0.3-0.4-0.5-0.6-0.7c-0.2-0.2-0.5-0.4-0.8-0.6
			c-0.3-0.2-0.6-0.3-0.9-0.4c-0.3-0.1-0.6-0.2-0.9-0.3c-0.3-0.1-0.7-0.1-1-0.1c-0.3,0-0.7,0.1-1,0.1c-0.3,0.1-0.7,0.2-1,0.3
			c-0.3,0.1-0.6,0.3-0.9,0.5c-0.3,0.2-0.5,0.4-0.8,0.6c-0.2,0.2-0.4,0.5-0.6,0.8c-0.2,0.3-0.3,0.6-0.5,0.9c-0.1,0.3-0.2,0.6-0.3,0.9
			C241.2,679.6,241.2,679.9,241.2,680.3z"/>
		<path style="clip-path:url(#SVGID_00000120527679524986870450000004775302864786392992_);fill:#8C8787;" d="M297.5,680.3
			c0,0.3,0.1,0.6,0.2,0.9c0.1,0.3,0.2,0.6,0.4,0.9c0.1,0.3,0.3,0.5,0.5,0.8c0.2,0.2,0.4,0.5,0.7,0.7s0.5,0.4,0.8,0.5
			c0.3,0.2,0.6,0.3,0.9,0.4c0.3,0.1,0.6,0.2,1,0.2c0.3,0,0.7,0.1,1,0c0.3,0,0.7-0.1,1-0.1c0.3-0.1,0.6-0.2,0.9-0.3
			c0.3-0.1,0.6-0.3,0.8-0.5c0.3-0.2,0.5-0.4,0.7-0.6c0.2-0.2,0.4-0.5,0.6-0.7c0.2-0.3,0.3-0.5,0.4-0.8c0.1-0.3,0.2-0.6,0.3-0.9
			c0.1-0.3,0.1-0.6,0.1-0.9c0-0.3,0-0.6-0.1-0.9c-0.1-0.3-0.2-0.6-0.3-0.9c-0.1-0.3-0.3-0.5-0.5-0.8c-0.2-0.3-0.4-0.5-0.6-0.7
			c-0.2-0.2-0.5-0.4-0.8-0.6c-0.3-0.2-0.6-0.3-0.9-0.4c-0.3-0.1-0.6-0.2-0.9-0.3c-0.3-0.1-0.7-0.1-1-0.1c-0.3,0-0.7,0.1-1,0.1
			c-0.3,0.1-0.7,0.2-1,0.3c-0.3,0.1-0.6,0.3-0.9,0.5c-0.3,0.2-0.5,0.4-0.8,0.6c-0.2,0.2-0.4,0.5-0.6,0.8c-0.2,0.3-0.3,0.6-0.5,0.9
			c-0.1,0.3-0.2,0.6-0.3,0.9C297.5,679.6,297.5,679.9,297.5,680.3z"/>
		<path style="clip-path:url(#SVGID_00000120527679524986870450000004775302864786392992_);fill:#8C8787;" d="M353.8,680.3
			c0,0.3,0.1,0.6,0.2,0.9c0.1,0.3,0.2,0.6,0.4,0.9c0.1,0.3,0.3,0.5,0.5,0.8c0.2,0.2,0.4,0.5,0.7,0.7c0.2,0.2,0.5,0.4,0.8,0.5
			c0.3,0.2,0.6,0.3,0.9,0.4c0.3,0.1,0.6,0.2,1,0.2c0.3,0,0.7,0.1,1,0c0.3,0,0.7-0.1,1-0.1c0.3-0.1,0.6-0.2,0.9-0.3
			c0.3-0.1,0.6-0.3,0.8-0.5s0.5-0.4,0.7-0.6c0.2-0.2,0.4-0.5,0.6-0.7c0.2-0.3,0.3-0.5,0.4-0.8c0.1-0.3,0.2-0.6,0.3-0.9
			c0.1-0.3,0.1-0.6,0.1-0.9c0-0.3,0-0.6-0.1-0.9c-0.1-0.3-0.2-0.6-0.3-0.9c-0.1-0.3-0.3-0.5-0.5-0.8c-0.2-0.3-0.4-0.5-0.6-0.7
			c-0.2-0.2-0.5-0.4-0.8-0.6s-0.6-0.3-0.9-0.4c-0.3-0.1-0.6-0.2-0.9-0.3c-0.3-0.1-0.7-0.1-1-0.1c-0.3,0-0.7,0.1-1,0.1
			c-0.3,0.1-0.7,0.2-1,0.3c-0.3,0.1-0.6,0.3-0.9,0.5c-0.3,0.2-0.5,0.4-0.8,0.6c-0.2,0.2-0.4,0.5-0.6,0.8c-0.2,0.3-0.3,0.6-0.5,0.9
			c-0.1,0.3-0.2,0.6-0.3,0.9C353.8,679.6,353.8,679.9,353.8,680.3z"/>
		<path style="clip-path:url(#SVGID_00000120527679524986870450000004775302864786392992_);fill:#8C8787;" d="M410,680.3
			c0,0.3,0.1,0.6,0.2,0.9c0.1,0.3,0.2,0.6,0.4,0.9c0.1,0.3,0.3,0.5,0.5,0.8c0.2,0.2,0.4,0.5,0.7,0.7c0.2,0.2,0.5,0.4,0.8,0.5
			c0.3,0.2,0.6,0.3,0.9,0.4c0.3,0.1,0.6,0.2,1,0.2c0.3,0,0.7,0.1,1,0c0.3,0,0.7-0.1,1-0.1c0.3-0.1,0.6-0.2,0.9-0.3
			c0.3-0.1,0.6-0.3,0.8-0.5s0.5-0.4,0.7-0.6c0.2-0.2,0.4-0.5,0.6-0.7c0.2-0.3,0.3-0.5,0.4-0.8c0.1-0.3,0.2-0.6,0.3-0.9
			c0.1-0.3,0.1-0.6,0.1-0.9c0-0.3,0-0.6-0.1-0.9c-0.1-0.3-0.2-0.6-0.3-0.9c-0.1-0.3-0.3-0.5-0.5-0.8c-0.2-0.3-0.4-0.5-0.6-0.7
			c-0.2-0.2-0.5-0.4-0.8-0.6c-0.3-0.2-0.6-0.3-0.9-0.4c-0.3-0.1-0.6-0.2-0.9-0.3c-0.3-0.1-0.7-0.1-1-0.1c-0.3,0-0.7,0.1-1,0.1
			c-0.3,0.1-0.7,0.2-1,0.3s-0.6,0.3-0.9,0.5c-0.3,0.2-0.5,0.4-0.8,0.6c-0.2,0.2-0.4,0.5-0.6,0.8c-0.2,0.3-0.3,0.6-0.5,0.9
			c-0.1,0.3-0.2,0.6-0.3,0.9C410,679.6,410,679.9,410,680.3z"/>
		<path style="clip-path:url(#SVGID_00000120527679524986870450000004775302864786392992_);fill:#8C8787;" d="M16.2,728.5
			c0,0.3,0.1,0.6,0.2,0.9c0.1,0.3,0.2,0.6,0.4,0.9c0.1,0.3,0.3,0.5,0.5,0.8c0.2,0.2,0.4,0.5,0.7,0.7c0.2,0.2,0.5,0.4,0.8,0.5
			c0.3,0.2,0.6,0.3,0.9,0.4c0.3,0.1,0.6,0.2,1,0.2c0.3,0,0.7,0.1,1,0c0.3,0,0.7-0.1,1-0.1c0.3-0.1,0.6-0.2,0.9-0.3
			c0.3-0.1,0.6-0.3,0.8-0.5c0.3-0.2,0.5-0.4,0.7-0.6c0.2-0.2,0.4-0.5,0.6-0.7c0.2-0.3,0.3-0.5,0.4-0.8s0.2-0.6,0.3-0.9
			c0.1-0.3,0.1-0.6,0.1-0.9c0-0.3,0-0.6-0.1-0.9c-0.1-0.3-0.2-0.6-0.3-0.9c-0.1-0.3-0.3-0.5-0.5-0.8c-0.2-0.3-0.4-0.5-0.6-0.7
			s-0.5-0.4-0.8-0.6c-0.3-0.2-0.6-0.3-0.9-0.4c-0.3-0.1-0.6-0.2-0.9-0.3c-0.3-0.1-0.7-0.1-1-0.1c-0.3,0-0.7,0.1-1,0.1
			c-0.3,0.1-0.7,0.2-1,0.3c-0.3,0.1-0.6,0.3-0.9,0.5c-0.3,0.2-0.5,0.4-0.8,0.6c-0.2,0.2-0.4,0.5-0.6,0.8c-0.2,0.3-0.3,0.6-0.5,0.9
			c-0.1,0.3-0.2,0.6-0.3,0.9C16.2,727.9,16.2,728.2,16.2,728.5z"/>
		<path style="clip-path:url(#SVGID_00000120527679524986870450000004775302864786392992_);fill:#8C8787;" d="M72.4,728.5
			c0-2.8,2.3-5.1,5.1-5.1c2.8,0,5.1,2.3,5.1,5.1c0,2.8-2.3,5.1-5.1,5.1C74.7,733.6,72.4,731.3,72.4,728.5z"/>
		<path style="clip-path:url(#SVGID_00000120527679524986870450000004775302864786392992_);fill:#8C8787;" d="M128.7,728.5
			c0,0.3,0.1,0.6,0.2,0.9c0.1,0.3,0.2,0.6,0.4,0.9c0.1,0.3,0.3,0.5,0.5,0.8c0.2,0.2,0.4,0.5,0.7,0.7c0.2,0.2,0.5,0.4,0.8,0.5
			c0.3,0.2,0.6,0.3,0.9,0.4c0.3,0.1,0.6,0.2,1,0.2c0.3,0,0.7,0.1,1,0c0.3,0,0.7-0.1,1-0.1c0.3-0.1,0.6-0.2,0.9-0.3
			c0.3-0.1,0.6-0.3,0.8-0.5c0.3-0.2,0.5-0.4,0.7-0.6c0.2-0.2,0.4-0.5,0.6-0.7c0.2-0.3,0.3-0.5,0.4-0.8c0.1-0.3,0.2-0.6,0.3-0.9
			c0.1-0.3,0.1-0.6,0.1-0.9c0-0.3,0-0.6-0.1-0.9c-0.1-0.3-0.2-0.6-0.3-0.9c-0.1-0.3-0.3-0.5-0.5-0.8c-0.2-0.3-0.4-0.5-0.6-0.7
			c-0.2-0.2-0.5-0.4-0.8-0.6c-0.3-0.2-0.6-0.3-0.9-0.4c-0.3-0.1-0.6-0.2-0.9-0.3c-0.3-0.1-0.7-0.1-1-0.1c-0.3,0-0.7,0.1-1,0.1
			c-0.3,0.1-0.7,0.2-1,0.3c-0.3,0.1-0.6,0.3-0.9,0.5c-0.3,0.2-0.5,0.4-0.8,0.6c-0.2,0.2-0.4,0.5-0.6,0.8c-0.2,0.3-0.3,0.6-0.5,0.9
			c-0.1,0.3-0.2,0.6-0.3,0.9S128.7,728.2,128.7,728.5z"/>
		<path style="clip-path:url(#SVGID_00000120527679524986870450000004775302864786392992_);fill:#8C8787;" d="M185,728.5
			c0,0.3,0.1,0.6,0.2,0.9c0.1,0.3,0.2,0.6,0.4,0.9c0.1,0.3,0.3,0.5,0.5,0.8s0.4,0.5,0.7,0.7c0.2,0.2,0.5,0.4,0.8,0.5
			c0.3,0.2,0.6,0.3,0.9,0.4c0.3,0.1,0.6,0.2,1,0.2c0.3,0,0.7,0.1,1,0c0.3,0,0.7-0.1,1-0.1c0.3-0.1,0.6-0.2,0.9-0.3
			c0.3-0.1,0.6-0.3,0.8-0.5c0.3-0.2,0.5-0.4,0.7-0.6c0.2-0.2,0.4-0.5,0.6-0.7c0.2-0.3,0.3-0.5,0.4-0.8c0.1-0.3,0.2-0.6,0.3-0.9
			c0.1-0.3,0.1-0.6,0.1-0.9c0-0.3,0-0.6-0.1-0.9c-0.1-0.3-0.2-0.6-0.3-0.9c-0.1-0.3-0.3-0.5-0.5-0.8c-0.2-0.3-0.4-0.5-0.6-0.7
			c-0.2-0.2-0.5-0.4-0.8-0.6c-0.3-0.2-0.6-0.3-0.9-0.4c-0.3-0.1-0.6-0.2-0.9-0.3c-0.3-0.1-0.7-0.1-1-0.1c-0.3,0-0.7,0.1-1,0.1
			c-0.3,0.1-0.7,0.2-1,0.3c-0.3,0.1-0.6,0.3-0.9,0.5c-0.3,0.2-0.5,0.4-0.8,0.6c-0.2,0.2-0.4,0.5-0.6,0.8c-0.2,0.3-0.3,0.6-0.5,0.9
			c-0.1,0.3-0.2,0.6-0.3,0.9C185,727.9,185,728.2,185,728.5z"/>
		<path style="clip-path:url(#SVGID_00000120527679524986870450000004775302864786392992_);fill:#8C8787;" d="M241.2,728.5
			c0-2.8,2.3-5.1,5.1-5.1c2.8,0,5.1,2.3,5.1,5.1c0,2.8-2.3,5.1-5.1,5.1C243.5,733.6,241.2,731.3,241.2,728.5z"/>
		<path style="clip-path:url(#SVGID_00000120527679524986870450000004775302864786392992_);fill:#8C8787;" d="M297.5,728.5
			c0-2.8,2.3-5.1,5.1-5.1c2.8,0,5.1,2.3,5.1,5.1c0,2.8-2.3,5.1-5.1,5.1C299.8,733.6,297.5,731.3,297.5,728.5z"/>
		<path style="clip-path:url(#SVGID_00000120527679524986870450000004775302864786392992_);fill:#8C8787;" d="M353.8,728.5
			c0-2.8,2.3-5.1,5.1-5.1s5.1,2.3,5.1,5.1c0,2.8-2.3,5.1-5.1,5.1S353.8,731.3,353.8,728.5z"/>
		<path style="clip-path:url(#SVGID_00000120527679524986870450000004775302864786392992_);fill:#8C8787;" d="M410,728.5
			c0-2.8,2.3-5.1,5.1-5.1c2.8,0,5.1,2.3,5.1,5.1c0,2.8-2.3,5.1-5.1,5.1C412.3,733.6,410,731.3,410,728.5z"/>
		<path style="clip-path:url(#SVGID_00000120527679524986870450000004775302864786392992_);fill:#8C8787;" d="M466.3,728.5
			c0-2.8,2.3-5.1,5.1-5.1s5.1,2.3,5.1,5.1c0,2.8-2.3,5.1-5.1,5.1S466.3,731.3,466.3,728.5z"/>
	</g>
	<rect x="448.2" y="33.6" class="st12" width="1144.9" height="558.1"/>
</g>
<g>
	<path class="st13" d="M276.6,360.2c3.4-0.1,6.9-0.7,10.2-1.3c5.6-1.2,10.3-4,14-8.5c3.1-3.8,4.8-8.1,6.1-12.9
		c2.1-8.2,2.2-16.7,1.6-25c0-0.2-0.1-0.3-0.1-0.7c-15,0-29.9,0-44.9,0c0-1,0-2,0-3c15,0,29.7,0,44.6,0c0-0.4,0-0.7,0-0.9
		c-0.8-3.2-1.3-6.4-2.4-9.6c-2.4-6.7-6.7-11.7-13.5-14.2c-5.5-2-11.1-2.4-16.9-2c-2.7,0.2-5.6,0.8-8.2,1.5
		c-6.7,2.2-11.3,6.9-14.5,12.9c-2.4,4.5-4,9.2-5.2,14c-2.1,7.8-3.7,15.5-4.6,23.5c-0.7,5.6-1,11.3-1.3,16.8c-0.2,3.2,0,6.3,0,9.6
		L276.6,360.2z"/>
	<path class="st13" d="M303.8,260.6c-23.6,0-45.3,7.9-62.7,21.1c0,0,0,0,0.1,0c0,13.7,0,27.4,0,41h0.1c0.4-2.3,0.8-4.6,1.2-6.9
		c1.9-8.9,4.8-17.3,9.9-24.8c4.5-6.4,10.6-10.3,18.5-11.5c4.7-0.8,9.5-0.5,14.2-0.1c5.8,0.4,11.4,1.5,16.8,3.7
		c7.5,2.8,13.8,7.3,18.2,14.1c2.2,3.3,3.7,6.8,4.5,10.6c0.2,0.9,0.7,1.1,1.5,1.1c18.7,0,37.2,0,55.8,0c0.4,0,0.9,0,1.2,0
		c0,1,0,2,0,3c-17.2,0-34.3,0-51.5,0c0,40.6,0,81.3,0,121.9c-5.7,0-11.3,0-16.9,0c0-27.3,0-54.6,0-82c-0.2,0.1-0.3,0.1-0.4,0.2
		c-5.4,4.8-11.7,7.4-18.7,9.1c-5.5,1.3-10.9,2.1-16.5,2.1c-12.3,0.2-24.7,0.2-36.9,0.2c-0.4,0-0.8,0-1.2,0c0,14.4,0,28.7,0,43.2
		c-5.7,0-11.4,0-17,0c0-36.3,0-72.6,0-108.9c-15.2,18-24.3,41.3-24.3,66.7c0,57.4,46.4,103.8,103.8,103.8s103.8-46.4,103.8-103.8
		S361.1,260.6,303.8,260.6z"/>
	<path class="st14" d="M241.3,406.7c0-14.4,0-28.7,0-43.2c0.5,0,0.9,0,1.2,0c12.3-0.1,24.7,0,36.9-0.2c5.6-0.1,11-0.9,16.5-2.1
		c6.9-1.6,13.3-4.3,18.7-9.1c0.1-0.1,0.2-0.1,0.4-0.2c0,27.4,0,54.7,0,82c5.7,0,11.3,0,16.9,0c0-40.6,0-81.3,0-121.9
		c17.2,0,34.3,0,51.5,0c0-1,0-2,0-3c-0.4,0-0.9,0-1.2,0c-18.7,0-37.2,0-55.8,0c-0.9,0-1.3-0.2-1.5-1.1c-0.9-3.8-2.5-7.3-4.5-10.6
		c-4.5-6.8-10.8-11.3-18.2-14.1c-5.4-2.1-11-3.3-16.8-3.7c-4.7-0.3-9.5-0.5-14.2,0.1c-7.9,1.1-14,4.9-18.5,11.5
		c-5.1,7.5-8.1,16.1-9.9,24.8c-0.5,2.3-0.9,4.6-1.2,6.9h-0.1c0-13.7,0-27.3,0-41c0,0,0,0-0.1,0c-6.2,4.7-11.8,10.1-16.8,16.1
		c0,36.4,0,72.7,0,108.9C229.9,406.7,235.5,406.7,241.3,406.7z M241.1,350.7c0.3-5.6,0.8-11.3,1.3-16.8c0.9-8,2.5-15.7,4.6-23.5
		c1.3-4.8,2.8-9.6,5.2-14c3.3-6,7.9-10.7,14.5-12.9c2.7-0.9,5.5-1.3,8.2-1.5c5.8-0.3,11.5,0,16.9,2c6.9,2.5,11.3,7.5,13.5,14.2
		c1.1,3.1,1.6,6.3,2.4,9.6c0.1,0.2,0,0.5,0,0.9c-14.9,0-29.7,0-44.6,0c0,1,0,2,0,3c15,0,29.8,0,44.9,0c0.1,0.3,0.1,0.5,0.1,0.7
		c0.5,8.4,0.4,16.8-1.6,25c-1.1,4.6-3,9.1-6.1,12.9c-3.6,4.5-8.4,7.2-14,8.5c-3.3,0.8-6.8,1.3-10.2,1.3l-35.4,0.1
		C241.1,357.1,240.9,353.9,241.1,350.7z"/>
</g>
<g>
	<text transform="matrix(1 0 0 1 480.3325 368.7354)" class="st15 st16 st17">Paola Torres </text>
	<text transform="matrix(1 0 0 1 478.8472 412.7725)" class="st15 st18 st19">Graphic Designer </text>
</g>
<text transform="matrix(1 0 0 1 964.1714 386.1616)" class="st15 st20 st21">WELCOME TO MY PORTFOLIO! </text>
<line class="st22" x1="850" y1="223.3" x2="850" y2="526.7"/>
</svg>
