<?xml version="1.0" encoding="utf-8"?>
<!-- Generator: Adobe Illustrator 26.5.0, SVG Export Plug-In . SVG Version: 6.00 Build 0)  -->
<svg version="1.1" id="Layer_1" xmlns="http://www.w3.org/2000/svg" xmlns:xlink="http://www.w3.org/1999/xlink" x="0px" y="0px"
	 viewBox="0 0 1300 800" style="enable-background:new 0 0 1300 800;" xml:space="preserve">
<style type="text/css">
	.st0{clip-path:url(#SVGID_00000073696620309270181200000017619303495417266859_);fill:#FFFFFF;}
	.st1{clip-path:url(#SVGID_00000044863162595826161130000017576151880500641431_);fill:#FFFFFF;}
	.st2{clip-path:url(#SVGID_00000035527417050284526410000018070549631182418615_);fill:#FFFFFF;}
	.st3{clip-path:url(#SVGID_00000150795512361952975010000004315754428608449421_);fill:#F9F9F9;}
	.st4{clip-path:url(#SVGID_00000003818395913628937670000011849598031691871618_);fill:#D2D0D0;}
	.st5{clip-path:url(#SVGID_00000000186873169029446230000001584480538298570926_);fill:#D9D9D9;}
	.st6{clip-path:url(#SVGID_00000034777970661588387600000015046602565281048483_);fill:#D2D0D0;}
	.st7{clip-path:url(#SVGID_00000085244846228820435920000000622869724839387048_);fill:#D2D0D0;}
	.st8{clip-path:url(#SVGID_00000164488161479492588730000017426457668003181503_);fill:#D2D0D0;}
	.st9{clip-path:url(#SVGID_00000035509317681554913400000007797279976368379545_);fill:#D2D0D0;}
	.st10{clip-path:url(#SVGID_00000152948562894519334790000018434513693692482470_);fill:#D2D0D0;}
	.st11{clip-path:url(#SVGID_00000090268197806648493070000014467549060159829677_);fill:#BBB7B7;}
	.st12{clip-path:url(#SVGID_00000056395400043703810500000014749882304906641043_);fill:#BBB7B7;}
	.st13{clip-path:url(#SVGID_00000152944665210700498280000015277151427145537935_);fill:#BBB7B7;}
	.st14{clip-path:url(#SVGID_00000170263727297716605700000017665997538204525496_);fill:#BBB7B7;}
	.st15{clip-path:url(#SVGID_00000089572249695088326670000002720613918624904591_);fill:#BBB7B7;}
	.st16{clip-path:url(#SVGID_00000049207364072210415930000000813570077445027734_);fill:#BBB7B7;}
	.st17{clip-path:url(#SVGID_00000085242279370055281170000006474824690892421818_);fill:#BBB7B7;}
	.st18{clip-path:url(#SVGID_00000132810648597606974900000002522285061579005097_);fill:#BBB7B7;}
	.st19{clip-path:url(#SVGID_00000160895932679399501580000006419956979961457033_);fill:#BBB7B7;}
	.st20{clip-path:url(#SVGID_00000108993974603636569190000008383845584720275073_);fill:#BBB7B7;}
	.st21{clip-path:url(#SVGID_00000172430833108965121130000011337065567873641621_);fill:#8C8787;}
	.st22{clip-path:url(#SVGID_00000167379397055660634440000016989937673838382229_);fill:#8C8787;}
	.st23{clip-path:url(#SVGID_00000052815249596084886210000008989061716863373753_);fill:#8C8787;}
	.st24{clip-path:url(#SVGID_00000125580787253235298710000014195908161287921323_);fill:#8C8787;}
	.st25{clip-path:url(#SVGID_00000158017986893241913140000001267463355336647348_);fill:#8C8787;}
	.st26{clip-path:url(#SVGID_00000023986460105769413640000015293936464326868406_);fill:#8C8787;}
	.st27{clip-path:url(#SVGID_00000044163008045120786990000010226400534956555927_);fill:#8C8787;}
	.st28{clip-path:url(#SVGID_00000163051141312864555820000004982708985843655325_);fill:#8C8787;}
	.st29{clip-path:url(#SVGID_00000142160363639418337320000000093398736836090761_);fill:#8C8787;}
	.st30{clip-path:url(#SVGID_00000090272137301062147610000014383536515103702155_);fill:#8C8787;}
	.st31{clip-path:url(#SVGID_00000147180631237375581840000004061982209394672572_);fill:#8C8787;}
	.st32{clip-path:url(#SVGID_00000072265074220075904000000009625270056812192679_);fill:#8C8787;}
	.st33{clip-path:url(#SVGID_00000057839579160516743960000014660503293465454483_);fill:#8C8787;}
	.st34{clip-path:url(#SVGID_00000030472384310098897440000016946720727014534275_);fill:#8C8787;}
	.st35{clip-path:url(#SVGID_00000068666232999723348180000013176752270468483237_);fill:#8C8787;}
	.st36{clip-path:url(#SVGID_00000142883209990539453640000001485462761489636243_);fill:#8C8787;}
	.st37{clip-path:url(#SVGID_00000158707724479528676160000002704189780809399687_);fill:#8C8787;}
	.st38{clip-path:url(#SVGID_00000149340110563764852370000008919851983633143999_);fill:#8C8787;}
	.st39{clip-path:url(#SVGID_00000086649400561217722210000012896964073267681974_);fill:#8C8787;}
	.st40{clip-path:url(#SVGID_00000034091600858309552210000000319070886547895718_);fill:#8C8787;}
	.st41{clip-path:url(#SVGID_00000158028436724714154070000013058399963947906439_);fill:#8C8787;}
	.st42{clip-path:url(#SVGID_00000170978340078971307640000006304812545984679583_);fill:#8C8787;}
	.st43{clip-path:url(#SVGID_00000162331879663714621440000002739061641157702822_);fill:#8C8787;}
	.st44{clip-path:url(#SVGID_00000181777790033723943870000005910140934402761123_);fill:#8C8787;}
	.st45{clip-path:url(#SVGID_00000103267042615081915780000001310515783626545054_);fill:#8C8787;}
	.st46{clip-path:url(#SVGID_00000131334450055184975870000012000124429192873663_);fill:#8C8787;}
	.st47{clip-path:url(#SVGID_00000058579722287783658860000003037540842030426775_);fill:#8C8787;}
	.st48{clip-path:url(#SVGID_00000153664437304423640980000006874370309260634299_);fill:#8C8787;}
	.st49{clip-path:url(#SVGID_00000106108318429335180170000007289728079473595013_);fill:#8C8787;}
	.st50{clip-path:url(#SVGID_00000007413382769176321730000008163776791242756277_);fill:#8C8787;}
	.st51{clip-path:url(#SVGID_00000144302214971321625910000010875342760708787105_);fill:#8C8787;}
	.st52{clip-path:url(#SVGID_00000179631711645512263630000005170174897642191804_);fill:#8C8787;}
	.st53{clip-path:url(#SVGID_00000045608114667416797670000015496764108066821286_);fill:#8C8787;}
	.st54{clip-path:url(#SVGID_00000047031711236121945700000007497014461053877906_);fill:#8C8787;}
	.st55{clip-path:url(#SVGID_00000137126403071860801980000000147682125935668389_);fill:#8C8787;}
	.st56{clip-path:url(#SVGID_00000133503260666190203660000006563461981899374490_);fill:#8C8787;}
	.st57{clip-path:url(#SVGID_00000170970791396682194880000016123819741023260586_);fill:#8C8787;}
	.st58{clip-path:url(#SVGID_00000124120565993817859700000001156933818746550413_);fill:#8C8787;}
	.st59{clip-path:url(#SVGID_00000018930577987374891370000003866139426022525834_);fill:#8C8787;}
	.st60{clip-path:url(#SVGID_00000149361217612869838720000011884775548882495422_);fill:#8C8787;}
	.st61{clip-path:url(#SVGID_00000153685882299090255670000018199180779790413973_);fill:#8C8787;}
	.st62{clip-path:url(#SVGID_00000147924770201372898280000007540455747670761093_);fill:#8C8787;}
	.st63{clip-path:url(#SVGID_00000030460205625859636460000004091798424803478426_);fill:#8C8787;}
	.st64{clip-path:url(#SVGID_00000112628883502809465270000014593710912969646734_);fill:#8C8787;}
	.st65{clip-path:url(#SVGID_00000085209164162041416350000015084993255426699445_);fill:#8C8787;}
	.st66{clip-path:url(#SVGID_00000026132637942966490740000014539974440487133850_);fill:#8C8787;}
	.st67{clip-path:url(#SVGID_00000070808836520357567950000012487251681200009109_);fill:#8C8787;}
	.st68{clip-path:url(#SVGID_00000031181596848188149620000002144263406565046417_);fill:#8C8787;}
	.st69{clip-path:url(#SVGID_00000141438967273157850360000011198259376346985101_);fill:#8C8787;}
	.st70{clip-path:url(#SVGID_00000127006576741357905660000001308698948015520702_);fill:#8C8787;}
	.st71{clip-path:url(#SVGID_00000143618600564626313630000013143392612915666585_);fill:#8C8787;}
	.st72{clip-path:url(#SVGID_00000181780652518811889640000008964875563989600431_);fill:#8C8787;}
	.st73{clip-path:url(#SVGID_00000151524315985870461140000017868595534051253394_);fill:#8C8787;}
	.st74{clip-path:url(#SVGID_00000055676325125227364640000011103069733167232128_);fill:#8C8787;}
	.st75{clip-path:url(#SVGID_00000164504575727261353960000001402707227904162461_);fill:#8C8787;}
	.st76{clip-path:url(#SVGID_00000086657103888390590300000007006090849632530093_);fill:#8C8787;}
	.st77{clip-path:url(#SVGID_00000157283259736467342750000008097046241961809075_);fill:#8C8787;}
	.st78{clip-path:url(#SVGID_00000061438372379971695980000015848752040582577580_);fill:#8C8787;}
	.st79{clip-path:url(#SVGID_00000034053921733060412430000006669324029892630925_);fill:#8C8787;}
	.st80{clip-path:url(#SVGID_00000051354109705991480730000017725819935798794378_);fill:#8C8787;}
	.st81{clip-path:url(#SVGID_00000110456710672658719080000009157185600058244540_);fill:#8C8787;}
	.st82{clip-path:url(#SVGID_00000160188075511103948610000009852845778603447477_);fill:#8C8787;}
	.st83{clip-path:url(#SVGID_00000016052950599681911290000014405472803010640781_);fill:#8C8787;}
	.st84{clip-path:url(#SVGID_00000053516128838494225090000012998524999657389713_);fill:#8C8787;}
	.st85{clip-path:url(#SVGID_00000021099647939083779100000002948737674854734268_);fill:#8C8787;}
	.st86{clip-path:url(#SVGID_00000027606993175716994190000000202998795319514775_);fill:#8C8787;}
	.st87{clip-path:url(#SVGID_00000140726232680429417470000000936352186838587523_);fill:#8C8787;}
	.st88{fill:none;}
	.st89{fill:#231F20;}
	.st90{fill:#FFFFFF;}
	.st91{fill:#282828;}
	.st92{font-family:'Montserrat-Bold';}
	.st93{font-size:35.8633px;}
	.st94{font-family:'Montserrat-Light';}
	.st95{font-size:27.3244px;}
	.st96{font-family:'Montserrat-Black';}
	.st97{font-size:31.5939px;}
	.st98{fill:none;stroke:#282828;stroke-width:6.666;stroke-miterlimit:10;}
</style>
<g>
	<g>
		<defs>
			<rect id="SVGID_1_" x="-304" y="-24.6" width="1895.3" height="992"/>
		</defs>
		<clipPath id="SVGID_00000169519908278836503850000013562070987840845482_">
			<use xlink:href="#SVGID_1_"  style="overflow:visible;"/>
		</clipPath>
		
			<rect x="-304" y="-24.6" style="clip-path:url(#SVGID_00000169519908278836503850000013562070987840845482_);fill:#FFFFFF;" width="1895.3" height="992"/>
	</g>
</g>
<g>
	<g>
		<defs>
			<rect id="SVGID_00000068679812806075978340000004865931044935351704_" x="-304" y="-24.6" width="1895.3" height="992"/>
		</defs>
		<clipPath id="SVGID_00000181787987945509892720000014944924761956227736_">
			<use xlink:href="#SVGID_00000068679812806075978340000004865931044935351704_"  style="overflow:visible;"/>
		</clipPath>
		
			<rect x="-304" y="-24.6" style="clip-path:url(#SVGID_00000181787987945509892720000014944924761956227736_);fill:#FFFFFF;" width="1895.3" height="992"/>
	</g>
</g>
<g>
	<g>
		<defs>
			<rect id="SVGID_00000010303896963392409880000012765658006230439078_" x="-304" y="-24.6" width="1895.3" height="992"/>
		</defs>
		<clipPath id="SVGID_00000060749674121890467380000001454548154970451072_">
			<use xlink:href="#SVGID_00000010303896963392409880000012765658006230439078_"  style="overflow:visible;"/>
		</clipPath>
		<path style="clip-path:url(#SVGID_00000060749674121890467380000001454548154970451072_);fill:#FFFFFF;" d="M346.5,241.6
			l123,114.3L769.7,77l53.2,49.5L522.8,405.4l123.9,115.1l-0.4,0.4L496.2,660.1c2.9-2.3,5.4-5.1,7.9-7.8
			c31.2-32.4,49-72.2,53.2-112.7c1.2-12.5,1.2-25.4,0-37.8c-4.6-43.3-24.1-85.4-59.4-118.6c-0.8-0.8-1.2-1.2-1.7-2
			c-0.8-0.8-1.2-1.2-2.1-1.6c-83.1-75.3-216.1-74.9-298.4,1.6C118,453.4,113,568,181.2,645.3c4.6,5.1,9.1,10.1,14.5,14.8
			c5,4.7,10.4,9.4,15.8,13.3c80.6,61.2,197.9,58.9,276-6.2c2.9-2.3,5.8-4.7,8.3-7.4L345.7,799.3l-0.4-0.4l-0.8-0.8l-299.3-278
			l0.8-0.8L346.5,241.6z M1399.8,378.1c81.5-76.8,81.1-200.9-1.2-277.7l150,139.6l-150.1,139.2
			C1399,378.9,1399.4,378.5,1399.8,378.1z M1398.1,379.6L1248,519.2l-150-139.6c82.7,76.4,216.1,76.8,299.3,1.2
			C1397.3,380,1397.7,380,1398.1,379.6z M1098,100.4c-83.1,77.2-83.1,202,0,278.9L948,239.6l174.6-161.9l124.7-115.8l1.2-1.2
			l1.2,1.2l101.4,94.8l47,43.7C1315.4,23.5,1180.8,23.5,1098,100.4z M45.2,519.7l-0.8,0.8h-351.6V290.7l52.8-49.1L45.2,519.7z
			 M1602.6,189.7V240h-54L1602.6,189.7z M46.4,240h128.9L46.4,359.8L-82.4,240H46.4z M1076.4,520.4L947.5,640.1L818.6,520.4h128.9
			H1076.4z M1495,750.2l52.8,49.1l0.4,0.4l-300.1,278.9l-53.2-49.1L1495,750.2z M1370.7,635.1l53.2,49.5l-300.1,278.9l-53.2-49.5
			L1370.7,635.1z M947.6,799.3l300.1-278.5l53.2,49.1l-300.5,278.9l-53.2-49.5L947.6,799.3L947.6,799.3z M-201.3,188.9l-53.2,49.5
			l-52.8-49.1v-0.4V90.6L-201.3,188.9z M-130.6,123L-304-37.7h106.4L-77.4,73.9l0.4,0.4L-130.6,123z M25.7-19.8L-7.2,8.7l-49.9-46.4
			h99.8l1.7-1.6l0.8,0.8l-0.8,0.8L25.7-19.8z M594.3,470.9L894.8,192l52.8,49.1l-300.1,279L594.3,470.9z M399.7,290.7L700.3,11.8
			l-53.2-49.5L346.5,241.2L399.7,290.7z"/>
	</g>
	<g>
		<defs>
			<rect id="SVGID_00000142171183294004287190000012608937703953658025_" x="-304" y="-24.6" width="1895.3" height="992"/>
		</defs>
		<clipPath id="SVGID_00000020396691799767996060000009573475322352748457_">
			<use xlink:href="#SVGID_00000142171183294004287190000012608937703953658025_"  style="overflow:visible;"/>
		</clipPath>
		<path style="clip-path:url(#SVGID_00000020396691799767996060000009573475322352748457_);fill:#F9F9F9;" d="M212.3,673.3
			c-5.4-4.3-10.8-8.6-15.8-13.3s-10-9.8-14.5-14.8c-68.2-77.6-63.6-191.9,14.5-264.1l300.1,278.5l0.4,0.4c-2.9,2.3-5.4,5.1-8.3,7.4
			C410.5,732.6,292.9,734.6,212.3,673.3z M1602.6,849.6v229h-353.7L1549,799.7L1602.6,849.6z M1070.2,914l53.2,49.5l123.9,115.1
			H646.6l300.1-278.9L1070.2,914z M-307.3,849.6l53.6-49.9l300.1,278.5l300.1-278.5l300.1,278.9H46.4L46,1079l-0.4-0.4h-353.3v-229
			H-307.3z M346.5,799.3L497,660.1l150.1-139.2l300.1,278.9l-300.5,278.9L346.5,799.3z M1248.1,518.9l150.1-139.6
			c-0.4,0.4-0.8,0.8-1.2,1.2c-83.1,75.7-216.6,75.7-299.3-1.2c-83.1-77.2-83.1-202,0-278.9l300.5,278.9L1548.6,240l54,50.3v457.5
			l-54,50.3L1248.1,518.9z M174.9,240H46H-82.8L46,120.3L174.9,240z M346.5,241.2l-0.8-0.8L46-38.1l0.8-0.8l0.8,0.8H647L346.5,241.2
			z M46,1077l-299.7-278.1l-0.8-0.8L43.9,520.8l0.8-0.8l0.8-0.8l0.8,0.8l-0.8,0.8l299.3,278.1L46,1077z M1548.6,240l-150.1-139.6
			l-47.4-44.1l41.6,38.6c39.5-36.7,59.4-84.6,59.9-132.6h150.1v216.1C1587.3,200.2,1569,220.9,1548.6,240z M1076.4,520.4H947.5
			H818.6l128.9-119.7L1076.4,520.4z M1122.1,78.1l124.7-115.8H1044H823.3c0.4,100.6,42,200.9,124.3,277.7L1122.1,78.1z"/>
	</g>
	<g>
		<defs>
			<rect id="SVGID_00000158030627247647349060000013839675974391154051_" x="-304" y="-24.6" width="1895.3" height="992"/>
		</defs>
		<clipPath id="SVGID_00000095301161278294504020000006671104585708332426_">
			<use xlink:href="#SVGID_00000158030627247647349060000013839675974391154051_"  style="overflow:visible;"/>
		</clipPath>
		<path style="clip-path:url(#SVGID_00000095301161278294504020000006671104585708332426_);fill:#D2D0D0;" d="M494.9,379.3
			c0.8,0.4,1.2,1.2,2.1,1.6c0.8,0.8,1.2,1.2,1.7,2c34.9,33.5,54.9,75.7,59.4,118.6c1.2,12.5,1.2,25.4,0,37.8
			c-0.4,3.5-0.8,7-1.2,10.5c-5.8,37.1-23.3,72.9-52,102.6c-2.5,2.7-5,5.1-7.9,7.8l-0.4-0.4l-300.1-279
			C278.8,304.8,411.8,304,494.9,379.3z M1408.5,110.5c1.7,1.6,2.9,3.1,4.6,5.1c0.8,0.8,1.2,1.6,2.1,2.7c1.7,1.6,2.9,3.5,4.2,5.1
			c0.4,0.8,0.8,1.2,1.7,2c1.7,2,2.9,3.9,4.6,6.2c0.4,0.8,0.8,1.6,1.7,2.3c1.2,2,2.9,3.9,4.2,5.9c0,0.4,0.4,0.8,0.4,1.2
			c1.2,2.3,2.9,4.7,4.2,7c0.4,0.4,0.4,0.8,0.8,1.2c1.2,2.3,2.9,5.1,4.2,7.4c0.4,0.8,0.4,1.2,0.8,2c1.2,2.3,2.1,4.7,3.3,6.6
			c0.4,0.4,0.4,0.8,0.4,1.6c1.2,2.3,2.1,5.1,2.9,7.4c0,0.4,0,0.4,0.4,0.8c3.3,9,5.8,17.6,7.9,26.9c0,0.4,0,1.2,0.4,1.6
			c7.5,36.3,3.7,74.1-10.8,108.4c0,0.4-0.4,0.8-0.4,1.2c-2.1,5.1-4.6,10.1-7.1,14.8c-0.4,0.8-0.8,1.6-1.2,2.7
			c-0.8,2-2.1,3.5-3.3,5.5c-0.4,1.2-1.2,2-1.7,3.1c-1.2,2-2.5,3.5-3.7,5.5c-0.8,0.8-1.2,2-2.1,2.7c-1.2,1.6-2.5,3.1-3.3,4.7
			c-0.8,1.2-1.7,2.3-2.5,3.5c-1.2,1.6-2.5,2.7-3.7,4.3c-0.8,1.2-2.1,2.3-2.9,3.5c-1.2,1.6-2.5,2.7-3.7,4.3c-1.2,1.2-2.1,2.3-2.9,3.5
			c-1.2,1.6-2.5,2.7-4.2,3.9c-1.2,1.2-2.1,2.3-3.3,3.5c-0.4,0.4-0.8,0.8-1.2,1.2l-300.5-278.9c83.1-77.2,217.4-77.2,300.5,0
			c0.8,0.8,2.1,2,2.9,2.7c1.7,1.6,2.9,3.1,4.6,4.3C1406.9,108.6,1407.7,109.7,1408.5,110.5z M-254.1,799.3l-53.2,49.9v-99.1
			L-254.1,799.3z M46.4,518.9V359.4l128.9-119.7L46.4,119.9V-37.7l299.7,278.5L46.4,518.9z M1247.7,520.4L947.6,798.9v-0.4V639.4
			l128.9-119.7L947.6,400V241.2L1247.7,520.4z M823.3-37.7c0.4,100.6,42,200.9,124.3,277.7L648.7-37.7H823.3z M-307.3,289.2v-98.7
			l53.2,49.1L-307.3,289.2z M1547.8,799.3l-52.8-49.1l-300.5,278.9l-71.1-65.9l300.1-278.9l-53.2-49.5l-300.1,278.9l-70.2-65.1
			L1300.9,570l-53.2-49.1L1547.8,799.3z M-303.5-37.7L-130.2,123l-71.1,65.9l-106-98.7V-37.7H-303.5z M-57.1-37.7L-7.2,8.7
			l-70.2,65.1L-197.6-37.7H-57.1z M823.7,126.5L770.5,77L470.4,355.8l-70.2-65.1L700.3,11.8l247.3,229.7l-52.8-49.1L594.3,471.3
			l-71.1-65.9L823.7,126.5z M46.4-38.9l-0.8,0.8l0.8,0.8l0.8-0.8L46.4-38.9z"/>
	</g>
	<g>
		<defs>
			<rect id="SVGID_00000116225833628492731680000014899327037362731708_" x="-304" y="-24.6" width="1895.3" height="992"/>
		</defs>
		<clipPath id="SVGID_00000120542460029076966910000005880840435668882567_">
			<use xlink:href="#SVGID_00000116225833628492731680000014899327037362731708_"  style="overflow:visible;"/>
		</clipPath>
		<path style="clip-path:url(#SVGID_00000120542460029076966910000005880840435668882567_);fill:#D9D9D9;" d="M1602.6,849.2
			l-53.6-49.5l53.6-49.5V849.2z M44.4,520.4l-298.5,277.4l0.8,0.8l-0.8,0.8l-52.8-49.1v-0.4V520.4H44.4z M1602.6,240v50.3l-54-50.3
			L1602.6,240L1602.6,240z M25.7-19.8l19.1-17.9l0.8-0.8l0.8,0.8v158L-82.4,240L46.5,359.7v159.5l-300.6-278.8L25.7-19.8z
			 M947.6,241.2v159.5L818.7,520.4l128.9,119.7v159.1v0.4L647.5,521.2L947.6,241.2z M1392.7,94.9l-41.6-38.6l-101.4-94.4h202.4
			C1452.2,10.3,1432.2,58.3,1392.7,94.9z M1602.6,178.8c-15.4,21.8-33.7,42.1-54,61.2l54-50.3V178.8z"/>
	</g>
</g>
<g>
	<g>
		<defs>
			<rect id="SVGID_00000026150073394204662990000000080878396434828673_" x="456.1" y="659.7" width="458.6" height="307.7"/>
		</defs>
		<clipPath id="SVGID_00000183929985554092423390000006150162229293893053_">
			<use xlink:href="#SVGID_00000026150073394204662990000000080878396434828673_"  style="overflow:visible;"/>
		</clipPath>
		<path style="clip-path:url(#SVGID_00000183929985554092423390000006150162229293893053_);fill:#D2D0D0;" d="M685.8,780.2
			l104.9-97.1c-1.6-1-10.4-4.7-12.2-5.4l-92.7,85.8l-92.7-85.8c-3.3,1.1-8.5,3.7-12.2,5.4L685.8,780.2L685.8,780.2z"/>
	</g>
	<g>
		<defs>
			<rect id="SVGID_00000111172199832976446180000007024918086795887024_" x="456.1" y="659.7" width="458.6" height="307.7"/>
		</defs>
		<clipPath id="SVGID_00000056411954683285168410000002726924166583104648_">
			<use xlink:href="#SVGID_00000111172199832976446180000007024918086795887024_"  style="overflow:visible;"/>
		</clipPath>
		<path style="clip-path:url(#SVGID_00000056411954683285168410000002726924166583104648_);fill:#D2D0D0;" d="M685.8,730l66.3-61.4
			c-4.7-1.3-9.5-2.5-14.3-3.5l-52,48.1l-52-48.1c-4.8,1-9.6,2.2-14.3,3.5L685.8,730L685.8,730z"/>
	</g>
	<g>
		<defs>
			<rect id="SVGID_00000075134443060779955800000012288952289440210323_" x="456.1" y="659.7" width="458.6" height="307.7"/>
		</defs>
		<clipPath id="SVGID_00000055694107625469625430000014504599857714990480_">
			<use xlink:href="#SVGID_00000075134443060779955800000012288952289440210323_"  style="overflow:visible;"/>
		</clipPath>
		<path style="clip-path:url(#SVGID_00000055694107625469625430000014504599857714990480_);fill:#D2D0D0;" d="M685.8,679.8
			l20.9-19.3c-5.7-0.5-11.4-0.7-17.2-0.8l-3.7,3.4l-3.7-3.4c-3.6,0.3-12.8,0.3-17.2,0.8L685.8,679.8L685.8,679.8z"/>
	</g>
	<g>
		<defs>
			<rect id="SVGID_00000038385622397041327180000018223620039472834710_" x="456.1" y="659.7" width="458.6" height="307.7"/>
		</defs>
		<clipPath id="SVGID_00000018957515382138189650000016699975373440913589_">
			<use xlink:href="#SVGID_00000038385622397041327180000018223620039472834710_"  style="overflow:visible;"/>
		</clipPath>
		<path style="clip-path:url(#SVGID_00000018957515382138189650000016699975373440913589_);fill:#D2D0D0;" d="M685.8,830.4
			L685.8,830.4l118.4-109.6l103.3,95.6c4-23.6-65.2-76.3-103.3-112.3L685.8,813.6l0,0L567.4,704.1
			c-14.3,16.1-106.9,88.3-103.3,112.3l103.3-95.6L685.8,830.4z"/>
	</g>
	<g>
		<defs>
			<rect id="SVGID_00000183241735782662287100000002435489836406876047_" x="456.1" y="659.7" width="458.6" height="307.7"/>
		</defs>
		<clipPath id="SVGID_00000023259664702536554960000014905006938866108555_">
			<use xlink:href="#SVGID_00000183241735782662287100000002435489836406876047_"  style="overflow:visible;"/>
		</clipPath>
		<path style="clip-path:url(#SVGID_00000023259664702536554960000014905006938866108555_);fill:#D2D0D0;" d="M914.8,856.7
			L804.2,754.3L685.8,863.8l0,0L567.4,754.3L456.8,856.7c-0.4,5.7-0.8,11.5-0.6,17.3l111.2-103l118.4,109.6l0,0L804.1,771l111.2,103
			C915.5,868.2,915.2,862.4,914.8,856.7z"/>
	</g>
</g>
<g>
	<g>
		<defs>
			<rect id="SVGID_00000057116652181766597660000008203728454384707216_" x="139.7" y="-24.6" width="507.9" height="171.7"/>
		</defs>
		<clipPath id="SVGID_00000015348211550009400080000000728675328279843492_">
			<use xlink:href="#SVGID_00000057116652181766597660000008203728454384707216_"  style="overflow:visible;"/>
		</clipPath>
		<path style="clip-path:url(#SVGID_00000015348211550009400080000000728675328279843492_);fill:#BBB7B7;" d="M394-321.8
			c-4.1,0-8.2,0.1-12.3,0.3c-4.1,0.2-8.2,0.5-12.2,0.9c-4.1,0.4-8.1,0.8-12.2,1.4c-4,0.6-8.1,1.2-12.1,2c-4,0.7-8,1.6-12,2.5
			s-7.9,1.9-11.8,3.1c-3.9,1.1-7.8,2.3-11.7,3.6c-3.9,1.3-7.7,2.7-11.5,4.1c-3.8,1.5-7.5,3-11.2,4.6s-7.4,3.3-11,5.1
			c-3.6,1.8-7.2,3.7-10.7,5.6c-3.5,2-7,4-10.4,6.1s-6.7,4.3-10,6.6c-3.3,2.3-6.5,4.6-9.7,7s-6.3,4.9-9.3,7.5s-6,5.2-8.9,7.9
			c-2.9,2.7-5.7,5.5-8.5,8.3c-2.7,2.8-5.4,5.7-8,8.7c-2.6,2.9-5.1,5.9-7.6,9c-2.4,3.1-4.8,6.2-7.1,9.3c-2.3,3.2-4.5,6.4-6.6,9.7
			s-4.1,6.6-6.1,9.9c-1.9,3.4-3.8,6.8-5.5,10.2c-1.8,3.4-3.4,6.9-5,10.4s-3,7.1-4.4,10.7c-1.4,3.6-2.7,7.2-3.9,10.8
			c-1.2,3.6-2.3,7.3-3.3,11s-1.9,7.4-2.7,11.1c-0.8,3.7-1.5,7.5-2.1,11.3s-1.1,7.5-1.5,11.3s-0.7,7.6-0.9,11.4
			c-0.2,3.8-0.3,7.6-0.3,11.4c0,9.9,0.7,19.8,2,29.6c1.5,10.7,3.7,21.3,6.8,31.7c5.6,19.1,13.6,37.2,24.2,54.4
			c6.9,11.2,14.8,21.8,23.6,31.7c9.2,10.4,19.2,20,30.2,28.8c14.7,11.9,30.7,22,47.9,30.3c4.4,2.1,8.9,4.2,13.5,6.1
			s9.2,3.7,13.9,5.3c4.7,1.6,9.4,3.1,14.2,4.5s9.6,2.6,14.5,3.7c4.9,1.1,9.8,2.1,14.7,2.9c4.9,0.8,9.9,1.5,14.8,2.1
			c5,0.6,10,1,15,1.3s10,0.4,15,0.4s10-0.1,15-0.4c5-0.3,10-0.7,15-1.3s9.9-1.3,14.8-2.1c4.9-0.8,9.8-1.8,14.7-2.9s9.7-2.3,14.5-3.7
			s9.5-2.9,14.2-4.5s9.3-3.4,13.9-5.3c4.6-1.9,9.1-3.9,13.5-6.1c17.3-8.4,33.2-18.5,47.9-30.3c10.7-8.6,20.6-18,29.6-28.2
			S604,38,611,26.6c5.1-8.3,9.6-16.8,13.6-25.5c4.2-9.4,7.8-19,10.6-28.8c3.1-10.4,5.3-21,6.7-31.7c0.6-4.1,1-8.2,1.3-12.3
			s0.5-8.2,0.6-12.3c0.1-4.1,0.1-8.2-0.1-12.4c-0.1-4.1-0.4-8.2-0.8-12.3c-0.4-4.1-0.9-8.2-1.5-12.3c-0.6-4.1-1.3-8.1-2.2-12.2
			c-0.8-4-1.8-8.1-2.9-12.1c-1.1-4-2.3-8-3.5-11.9c-1.3-3.9-2.7-7.8-4.2-11.7s-3.1-7.7-4.9-11.5c-1.7-3.8-3.6-7.5-5.5-11.2
			c-2-3.7-4-7.3-6.2-10.9c-2.2-3.6-4.4-7.1-6.8-10.6c-2.4-3.5-4.8-6.9-7.4-10.3c-2.6-3.4-5.2-6.7-8-9.9c-2.7-3.2-5.6-6.4-8.5-9.5
			s-5.9-6.1-9-9.1c-3.1-2.9-6.3-5.8-9.5-8.6c-3.3-2.8-6.6-5.5-10-8.1s-6.9-5.2-10.5-7.6c-3.6-2.5-7.2-4.8-10.9-7.1
			c-3.7-2.3-7.5-4.4-11.3-6.5s-7.7-4.1-11.6-6c-3.9-1.9-7.9-3.7-12-5.4c-4-1.7-8.1-3.3-12.2-4.8c-4.1-1.5-8.3-2.9-12.5-4.2
			c-4.2-1.3-8.4-2.5-12.7-3.6s-8.6-2.1-12.9-2.9c-4.3-0.9-8.7-1.6-13.1-2.3c-4.4-0.7-8.8-1.2-13.2-1.6s-8.8-0.8-13.2-1
			S398.5-321.8,394-321.8z M394,147.8c-10.2,0-20.3-0.6-30.4-1.7c-10.1-1.1-20.1-2.8-30-5.1c-9.9-2.2-19.6-5-29.1-8.4
			c-9.5-3.3-18.8-7.2-27.9-11.6c-17.5-8.5-33.8-18.8-48.7-30.8c-11.1-8.9-21.4-18.7-30.7-29.3c-9-10.1-16.9-20.9-24-32.3
			c-10.8-17.4-19-35.8-24.6-55.3c-3.1-10.6-5.4-21.4-6.9-32.3c-1.3-10-2-20-2-30c0-4,0.1-8.1,0.3-12.1c0.2-4,0.6-8,1-12.1
			c0.4-4,1-8,1.7-12s1.4-7.9,2.3-11.9c0.9-3.9,1.9-7.9,3-11.8c1.1-3.9,2.3-7.8,3.6-11.6s2.7-7.7,4.2-11.4c1.5-3.8,3.1-7.5,4.9-11.2
			s3.5-7.4,5.5-11c1.9-3.6,3.9-7.2,6.1-10.7c2.1-3.5,4.3-7,6.6-10.4c2.3-3.4,4.7-6.8,7.2-10.1s5.1-6.5,7.7-9.7
			c2.7-3.2,5.4-6.3,8.3-9.3c2.8-3,5.8-6,8.8-8.9c3-2.9,6.1-5.7,9.2-8.5c3.2-2.8,6.4-5.4,9.7-8c3.3-2.6,6.7-5.1,10.1-7.6
			c3.4-2.4,7-4.8,10.5-7.1s7.2-4.5,10.9-6.6c3.7-2.1,7.4-4.1,11.2-6c3.8-1.9,7.7-3.8,11.6-5.5s7.9-3.4,11.9-4.9c4-1.6,8-3,12.1-4.4
			s8.2-2.6,12.3-3.8s8.3-2.2,12.5-3.2s8.4-1.8,12.7-2.6c4.3-0.8,8.5-1.4,12.8-2s8.6-1,12.9-1.4c4.3-0.4,8.6-0.6,13-0.8
			c4.3-0.2,8.7-0.2,13-0.2c4.3,0.1,8.7,0.2,13,0.5s8.6,0.6,12.9,1.1c4.3,0.5,8.6,1,12.9,1.7c4.3,0.7,8.5,1.4,12.8,2.3
			c4.2,0.9,8.4,1.8,12.6,2.9c4.2,1.1,8.3,2.2,12.4,3.5c4.1,1.3,8.2,2.6,12.2,4.1s8,3,12,4.7c4,1.6,7.9,3.4,11.7,5.2
			c3.9,1.8,7.7,3.8,11.4,5.8c3.8,2,7.4,4.1,11.1,6.3c3.6,2.2,7.2,4.5,10.7,6.8c3.5,2.4,7,4.8,10.3,7.3c3.4,2.5,6.7,5.1,9.9,7.8
			c3.2,2.7,6.4,5.4,9.5,8.3c3.1,2.8,6.1,5.7,9,8.7s5.8,6,8.5,9.1c2.8,3.1,5.4,6.3,8,9.5s5.1,6.5,7.5,9.9s4.7,6.8,6.9,10.2
			c2.2,3.5,4.3,7,6.4,10.5c2,3.6,3.9,7.2,5.8,10.8c1.8,3.7,3.5,7.4,5.2,11.1c1.6,3.7,3.1,7.5,4.5,11.3s2.7,7.7,3.9,11.5
			c1.2,3.9,2.3,7.8,3.3,11.7s1.9,7.9,2.6,11.8c0.8,4,1.4,7.9,2,11.9s1,8,1.3,12s0.6,8,0.7,12.1c0.1,4,0.1,8.1,0,12.1
			s-0.3,8.1-0.7,12.1c-0.3,4-0.8,8-1.3,12c-1.5,10.9-3.7,21.7-6.9,32.3c-2.9,10-6.5,19.8-10.8,29.3c-4.1,8.9-8.7,17.5-13.8,25.9
			c-7.2,11.6-15.4,22.6-24.5,32.9c-9.2,10.3-19.2,19.9-30.1,28.7c-14.9,12.1-31.2,22.3-48.7,30.8c-9,4.4-18.3,8.2-27.9,11.6
			c-9.5,3.3-19.3,6.1-29.2,8.4c-9.9,2.2-19.9,3.9-30,5.1C414.4,147.2,404.2,147.8,394,147.8z"/>
	</g>
	<g>
		<defs>
			<rect id="SVGID_00000068634905477636949520000009009790941902803131_" x="139.7" y="-24.6" width="507.9" height="171.7"/>
		</defs>
		<clipPath id="SVGID_00000177486562326382601910000004625714220983238845_">
			<use xlink:href="#SVGID_00000068634905477636949520000009009790941902803131_"  style="overflow:visible;"/>
		</clipPath>
		<path style="clip-path:url(#SVGID_00000177486562326382601910000004625714220983238845_);fill:#BBB7B7;" d="M394.1,147.8
			c-10.2,0-20.3-0.6-30.4-1.7c-10.1-1.1-20.1-2.8-30-5.1s-19.6-5-29.1-8.4c-9.5-3.3-18.8-7.2-27.9-11.6
			c-17.5-8.5-33.8-18.8-48.7-30.8c-11.1-8.9-21.4-18.7-30.7-29.3c-9-10.1-16.9-20.9-23.9-32.3c-10.8-17.4-19-35.8-24.6-55.3l4-1
			c5.5,19.1,13.6,37.2,24.2,54.4c6.9,11.2,14.8,21.8,23.6,31.7c9.2,10.4,19.2,20,30.2,28.8c5.6,4.5,11.4,8.8,17.5,12.8
			c6,4,12.2,7.8,18.6,11.3s12.9,6.8,19.6,9.8s13.5,5.7,20.5,8.1c7,2.4,14,4.5,21.2,6.4c7.2,1.8,14.4,3.3,21.7,4.6
			c7.3,1.2,14.7,2.1,22.1,2.7c7.4,0.6,14.8,0.9,22.2,0.9c10,0,20-0.6,30-1.7c10-1.1,19.8-2.8,29.5-5s19.3-5,28.7-8.2
			c9.4-3.3,18.5-7.1,27.4-11.4c17.3-8.4,33.2-18.5,47.9-30.3c10.7-8.6,20.6-18,29.6-28.2s17.1-21,24.1-32.4
			c5.1-8.3,9.6-16.8,13.6-25.5c4.2-9.4,7.8-19,10.6-28.8c3-10.4,5.3-20.9,6.7-31.5c-0.5-3.5-1-6.9-1.7-10.4
			c-0.6-3.4-1.4-6.9-2.2-10.3s-1.7-6.8-2.7-10.2c-1-3.4-2-6.7-3.2-10.1c-1.1-3.3-2.4-6.6-3.7-9.9s-2.7-6.5-4.1-9.8
			c-1.5-3.2-3-6.4-4.6-9.6c-1.6-3.2-3.3-6.3-5.1-9.4c-1.8-3.1-3.6-6.1-5.5-9.2c-1.9-3-3.9-6-6-8.9s-4.2-5.8-6.4-8.7
			c-2.2-2.8-4.5-5.6-6.8-8.4c-2.3-2.7-4.7-5.4-7.2-8.1c-2.5-2.6-5-5.2-7.6-7.8c-2.6-2.5-5.2-5-8-7.5c-2.7-2.4-5.5-4.8-8.3-7.1
			s-5.7-4.6-8.6-6.8c-2.9-2.2-5.9-4.3-9-6.4c-3-2.1-6.1-4.1-9.3-6c-3.1-1.9-6.3-3.8-9.5-5.6s-6.5-3.5-9.8-5.2s-6.7-3.3-10-4.8
			c-3.4-1.5-6.8-3-10.3-4.4s-6.9-2.7-10.5-3.9c-3.5-1.2-7.1-2.4-10.6-3.5c-3.6-1.1-7.2-2.1-10.8-3s-7.3-1.8-10.9-2.6
			c-3.7-0.8-7.4-1.5-11.1-2.1c-3.7-0.6-7.4-1.2-11.1-1.6c-3.7-0.5-7.5-0.9-11.2-1.2c-3.7-0.3-7.5-0.5-11.3-0.7s-7.5-0.2-11.3-0.2
			s-7.5,0.1-11.3,0.2c-3.8,0.2-7.5,0.4-11.3,0.7c-3.7,0.3-7.5,0.7-11.2,1.2s-7.4,1-11.1,1.7c-3.7,0.6-7.4,1.3-11.1,2.1
			c-3.7,0.8-7.3,1.6-10.9,2.6s-7.2,2-10.8,3c-3.6,1.1-7.1,2.3-10.6,3.5s-7,2.5-10.5,3.9s-6.9,2.8-10.3,4.4c-3.4,1.5-6.7,3.1-10,4.8
			s-6.6,3.4-9.8,5.2c-3.2,1.8-6.4,3.7-9.5,5.6s-6.2,3.9-9.3,6c-3,2.1-6,4.2-9,6.4c-2.9,2.2-5.8,4.4-8.6,6.8
			c-2.8,2.3-5.6,4.7-8.3,7.1c-2.7,2.4-5.4,4.9-7.9,7.5c-2.6,2.5-5.1,5.1-7.6,7.8s-4.9,5.3-7.2,8.1c-2.3,2.7-4.6,5.5-6.8,8.4
			c-2.2,2.8-4.3,5.7-6.4,8.7c-2.1,2.9-4,5.9-6,8.9c-1.9,3-3.7,6.1-5.5,9.2c-1.8,3.1-3.5,6.2-5.1,9.4s-3.1,6.4-4.6,9.6
			s-2.8,6.5-4.1,9.8c-1.3,3.3-2.5,6.6-3.7,9.9c-1.1,3.3-2.2,6.7-3.2,10.1s-1.9,6.8-2.7,10.2c-0.8,3.4-1.5,6.9-2.2,10.3
			c-0.6,3.4-1.2,6.9-1.7,10.4l-4.1-0.5c0.5-3.5,1.1-7.1,1.7-10.6c0.7-3.5,1.4-7,2.2-10.5c0.8-3.5,1.7-6.9,2.7-10.4
			c1-3.4,2.1-6.9,3.2-10.2c1.2-3.4,2.4-6.8,3.7-10.1c1.3-3.3,2.7-6.7,4.2-9.9s3-6.5,4.7-9.7c1.6-3.2,3.4-6.4,5.2-9.5
			c1.8-3.1,3.7-6.2,5.6-9.3s4-6.1,6.1-9.1s4.3-5.9,6.5-8.8c2.2-2.9,4.5-5.7,6.9-8.5s4.8-5.5,7.3-8.2s5.1-5.3,7.7-7.9
			c2.6-2.6,5.3-5.1,8.1-7.6c2.8-2.5,5.6-4.9,8.4-7.2c2.9-2.4,5.8-4.6,8.8-6.9c3-2.2,6-4.4,9.1-6.5s6.2-4.1,9.4-6.1
			c3.2-2,6.4-3.9,9.7-5.7c3.3-1.8,6.6-3.6,10-5.3s6.8-3.3,10.2-4.9c3.4-1.6,6.9-3,10.4-4.4s7.1-2.7,10.6-4c3.6-1.3,7.2-2.4,10.8-3.5
			s7.3-2.1,11-3.1s7.4-1.8,11.1-2.6c3.7-0.8,7.5-1.5,11.2-2.2c3.8-0.6,7.5-1.2,11.3-1.7s7.6-0.9,11.4-1.2c3.8-0.3,7.6-0.6,11.4-0.7
			c3.8-0.2,7.6-0.2,11.5-0.2c3.8,0,7.6,0.1,11.5,0.2c3.8,0.2,7.6,0.4,11.4,0.7c3.8,0.3,7.6,0.7,11.4,1.2c3.8,0.5,7.6,1,11.3,1.7
			c3.8,0.6,7.5,1.4,11.2,2.2c3.7,0.8,7.4,1.7,11.1,2.6c3.7,1,7.3,2,11,3.1c3.6,1.1,7.2,2.3,10.8,3.5c3.6,1.3,7.1,2.6,10.6,4
			s7,2.9,10.4,4.4c3.4,1.6,6.8,3.2,10.2,4.9s6.7,3.5,10,5.3s6.5,3.7,9.7,5.7s6.3,4,9.4,6.1c3.1,2.1,6.1,4.3,9.1,6.5s5.9,4.5,8.8,6.9
			c2.9,2.4,5.7,4.8,8.4,7.2c2.8,2.5,5.4,5,8.1,7.6c2.6,2.6,5.2,5.2,7.7,7.9s4.9,5.4,7.3,8.2c2.4,2.8,4.7,5.6,6.9,8.5
			s4.4,5.8,6.5,8.8s4.1,6,6.1,9.1c1.9,3.1,3.8,6.2,5.6,9.3s3.5,6.3,5.2,9.5c1.6,3.2,3.2,6.5,4.7,9.7c1.5,3.3,2.9,6.6,4.2,9.9
			s2.6,6.7,3.7,10.1c1.2,3.4,2.2,6.8,3.2,10.2c1,3.4,1.9,6.9,2.7,10.4s1.6,7,2.2,10.5c0.7,3.5,1.2,7,1.7,10.6v0.2v0.2
			c-1.5,10.9-3.7,21.7-6.9,32.3c-2.9,10-6.5,19.8-10.8,29.3c-4.1,8.9-8.7,17.5-13.8,25.9c-7.2,11.6-15.4,22.6-24.5,32.9
			c-9.2,10.3-19.2,19.9-30.1,28.7c-14.9,12.1-31.2,22.3-48.7,30.8c-9,4.4-18.3,8.2-27.9,11.6c-9.5,3.3-19.3,6.1-29.2,8.4
			c-9.9,2.2-19.9,3.9-30,5.1C414.4,147.2,404.2,147.8,394.1,147.8z"/>
	</g>
	<g>
		<defs>
			<rect id="SVGID_00000013183390613200306890000015957060699626380946_" x="139.7" y="-24.6" width="507.9" height="171.7"/>
		</defs>
		<clipPath id="SVGID_00000057124592448906789040000005674567088254684583_">
			<use xlink:href="#SVGID_00000013183390613200306890000015957060699626380946_"  style="overflow:visible;"/>
		</clipPath>
		<path style="clip-path:url(#SVGID_00000057124592448906789040000005674567088254684583_);fill:#BBB7B7;" d="M152.7-27.1
			c5.5,18.9,13.6,36.9,24.1,53.9c6.9,11.2,14.8,21.8,23.6,31.7c9.2,10.4,19.2,20,30.2,28.8c5.6,4.5,11.4,8.8,17.5,12.8
			c6,4,12.2,7.8,18.6,11.3s12.9,6.8,19.6,9.8s13.5,5.7,20.5,8.1c7,2.4,14,4.5,21.2,6.4c7.2,1.8,14.4,3.3,21.7,4.6
			c7.3,1.2,14.7,2.1,22.1,2.7c7.4,0.6,14.8,0.9,22.2,0.9c10,0,20-0.6,30-1.7c10-1.1,19.8-2.8,29.5-5s19.3-5,28.7-8.2
			c9.4-3.3,18.5-7.1,27.4-11.4c17.3-8.4,33.2-18.5,47.9-30.3c10.7-8.6,20.6-18,29.6-28.2s17.1-21,24.1-32.4
			c5.1-8.3,9.6-16.8,13.6-25.5c4.1-9.2,7.6-18.7,10.5-28.3c-0.9-3-1.9-6.1-2.9-9.1s-2.1-6-3.3-9s-2.4-5.9-3.7-8.8
			c-1.3-2.9-2.6-5.8-4.1-8.7c-1.4-2.9-2.9-5.7-4.4-8.5s-3.1-5.6-4.8-8.4s-3.4-5.5-5.2-8.2s-3.6-5.3-5.5-8c-1.9-2.6-3.9-5.2-5.9-7.7
			s-4.1-5-6.2-7.5c-2.1-2.5-4.3-4.9-6.5-7.3s-4.5-4.7-6.8-7s-4.7-4.5-7.1-6.8c-2.4-2.2-4.9-4.4-7.4-6.5s-5.1-4.2-7.7-6.2
			c-2.6-2-5.3-4-8-5.9s-5.4-3.8-8.2-5.6s-5.6-3.6-8.5-5.3s-5.8-3.4-8.7-4.9c-2.9-1.6-5.9-3.1-8.9-4.6s-6-2.9-9.1-4.3
			c-3.1-1.4-6.2-2.7-9.3-3.9c-3.1-1.3-6.3-2.4-9.4-3.6c-3.2-1.1-6.4-2.2-9.6-3.2c-3.2-1-6.5-2-9.7-2.8c-3.3-0.9-6.5-1.7-9.8-2.5
			s-6.6-1.5-9.9-2.1c-3.3-0.6-6.7-1.2-10-1.7c-3.4-0.5-6.7-1-10.1-1.3c-3.4-0.4-6.7-0.7-10.1-1c-3.4-0.3-6.8-0.4-10.2-0.6
			c-3.4-0.1-6.8-0.2-10.2-0.2s-6.8,0.1-10.2,0.2c-3.4,0.1-6.8,0.3-10.2,0.6s-6.8,0.6-10.1,1c-3.4,0.4-6.7,0.8-10.1,1.3
			c-3.4,0.5-6.7,1.1-10,1.7c-3.3,0.6-6.6,1.3-9.9,2.1c-3.3,0.8-6.6,1.6-9.8,2.5c-3.3,0.9-6.5,1.8-9.7,2.8s-6.4,2.1-9.6,3.2
			c-3.2,1.1-6.3,2.3-9.4,3.6s-6.2,2.6-9.3,3.9c-3.1,1.4-6.1,2.8-9.1,4.3s-6,3-8.9,4.6s-5.8,3.2-8.7,4.9c-2.9,1.7-5.7,3.5-8.5,5.3
			s-5.5,3.7-8.2,5.6c-2.7,1.9-5.4,3.9-8,5.9s-5.2,4.1-7.7,6.2c-2.5,2.1-5,4.3-7.4,6.5s-4.8,4.5-7.1,6.8c-2.3,2.3-4.6,4.6-6.8,7
			c-2.2,2.4-4.4,4.8-6.5,7.3s-4.2,5-6.2,7.5s-4,5.1-5.9,7.7s-3.7,5.3-5.5,8s-3.5,5.4-5.2,8.2s-3.3,5.5-4.8,8.4
			c-1.5,2.8-3,5.7-4.4,8.5c-1.4,2.9-2.8,5.8-4.1,8.7c-1.3,2.9-2.5,5.9-3.7,8.8c-1.2,3-2.3,6-3.3,9C154.6-33.2,153.6-30.1,152.7-27.1
			z M394,147.8c-10.2,0-20.3-0.6-30.4-1.7c-10.1-1.1-20.1-2.8-30-5.1c-9.9-2.2-19.6-5-29.1-8.4c-9.5-3.3-18.8-7.2-27.9-11.6
			c-17.5-8.5-33.8-18.8-48.7-30.8c-11.1-8.9-21.4-18.7-30.7-29.3c-9-10.1-16.9-20.9-24-32.3c-10.8-17.4-19-35.8-24.6-55.3l-0.1-0.5
			l0.1-0.5c0.9-3.1,1.9-6.2,2.9-9.3s2.2-6.1,3.3-9.1c1.2-3,2.4-6,3.7-9c1.3-3,2.7-5.9,4.1-8.9c1.4-2.9,2.9-5.8,4.5-8.7
			c1.6-2.9,3.2-5.7,4.9-8.5c1.7-2.8,3.4-5.6,5.3-8.3c1.8-2.7,3.7-5.4,5.6-8.1s3.9-5.3,6-7.9c2-2.6,4.1-5.1,6.3-7.7
			c2.2-2.5,4.4-5,6.6-7.4c2.3-2.4,4.6-4.8,7-7.2c2.4-2.3,4.8-4.6,7.3-6.9c2.5-2.2,5-4.5,7.6-6.6c2.6-2.2,5.2-4.3,7.8-6.3
			c2.7-2.1,5.4-4.1,8.1-6c2.7-2,5.5-3.9,8.4-5.7c2.8-1.8,5.7-3.6,8.6-5.4c2.9-1.7,5.9-3.4,8.8-5c3-1.6,6-3.2,9.1-4.7s6.1-3,9.3-4.4
			c3.1-1.4,6.3-2.7,9.4-4c3.2-1.3,6.4-2.5,9.6-3.6c3.2-1.2,6.5-2.2,9.8-3.3c3.3-1,6.6-2,9.9-2.9c3.3-0.9,6.7-1.7,10-2.5
			c3.4-0.8,6.7-1.5,10.1-2.1c3.4-0.7,6.8-1.2,10.2-1.8c3.4-0.5,6.8-1,10.3-1.4c3.4-0.4,6.9-0.7,10.3-1c3.4-0.3,6.9-0.5,10.4-0.6
			s6.9-0.2,10.4-0.2s6.9,0.1,10.4,0.2c3.5,0.1,6.9,0.3,10.4,0.6c3.4,0.3,6.9,0.6,10.3,1c3.4,0.4,6.9,0.8,10.3,1.4s6.8,1.1,10.2,1.8
			s6.8,1.4,10.1,2.1c3.4,0.8,6.7,1.6,10,2.5s6.6,1.9,9.9,2.9c3.3,1,6.5,2.1,9.8,3.3c3.2,1.2,6.4,2.4,9.6,3.6c3.2,1.3,6.3,2.6,9.4,4
			c3.1,1.4,6.2,2.8,9.3,4.4c3.1,1.5,6.1,3.1,9.1,4.7c3,1.6,5.9,3.3,8.8,5c2.9,1.7,5.8,3.5,8.6,5.4c2.8,1.8,5.6,3.7,8.4,5.7
			c2.7,2,5.5,4,8.1,6c2.7,2.1,5.3,4.2,7.8,6.3s5.1,4.4,7.6,6.6c2.5,2.2,4.9,4.5,7.3,6.9c2.4,2.3,4.7,4.7,7,7.2
			c2.3,2.4,4.5,4.9,6.6,7.4c2.2,2.5,4.3,5.1,6.3,7.7s4,5.2,6,7.9c1.9,2.7,3.8,5.4,5.6,8.1s3.6,5.5,5.3,8.3s3.3,5.6,4.9,8.5
			c1.6,2.9,3.1,5.8,4.5,8.7c1.4,2.9,2.8,5.9,4.1,8.9c1.3,3,2.6,6,3.7,9c1.2,3,2.3,6.1,3.3,9.1c1,3.1,2,6.2,2.9,9.3l0.1,0.5l-0.1,0.5
			c-2.9,10-6.5,19.8-10.8,29.3c-4.1,8.9-8.7,17.5-13.8,25.9c-7.2,11.6-15.4,22.6-24.5,32.9c-9.2,10.3-19.2,19.9-30.1,28.7
			c-14.9,12.1-31.2,22.3-48.7,30.8c-9,4.4-18.3,8.2-27.9,11.6c-9.5,3.3-19.3,6.1-29.2,8.4c-9.9,2.2-19.9,3.9-30,5.1
			C414.4,147.2,404.2,147.8,394,147.8z"/>
	</g>
	<g>
		<defs>
			<rect id="SVGID_00000089541879124296493460000008980581374142355380_" x="139.7" y="-24.6" width="507.9" height="171.7"/>
		</defs>
		<clipPath id="SVGID_00000002376330140116790830000011778054820278490249_">
			<use xlink:href="#SVGID_00000089541879124296493460000008980581374142355380_"  style="overflow:visible;"/>
		</clipPath>
		<path style="clip-path:url(#SVGID_00000002376330140116790830000011778054820278490249_);fill:#BBB7B7;" d="M163.6,2
			c3.9,8.5,8.3,16.8,13.2,24.8c6.9,11.2,14.8,21.8,23.6,31.7c9.2,10.4,19.2,20,30.2,28.8c5.6,4.5,11.4,8.8,17.5,12.8
			c6,4,12.2,7.8,18.6,11.3s12.9,6.8,19.6,9.8s13.5,5.7,20.5,8.1c7,2.4,14,4.5,21.2,6.4c7.2,1.8,14.4,3.3,21.7,4.6
			c7.3,1.2,14.7,2.1,22.1,2.7c7.4,0.6,14.8,0.9,22.2,0.9c10,0,20-0.6,30-1.7c10-1.1,19.8-2.8,29.5-5s19.3-5,28.7-8.2
			c9.4-3.3,18.5-7.1,27.4-11.4c17.3-8.4,33.2-18.5,47.9-30.3c10.7-8.6,20.6-18,29.6-28.2s17.1-21,24.1-32.4
			c4.9-8,9.3-16.3,13.2-24.8c-1.2-2.6-2.4-5.2-3.7-7.8s-2.6-5.1-4-7.6s-2.8-5-4.3-7.5s-3-4.9-4.6-7.4c-1.6-2.4-3.2-4.8-4.9-7.2
			s-3.4-4.7-5.2-7s-3.6-4.6-5.5-6.8s-3.8-4.5-5.7-6.6c-2-2.2-3.9-4.3-6-6.4c-2-2.1-4.1-4.2-6.2-6.2c-2.1-2-4.3-4.1-6.5-6
			c-2.2-2-4.4-3.9-6.7-5.8s-4.6-3.8-6.9-5.6c-2.3-1.8-4.7-3.6-7.1-5.3c-2.4-1.7-4.9-3.4-7.3-5.1c-2.5-1.7-5-3.3-7.5-4.8
			c-2.5-1.6-5.1-3.1-7.7-4.6s-5.2-2.9-7.9-4.3s-5.3-2.7-8.1-4c-2.7-1.3-5.5-2.6-8.2-3.8c-2.8-1.2-5.5-2.4-8.4-3.5
			c-2.8-1.1-5.6-2.2-8.5-3.2c-2.8-1-5.7-2-8.6-2.9c-2.9-0.9-5.8-1.8-8.7-2.6s-5.9-1.6-8.8-2.3s-5.9-1.4-8.9-2s-6-1.2-9-1.7
			s-6-1-9-1.4s-6-0.8-9.1-1.1c-3-0.3-6.1-0.6-9.1-0.8s-6.1-0.4-9.1-0.5s-6.1-0.2-9.2-0.2s-6.1,0.1-9.2,0.2c-3,0.1-6.1,0.3-9.1,0.5
			s-6.1,0.5-9.1,0.8s-6.1,0.7-9.1,1.1c-3,0.4-6,0.9-9,1.4s-6,1.1-9,1.7c-3,0.6-5.9,1.3-8.9,2s-5.9,1.5-8.8,2.3s-5.8,1.7-8.7,2.6
			c-2.9,0.9-5.8,1.9-8.6,2.9c-2.8,1-5.7,2.1-8.5,3.2s-5.6,2.3-8.4,3.5s-5.5,2.5-8.2,3.8s-5.4,2.6-8.1,4s-5.3,2.8-7.9,4.3
			s-5.2,3-7.7,4.6s-5.1,3.2-7.5,4.8c-2.5,1.7-4.9,3.3-7.3,5.1c-2.4,1.7-4.8,3.5-7.1,5.3c-2.3,1.8-4.7,3.7-6.9,5.6
			c-2.3,1.9-4.5,3.8-6.7,5.8s-4.4,4-6.5,6s-4.2,4.1-6.2,6.2c-2,2.1-4,4.3-6,6.4c-2,2.2-3.9,4.4-5.7,6.6c-1.9,2.2-3.7,4.5-5.5,6.8
			s-3.5,4.6-5.2,7s-3.3,4.8-4.9,7.2s-3.1,4.9-4.6,7.4s-2.9,5-4.3,7.5s-2.7,5.1-4,7.6C166-3.2,164.7-0.6,163.6,2z M394,147.8
			c-10.2,0-20.3-0.6-30.4-1.7c-10.1-1.1-20.1-2.8-30-5.1c-9.9-2.2-19.6-5-29.1-8.4c-9.5-3.3-18.8-7.2-27.9-11.6
			c-17.5-8.5-33.8-18.8-48.7-30.8c-11.1-8.9-21.4-18.7-30.7-29.3c-9-10.1-16.9-20.9-24-32.3c-5.2-8.4-9.8-17-13.8-25.9L159.1,2
			l0.3-0.7c1.2-2.7,2.5-5.3,3.8-7.9s2.7-5.2,4.1-7.8s2.9-5.1,4.4-7.7c1.5-2.5,3.1-5,4.7-7.5s3.3-4.9,5-7.3s3.5-4.8,5.3-7.2
			s3.6-4.7,5.5-7s3.8-4.6,5.8-6.8s4-4.4,6.1-6.6s4.2-4.3,6.3-6.4c2.2-2.1,4.3-4.1,6.6-6.2c2.2-2,4.5-4,6.8-5.9s4.7-3.8,7-5.7
			c2.4-1.9,4.8-3.7,7.3-5.4c2.5-1.8,4.9-3.5,7.5-5.2c2.5-1.7,5.1-3.3,7.7-4.9s5.2-3.2,7.9-4.7c2.7-1.5,5.3-3,8-4.4s5.4-2.8,8.2-4.1
			c2.8-1.3,5.6-2.6,8.4-3.8s5.7-2.4,8.5-3.6c2.9-1.1,5.7-2.2,8.6-3.3c2.9-1,5.8-2,8.8-3c2.9-0.9,5.9-1.8,8.9-2.7c3-0.8,6-1.6,9-2.4
			c3-0.7,6-1.4,9.1-2c3-0.6,6.1-1.2,9.1-1.7s6.1-1,9.2-1.4c3.1-0.4,6.2-0.8,9.3-1.1s6.2-0.6,9.3-0.8s6.2-0.4,9.3-0.5
			s6.2-0.2,9.3-0.2s6.2,0.1,9.3,0.2c3.1,0.1,6.2,0.3,9.3,0.5s6.2,0.5,9.3,0.8s6.2,0.7,9.3,1.1c3.1,0.4,6.1,0.9,9.2,1.4
			s6.1,1.1,9.1,1.7c3,0.6,6.1,1.3,9.1,2s6,1.5,9,2.4c3,0.8,5.9,1.7,8.9,2.7c2.9,0.9,5.9,1.9,8.8,3c2.9,1,5.8,2.1,8.6,3.3
			c2.9,1.1,5.7,2.3,8.5,3.6s5.6,2.5,8.4,3.8c2.8,1.3,5.5,2.7,8.2,4.1s5.4,2.9,8,4.4c2.7,1.5,5.3,3.1,7.9,4.7
			c2.6,1.6,5.1,3.2,7.7,4.9c2.5,1.7,5,3.4,7.5,5.2c2.5,1.8,4.9,3.6,7.3,5.4c2.4,1.9,4.7,3.8,7,5.7c2.3,1.9,4.6,3.9,6.8,5.9
			s4.4,4.1,6.6,6.2c2.2,2.1,4.3,4.2,6.3,6.4c2.1,2.2,4.1,4.4,6.1,6.6c2,2.2,3.9,4.5,5.8,6.8c1.9,2.3,3.7,4.6,5.5,7s3.6,4.7,5.3,7.2
			c1.7,2.4,3.4,4.9,5,7.3c1.6,2.5,3.2,5,4.7,7.5s3,5.1,4.4,7.7s2.8,5.2,4.1,7.8s2.6,5.3,3.8,7.9l0,0.7l-0.3,0.7
			c-4.1,8.9-8.6,17.5-13.8,25.9c-7.2,11.6-15.4,22.6-24.5,32.9c-9.2,10.3-19.2,19.9-30.1,28.7c-14.9,12.1-31.2,22.3-48.7,30.8
			c-9,4.4-18.3,8.2-27.9,11.6c-9.5,3.3-19.3,6.1-29.2,8.4c-9.9,2.2-19.9,3.9-30,5.1C414.4,147.2,404.2,147.8,394,147.8z"/>
	</g>
	<g>
		<defs>
			<rect id="SVGID_00000052790227962154463270000002944363533267878798_" x="139.7" y="-24.6" width="507.9" height="171.7"/>
		</defs>
		<clipPath id="SVGID_00000092414387207832702090000008381501101403154617_">
			<use xlink:href="#SVGID_00000052790227962154463270000002944363533267878798_"  style="overflow:visible;"/>
		</clipPath>
		<path style="clip-path:url(#SVGID_00000092414387207832702090000008381501101403154617_);fill:#BBB7B7;" d="M177.4,27.7
			c6.8,10.8,14.4,21.1,23,30.8c9.2,10.4,19.2,20,30.2,28.8c14.7,11.9,30.7,22,47.9,30.3c4.4,2.1,8.9,4.2,13.5,6.1s9.2,3.7,13.9,5.3
			c4.7,1.6,9.4,3.1,14.2,4.5s9.6,2.6,14.5,3.7c4.9,1.1,9.8,2.1,14.7,2.9c4.9,0.8,9.9,1.5,14.8,2.1c5,0.6,10,1,15,1.3s10,0.4,15,0.4
			s10-0.1,15-0.4c5-0.3,10-0.7,15-1.3s9.9-1.3,14.8-2.1c4.9-0.8,9.8-1.8,14.7-2.9s9.7-2.3,14.5-3.7s9.5-2.9,14.2-4.5
			s9.3-3.4,13.9-5.3c4.6-1.9,9.1-3.9,13.5-6.1c17.3-8.4,33.2-18.5,47.9-30.3c10.6-8.5,20.3-17.8,29.2-27.8s16.9-20.6,23.9-31.9
			c-2.7-4.4-5.6-8.7-8.7-12.9s-6.2-8.3-9.5-12.4c-3.3-4-6.8-7.9-10.4-11.8c-3.6-3.8-7.3-7.5-11.2-11.1s-7.8-7.1-12-10.4
			c-4.1-3.3-8.3-6.6-12.7-9.7c-4.3-3.1-8.8-6-13.3-8.9c-4.5-2.8-9.2-5.5-13.9-8s-9.5-4.9-14.4-7.2c-4.9-2.2-9.9-4.3-14.9-6.3
			c-5-1.9-10.2-3.7-15.3-5.4s-10.4-3.1-15.7-4.4s-10.6-2.5-15.9-3.5c-5.4-1-10.7-1.8-16.1-2.5c-5.4-0.7-10.8-1.2-16.3-1.5
			c-5.4-0.3-10.9-0.5-16.4-0.5s-10.9,0.2-16.4,0.5c-5.4,0.3-10.9,0.8-16.3,1.5c-5.4,0.7-10.8,1.5-16.1,2.5c-5.4,1-10.7,2.1-15.9,3.5
			c-5.3,1.3-10.5,2.8-15.7,4.4s-10.3,3.4-15.3,5.4c-5,1.9-10,4-14.9,6.3c-4.9,2.2-9.7,4.6-14.4,7.2c-4.7,2.5-9.4,5.2-13.9,8
			s-9,5.8-13.3,8.9s-8.6,6.3-12.7,9.7c-4.1,3.3-8.1,6.8-12,10.4s-7.6,7.3-11.2,11.1s-7.1,7.7-10.4,11.8c-3.3,4-6.5,8.2-9.5,12.4
			C183,19,180.1,23.3,177.4,27.7z M394,147.8c-10.2,0-20.3-0.6-30.4-1.7c-10.1-1.1-20.1-2.8-30-5.1c-9.9-2.2-19.6-5-29.1-8.4
			c-9.5-3.3-18.8-7.2-27.9-11.6c-17.5-8.5-33.8-18.8-48.7-30.8c-11.1-8.9-21.4-18.7-30.7-29.3c-9-10.1-16.9-20.9-24-32.3l-0.6-0.9
			l0.6-0.9c2.8-4.5,5.7-8.9,8.8-13.2c3.1-4.3,6.3-8.5,9.7-12.7c3.4-4.1,6.9-8.1,10.6-12.1c3.7-3.9,7.5-7.7,11.4-11.4
			s8-7.2,12.2-10.7c4.2-3.4,8.5-6.7,12.9-9.9c4.4-3.2,8.9-6.2,13.6-9.1c4.6-2.9,9.4-5.6,14.2-8.2c4.8-2.6,9.7-5.1,14.7-7.4
			c5-2.3,10.1-4.4,15.2-6.4s10.4-3.8,15.6-5.5c5.3-1.7,10.6-3.2,16-4.5s10.8-2.5,16.3-3.5s11-1.9,16.5-2.5
			c5.5-0.7,11.1-1.2,16.6-1.5c5.6-0.3,11.1-0.5,16.7-0.5c5.6,0,11.1,0.2,16.7,0.5c5.6,0.3,11.1,0.9,16.6,1.5
			c5.5,0.7,11,1.5,16.5,2.5s10.9,2.2,16.3,3.5c5.4,1.3,10.7,2.9,16,4.5c5.3,1.7,10.5,3.5,15.6,5.5s10.2,4.1,15.2,6.4
			s9.9,4.8,14.7,7.4c4.8,2.6,9.5,5.3,14.2,8.2s9.1,5.9,13.6,9.1c4.4,3.2,8.7,6.5,12.9,9.9s8.2,7,12.2,10.7
			c3.9,3.7,7.7,7.5,11.4,11.4s7.2,7.9,10.6,12.1c3.4,4.1,6.6,8.3,9.7,12.7c3.1,4.3,6,8.7,8.8,13.2l0.6,1l-0.6,0.9
			c-7.2,11.6-15.4,22.6-24.5,32.9s-19.2,19.9-30.1,28.7c-14.9,12.1-31.2,22.3-48.7,30.8c-9,4.4-18.3,8.2-27.9,11.6
			c-9.5,3.3-19.3,6.1-29.2,8.4c-9.9,2.2-19.9,3.9-30,5.1C414.4,147.2,404.2,147.8,394,147.8z"/>
	</g>
	<g>
		<defs>
			<rect id="SVGID_00000105401095930153318130000012550975303930122653_" x="139.7" y="-24.6" width="507.9" height="171.7"/>
		</defs>
		<clipPath id="SVGID_00000042728691640907397070000002405301040184862602_">
			<use xlink:href="#SVGID_00000105401095930153318130000012550975303930122653_"  style="overflow:visible;"/>
		</clipPath>
		<path style="clip-path:url(#SVGID_00000042728691640907397070000002405301040184862602_);fill:#BBB7B7;" d="M201.4,59.7
			c8.9,10,18.6,19.2,29.1,27.6c5.6,4.5,11.4,8.8,17.5,12.8c6,4,12.2,7.8,18.6,11.3s12.9,6.8,19.6,9.8s13.5,5.7,20.5,8.1
			c7,2.4,14,4.5,21.2,6.4c7.2,1.8,14.4,3.3,21.7,4.6c7.3,1.2,14.7,2.1,22.1,2.7c7.4,0.6,14.8,0.9,22.2,0.9c10,0,20-0.6,30-1.7
			c10-1.1,19.8-2.8,29.5-5s19.3-5,28.7-8.2c9.4-3.3,18.5-7.1,27.4-11.4c17.3-8.4,33.2-18.5,47.9-30.3c10.5-8.5,20.2-17.7,29.1-27.6
			c-2.9-3.3-5.9-6.5-9.1-9.6c-3.1-3.1-6.3-6.2-9.6-9.1c-3.3-3-6.7-5.8-10.1-8.6c-3.5-2.8-7-5.5-10.6-8.1s-7.3-5.1-11.1-7.5
			s-7.6-4.7-11.5-7c-3.9-2.2-7.9-4.3-11.9-6.4c-4-2-8.1-3.9-12.3-5.8c-4.1-1.8-8.3-3.5-12.6-5.1c-4.2-1.6-8.5-3.1-12.9-4.5
			c-4.3-1.4-8.7-2.6-13.1-3.8c-4.4-1.2-8.9-2.2-13.3-3.1c-4.5-0.9-9-1.7-13.5-2.4c-4.5-0.7-9.1-1.3-13.6-1.7
			c-4.6-0.5-9.1-0.8-13.7-1.1c-4.6-0.2-9.2-0.4-13.7-0.4s-9.2,0.1-13.7,0.4c-4.6,0.2-9.1,0.6-13.7,1.1c-4.6,0.5-9.1,1.1-13.6,1.7
			c-4.5,0.7-9,1.5-13.5,2.4s-8.9,2-13.3,3.1c-4.4,1.2-8.8,2.4-13.1,3.8s-8.6,2.9-12.9,4.5s-8.4,3.3-12.6,5.1
			c-4.1,1.8-8.2,3.7-12.3,5.8c-4,2-8,4.1-11.9,6.4c-3.9,2.2-7.7,4.5-11.5,7c-3.8,2.4-7.5,4.9-11.1,7.5s-7.2,5.3-10.6,8.1
			c-3.5,2.8-6.8,5.7-10.1,8.6c-3.3,3-6.5,6-9.6,9.1C207.4,53.2,204.3,56.5,201.4,59.7L201.4,59.7z M394,147.8
			c-4.7,0-9.4-0.1-14.1-0.4c-4.7-0.2-9.4-0.6-14-1.1c-4.7-0.5-9.3-1.1-13.9-1.8c-4.6-0.7-9.2-1.6-13.8-2.5c-4.6-1-9.1-2-13.6-3.2
			s-9-2.5-13.4-3.9s-8.8-3-13.2-4.6c-4.3-1.6-8.6-3.4-12.9-5.3c-4.2-1.9-8.4-3.8-12.5-5.9s-8.2-4.3-12.2-6.6
			c-4-2.3-7.9-4.7-11.8-7.2c-3.8-2.5-7.6-5.1-11.3-7.8c-3.7-2.7-7.3-5.5-10.8-8.3c-3.5-2.9-7-5.8-10.3-8.9c-3.4-3.1-6.6-6.2-9.8-9.4
			c-3.2-3.2-6.2-6.5-9.2-9.9l-1.1-1.2l1.1-1.2c3-3.4,6-6.7,9.2-9.9s6.4-6.4,9.8-9.4c3.4-3.1,6.8-6,10.3-8.9s7.1-5.7,10.8-8.4
			c3.7-2.7,7.5-5.3,11.3-7.8s7.8-4.9,11.8-7.2s8-4.5,12.2-6.6c4.1-2.1,8.3-4.1,12.5-5.9c4.2-1.9,8.5-3.6,12.9-5.3
			c4.3-1.6,8.7-3.2,13.2-4.6c4.4-1.4,8.9-2.7,13.4-3.9c4.5-1.2,9.1-2.3,13.6-3.2s9.2-1.8,13.8-2.5s9.3-1.3,13.9-1.8
			c4.7-0.5,9.3-0.8,14-1.1c4.7-0.2,9.4-0.4,14.1-0.4c4.7,0,9.4,0.1,14.1,0.4c4.7,0.2,9.4,0.6,14,1.1c4.7,0.5,9.3,1.1,13.9,1.8
			c4.6,0.7,9.2,1.6,13.8,2.5c4.6,1,9.1,2,13.6,3.2s9,2.5,13.4,3.9s8.8,3,13.2,4.6c4.3,1.6,8.6,3.4,12.9,5.3s8.4,3.8,12.5,5.9
			s8.2,4.3,12.2,6.6s7.9,4.7,11.8,7.2c3.8,2.5,7.6,5.1,11.3,7.8s7.3,5.5,10.8,8.4s7,5.8,10.3,8.9c3.4,3.1,6.6,6.2,9.8,9.4
			s6.2,6.5,9.2,9.9l1.1,1.2l-1.1,1.2c-9.3,10.6-19.6,20.4-30.7,29.3c-14.9,12.1-31.2,22.3-48.7,30.8c-9,4.4-18.3,8.2-27.9,11.6
			c-9.5,3.3-19.3,6.1-29.2,8.4c-9.9,2.2-19.9,3.9-30,5.1C414.4,147.2,404.2,147.8,394,147.8z"/>
	</g>
	<g>
		<defs>
			<rect id="SVGID_00000062893603397463229760000010548110121596801450_" x="139.7" y="-24.6" width="507.9" height="171.7"/>
		</defs>
		<clipPath id="SVGID_00000168832861706086808590000010383815887121577113_">
			<use xlink:href="#SVGID_00000062893603397463229760000010548110121596801450_"  style="overflow:visible;"/>
		</clipPath>
		<path style="clip-path:url(#SVGID_00000168832861706086808590000010383815887121577113_);fill:#BBB7B7;" d="M232.3,88.8
			c5.6,4.4,11.4,8.6,17.4,12.5s12.1,7.6,18.5,11.1c6.3,3.4,12.8,6.6,19.5,9.5c6.6,2.9,13.4,5.5,20.3,7.9c6.9,2.3,13.9,4.4,20.9,6.2
			c7.1,1.8,14.2,3.3,21.4,4.4c7.2,1.2,14.5,2.1,21.8,2.7c7.3,0.6,14.6,0.9,22,0.9c10,0,20-0.6,30-1.7c10-1.1,19.8-2.8,29.5-5
			s19.3-5,28.7-8.2c9.4-3.3,18.5-7.1,27.4-11.4c16.5-8,31.9-17.6,46.1-28.9c-2.8-2.2-5.6-4.3-8.5-6.4s-5.8-4.1-8.8-6.1
			s-6-3.9-9.1-5.7c-3.1-1.8-6.2-3.6-9.4-5.3c-3.2-1.7-6.4-3.4-9.6-4.9c-3.2-1.6-6.5-3.1-9.8-4.5s-6.7-2.8-10-4.1
			c-3.4-1.3-6.8-2.6-10.2-3.7c-3.4-1.2-6.9-2.3-10.4-3.3s-7-2-10.5-2.9s-7.1-1.7-10.7-2.4c-3.6-0.7-7.2-1.4-10.8-2
			s-7.2-1.1-10.9-1.6s-7.3-0.8-10.9-1.1s-7.3-0.5-11-0.7c-3.7-0.1-7.3-0.2-11-0.2s-7.3,0.1-11,0.2c-3.7,0.1-7.3,0.4-11,0.7
			c-3.6,0.3-7.3,0.7-10.9,1.1c-3.6,0.4-7.3,1-10.9,1.6c-3.6,0.6-7.2,1.3-10.8,2s-7.1,1.6-10.7,2.4c-3.5,0.9-7.1,1.8-10.5,2.9
			c-3.5,1-7,2.1-10.4,3.3s-6.9,2.4-10.2,3.7c-3.4,1.3-6.7,2.7-10,4.1c-3.3,1.4-6.6,3-9.8,4.5c-3.2,1.6-6.4,3.2-9.6,4.9
			c-3.2,1.7-6.3,3.5-9.4,5.3s-6.1,3.7-9.1,5.7s-5.9,4-8.8,6.1C238,84.5,235.1,86.6,232.3,88.8z M394,147.8c-7.6,0-15.1-0.3-22.6-0.9
			c-7.5-0.6-15-1.5-22.4-2.8c-7.4-1.2-14.8-2.8-22.1-4.6c-7.3-1.9-14.5-4-21.5-6.5c-7.1-2.5-14-5.2-20.8-8.2s-13.5-6.3-20-9.9
			s-12.8-7.4-18.9-11.5s-12-8.5-17.8-13.1l-1.8-1.4l1.8-1.4c2.9-2.3,5.8-4.5,8.7-6.7c3-2.2,6-4.3,9-6.3s6.2-4,9.3-6
			c3.2-1.9,6.4-3.8,9.6-5.6c3.2-1.8,6.5-3.5,9.9-5.2c3.3-1.7,6.7-3.2,10.1-4.7s6.8-3,10.3-4.3c3.5-1.4,7-2.7,10.5-3.9
			s7.1-2.4,10.7-3.5c3.6-1.1,7.2-2.1,10.8-3s7.3-1.8,11-2.6s7.4-1.5,11.1-2.1c3.7-0.6,7.4-1.2,11.2-1.6c3.7-0.5,7.5-0.9,11.2-1.2
			c3.8-0.3,7.5-0.5,11.3-0.7s7.5-0.2,11.3-0.2s7.5,0.1,11.3,0.2c3.8,0.2,7.5,0.4,11.3,0.7c3.8,0.3,7.5,0.7,11.2,1.2s7.5,1,11.2,1.6
			s7.4,1.3,11.1,2.1c3.7,0.8,7.3,1.6,11,2.6c3.6,0.9,7.3,1.9,10.8,3c3.6,1.1,7.2,2.2,10.7,3.5c3.5,1.2,7,2.5,10.5,3.9
			s6.9,2.8,10.3,4.3c3.4,1.5,6.8,3.1,10.1,4.7c3.3,1.7,6.6,3.4,9.9,5.2c3.2,1.8,6.5,3.6,9.6,5.6c3.2,1.9,6.3,3.9,9.3,6
			c3.1,2,6.1,4.2,9,6.3c3,2.2,5.9,4.4,8.7,6.7l1.8,1.4l-1.8,1.4c-14.9,12.1-31.2,22.3-48.7,30.8c-9,4.4-18.3,8.2-27.9,11.6
			c-9.5,3.3-19.3,6.1-29.2,8.4c-9.9,2.2-19.9,3.9-30,5.1C414.4,147.2,404.2,147.8,394,147.8z"/>
	</g>
	<g>
		<defs>
			<rect id="SVGID_00000037691215136045227980000013718234803694334623_" x="139.7" y="-24.6" width="507.9" height="171.7"/>
		</defs>
		<clipPath id="SVGID_00000044156502365982160700000006260628725200286087_">
			<use xlink:href="#SVGID_00000037691215136045227980000013718234803694334623_"  style="overflow:visible;"/>
		</clipPath>
		<path style="clip-path:url(#SVGID_00000044156502365982160700000006260628725200286087_);fill:#BBB7B7;" d="M282,119.4
			c8.7,4.1,17.5,7.6,26.6,10.7s18.4,5.7,27.8,7.7c9.4,2.1,19,3.6,28.6,4.6s19.3,1.5,29,1.5s19.3-0.5,29-1.6c9.6-1,19.2-2.6,28.6-4.7
			c9.4-2.1,18.7-4.6,27.8-7.7c9.1-3.1,18-6.6,26.7-10.6c-8.7-4-17.6-7.6-26.7-10.7c-9.1-3.1-18.4-5.6-27.8-7.7
			c-9.4-2.1-19-3.6-28.6-4.7c-9.6-1-19.3-1.6-29-1.6s-19.4,0.5-29,1.5s-19.2,2.6-28.6,4.7s-18.7,4.7-27.8,7.7S290.7,115.3,282,119.4
			z M394,147.8c-10.2,0-20.3-0.6-30.4-1.7c-10.1-1.1-20.1-2.8-30-5.1c-9.9-2.2-19.6-5-29.1-8.4c-9.5-3.3-18.8-7.2-27.9-11.6
			l-3.5-1.7l3.5-1.7c4.5-2.2,9.1-4.2,13.7-6.2c4.6-1.9,9.4-3.7,14.1-5.4c4.8-1.7,9.6-3.2,14.4-4.6c4.9-1.4,9.8-2.7,14.7-3.8
			c4.9-1.1,9.9-2.1,14.9-3c5-0.8,10-1.6,15.1-2.1c5.1-0.6,10.1-1,15.2-1.3c5.1-0.3,10.2-0.4,15.3-0.4s10.2,0.1,15.3,0.4
			s10.1,0.7,15.2,1.3c5.1,0.6,10.1,1.3,15.1,2.1c5,0.8,10,1.8,14.9,3s9.8,2.4,14.7,3.8s9.7,2.9,14.4,4.6s9.5,3.5,14.1,5.4
			s9.2,4,13.7,6.2l3.5,1.7l-3.5,1.7c-9,4.4-18.3,8.2-27.9,11.6c-9.5,3.3-19.3,6.1-29.2,8.4c-9.9,2.2-19.9,3.9-30,5.1
			C414.4,147.2,404.2,147.8,394,147.8z"/>
	</g>
	<g>
		<defs>
			<rect id="SVGID_00000018198612788843536580000009645221140875240109_" x="139.7" y="-24.6" width="507.9" height="171.7"/>
		</defs>
		<clipPath id="SVGID_00000154408634248793075560000006153601020312505755_">
			<use xlink:href="#SVGID_00000018198612788843536580000009645221140875240109_"  style="overflow:visible;"/>
		</clipPath>
		<path style="clip-path:url(#SVGID_00000154408634248793075560000006153601020312505755_);fill:#BBB7B7;" d="M394.1,88.2
			c-3.8,0-7.6-0.1-11.5-0.3c-3.8-0.2-7.6-0.4-11.4-0.7c-3.8-0.3-7.6-0.7-11.4-1.2c-3.8-0.5-7.6-1-11.3-1.7
			c-3.8-0.6-7.5-1.4-11.2-2.2c-3.7-0.8-7.4-1.7-11.1-2.6c-3.7-1-7.3-2-11-3.1c-3.6-1.1-7.2-2.3-10.8-3.5c-3.6-1.3-7.1-2.6-10.6-4
			s-7-2.9-10.4-4.4c-3.4-1.6-6.8-3.2-10.2-4.9c-3.4-1.7-6.7-3.5-10-5.3s-6.5-3.7-9.7-5.7s-6.3-4-9.4-6.1S238,38.2,235,36
			s-5.9-4.5-8.8-6.9s-5.7-4.8-8.4-7.2c-2.8-2.5-5.4-5-8.1-7.6c-2.6-2.6-5.2-5.2-7.7-7.9s-4.9-5.4-7.3-8.2s-4.7-5.6-6.9-8.5
			c-2.2-2.9-4.4-5.8-6.5-8.8s-4.1-6-6.1-9.1c-1.9-3.1-3.8-6.2-5.6-9.3c-1.8-3.1-3.5-6.3-5.2-9.5c-1.6-3.2-3.2-6.5-4.7-9.7
			c-1.5-3.3-2.9-6.6-4.2-9.9c-1.3-3.3-2.6-6.7-3.7-10.1c-1.2-3.4-2.2-6.8-3.2-10.2c-1-3.4-1.9-6.9-2.7-10.4c-0.8-3.5-1.6-7-2.2-10.5
			c-0.7-3.5-1.2-7-1.7-10.6l4.1-0.5c0.5,3.5,1,6.9,1.7,10.4c0.6,3.4,1.4,6.9,2.2,10.3c0.8,3.4,1.7,6.8,2.7,10.2
			c1,3.4,2,6.7,3.2,10.1c1.1,3.3,2.4,6.6,3.7,9.9c1.3,3.3,2.7,6.5,4.1,9.8c1.5,3.2,3,6.4,4.6,9.6s3.3,6.3,5.1,9.4
			c1.8,3.1,3.6,6.1,5.5,9.2c1.9,3,3.9,6,6,8.9s4.2,5.8,6.4,8.7s4.5,5.6,6.8,8.4c2.3,2.7,4.7,5.4,7.2,8.1c2.5,2.6,5,5.2,7.6,7.8
			c2.6,2.5,5.2,5,7.9,7.5c2.7,2.4,5.5,4.8,8.3,7.1s5.7,4.6,8.6,6.8s5.9,4.3,9,6.4c3,2.1,6.1,4.1,9.3,6s6.3,3.8,9.5,5.6
			s6.5,3.5,9.8,5.2s6.7,3.3,10,4.8c3.4,1.5,6.8,3,10.3,4.4s6.9,2.7,10.5,3.9c3.5,1.2,7.1,2.4,10.6,3.5c3.6,1.1,7.2,2.1,10.8,3
			s7.3,1.8,10.9,2.6c3.7,0.8,7.4,1.5,11.1,2.1c3.7,0.6,7.4,1.2,11.1,1.7c3.7,0.5,7.5,0.9,11.2,1.2c3.7,0.3,7.5,0.6,11.3,0.7
			c3.8,0.2,7.5,0.2,11.3,0.2s7.5-0.1,11.3-0.2c3.8-0.2,7.5-0.4,11.3-0.7c3.7-0.3,7.5-0.7,11.2-1.2s7.4-1,11.1-1.6
			c3.7-0.6,7.4-1.3,11.1-2.1c3.7-0.8,7.3-1.6,10.9-2.6c3.6-0.9,7.2-1.9,10.8-3s7.1-2.2,10.6-3.5c3.5-1.2,7-2.5,10.5-3.9
			s6.9-2.8,10.3-4.4c3.4-1.5,6.7-3.1,10-4.8s6.6-3.4,9.8-5.2s6.4-3.7,9.5-5.6c3.1-1.9,6.2-3.9,9.3-6c3-2.1,6-4.2,9-6.4
			c2.9-2.2,5.8-4.4,8.6-6.8c2.8-2.3,5.6-4.7,8.3-7.1s5.4-4.9,8-7.5c2.6-2.5,5.1-5.1,7.6-7.8s4.9-5.3,7.2-8.1
			c2.3-2.7,4.6-5.5,6.8-8.4c2.2-2.8,4.3-5.7,6.4-8.7c2.1-2.9,4-5.9,6-8.9c1.9-3,3.8-6.1,5.5-9.2c1.8-3.1,3.5-6.2,5.1-9.4
			s3.2-6.4,4.6-9.6c1.5-3.2,2.8-6.5,4.1-9.8s2.5-6.6,3.7-9.9c1.1-3.3,2.2-6.7,3.2-10.1s1.9-6.8,2.7-10.2c0.8-3.4,1.5-6.9,2.2-10.3
			c0.6-3.4,1.2-6.9,1.7-10.4c-1.4-10.7-3.7-21.2-6.7-31.5c-2.9-9.8-6.4-19.4-10.6-28.8c-4-8.8-8.5-17.3-13.6-25.5
			c-7.1-11.4-15.1-22.2-24.1-32.4c-9-10.2-18.9-19.6-29.6-28.2c-2.8-2.3-5.7-4.5-8.6-6.6c-2.9-2.1-5.9-4.2-8.9-6.2s-6.1-4-9.2-5.9
			c-3.1-1.9-6.3-3.7-9.5-5.5s-6.4-3.5-9.7-5.1s-6.6-3.2-9.9-4.7c-3.4-1.5-6.7-2.9-10.2-4.3c-3.4-1.3-6.9-2.6-10.3-3.8
			c-3.5-1.2-7-2.3-10.5-3.4s-7.1-2-10.7-3c-3.6-0.9-7.2-1.8-10.8-2.5c-3.6-0.8-7.3-1.5-10.9-2.1c-3.7-0.6-7.3-1.1-11-1.6
			s-7.4-0.8-11.1-1.2c-3.7-0.3-7.4-0.5-11.1-0.7c-3.7-0.2-7.4-0.2-11.1-0.2s-7.4,0.1-11.1,0.2c-3.7,0.2-7.4,0.4-11.1,0.7
			c-3.7,0.3-7.4,0.7-11.1,1.2c-3.7,0.5-7.3,1-11,1.6s-7.3,1.3-10.9,2.1s-7.2,1.6-10.8,2.5s-7.1,1.9-10.7,3c-3.5,1.1-7,2.2-10.5,3.4
			c-3.5,1.2-6.9,2.5-10.3,3.8s-6.8,2.8-10.2,4.3c-3.4,1.5-6.7,3-9.9,4.7c-3.3,1.6-6.5,3.3-9.7,5.1c-3.2,1.8-6.3,3.6-9.5,5.5
			c-3.1,1.9-6.2,3.8-9.2,5.9c-3,2-6,4.1-8.9,6.2s-5.8,4.3-8.6,6.6c-11,8.8-21,18.4-30.2,28.8c-8.8,10-16.7,20.6-23.6,31.8
			c-10.6,17.1-18.7,35.3-24.2,54.4l-4-1c5.6-19.4,13.8-37.8,24.6-55.3c7-11.4,15-22.1,24-32.3c9.3-10.6,19.5-20.4,30.7-29.3
			c5.7-4.6,11.6-8.9,17.8-13.1c6.1-4.1,12.4-7.9,18.9-11.5s13.2-6.9,20-9.9s13.8-5.8,20.8-8.2c7.1-2.4,14.3-4.6,21.5-6.5
			c7.3-1.9,14.6-3.4,22.1-4.6c7.4-1.2,14.9-2.2,22.4-2.8c7.5-0.6,15.1-0.9,22.6-0.9c10.2,0,20.3,0.6,30.5,1.7
			c10.1,1.1,20.1,2.8,30,5.1s19.6,5,29.2,8.4c9.5,3.3,18.8,7.2,27.9,11.6c17.5,8.5,33.8,18.8,48.7,30.8
			c10.9,8.8,20.9,18.3,30.1,28.7c9.2,10.3,17.3,21.3,24.5,32.9c5.1,8.4,9.7,17,13.8,25.9c4.3,9.6,7.9,19.3,10.8,29.3
			c3.1,10.6,5.4,21.4,6.9,32.3v0.2v0.2c-0.5,3.5-1.1,7-1.7,10.6c-0.7,3.5-1.4,7-2.2,10.5s-1.7,6.9-2.7,10.4c-1,3.4-2.1,6.9-3.2,10.2
			c-1.2,3.4-2.4,6.8-3.7,10.1c-1.3,3.3-2.7,6.6-4.2,9.9c-1.5,3.3-3,6.5-4.7,9.7s-3.4,6.4-5.2,9.5s-3.7,6.2-5.6,9.3
			c-1.9,3.1-4,6.1-6.1,9.1s-4.3,5.9-6.5,8.8s-4.5,5.7-6.9,8.5s-4.8,5.5-7.3,8.2s-5.1,5.3-7.7,7.9c-2.6,2.6-5.3,5.1-8.1,7.6
			s-5.6,4.9-8.4,7.2c-2.9,2.4-5.8,4.6-8.8,6.9c-3,2.2-6,4.4-9.1,6.5s-6.2,4.1-9.4,6.1s-6.4,3.9-9.7,5.7s-6.6,3.6-10,5.3
			s-6.8,3.3-10.2,4.9s-6.9,3-10.4,4.4s-7.1,2.7-10.6,4c-3.6,1.3-7.2,2.4-10.8,3.5s-7.3,2.1-11,3.1s-7.4,1.8-11.1,2.6
			c-3.7,0.8-7.5,1.5-11.2,2.2c-3.8,0.6-7.5,1.2-11.3,1.7s-7.6,0.9-11.4,1.2c-3.8,0.3-7.6,0.6-11.4,0.7
			C401.7,88.1,397.9,88.2,394.1,88.2z"/>
	</g>
	<g>
		<defs>
			<rect id="SVGID_00000171718540098676575570000014954869641028165047_" x="139.7" y="-24.6" width="507.9" height="171.7"/>
		</defs>
		<clipPath id="SVGID_00000020361959249858287560000018432961296493928093_">
			<use xlink:href="#SVGID_00000171718540098676575570000014954869641028165047_"  style="overflow:visible;"/>
		</clipPath>
		<path style="clip-path:url(#SVGID_00000020361959249858287560000018432961296493928093_);fill:#BBB7B7;" d="M152.7-150.7
			c0.9,3,1.9,6.1,2.9,9.1s2.1,6,3.3,9c1.2,3,2.4,5.9,3.7,8.8c1.3,2.9,2.6,5.8,4.1,8.7c1.4,2.9,2.9,5.7,4.4,8.5s3.1,5.6,4.8,8.4
			s3.4,5.5,5.2,8.2c1.8,2.7,3.6,5.3,5.5,8c1.9,2.6,3.9,5.2,5.9,7.7s4.1,5,6.2,7.5s4.3,4.9,6.5,7.3c2.2,2.4,4.5,4.7,6.8,7
			s4.7,4.5,7.1,6.8c2.4,2.2,4.9,4.4,7.4,6.5s5.1,4.2,7.7,6.2s5.3,4,8,5.9s5.4,3.8,8.2,5.6c2.8,1.8,5.6,3.6,8.5,5.3s5.8,3.4,8.7,4.9
			s5.9,3.1,8.9,4.6s6,2.9,9.1,4.3s6.2,2.7,9.3,3.9c3.1,1.3,6.3,2.4,9.4,3.6c3.2,1.1,6.4,2.2,9.6,3.2s6.5,2,9.7,2.8
			c3.3,0.9,6.5,1.7,9.8,2.5s6.6,1.5,9.9,2.1c3.3,0.6,6.7,1.2,10,1.7c3.4,0.5,6.7,1,10.1,1.3c3.4,0.4,6.7,0.7,10.1,1
			c3.4,0.3,6.8,0.4,10.2,0.6c3.4,0.1,6.8,0.2,10.2,0.2s6.8-0.1,10.2-0.2s6.8-0.3,10.2-0.6c3.4-0.3,6.8-0.6,10.1-1
			c3.4-0.4,6.7-0.8,10.1-1.3c3.4-0.5,6.7-1.1,10-1.7c3.3-0.6,6.6-1.3,9.9-2.1c3.3-0.8,6.6-1.6,9.8-2.5c3.3-0.9,6.5-1.8,9.7-2.8
			s6.4-2.1,9.6-3.2s6.3-2.3,9.4-3.6c3.1-1.3,6.2-2.6,9.3-3.9c3.1-1.4,6.1-2.8,9.1-4.3s6-3,8.9-4.6s5.8-3.2,8.7-4.9s5.7-3.5,8.5-5.3
			c2.8-1.8,5.5-3.7,8.2-5.6s5.4-3.9,8-5.9s5.2-4.1,7.7-6.2c2.5-2.1,5-4.3,7.4-6.5s4.8-4.5,7.1-6.8s4.6-4.6,6.8-7s4.4-4.8,6.5-7.3
			s4.2-5,6.2-7.5s4-5.1,5.9-7.7s3.7-5.3,5.5-8s3.5-5.4,5.2-8.2c1.7-2.8,3.3-5.5,4.8-8.4c1.5-2.8,3-5.7,4.4-8.5
			c1.4-2.9,2.8-5.8,4.1-8.7c1.3-2.9,2.5-5.9,3.7-8.8c1.2-3,2.3-6,3.3-9s2-6,2.9-9.1c-2.9-9.7-6.4-19.1-10.5-28.3
			c-4-8.8-8.5-17.3-13.6-25.5c-7.1-11.4-15.1-22.2-24.1-32.4s-18.9-19.6-29.6-28.2c-2.8-2.3-5.7-4.5-8.6-6.6
			c-2.9-2.1-5.9-4.2-8.9-6.2s-6.1-4-9.2-5.9c-3.1-1.9-6.3-3.7-9.5-5.5s-6.4-3.5-9.7-5.1s-6.6-3.2-9.9-4.7c-3.4-1.5-6.7-2.9-10.2-4.3
			c-3.4-1.3-6.9-2.6-10.3-3.8c-3.5-1.2-7-2.3-10.5-3.4s-7.1-2-10.7-3c-3.6-0.9-7.2-1.8-10.8-2.5c-3.6-0.8-7.3-1.5-10.9-2.1
			c-3.7-0.6-7.3-1.1-11-1.6s-7.4-0.8-11.1-1.2c-3.7-0.3-7.4-0.5-11.1-0.7c-3.7-0.2-7.4-0.2-11.1-0.2c-3.7,0-7.4,0.1-11.1,0.2
			c-3.7,0.2-7.4,0.4-11.1,0.7c-3.7,0.3-7.4,0.7-11.1,1.2c-3.7,0.5-7.3,1-11,1.6s-7.3,1.3-10.9,2.1c-3.6,0.8-7.2,1.6-10.8,2.5
			s-7.1,1.9-10.7,3c-3.5,1.1-7,2.2-10.5,3.4s-6.9,2.5-10.3,3.8s-6.8,2.8-10.2,4.3c-3.4,1.5-6.7,3-9.9,4.7c-3.3,1.6-6.5,3.3-9.7,5.1
			c-3.2,1.8-6.3,3.6-9.5,5.5c-3.1,1.9-6.2,3.8-9.2,5.9c-3,2-6,4.1-8.9,6.2s-5.8,4.3-8.6,6.6c-11,8.8-21,18.4-30.2,28.8
			c-8.8,10-16.7,20.6-23.6,31.8C166.3-187.6,158.3-169.6,152.7-150.7L152.7-150.7z M394.1,24.2c-3.5,0-6.9-0.1-10.4-0.2
			s-6.9-0.3-10.3-0.6c-3.4-0.3-6.9-0.6-10.3-1c-3.4-0.4-6.9-0.9-10.3-1.4c-3.4-0.5-6.8-1.1-10.2-1.8c-3.4-0.7-6.8-1.4-10.1-2.2
			c-3.4-0.8-6.7-1.6-10-2.5s-6.6-1.9-9.9-2.9c-3.3-1-6.5-2.1-9.7-3.3s-6.4-2.4-9.6-3.6c-3.2-1.3-6.3-2.6-9.4-4s-6.2-2.8-9.2-4.4
			c-3.1-1.5-6.1-3.1-9-4.7c-3-1.6-5.9-3.3-8.8-5s-5.8-3.5-8.6-5.4c-2.8-1.8-5.6-3.7-8.4-5.7s-5.4-4-8.1-6c-2.7-2.1-5.3-4.2-7.8-6.3
			c-2.6-2.2-5.1-4.4-7.6-6.6c-2.5-2.2-4.9-4.5-7.3-6.9c-2.4-2.3-4.7-4.7-7-7.2c-2.3-2.4-4.5-4.9-6.6-7.4c-2.2-2.5-4.3-5.1-6.3-7.7
			s-4-5.2-6-7.9c-1.9-2.7-3.8-5.4-5.6-8.1c-1.8-2.7-3.6-5.5-5.3-8.3c-1.7-2.8-3.3-5.6-4.9-8.5s-3.1-5.8-4.5-8.7
			c-1.4-2.9-2.8-5.9-4.1-8.8c-1.3-3-2.6-6-3.7-9c-1.2-3-2.3-6.1-3.3-9.1c-1-3.1-2-6.1-2.9-9.2l-0.1-0.5l0.1-0.5
			c5.6-19.4,13.8-37.8,24.6-55.3c7-11.4,15-22.1,24-32.3c9.3-10.6,19.5-20.4,30.7-29.3c5.7-4.6,11.6-8.9,17.8-13.1
			c6.1-4.1,12.4-7.9,18.9-11.5s13.2-6.9,20-9.9s13.8-5.8,20.8-8.2c7.1-2.4,14.3-4.6,21.5-6.5c7.3-1.9,14.6-3.4,22.1-4.6
			c7.4-1.2,14.9-2.2,22.4-2.8c7.5-0.6,15.1-0.9,22.6-0.9c10.2,0,20.3,0.6,30.5,1.7c10.1,1.1,20.1,2.8,30,5.1s19.6,5,29.2,8.4
			c9.5,3.3,18.8,7.2,27.9,11.6c17.5,8.5,33.8,18.8,48.7,30.8c10.9,8.8,20.9,18.3,30.1,28.7c9.2,10.3,17.3,21.3,24.5,32.9
			c5.1,8.4,9.7,17,13.8,25.9c4.3,9.6,7.9,19.3,10.8,29.3l0.1,0.5l-0.1,0.5c-0.9,3.1-1.9,6.2-2.9,9.3s-2.2,6.1-3.3,9.1
			c-1.2,3-2.4,6-3.7,9s-2.7,5.9-4.1,8.8c-1.4,2.9-2.9,5.8-4.5,8.7c-1.6,2.9-3.2,5.7-4.9,8.5s-3.4,5.6-5.3,8.3
			c-1.8,2.7-3.7,5.4-5.6,8.1c-1.9,2.7-3.9,5.3-6,7.9c-2,2.6-4.1,5.1-6.3,7.7c-2.2,2.5-4.4,5-6.6,7.4c-2.3,2.4-4.6,4.8-7,7.2
			c-2.4,2.3-4.8,4.6-7.3,6.9c-2.5,2.2-5,4.5-7.6,6.6s-5.2,4.3-7.8,6.3c-2.7,2.1-5.4,4.1-8.1,6s-5.5,3.9-8.4,5.7
			c-2.8,1.8-5.7,3.6-8.6,5.4c-2.9,1.7-5.9,3.4-8.8,5c-3,1.6-6,3.2-9,4.7c-3.1,1.5-6.1,3-9.2,4.4c-3.1,1.4-6.3,2.7-9.4,4
			c-3.2,1.3-6.4,2.5-9.6,3.6c-3.2,1.2-6.5,2.2-9.8,3.3c-3.3,1-6.6,2-9.9,2.9s-6.7,1.8-10,2.5c-3.4,0.8-6.7,1.5-10.1,2.2
			c-3.4,0.7-6.8,1.2-10.2,1.8c-3.4,0.5-6.8,1-10.3,1.4c-3.4,0.4-6.9,0.7-10.3,1c-3.4,0.3-6.9,0.5-10.3,0.6
			C401,24.1,397.5,24.2,394.1,24.2z"/>
	</g>
</g>
<g>
	<g>
		<defs>
			<rect id="SVGID_00000172424113782552830210000009785966248136346510_" x="1250.5" y="253" width="340.9" height="532.3"/>
		</defs>
		<clipPath id="SVGID_00000074419522247158158860000001165328872878917041_">
			<use xlink:href="#SVGID_00000172424113782552830210000009785966248136346510_"  style="overflow:visible;"/>
		</clipPath>
		<path style="clip-path:url(#SVGID_00000074419522247158158860000001165328872878917041_);fill:#8C8787;" d="M1250.5,540.9
			c0,0.3,0,0.6,0.1,1c0.1,0.3,0.1,0.6,0.3,0.9c0.1,0.3,0.3,0.6,0.5,0.9c0.2,0.3,0.4,0.5,0.6,0.8c0.2,0.2,0.5,0.5,0.8,0.6
			c0.3,0.2,0.6,0.4,0.9,0.5s0.6,0.2,1,0.3s0.7,0.1,1,0.1s0.7-0.1,1-0.2c0.3-0.1,0.7-0.2,1-0.3s0.6-0.3,0.9-0.5s0.5-0.4,0.8-0.6
			c0.2-0.2,0.4-0.5,0.6-0.8s0.3-0.6,0.5-0.9c0.1-0.3,0.2-0.6,0.3-0.9s0.1-0.6,0.1-1c0-0.3,0-0.6-0.1-1s-0.2-0.6-0.3-0.9
			c-0.1-0.3-0.3-0.6-0.5-0.9c-0.2-0.3-0.4-0.5-0.6-0.8c-0.2-0.2-0.5-0.4-0.8-0.6c-0.3-0.2-0.6-0.4-0.9-0.5s-0.6-0.3-1-0.3
			c-0.3-0.1-0.7-0.1-1-0.2c-0.3,0-0.7,0.1-1,0.1c-0.3,0.1-0.7,0.2-1,0.3s-0.6,0.3-0.9,0.5s-0.5,0.4-0.8,0.6
			c-0.2,0.2-0.4,0.5-0.6,0.8s-0.3,0.6-0.5,0.9c-0.1,0.3-0.2,0.6-0.3,0.9C1250.5,540.2,1250.5,540.6,1250.5,540.9z"/>
	</g>
	<g>
		<defs>
			<rect id="SVGID_00000103984747685698345040000001525292283504510625_" x="1250.5" y="253" width="340.9" height="532.3"/>
		</defs>
		<clipPath id="SVGID_00000015323743526563780580000017481236629242111874_">
			<use xlink:href="#SVGID_00000103984747685698345040000001525292283504510625_"  style="overflow:visible;"/>
		</clipPath>
	</g>
	<g>
		<defs>
			<rect id="SVGID_00000039099459759517007830000016846763153367013550_" x="1250.5" y="253" width="340.9" height="532.3"/>
		</defs>
		<clipPath id="SVGID_00000042709819722426479280000001378951520647625108_">
			<use xlink:href="#SVGID_00000039099459759517007830000016846763153367013550_"  style="overflow:visible;"/>
		</clipPath>
	</g>
	<g>
		<defs>
			<rect id="SVGID_00000090987471010582289910000008545704123547819402_" x="1250.5" y="253" width="340.9" height="532.3"/>
		</defs>
		<clipPath id="SVGID_00000175290857459889280040000017052049835598845609_">
			<use xlink:href="#SVGID_00000090987471010582289910000008545704123547819402_"  style="overflow:visible;"/>
		</clipPath>
	</g>
	<g>
		<defs>
			<rect id="SVGID_00000019645428225724683060000010302875401708574378_" x="1250.5" y="253" width="340.9" height="532.3"/>
		</defs>
		<clipPath id="SVGID_00000038402650428818181280000003357137032832134816_">
			<use xlink:href="#SVGID_00000019645428225724683060000010302875401708574378_"  style="overflow:visible;"/>
		</clipPath>
	</g>
	<g>
		<defs>
			<rect id="SVGID_00000124139230810919165620000001204833482077059460_" x="1250.5" y="253" width="340.9" height="532.3"/>
		</defs>
		<clipPath id="SVGID_00000116928748850476216300000017578009815311060401_">
			<use xlink:href="#SVGID_00000124139230810919165620000001204833482077059460_"  style="overflow:visible;"/>
		</clipPath>
	</g>
	<g>
		<defs>
			<rect id="SVGID_00000170991939582587647150000016274346028564984754_" x="1250.5" y="253" width="340.9" height="532.3"/>
		</defs>
		<clipPath id="SVGID_00000021109332023598652120000015631809973015036574_">
			<use xlink:href="#SVGID_00000170991939582587647150000016274346028564984754_"  style="overflow:visible;"/>
		</clipPath>
	</g>
	<g>
		<defs>
			<rect id="SVGID_00000137124937844019611450000014174904791519065225_" x="1250.5" y="253" width="340.9" height="532.3"/>
		</defs>
		<clipPath id="SVGID_00000036226873458055417300000017729754592502661545_">
			<use xlink:href="#SVGID_00000137124937844019611450000014174904791519065225_"  style="overflow:visible;"/>
		</clipPath>
	</g>
	<g>
		<defs>
			<rect id="SVGID_00000014613695050885590090000010640967780787969725_" x="1250.5" y="253" width="340.9" height="532.3"/>
		</defs>
		<clipPath id="SVGID_00000156583175240208700840000001467253374205688210_">
			<use xlink:href="#SVGID_00000014613695050885590090000010640967780787969725_"  style="overflow:visible;"/>
		</clipPath>
	</g>
	<g>
		<defs>
			<rect id="SVGID_00000130627816212776949070000002124600060135208351_" x="1250.5" y="253" width="340.9" height="532.3"/>
		</defs>
		<clipPath id="SVGID_00000107559890717900739630000000160849824135692983_">
			<use xlink:href="#SVGID_00000130627816212776949070000002124600060135208351_"  style="overflow:visible;"/>
		</clipPath>
	</g>
	<g>
		<defs>
			<rect id="SVGID_00000036220394054705454200000005481030658973581195_" x="1250.5" y="253" width="340.9" height="532.3"/>
		</defs>
		<clipPath id="SVGID_00000009560285457955817490000015598887563229617597_">
			<use xlink:href="#SVGID_00000036220394054705454200000005481030658973581195_"  style="overflow:visible;"/>
		</clipPath>
	</g>
	<g>
		<defs>
			<rect id="SVGID_00000098910170356380815840000001355021484303720085_" x="1250.5" y="253" width="340.9" height="532.3"/>
		</defs>
		<clipPath id="SVGID_00000164483668711001286170000013213895212224333476_">
			<use xlink:href="#SVGID_00000098910170356380815840000001355021484303720085_"  style="overflow:visible;"/>
		</clipPath>
	</g>
	<g>
		<defs>
			<rect id="SVGID_00000093153353978963904440000012749678200403572895_" x="1250.5" y="253" width="340.9" height="532.3"/>
		</defs>
		<clipPath id="SVGID_00000008867424796098459740000011555849909671795104_">
			<use xlink:href="#SVGID_00000093153353978963904440000012749678200403572895_"  style="overflow:visible;"/>
		</clipPath>
	</g>
	<g>
		<defs>
			<rect id="SVGID_00000111178690923434967060000007022697984367500946_" x="1250.5" y="253" width="340.9" height="532.3"/>
		</defs>
		<clipPath id="SVGID_00000173845143382101732080000010734734038682210233_">
			<use xlink:href="#SVGID_00000111178690923434967060000007022697984367500946_"  style="overflow:visible;"/>
		</clipPath>
	</g>
	<g>
		<defs>
			<rect id="SVGID_00000077299966033554241930000002323034884001971352_" x="1250.5" y="253" width="340.9" height="532.3"/>
		</defs>
		<clipPath id="SVGID_00000013909650841528695570000002477462830926705850_">
			<use xlink:href="#SVGID_00000077299966033554241930000002323034884001971352_"  style="overflow:visible;"/>
		</clipPath>
	</g>
	<g>
		<defs>
			<rect id="SVGID_00000142166389033499799490000003176785103258489997_" x="1250.5" y="253" width="340.9" height="532.3"/>
		</defs>
		<clipPath id="SVGID_00000096027272767758372250000008501451822058555011_">
			<use xlink:href="#SVGID_00000142166389033499799490000003176785103258489997_"  style="overflow:visible;"/>
		</clipPath>
	</g>
	<g>
		<defs>
			<rect id="SVGID_00000168808940781175425060000000460699039780638645_" x="1250.5" y="253" width="340.9" height="532.3"/>
		</defs>
		<clipPath id="SVGID_00000147905721847725335940000002809906813260095399_">
			<use xlink:href="#SVGID_00000168808940781175425060000000460699039780638645_"  style="overflow:visible;"/>
		</clipPath>
	</g>
	<g>
		<defs>
			<rect id="SVGID_00000009590188363505660750000001212326598943437991_" x="1250.5" y="253" width="340.9" height="532.3"/>
		</defs>
		<clipPath id="SVGID_00000072269765070615288770000001599205213838932411_">
			<use xlink:href="#SVGID_00000009590188363505660750000001212326598943437991_"  style="overflow:visible;"/>
		</clipPath>
	</g>
	<g>
		<defs>
			<rect id="SVGID_00000049203817459880074600000005103921409539693715_" x="1250.5" y="253" width="340.9" height="532.3"/>
		</defs>
		<clipPath id="SVGID_00000142144283809493997000000008873980243136996500_">
			<use xlink:href="#SVGID_00000049203817459880074600000005103921409539693715_"  style="overflow:visible;"/>
		</clipPath>
	</g>
	<g>
		<defs>
			<rect id="SVGID_00000140712743041563013120000007522504070855001529_" x="1250.5" y="253" width="340.9" height="532.3"/>
		</defs>
		<clipPath id="SVGID_00000044880323396642036050000002276241626714394516_">
			<use xlink:href="#SVGID_00000140712743041563013120000007522504070855001529_"  style="overflow:visible;"/>
		</clipPath>
	</g>
	<g>
		<defs>
			<rect id="SVGID_00000008827298479309798340000014080629510698064057_" x="1250.5" y="253" width="340.9" height="532.3"/>
		</defs>
		<clipPath id="SVGID_00000166650604606534166430000011386554855839806120_">
			<use xlink:href="#SVGID_00000008827298479309798340000014080629510698064057_"  style="overflow:visible;"/>
		</clipPath>
	</g>
	<g>
		<defs>
			<rect id="SVGID_00000036220225727596161520000009451706177783192994_" x="1250.5" y="253" width="340.9" height="532.3"/>
		</defs>
		<clipPath id="SVGID_00000151543941646329162500000006995795527342718648_">
			<use xlink:href="#SVGID_00000036220225727596161520000009451706177783192994_"  style="overflow:visible;"/>
		</clipPath>
	</g>
	<g>
		<defs>
			<rect id="SVGID_00000071530404338953966840000013857248103121393044_" x="1250.5" y="253" width="340.9" height="532.3"/>
		</defs>
		<clipPath id="SVGID_00000154386089487692221140000007068089520131937195_">
			<use xlink:href="#SVGID_00000071530404338953966840000013857248103121393044_"  style="overflow:visible;"/>
		</clipPath>
	</g>
	<g>
		<defs>
			<rect id="SVGID_00000155846844823000169970000008604070980950624414_" x="1250.5" y="253" width="340.9" height="532.3"/>
		</defs>
		<clipPath id="SVGID_00000046300351839948721070000010503212812946192059_">
			<use xlink:href="#SVGID_00000155846844823000169970000008604070980950624414_"  style="overflow:visible;"/>
		</clipPath>
	</g>
	<g>
		<defs>
			<rect id="SVGID_00000081614281867003772740000010876177372383722165_" x="1250.5" y="253" width="340.9" height="532.3"/>
		</defs>
		<clipPath id="SVGID_00000150791468085196698670000015145130169778997912_">
			<use xlink:href="#SVGID_00000081614281867003772740000010876177372383722165_"  style="overflow:visible;"/>
		</clipPath>
	</g>
	<g>
		<defs>
			<rect id="SVGID_00000095303882670905709980000005706375340005425581_" x="1250.5" y="253" width="340.9" height="532.3"/>
		</defs>
		<clipPath id="SVGID_00000000200473050975058200000014483343909665690501_">
			<use xlink:href="#SVGID_00000095303882670905709980000005706375340005425581_"  style="overflow:visible;"/>
		</clipPath>
	</g>
	<g>
		<defs>
			<rect id="SVGID_00000057120839983598762390000010979740053479461036_" x="1250.5" y="253" width="340.9" height="532.3"/>
		</defs>
		<clipPath id="SVGID_00000168795686362915629530000006373504297519227047_">
			<use xlink:href="#SVGID_00000057120839983598762390000010979740053479461036_"  style="overflow:visible;"/>
		</clipPath>
	</g>
	<g>
		<defs>
			<rect id="SVGID_00000126295752959628728640000016661865533932539540_" x="1250.5" y="253" width="340.9" height="532.3"/>
		</defs>
		<clipPath id="SVGID_00000025424670513068290990000002162680589038511001_">
			<use xlink:href="#SVGID_00000126295752959628728640000016661865533932539540_"  style="overflow:visible;"/>
		</clipPath>
	</g>
	<g>
		<defs>
			<rect id="SVGID_00000163038120514654768160000012995903842203344270_" x="1250.5" y="253" width="340.9" height="532.3"/>
		</defs>
		<clipPath id="SVGID_00000012431738610316742760000007724850594100235678_">
			<use xlink:href="#SVGID_00000163038120514654768160000012995903842203344270_"  style="overflow:visible;"/>
		</clipPath>
	</g>
	<g>
		<defs>
			<rect id="SVGID_00000135675765671894097400000002679969340800603561_" x="1250.5" y="253" width="340.9" height="532.3"/>
		</defs>
		<clipPath id="SVGID_00000123437466039724104010000006262735656221453463_">
			<use xlink:href="#SVGID_00000135675765671894097400000002679969340800603561_"  style="overflow:visible;"/>
		</clipPath>
	</g>
	<g>
		<defs>
			<rect id="SVGID_00000034767988946977744940000001123156463103351710_" x="1250.5" y="253" width="340.9" height="532.3"/>
		</defs>
		<clipPath id="SVGID_00000183950251009830694650000009885961027568130440_">
			<use xlink:href="#SVGID_00000034767988946977744940000001123156463103351710_"  style="overflow:visible;"/>
		</clipPath>
	</g>
	<g>
		<defs>
			<rect id="SVGID_00000146478024718695600880000009111365423804058811_" x="1250.5" y="253" width="340.9" height="532.3"/>
		</defs>
		<clipPath id="SVGID_00000101799646130659452820000004430131320643247036_">
			<use xlink:href="#SVGID_00000146478024718695600880000009111365423804058811_"  style="overflow:visible;"/>
		</clipPath>
		<path style="clip-path:url(#SVGID_00000101799646130659452820000004430131320643247036_);fill:#8C8787;" d="M1250.5,499.3
			c0,0.3,0,0.6,0.1,1c0.1,0.3,0.1,0.6,0.3,0.9c0.1,0.3,0.3,0.6,0.5,0.9s0.4,0.5,0.6,0.8c0.2,0.2,0.5,0.5,0.8,0.6
			c0.3,0.2,0.6,0.4,0.9,0.5s0.6,0.2,1,0.3c0.3,0.1,0.7,0.1,1,0.1s0.7-0.1,1-0.2s0.7-0.2,1-0.3c0.3-0.1,0.6-0.3,0.9-0.5
			s0.5-0.4,0.8-0.6c0.2-0.2,0.4-0.5,0.6-0.8s0.3-0.6,0.5-0.9c0.1-0.3,0.2-0.6,0.3-0.9c0.1-0.3,0.1-0.6,0.1-1c0-0.3,0-0.6-0.1-1
			c-0.1-0.3-0.2-0.6-0.3-0.9s-0.3-0.6-0.5-0.9s-0.4-0.5-0.6-0.8c-0.2-0.2-0.5-0.4-0.8-0.6s-0.6-0.4-0.9-0.5s-0.6-0.3-1-0.3
			c-0.3-0.1-0.7-0.1-1-0.2c-0.3,0-0.7,0.1-1,0.1c-0.3,0.1-0.7,0.2-1,0.3c-0.3,0.1-0.6,0.3-0.9,0.5s-0.5,0.4-0.8,0.6
			c-0.2,0.2-0.4,0.5-0.6,0.8s-0.3,0.6-0.5,0.9c-0.1,0.3-0.2,0.6-0.3,0.9C1250.5,498.6,1250.5,499,1250.5,499.3z"/>
	</g>
	<g>
		<defs>
			<rect id="SVGID_00000072990525557202354490000003349492381219862445_" x="1250.5" y="253" width="340.9" height="532.3"/>
		</defs>
		<clipPath id="SVGID_00000141437676974875176830000007149289596661802390_">
			<use xlink:href="#SVGID_00000072990525557202354490000003349492381219862445_"  style="overflow:visible;"/>
		</clipPath>
	</g>
	<g>
		<defs>
			<rect id="SVGID_00000027574974919007328610000005361942270751555736_" x="1250.5" y="253" width="340.9" height="532.3"/>
		</defs>
		<clipPath id="SVGID_00000028288059876707205800000017690792784106506915_">
			<use xlink:href="#SVGID_00000027574974919007328610000005361942270751555736_"  style="overflow:visible;"/>
		</clipPath>
	</g>
	<g>
		<defs>
			<rect id="SVGID_00000031182828549555075240000005249715282018897282_" x="1250.5" y="253" width="340.9" height="532.3"/>
		</defs>
		<clipPath id="SVGID_00000155132093526901443010000001932591915030067601_">
			<use xlink:href="#SVGID_00000031182828549555075240000005249715282018897282_"  style="overflow:visible;"/>
		</clipPath>
	</g>
	<g>
		<defs>
			<rect id="SVGID_00000044177015580243057290000004371010077103066800_" x="1250.5" y="253" width="340.9" height="532.3"/>
		</defs>
		<clipPath id="SVGID_00000114037293085284610920000005169846847151782784_">
			<use xlink:href="#SVGID_00000044177015580243057290000004371010077103066800_"  style="overflow:visible;"/>
		</clipPath>
	</g>
</g>
<g>
	<g>
		<defs>
			<rect id="SVGID_00000023987985332877440250000018284475424285028786_" x="-240.1" y="603.7" width="572.1" height="363.7"/>
		</defs>
		<clipPath id="SVGID_00000101808002304990231590000014311644470588775092_">
			<use xlink:href="#SVGID_00000023987985332877440250000018284475424285028786_"  style="overflow:visible;"/>
		</clipPath>
		<path style="clip-path:url(#SVGID_00000101808002304990231590000014311644470588775092_);fill:#8C8787;" d="M41.2,608.8
			c0,0.3,0,0.7,0,1s0.1,0.6,0.2,1c0.1,0.3,0.3,0.6,0.4,0.9c0.2,0.3,0.4,0.5,0.6,0.8c0.2,0.2,0.5,0.5,0.8,0.6
			c0.3,0.2,0.6,0.4,0.9,0.5c0.3,0.1,0.7,0.2,1,0.3s0.7,0.1,1,0.1c0.4,0,0.7,0,1-0.1s0.7-0.2,1-0.3s0.6-0.3,0.9-0.5
			c0.3-0.2,0.6-0.4,0.8-0.6c0.2-0.2,0.5-0.5,0.6-0.8c0.2-0.3,0.3-0.6,0.4-0.9c0.1-0.3,0.2-0.6,0.2-1c0-0.3,0.1-0.7,0-1
			c0-0.3,0-0.7,0-1s-0.1-0.6-0.2-1c-0.1-0.3-0.3-0.6-0.4-0.9c-0.2-0.3-0.4-0.5-0.6-0.8c-0.2-0.2-0.5-0.5-0.8-0.6
			c-0.3-0.2-0.6-0.4-0.9-0.5s-0.7-0.2-1-0.3s-0.7-0.1-1-0.1c-0.4,0-0.7,0-1,0.1s-0.7,0.2-1,0.3s-0.6,0.3-0.9,0.5
			c-0.3,0.2-0.6,0.4-0.8,0.6c-0.2,0.2-0.5,0.5-0.6,0.8c-0.2,0.3-0.3,0.6-0.4,0.9c-0.1,0.3-0.2,0.6-0.2,1S41.2,608.5,41.2,608.8z"/>
	</g>
	<g>
		<defs>
			<rect id="SVGID_00000143589002993344573260000003002673757714471554_" x="-240.1" y="603.7" width="572.1" height="363.7"/>
		</defs>
		<clipPath id="SVGID_00000014623092730753941280000012760062969793595838_">
			<use xlink:href="#SVGID_00000143589002993344573260000003002673757714471554_"  style="overflow:visible;"/>
		</clipPath>
	</g>
	<g>
		<defs>
			<rect id="SVGID_00000034769255049385921500000004167778665193150377_" x="-240.1" y="603.7" width="572.1" height="363.7"/>
		</defs>
		<clipPath id="SVGID_00000162343067317004095730000006571398310338346651_">
			<use xlink:href="#SVGID_00000034769255049385921500000004167778665193150377_"  style="overflow:visible;"/>
		</clipPath>
	</g>
	<g>
		<defs>
			<rect id="SVGID_00000031189507794069399310000004459295025462248112_" x="-240.1" y="603.7" width="572.1" height="363.7"/>
		</defs>
		<clipPath id="SVGID_00000116220558664795010130000014909561287931377566_">
			<use xlink:href="#SVGID_00000031189507794069399310000004459295025462248112_"  style="overflow:visible;"/>
		</clipPath>
		<path style="clip-path:url(#SVGID_00000116220558664795010130000014909561287931377566_);fill:#8C8787;" d="M41.2,657
			c0,0.3,0.1,0.6,0.2,0.9c0.1,0.3,0.2,0.6,0.4,0.9c0.1,0.3,0.3,0.5,0.5,0.8c0.2,0.2,0.4,0.5,0.7,0.7c0.2,0.2,0.5,0.4,0.8,0.5
			c0.3,0.2,0.6,0.3,0.9,0.4c0.3,0.1,0.6,0.2,1,0.2c0.3,0,0.7,0.1,1,0c0.3,0,0.7-0.1,1-0.1c0.3-0.1,0.6-0.2,0.9-0.3
			c0.3-0.1,0.6-0.3,0.8-0.5c0.3-0.2,0.5-0.4,0.7-0.6c0.2-0.2,0.4-0.5,0.6-0.7c0.2-0.3,0.3-0.5,0.4-0.8c0.1-0.3,0.2-0.6,0.3-0.9
			c0.1-0.3,0.1-0.6,0.1-0.9c0-0.3,0-0.6-0.1-0.9c-0.1-0.3-0.2-0.6-0.3-0.9c-0.1-0.3-0.3-0.5-0.5-0.8s-0.4-0.5-0.6-0.7
			c-0.2-0.2-0.5-0.4-0.8-0.6c-0.3-0.2-0.6-0.3-0.9-0.4c-0.3-0.1-0.6-0.2-0.9-0.3c-0.3-0.1-0.7-0.1-1-0.1s-0.7,0.1-1,0.1
			c-0.3,0.1-0.7,0.2-1,0.3s-0.6,0.3-0.9,0.5c-0.3,0.2-0.5,0.4-0.8,0.6c-0.2,0.2-0.4,0.5-0.6,0.8c-0.2,0.3-0.3,0.6-0.5,0.9
			c-0.1,0.3-0.2,0.6-0.3,0.9C41.2,656.4,41.2,656.7,41.2,657z"/>
	</g>
	<g>
		<defs>
			<rect id="SVGID_00000173159899310600153280000017036596121468665985_" x="-240.1" y="603.7" width="572.1" height="363.7"/>
		</defs>
		<clipPath id="SVGID_00000054225914019056688060000012705839249636464046_">
			<use xlink:href="#SVGID_00000173159899310600153280000017036596121468665985_"  style="overflow:visible;"/>
		</clipPath>
		<path style="clip-path:url(#SVGID_00000054225914019056688060000012705839249636464046_);fill:#8C8787;" d="M97.5,657
			c0,0.3,0.1,0.6,0.2,0.9c0.1,0.3,0.2,0.6,0.4,0.9c0.1,0.3,0.3,0.5,0.5,0.8c0.2,0.2,0.4,0.5,0.7,0.7c0.2,0.2,0.5,0.4,0.8,0.5
			s0.6,0.3,0.9,0.4s0.6,0.2,1,0.2c0.3,0,0.7,0.1,1,0c0.3,0,0.7-0.1,1-0.1c0.3-0.1,0.6-0.2,0.9-0.3s0.6-0.3,0.8-0.5
			c0.3-0.2,0.5-0.4,0.7-0.6c0.2-0.2,0.4-0.5,0.6-0.7c0.2-0.3,0.3-0.5,0.4-0.8s0.2-0.6,0.3-0.9c0.1-0.3,0.1-0.6,0.1-0.9
			c0-0.3,0-0.6-0.1-0.9c-0.1-0.3-0.2-0.6-0.3-0.9c-0.1-0.3-0.3-0.5-0.5-0.8s-0.4-0.5-0.6-0.7s-0.5-0.4-0.8-0.6
			c-0.3-0.2-0.6-0.3-0.9-0.4c-0.3-0.1-0.6-0.2-0.9-0.3s-0.7-0.1-1-0.1s-0.7,0.1-1,0.1c-0.3,0.1-0.7,0.2-1,0.3s-0.6,0.3-0.9,0.5
			s-0.5,0.4-0.8,0.6c-0.2,0.2-0.4,0.5-0.6,0.8s-0.3,0.6-0.5,0.9c-0.1,0.3-0.2,0.6-0.3,0.9C97.5,656.4,97.5,656.7,97.5,657z"/>
	</g>
	<g>
		<defs>
			<rect id="SVGID_00000117659007737877978390000000052152830672271527_" x="-240.1" y="603.7" width="572.1" height="363.7"/>
		</defs>
		<clipPath id="SVGID_00000129904540615034672080000004841192140617680549_">
			<use xlink:href="#SVGID_00000117659007737877978390000000052152830672271527_"  style="overflow:visible;"/>
		</clipPath>
		<path style="clip-path:url(#SVGID_00000129904540615034672080000004841192140617680549_);fill:#8C8787;" d="M153.8,657
			c0,0.3,0.1,0.6,0.2,0.9c0.1,0.3,0.2,0.6,0.4,0.9c0.1,0.3,0.3,0.5,0.5,0.8c0.2,0.2,0.4,0.5,0.7,0.7c0.2,0.2,0.5,0.4,0.8,0.5
			s0.6,0.3,0.9,0.4c0.3,0.1,0.6,0.2,1,0.2c0.3,0,0.7,0.1,1,0c0.3,0,0.7-0.1,1-0.1c0.3-0.1,0.6-0.2,0.9-0.3s0.6-0.3,0.8-0.5
			c0.3-0.2,0.5-0.4,0.7-0.6c0.2-0.2,0.4-0.5,0.6-0.7c0.2-0.3,0.3-0.5,0.4-0.8s0.2-0.6,0.3-0.9c0.1-0.3,0.1-0.6,0.1-0.9
			c0-0.3,0-0.6-0.1-0.9c-0.1-0.3-0.2-0.6-0.3-0.9c-0.1-0.3-0.3-0.5-0.5-0.8s-0.4-0.5-0.6-0.7s-0.5-0.4-0.8-0.6
			c-0.3-0.2-0.6-0.3-0.9-0.4c-0.3-0.1-0.6-0.2-0.9-0.3s-0.7-0.1-1-0.1s-0.7,0.1-1,0.1c-0.3,0.1-0.7,0.2-1,0.3s-0.6,0.3-0.9,0.5
			s-0.5,0.4-0.8,0.6c-0.2,0.2-0.4,0.5-0.6,0.8s-0.3,0.6-0.5,0.9c-0.1,0.3-0.2,0.6-0.3,0.9S153.8,656.7,153.8,657z"/>
	</g>
	<g>
		<defs>
			<rect id="SVGID_00000122683195869713148730000003157542309719750784_" x="-240.1" y="603.7" width="572.1" height="363.7"/>
		</defs>
		<clipPath id="SVGID_00000150789295903980706990000005144823777230598272_">
			<use xlink:href="#SVGID_00000122683195869713148730000003157542309719750784_"  style="overflow:visible;"/>
		</clipPath>
	</g>
	<g>
		<defs>
			<rect id="SVGID_00000079483769692158269990000005593945251549728646_" x="-240.1" y="603.7" width="572.1" height="363.7"/>
		</defs>
		<clipPath id="SVGID_00000060738029713889886090000006782773055361467548_">
			<use xlink:href="#SVGID_00000079483769692158269990000005593945251549728646_"  style="overflow:visible;"/>
		</clipPath>
	</g>
	<g>
		<defs>
			<rect id="SVGID_00000057143589859576340440000002921035725597725098_" x="-240.1" y="603.7" width="572.1" height="363.7"/>
		</defs>
		<clipPath id="SVGID_00000049183305768418306680000011900458416424724905_">
			<use xlink:href="#SVGID_00000057143589859576340440000002921035725597725098_"  style="overflow:visible;"/>
		</clipPath>
	</g>
	<g>
		<defs>
			<rect id="SVGID_00000046307372993021706890000010445391199109443252_" x="-240.1" y="603.7" width="572.1" height="363.7"/>
		</defs>
		<clipPath id="SVGID_00000173866794710826713780000000810636788739317937_">
			<use xlink:href="#SVGID_00000046307372993021706890000010445391199109443252_"  style="overflow:visible;"/>
		</clipPath>
		<path style="clip-path:url(#SVGID_00000173866794710826713780000000810636788739317937_);fill:#8C8787;" d="M41.2,705.3
			c0,0.3,0.1,0.6,0.2,0.9c0.1,0.3,0.2,0.6,0.4,0.9c0.1,0.3,0.3,0.5,0.5,0.8c0.2,0.2,0.4,0.5,0.7,0.7c0.2,0.2,0.5,0.4,0.8,0.5
			c0.3,0.2,0.6,0.3,0.9,0.4c0.3,0.1,0.6,0.2,1,0.2c0.3,0,0.7,0.1,1,0c0.3,0,0.7-0.1,1-0.1c0.3-0.1,0.6-0.2,0.9-0.3s0.6-0.3,0.8-0.5
			c0.3-0.2,0.5-0.4,0.7-0.6c0.2-0.2,0.4-0.5,0.6-0.7c0.2-0.3,0.3-0.5,0.4-0.8s0.2-0.6,0.3-0.9c0.1-0.3,0.1-0.6,0.1-0.9
			c0-0.3,0-0.6-0.1-0.9c-0.1-0.3-0.2-0.6-0.3-0.9c-0.1-0.3-0.3-0.5-0.5-0.8s-0.4-0.5-0.6-0.7c-0.2-0.2-0.5-0.4-0.8-0.6
			c-0.3-0.2-0.6-0.3-0.9-0.4c-0.3-0.1-0.6-0.2-0.9-0.3c-0.3-0.1-0.7-0.1-1-0.1s-0.7,0.1-1,0.1c-0.3,0.1-0.7,0.2-1,0.3
			s-0.6,0.3-0.9,0.5c-0.3,0.2-0.5,0.4-0.8,0.6c-0.2,0.2-0.4,0.5-0.6,0.8c-0.2,0.3-0.3,0.6-0.5,0.9c-0.1,0.3-0.2,0.6-0.3,0.9
			C41.2,704.6,41.2,704.9,41.2,705.3z"/>
	</g>
	<g>
		<defs>
			<rect id="SVGID_00000039131782434333598780000011136239974670528431_" x="-240.1" y="603.7" width="572.1" height="363.7"/>
		</defs>
		<clipPath id="SVGID_00000137097869611683575430000006243605621779231889_">
			<use xlink:href="#SVGID_00000039131782434333598780000011136239974670528431_"  style="overflow:visible;"/>
		</clipPath>
		<path style="clip-path:url(#SVGID_00000137097869611683575430000006243605621779231889_);fill:#8C8787;" d="M97.5,705.3
			c0,0.3,0.1,0.6,0.2,0.9c0.1,0.3,0.2,0.6,0.4,0.9c0.1,0.3,0.3,0.5,0.5,0.8c0.2,0.2,0.4,0.5,0.7,0.7s0.5,0.4,0.8,0.5
			c0.3,0.2,0.6,0.3,0.9,0.4c0.3,0.1,0.6,0.2,1,0.2c0.3,0,0.7,0.1,1,0c0.3,0,0.7-0.1,1-0.1c0.3-0.1,0.6-0.2,0.9-0.3s0.6-0.3,0.8-0.5
			c0.3-0.2,0.5-0.4,0.7-0.6c0.2-0.2,0.4-0.5,0.6-0.7c0.2-0.3,0.3-0.5,0.4-0.8s0.2-0.6,0.3-0.9c0.1-0.3,0.1-0.6,0.1-0.9
			c0-0.3,0-0.6-0.1-0.9c-0.1-0.3-0.2-0.6-0.3-0.9c-0.1-0.3-0.3-0.5-0.5-0.8s-0.4-0.5-0.6-0.7s-0.5-0.4-0.8-0.6
			c-0.3-0.2-0.6-0.3-0.9-0.4c-0.3-0.1-0.6-0.2-0.9-0.3s-0.7-0.1-1-0.1s-0.7,0.1-1,0.1c-0.3,0.1-0.7,0.2-1,0.3s-0.6,0.3-0.9,0.5
			s-0.5,0.4-0.8,0.6c-0.2,0.2-0.4,0.5-0.6,0.8s-0.3,0.6-0.5,0.9c-0.1,0.3-0.2,0.6-0.3,0.9C97.5,704.6,97.5,704.9,97.5,705.3z"/>
	</g>
	<g>
		<defs>
			<rect id="SVGID_00000066478531070570941740000011740493377537724841_" x="-240.1" y="603.7" width="572.1" height="363.7"/>
		</defs>
		<clipPath id="SVGID_00000108999306320320127450000014480374275462719929_">
			<use xlink:href="#SVGID_00000066478531070570941740000011740493377537724841_"  style="overflow:visible;"/>
		</clipPath>
		<path style="clip-path:url(#SVGID_00000108999306320320127450000014480374275462719929_);fill:#8C8787;" d="M153.8,705.3
			c0,0.3,0.1,0.6,0.2,0.9c0.1,0.3,0.2,0.6,0.4,0.9c0.1,0.3,0.3,0.5,0.5,0.8c0.2,0.2,0.4,0.5,0.7,0.7c0.2,0.2,0.5,0.4,0.8,0.5
			c0.3,0.2,0.6,0.3,0.9,0.4c0.3,0.1,0.6,0.2,1,0.2c0.3,0,0.7,0.1,1,0c0.3,0,0.7-0.1,1-0.1c0.3-0.1,0.6-0.2,0.9-0.3s0.6-0.3,0.8-0.5
			s0.5-0.4,0.7-0.6c0.2-0.2,0.4-0.5,0.6-0.7c0.2-0.3,0.3-0.5,0.4-0.8s0.2-0.6,0.3-0.9c0.1-0.3,0.1-0.6,0.1-0.9c0-0.3,0-0.6-0.1-0.9
			c-0.1-0.3-0.2-0.6-0.3-0.9c-0.1-0.3-0.3-0.5-0.5-0.8s-0.4-0.5-0.6-0.7s-0.5-0.4-0.8-0.6s-0.6-0.3-0.9-0.4
			c-0.3-0.1-0.6-0.2-0.9-0.3s-0.7-0.1-1-0.1s-0.7,0.1-1,0.1c-0.3,0.1-0.7,0.2-1,0.3s-0.6,0.3-0.9,0.5s-0.5,0.4-0.8,0.6
			c-0.2,0.2-0.4,0.5-0.6,0.8s-0.3,0.6-0.5,0.9c-0.1,0.3-0.2,0.6-0.3,0.9C153.8,704.6,153.8,704.9,153.8,705.3z"/>
	</g>
	<g>
		<defs>
			<rect id="SVGID_00000120517739395596068300000006948571947282309538_" x="-240.1" y="603.7" width="572.1" height="363.7"/>
		</defs>
		<clipPath id="SVGID_00000115516363160464410060000002204118411152634539_">
			<use xlink:href="#SVGID_00000120517739395596068300000006948571947282309538_"  style="overflow:visible;"/>
		</clipPath>
		<path style="clip-path:url(#SVGID_00000115516363160464410060000002204118411152634539_);fill:#8C8787;" d="M210,705.3
			c0,0.3,0.1,0.6,0.2,0.9c0.1,0.3,0.2,0.6,0.4,0.9c0.1,0.3,0.3,0.5,0.5,0.8c0.2,0.2,0.4,0.5,0.7,0.7c0.2,0.2,0.5,0.4,0.8,0.5
			c0.3,0.2,0.6,0.3,0.9,0.4c0.3,0.1,0.6,0.2,1,0.2c0.3,0,0.7,0.1,1,0c0.3,0,0.7-0.1,1-0.1c0.3-0.1,0.6-0.2,0.9-0.3s0.6-0.3,0.8-0.5
			s0.5-0.4,0.7-0.6c0.2-0.2,0.4-0.5,0.6-0.7c0.2-0.3,0.3-0.5,0.4-0.8s0.2-0.6,0.3-0.9c0.1-0.3,0.1-0.6,0.1-0.9c0-0.3,0-0.6-0.1-0.9
			c-0.1-0.3-0.2-0.6-0.3-0.9c-0.1-0.3-0.3-0.5-0.5-0.8s-0.4-0.5-0.6-0.7s-0.5-0.4-0.8-0.6c-0.3-0.2-0.6-0.3-0.9-0.4
			c-0.3-0.1-0.6-0.2-0.9-0.3s-0.7-0.1-1-0.1s-0.7,0.1-1,0.1c-0.3,0.1-0.7,0.2-1,0.3s-0.6,0.3-0.9,0.5s-0.5,0.4-0.8,0.6
			c-0.2,0.2-0.4,0.5-0.6,0.8s-0.3,0.6-0.5,0.9c-0.1,0.3-0.2,0.6-0.3,0.9C210,704.6,210,704.9,210,705.3z"/>
	</g>
	<g>
		<defs>
			<rect id="SVGID_00000091715884902592238490000013095281025030651835_" x="-240.1" y="603.7" width="572.1" height="363.7"/>
		</defs>
		<clipPath id="SVGID_00000112608787487344490120000007937578790656893330_">
			<use xlink:href="#SVGID_00000091715884902592238490000013095281025030651835_"  style="overflow:visible;"/>
		</clipPath>
	</g>
	<g>
		<defs>
			<rect id="SVGID_00000164483819308556291770000013524059110028460935_" x="-240.1" y="603.7" width="572.1" height="363.7"/>
		</defs>
		<clipPath id="SVGID_00000158005070375355806600000009211078389734731189_">
			<use xlink:href="#SVGID_00000164483819308556291770000013524059110028460935_"  style="overflow:visible;"/>
		</clipPath>
	</g>
	<g>
		<defs>
			<rect id="SVGID_00000153702134297361789990000016276069772786088377_" x="-240.1" y="603.7" width="572.1" height="363.7"/>
		</defs>
		<clipPath id="SVGID_00000052067945906030364080000002661113600405060481_">
			<use xlink:href="#SVGID_00000153702134297361789990000016276069772786088377_"  style="overflow:visible;"/>
		</clipPath>
	</g>
	<g>
		<defs>
			<rect id="SVGID_00000173879227514569298150000010316604838428607416_" x="-240.1" y="603.7" width="572.1" height="363.7"/>
		</defs>
		<clipPath id="SVGID_00000182508304048252310300000015512978793822833047_">
			<use xlink:href="#SVGID_00000173879227514569298150000010316604838428607416_"  style="overflow:visible;"/>
		</clipPath>
	</g>
	<g>
		<defs>
			<rect id="SVGID_00000178178941479181292810000004963685170576519056_" x="-240.1" y="603.7" width="572.1" height="363.7"/>
		</defs>
		<clipPath id="SVGID_00000108996582543919199540000016494937605905547924_">
			<use xlink:href="#SVGID_00000178178941479181292810000004963685170576519056_"  style="overflow:visible;"/>
		</clipPath>
		<path style="clip-path:url(#SVGID_00000108996582543919199540000016494937605905547924_);fill:#8C8787;" d="M41.2,753.5
			c0-2.8,2.3-5.1,5.1-5.1s5.1,2.3,5.1,5.1s-2.3,5.1-5.1,5.1S41.2,756.3,41.2,753.5z"/>
	</g>
	<g>
		<defs>
			<rect id="SVGID_00000103262722511000198270000010896005411525812905_" x="-240.1" y="603.7" width="572.1" height="363.7"/>
		</defs>
		<clipPath id="SVGID_00000170242026160349022240000008933098339613171122_">
			<use xlink:href="#SVGID_00000103262722511000198270000010896005411525812905_"  style="overflow:visible;"/>
		</clipPath>
		<path style="clip-path:url(#SVGID_00000170242026160349022240000008933098339613171122_);fill:#8C8787;" d="M97.5,753.5
			c0-2.8,2.3-5.1,5.1-5.1c2.8,0,5.1,2.3,5.1,5.1s-2.3,5.1-5.1,5.1S97.5,756.3,97.5,753.5z"/>
	</g>
	<g>
		<defs>
			<rect id="SVGID_00000165195637906546469170000012764256878039586970_" x="-240.1" y="603.7" width="572.1" height="363.7"/>
		</defs>
		<clipPath id="SVGID_00000095336413387587925920000014861063808500734102_">
			<use xlink:href="#SVGID_00000165195637906546469170000012764256878039586970_"  style="overflow:visible;"/>
		</clipPath>
		<path style="clip-path:url(#SVGID_00000095336413387587925920000014861063808500734102_);fill:#8C8787;" d="M153.8,753.5
			c0-2.8,2.3-5.1,5.1-5.1s5.1,2.3,5.1,5.1s-2.3,5.1-5.1,5.1S153.8,756.3,153.8,753.5z"/>
	</g>
	<g>
		<defs>
			<rect id="SVGID_00000097494510465002538890000000389538587481183164_" x="-240.1" y="603.7" width="572.1" height="363.7"/>
		</defs>
		<clipPath id="SVGID_00000156565099489244015980000010888419930588742562_">
			<use xlink:href="#SVGID_00000097494510465002538890000000389538587481183164_"  style="overflow:visible;"/>
		</clipPath>
		<path style="clip-path:url(#SVGID_00000156565099489244015980000010888419930588742562_);fill:#8C8787;" d="M210,753.5
			c0-2.8,2.3-5.1,5.1-5.1c2.8,0,5.1,2.3,5.1,5.1s-2.3,5.1-5.1,5.1S210,756.3,210,753.5z"/>
	</g>
	<g>
		<defs>
			<rect id="SVGID_00000013912020256753824900000016707000920781168820_" x="-240.1" y="603.7" width="572.1" height="363.7"/>
		</defs>
		<clipPath id="SVGID_00000132046974941836204420000001913090232359436937_">
			<use xlink:href="#SVGID_00000013912020256753824900000016707000920781168820_"  style="overflow:visible;"/>
		</clipPath>
		<path style="clip-path:url(#SVGID_00000132046974941836204420000001913090232359436937_);fill:#8C8787;" d="M266.3,753.5
			c0-2.8,2.3-5.1,5.1-5.1s5.1,2.3,5.1,5.1s-2.3,5.1-5.1,5.1S266.3,756.3,266.3,753.5z"/>
	</g>
	<g>
		<defs>
			<rect id="SVGID_00000163778871051879624150000017093384225098328480_" x="-240.1" y="603.7" width="572.1" height="363.7"/>
		</defs>
		<clipPath id="SVGID_00000029763179211377661690000003435236826836970374_">
			<use xlink:href="#SVGID_00000163778871051879624150000017093384225098328480_"  style="overflow:visible;"/>
		</clipPath>
	</g>
	<g>
		<defs>
			<rect id="SVGID_00000156588397292442622600000008110677883480618624_" x="-240.1" y="603.7" width="572.1" height="363.7"/>
		</defs>
		<clipPath id="SVGID_00000085226544316373986570000002434913823152555947_">
			<use xlink:href="#SVGID_00000156588397292442622600000008110677883480618624_"  style="overflow:visible;"/>
		</clipPath>
	</g>
	<g>
		<defs>
			<rect id="SVGID_00000103953822185804658480000012103937022759079318_" x="-240.1" y="603.7" width="572.1" height="363.7"/>
		</defs>
		<clipPath id="SVGID_00000020398805643581167820000015642471346976402080_">
			<use xlink:href="#SVGID_00000103953822185804658480000012103937022759079318_"  style="overflow:visible;"/>
		</clipPath>
	</g>
	<g>
		<defs>
			<rect id="SVGID_00000124160126964341316940000001596170403066558138_" x="-240.1" y="603.7" width="572.1" height="363.7"/>
		</defs>
		<clipPath id="SVGID_00000021803513164903184590000016330510903103841933_">
			<use xlink:href="#SVGID_00000124160126964341316940000001596170403066558138_"  style="overflow:visible;"/>
		</clipPath>
	</g>
	<g>
		<defs>
			<rect id="SVGID_00000106844170721635277450000007369863174598439840_" x="-240.1" y="603.7" width="572.1" height="363.7"/>
		</defs>
		<clipPath id="SVGID_00000183235250757990666140000017792318880922805385_">
			<use xlink:href="#SVGID_00000106844170721635277450000007369863174598439840_"  style="overflow:visible;"/>
		</clipPath>
		
			<ellipse style="clip-path:url(#SVGID_00000183235250757990666140000017792318880922805385_);fill:#8C8787;" cx="46.3" cy="801.7" rx="5.1" ry="5.1"/>
	</g>
	<g>
		<defs>
			<rect id="SVGID_00000034048972652277466110000018097544686260247214_" x="-240.1" y="603.7" width="572.1" height="363.7"/>
		</defs>
		<clipPath id="SVGID_00000076590593433596541820000007552598043595469478_">
			<use xlink:href="#SVGID_00000034048972652277466110000018097544686260247214_"  style="overflow:visible;"/>
		</clipPath>
		
			<ellipse style="clip-path:url(#SVGID_00000076590593433596541820000007552598043595469478_);fill:#8C8787;" cx="102.6" cy="801.7" rx="5.1" ry="5.1"/>
	</g>
	<g>
		<defs>
			<rect id="SVGID_00000062157695782488920210000004839349724825555844_" x="-240.1" y="603.7" width="572.1" height="363.7"/>
		</defs>
		<clipPath id="SVGID_00000075124567421665123220000004720192252178137011_">
			<use xlink:href="#SVGID_00000062157695782488920210000004839349724825555844_"  style="overflow:visible;"/>
		</clipPath>
		<path style="clip-path:url(#SVGID_00000075124567421665123220000004720192252178137011_);fill:#8C8787;" d="M153.8,801.7
			c0-2.8,2.3-5.1,5.1-5.1s5.1,2.3,5.1,5.1s-2.3,5.1-5.1,5.1S153.8,804.6,153.8,801.7z"/>
	</g>
	<g>
		<defs>
			<rect id="SVGID_00000096048577319437168210000008120901691368871048_" x="-240.1" y="603.7" width="572.1" height="363.7"/>
		</defs>
		<clipPath id="SVGID_00000125594087473134847470000005216250376035435693_">
			<use xlink:href="#SVGID_00000096048577319437168210000008120901691368871048_"  style="overflow:visible;"/>
		</clipPath>
		<path style="clip-path:url(#SVGID_00000125594087473134847470000005216250376035435693_);fill:#8C8787;" d="M210,801.7
			c0-2.8,2.3-5.1,5.1-5.1c2.8,0,5.1,2.3,5.1,5.1s-2.3,5.1-5.1,5.1C212.3,806.9,210,804.6,210,801.7z"/>
	</g>
	<g>
		<defs>
			<rect id="SVGID_00000049908864677480656560000005972435713423657609_" x="-240.1" y="603.7" width="572.1" height="363.7"/>
		</defs>
		<clipPath id="SVGID_00000167373340355554712520000015167742965079305099_">
			<use xlink:href="#SVGID_00000049908864677480656560000005972435713423657609_"  style="overflow:visible;"/>
		</clipPath>
		
			<ellipse style="clip-path:url(#SVGID_00000167373340355554712520000015167742965079305099_);fill:#8C8787;" cx="271.4" cy="801.7" rx="5.1" ry="5.1"/>
	</g>
</g>
<rect x="248.2" y="58.6" class="st88" width="1144.9" height="558.1"/>
<g>
	<path class="st89" d="M137.2,365.2c2.8-0.1,5.6-0.5,8.4-1.1c4.6-1,8.5-3.3,11.4-7c2.5-3.2,3.9-6.7,5-10.6
		c1.7-6.7,1.8-13.7,1.4-20.5c0-0.2-0.1-0.3-0.1-0.5c-12.3,0-24.6,0-36.9,0c0-0.8,0-1.6,0-2.4c12.3,0,24.4,0,36.5,0
		c0-0.3,0-0.5,0-0.7c-0.6-2.6-1.1-5.3-2-7.9c-2-5.5-5.5-9.6-11.1-11.6c-4.4-1.6-9.1-2-13.9-1.6c-2.2,0.2-4.6,0.6-6.7,1.3
		c-5.5,1.8-9.2,5.6-12,10.6c-2,3.7-3.3,7.5-4.3,11.4c-1.7,6.4-3.1,12.7-3.8,19.3c-0.5,4.6-0.8,9.2-1.1,13.8c-0.2,2.6,0,5.2,0,7.9
		L137.2,365.2z"/>
	<path class="st89" d="M159.5,283.4c-19.4,0-37.2,6.5-51.5,17.3c0,0,0,0,0.1,0c0,11.2,0,22.5,0,33.6h0.1c0.3-1.9,0.6-3.8,1-5.6
		c1.5-7.3,3.9-14.2,8.2-20.3c3.7-5.3,8.7-8.5,15.1-9.4c3.8-0.6,7.8-0.4,11.6-0.1c4.8,0.3,9.3,1.3,13.8,3.1c6.1,2.3,11.3,6,14.9,11.5
		c1.8,2.6,3.1,5.6,3.7,8.7c0.2,0.7,0.5,0.9,1.3,0.9c15.4,0,30.5,0,45.9,0c0.3,0,0.7,0,1,0c0,0.8,0,1.6,0,2.4c-14.1,0-28.2,0-42.3,0
		c0,33.4,0,66.7,0,100.1c-4.7,0-9.2,0-13.9,0c0-22.4,0-44.8,0-67.2c-0.2,0.1-0.3,0.1-0.3,0.2c-4.4,3.9-9.6,6.1-15.4,7.4
		c-4.4,1.1-9,1.7-13.6,1.7c-10.2,0.2-20.2,0.2-30.3,0.2c-0.3,0-0.6,0-1,0c0,11.9,0,23.6,0,35.4c-4.7,0-9.3,0-14,0
		c0-29.8,0-59.5,0-89.4C81.4,328.6,74,347.7,74,368.5c0,47,38.1,85.1,85.1,85.1s85.1-38.1,85.1-85.1S206.5,283.4,159.5,283.4z"/>
	<path class="st90" d="M108.3,403.2c0-11.9,0-23.6,0-35.4c0.4,0,0.7,0,1,0c10.2-0.1,20.2,0,30.3-0.2c4.6-0.1,9.1-0.7,13.6-1.7
		c5.6-1.4,10.9-3.5,15.4-7.4c0.1-0.1,0.2-0.1,0.3-0.2c0,22.5,0,44.9,0,67.2c4.7,0,9.2,0,13.9,0c0-33.4,0-66.7,0-100.1
		c14.1,0,28.2,0,42.3,0c0-0.8,0-1.6,0-2.4c-0.3,0-0.7,0-1,0c-15.4,0-30.5,0-45.9,0c-0.7,0-1.1-0.2-1.3-0.9c-0.7-3.2-2-6-3.7-8.7
		c-3.7-5.6-8.9-9.2-14.9-11.5c-4.4-1.7-9.1-2.6-13.8-3.1c-3.8-0.3-7.8-0.4-11.6,0.1c-6.5,0.9-11.4,4-15.1,9.4
		c-4.2,6.1-6.7,13.1-8.2,20.3c-0.4,1.9-0.7,3.8-1,5.6h-0.1c0-11.2,0-22.4,0-33.6c0,0,0,0-0.1,0c-5.1,3.8-9.6,8.3-13.8,13.1
		c0,29.9,0,59.6,0,89.4C98.9,403.2,103.5,403.2,108.3,403.2z M108.2,357.4c0.3-4.6,0.6-9.2,1.1-13.8c0.7-6.6,2-12.9,3.8-19.3
		c1.1-3.9,2.3-7.9,4.3-11.4c2.6-5,6.5-8.8,12-10.6c2.2-0.7,4.4-1.1,6.7-1.3c4.8-0.3,9.4,0,13.9,1.6c5.6,2,9.2,6.1,11.1,11.6
		c0.9,2.5,1.4,5.2,2,7.9c0.1,0.2,0,0.4,0,0.7c-12.2,0-24.4,0-36.5,0c0,0.8,0,1.6,0,2.4c12.3,0,24.5,0,36.9,0
		c0.1,0.3,0.1,0.4,0.1,0.5c0.4,6.9,0.3,13.8-1.4,20.5c-0.9,3.8-2.4,7.4-5,10.6c-3,3.7-6.9,5.9-11.4,7c-2.6,0.6-5.6,1.1-8.4,1.1
		l-29,0.1C108.2,362.5,108,359.9,108.2,357.4z"/>
</g>
<text transform="matrix(1 0 0 1 323.5951 359.1595)" class="st91 st92 st93">Paola Torres </text>
<text transform="matrix(1 0 0 1 322.5507 399.9579)" class="st91 st94 st95">Graphic Designer </text>
<text transform="matrix(1 0 0 1 722.83 378.1253)" class="st91 st96 st97">WELCOME TO MY PORTFOLIO! </text>
<line class="st98" x1="654.7" y1="261.6" x2="654.7" y2="483.4"/>
</svg>
