<?xml version="1.0" encoding="utf-8"?>
<!-- Generator: Adobe Illustrator 26.5.0, SVG Export Plug-In . SVG Version: 6.00 Build 0)  -->
<svg version="1.1" id="Layer_1" xmlns="http://www.w3.org/2000/svg" xmlns:xlink="http://www.w3.org/1999/xlink" x="0px" y="0px"
	 viewBox="0 0 1316 400" style="enable-background:new 0 0 1316 400;" xml:space="preserve">
<style type="text/css">
	.st0{fill:#FFFFFF;stroke:#231F20;stroke-width:1.0304;stroke-miterlimit:10;}
	.st1{fill:#231F20;}
	.st2{fill:#FFFFFF;}
	.st3{font-family:'Futura-Medium';}
	.st4{font-size:38.7388px;}
	.st5{font-family:'Montserrat-Light';}
	.st6{font-size:26px;}
	.st7{font-family:'Futura-CondensedExtraBold';}
	.st8{font-size:32px;}
	.st9{stroke:#000000;stroke-width:5;stroke-miterlimit:10;}
</style>
<rect x="-22.4" y="-12.3" class="st0" width="1343.6" height="426.9"/>
<g>
	<path class="st1" d="M146.2,196c3.3-0.1,6.7-0.6,9.9-1.3c5.4-1.2,10-3.9,13.6-8.3c3-3.7,4.7-7.9,5.9-12.5c2-8,2.1-16.2,1.6-24.3
		c0-0.2-0.1-0.3-0.1-0.6c-14.5,0-29.1,0-43.6,0c0-1,0-1.9,0-2.9c14.5,0,28.9,0,43.3,0c0-0.4,0-0.6,0-0.9c-0.7-3.1-1.3-6.3-2.3-9.3
		c-2.3-6.5-6.5-11.4-13.2-13.8c-5.3-1.9-10.8-2.3-16.4-1.9c-2.7,0.2-5.4,0.7-8,1.5c-6.5,2.1-10.9,6.7-14.1,12.5
		c-2.3,4.3-3.9,8.9-5.1,13.6c-2,7.5-3.6,15.1-4.5,22.8c-0.6,5.4-1,10.9-1.3,16.3c-0.2,3.1,0,6.2,0,9.3L146.2,196z"/>
	<path class="st1" d="M172.7,99.2c-22.9,0-44,7.6-60.9,20.5c0,0,0,0,0.1,0c0,13.3,0,26.6,0,39.8c0,0,0.1,0,0.1,0
		c0.4-2.2,0.7-4.5,1.2-6.7c1.8-8.6,4.7-16.8,9.7-24.1c4.3-6.3,10.3-10,17.9-11.1c4.6-0.7,9.2-0.5,13.8-0.1c5.6,0.4,11,1.5,16.3,3.6
		c7.3,2.8,13.4,7.1,17.7,13.7c2.1,3.2,3.6,6.6,4.4,10.3c0.2,0.9,0.6,1.1,1.5,1.1c18.1,0,36.1,0,54.2,0c0.4,0,0.8,0,1.2,0
		c0,1,0,1.9,0,2.9c-16.7,0-33.3,0-49.9,0c0,39.5,0,78.9,0,118.4c-5.5,0-10.9,0-16.4,0c0-26.5,0-53,0-79.6c-0.2,0.1-0.3,0.1-0.4,0.2
		c-5.2,4.7-11.4,7.2-18.1,8.8c-5.3,1.3-10.6,2-16,2c-12,0.2-24,0.2-35.9,0.2c-0.4,0-0.7,0-1.2,0c0,14,0,27.9,0,41.9
		c-5.5,0-11,0-16.5,0c0-35.2,0-70.4,0-105.7c-14.7,17.5-23.5,40.1-23.5,64.7c0,55.7,45.1,100.8,100.8,100.8S273.5,255.7,273.5,200
		S228.3,99.2,172.7,99.2z"/>
	<path class="st2" d="M111.9,241c0-14,0-27.9,0-41.9c0.5,0,0.8,0,1.2,0c12-0.1,24,0,35.9-0.2c5.4-0.1,10.7-0.8,16-2
		c6.7-1.6,12.9-4.1,18.1-8.8c0.1-0.1,0.2-0.1,0.4-0.2c0,26.6,0,53.1,0,79.6c5.5,0,10.9,0,16.4,0c0-39.5,0-78.9,0-118.4
		c16.7,0,33.3,0,49.9,0c0-1,0-1.9,0-2.9c-0.4,0-0.8,0-1.2,0c-18.1,0-36.1,0-54.2,0c-0.9,0-1.3-0.2-1.5-1.1
		c-0.9-3.7-2.4-7.1-4.4-10.3c-4.3-6.6-10.5-10.9-17.7-13.7c-5.2-2-10.7-3.2-16.3-3.6c-4.6-0.3-9.2-0.5-13.8,0.1
		c-7.6,1.1-13.6,4.8-17.9,11.1c-5,7.3-7.8,15.6-9.7,24.1c-0.5,2.2-0.8,4.5-1.2,6.7c0,0-0.1,0-0.1,0c0-13.3,0-26.5,0-39.8
		c0,0,0,0-0.1,0c-6,4.6-11.5,9.8-16.3,15.6c0,35.3,0,70.5,0,105.7C100.9,241,106.4,241,111.9,241z M111.8,186.7
		c0.3-5.4,0.7-10.9,1.3-16.3c0.9-7.7,2.4-15.3,4.5-22.8c1.3-4.7,2.8-9.3,5.1-13.6c3.2-5.8,7.6-10.4,14.1-12.5c2.6-0.8,5.3-1.3,8-1.5
		c5.6-0.3,11.1,0,16.4,1.9c6.7,2.4,10.9,7.3,13.2,13.8c1.1,3,1.6,6.2,2.3,9.3c0.1,0.2,0,0.5,0,0.9c-14.4,0-28.8,0-43.3,0
		c0,1,0,1.9,0,2.9c14.5,0,29,0,43.6,0c0.1,0.3,0.1,0.5,0.1,0.6c0.5,8.2,0.4,16.3-1.6,24.3c-1.1,4.5-2.9,8.8-5.9,12.5
		c-3.5,4.4-8.2,7-13.6,8.3c-3.2,0.7-6.6,1.3-9.9,1.3l-34.4,0.1C111.8,192.9,111.7,189.8,111.8,186.7z"/>
</g>
<g>
	<text transform="matrix(1 0 0 1 343.1682 194.5671)" class="st3 st4">Paola Torres </text>
	<text transform="matrix(1 0 0 1 348.2504 232.7609)" class="st5 st6">Graphic Deginer </text>
</g>
<text transform="matrix(1 0 0 1 787.5568 208.9143)" class="st7 st8">WELCOME TO MY PORTFOLIO </text>
<line class="st9" x1="658" y1="76.4" x2="658" y2="323.6"/>
</svg>
